<svg xmlns="http://www.w3.org/2000/svg" width="85" height="85" viewBox="0 0 85 85">
  <g id="Grupo_1100313" data-name="Grupo 1100313" transform="translate(-495 -2627)">
    <circle id="Elipse_11574" data-name="Elipse 11574" cx="42.5" cy="42.5" r="42.5" transform="translate(495 2627)" fill="#00ffdf"/>
    <g id="XMLID_1348_" transform="translate(510.929 2642.928)">
      <g id="XMLID_1737_" transform="translate(43.581 7.487)">
        <g id="XMLID_1738_">
          <path id="XMLID_919_" d="M420.987,74.219a1.038,1.038,0,1,1,.734-.3A1.046,1.046,0,0,1,420.987,74.219Z" transform="translate(-419.949 -72.143)" fill="#0b47db"/>
        </g>
      </g>
      <g id="XMLID_1551_" transform="translate(-0.001 0)">
        <path id="XMLID_918_" d="M26.57,53.145a26.552,26.552,0,0,1-15.382-4.9L4.331,50.084A1.038,1.038,0,0,1,3.06,48.813L4.9,41.955A26.572,26.572,0,0,1,41.62,4.681,1.038,1.038,0,0,1,40.442,6.39,24.5,24.5,0,0,0,6.862,41.129a1.038,1.038,0,0,1,.168.886l-1.5,5.6,5.6-1.5a1.039,1.039,0,0,1,.886.168A24.5,24.5,0,0,0,46.754,12.7a1.038,1.038,0,0,1,1.709-1.178A26.572,26.572,0,0,1,28.431,53.08q-.931.065-1.861.065Z" transform="translate(0.001 0)" fill="#0b47db"/>
      </g>
      <g id="XMLID_1295_" transform="translate(16.338 9.523)">
        <g id="XMLID_2108_">
          <g id="XMLID_2110_">
            <path id="XMLID_915_" d="M167.5,116.951a3.269,3.269,0,0,1-3.272-3.263,9,9,0,0,1,5-8.066,3.884,3.884,0,0,0,2.129-3.645,4.1,4.1,0,0,0-3.676-3.676,3.879,3.879,0,0,0-3.851,2.615,3.3,3.3,0,0,1-3.076,2.259h-.033a3.29,3.29,0,0,1-2.647-1.343,3.2,3.2,0,0,1-.47-2.913,10.406,10.406,0,1,1,14.563,12.54,2.5,2.5,0,0,0-1.4,2.228A3.266,3.266,0,0,1,167.5,116.951Zm-.007-20.731q.142,0,.285.007a6.133,6.133,0,0,1,5.654,5.654,5.962,5.962,0,0,1-3.269,5.595,6.934,6.934,0,0,0-3.859,6.212,1.192,1.192,0,0,0,2.384,0,4.563,4.563,0,0,1,2.547-4.082,8.349,8.349,0,0,0,4.579-7.834,8.333,8.333,0,0,0-16.235-2.209,1.144,1.144,0,0,0,.171,1.042,1.193,1.193,0,0,0,.972.494s.008,0,.013,0a1.224,1.224,0,0,0,1.131-.85,5.958,5.958,0,0,1,1.526-2.385,5.892,5.892,0,0,1,4.1-1.645Z" transform="translate(-157.441 -91.761)" fill="#0b47db"/>
          </g>
        </g>
        <g id="XMLID_2161_" transform="translate(6.785 27.574)">
          <path id="XMLID_912_" d="M226.088,363.992a3.267,3.267,0,1,1,3.267-3.267A3.271,3.271,0,0,1,226.088,363.992Zm0-4.459a1.192,1.192,0,1,0,1.192,1.192A1.193,1.193,0,0,0,226.088,359.533Z" transform="translate(-222.821 -357.457)" fill="#0b47db"/>
        </g>
      </g>
    </g>
  </g>
</svg>
