<svg xmlns="http://www.w3.org/2000/svg" width="85" height="85" viewBox="0 0 85 85">
  <g id="Grupo_1100314" data-name="Grupo 1100314" transform="translate(-495 -2526)">
    <circle id="Elipse_11573" data-name="Elipse 11573" cx="42.5" cy="42.5" r="42.5" transform="translate(495 2526)" fill="#00ffdf"/>
    <g id="Grupo_1100312" data-name="Grupo 1100312" transform="translate(495.303 2540.164)">
      <g id="Grupo_1100311" data-name="Grupo 1100311" transform="translate(15.625 0)">
        <g id="Grupo_1100310" data-name="Grupo 1100310" transform="translate(0 0)">
          <path id="Trazado_875705" data-name="Trazado 875705" d="M145.173,92.215l-1.7-3.862c-.1-.229-.212-.456-.332-.674a5.906,5.906,0,0,0-7.537-2.567l-.654.285-.836-1.9h0l-.616-1.4a4.868,4.868,0,0,0-6.434-2.491l-2.171.94a4.063,4.063,0,0,0-1.458-1.3,4.8,4.8,0,0,0-4.247.154l-1.553.683L115.626,75.5A5.837,5.837,0,0,0,111.458,72a5.276,5.276,0,0,0-4.686,1.3,5.85,5.85,0,0,0-1.335,6.649l7.616,17.435a8.974,8.974,0,0,0-1.992-.171,6.936,6.936,0,0,0-4.431,1.557,1.129,1.129,0,0,0-.2.161,5.088,5.088,0,0,0-1.528,3.861,7.293,7.293,0,0,0,2.936,5.069l.028.023,15.656,12.322a1.129,1.129,0,0,0,1.153.146l22.429-9.86a1.129,1.129,0,0,0,.672-.963l.122-1.954A33.191,33.191,0,0,0,145.173,92.215Zm.477,15.22-.079,1.268-21.179,9.311-15.109-11.892a5.213,5.213,0,0,1-2.12-3.443,2.782,2.782,0,0,1,.737-2,1.144,1.144,0,0,0,.109-.1c1.351-1.392,4.722-1.488,6.482-.2l3.889,3.735a1.129,1.129,0,1,0,1.564-1.628l-3.784-3.634-8.653-19.807a3.577,3.577,0,0,1,.826-4.109,3.059,3.059,0,0,1,2.685-.721,3.567,3.567,0,0,1,2.543,2.2l6.555,14.91a1.129,1.129,0,0,0,2.067-.909l-3.635-8.269,1.553-.683a2.717,2.717,0,0,1,2.3-.216,2.323,2.323,0,0,1,.978,1.191l3.865,8.793a1.129,1.129,0,1,0,2.067-.909L125.9,82.568l2.068-.9.013-.006A2.61,2.61,0,0,1,131.434,83l4.593,10.45a1.129,1.129,0,0,0,2.067-.909l-2.233-5.079.646-.281a3.627,3.627,0,0,1,4.656,1.58c.088.162.171.329.245.5l1.7,3.862A30.927,30.927,0,0,1,145.65,107.434Z" transform="translate(-94.822 -63.775)" fill="#0b47db"/>
          <path id="Trazado_875706" data-name="Trazado 875706" d="M412.5,383.325l-1.114.488a1.129,1.129,0,1,0,.907,2.068l1.114-.488a1.129,1.129,0,1,0-.907-2.068Z" transform="translate(-366.108 -339.966)" fill="#0b47db"/>
          <path id="Trazado_875707" data-name="Trazado 875707" d="M288,401l-11.894,5.217a1.129,1.129,0,1,0,.907,2.068l11.894-5.217A1.129,1.129,0,1,0,288,401Z" transform="translate(-246.101 -355.647)" fill="#0b47db"/>
          <path id="Trazado_875708" data-name="Trazado 875708" d="M120.755,5.1a1.129,1.129,0,1,0,2.211-.457L122.193.9a1.129,1.129,0,1,0-2.211.457Z" transform="translate(-108.18 0)" fill="#0b47db"/>
          <path id="Trazado_875709" data-name="Trazado 875709" d="M18.493,29.575a1.129,1.129,0,0,0-.365-1.554l-.78-.483a1.129,1.129,0,0,0-1.189,1.92l.78.483a1.129,1.129,0,0,0,1.554-.365Z" transform="translate(-15.625 -24.279)" fill="#0b47db"/>
          <path id="Trazado_875710" data-name="Trazado 875710" d="M56.457,55.961l2.408,1.584a1.129,1.129,0,1,0,1.241-1.886L57.7,54.075a1.129,1.129,0,1,0-1.241,1.886Z" transform="translate(-51.396 -47.805)" fill="#0b47db"/>
          <path id="Trazado_875711" data-name="Trazado 875711" d="M39.632,128.413a1.129,1.129,0,0,0-1.334-.877l-3.745.773a1.129,1.129,0,0,0,.227,2.235,1.141,1.141,0,0,0,.23-.023l3.745-.773A1.129,1.129,0,0,0,39.632,128.413Z" transform="translate(-31.617 -113.117)" fill="#0b47db"/>
          <path id="Trazado_875712" data-name="Trazado 875712" d="M81.516,185.521a1.129,1.129,0,0,0-1.564.323l-2.1,3.2a1.129,1.129,0,1,0,1.886,1.241l2.1-3.195A1.129,1.129,0,0,0,81.516,185.521Z" transform="translate(-70.661 -164.412)" fill="#0b47db"/>
          <path id="Trazado_875713" data-name="Trazado 875713" d="M221.17,90.461a1.129,1.129,0,0,0,1.1.9,1.142,1.142,0,0,0,.23-.023l2.5-.516a1.129,1.129,0,1,0-.457-2.211l-2.5.516A1.129,1.129,0,0,0,221.17,90.461Z" transform="translate(-197.944 -78.587)" fill="#0b47db"/>
          <path id="Trazado_875714" data-name="Trazado 875714" d="M284.476,81.3a1.141,1.141,0,0,0,.229-.023l.78-.161a1.129,1.129,0,0,0-.457-2.211l-.78.161a1.129,1.129,0,0,0,.227,2.235Z" transform="translate(-253.124 -69.979)" fill="#0b47db"/>
          <path id="Trazado_875715" data-name="Trazado 875715" d="M186.91,20.592a1.129,1.129,0,0,0,1.564-.323l2.1-3.195a1.129,1.129,0,1,0-1.886-1.241l-2.1,3.195A1.129,1.129,0,0,0,186.91,20.592Z" transform="translate(-167.121 -13.594)" fill="#0b47db"/>
        </g>
      </g>
    </g>
  </g>
</svg>
