<svg id="Grupo_1100262" data-name="Grupo 1100262" xmlns="http://www.w3.org/2000/svg" xmlns:xlink="http://www.w3.org/1999/xlink" width="400" height="260.363" viewBox="0 0 400 260.363">
  <defs>
    <clipPath id="clip-path">
      <rect id="Rect치ngulo_401695" data-name="Rect치ngulo 401695" width="400" height="260.3" fill="none"/>
    </clipPath>
    <clipPath id="clip-path-2">
      <rect id="Rect치ngulo_401696" data-name="Rect치ngulo 401696" width="256.666" height="257.28" fill="none"/>
    </clipPath>
  </defs>
  <g id="Grupo_1100259" data-name="Grupo 1100259">
    <g id="Grupo_1100258" data-name="Grupo 1100258" clip-path="url(#clip-path)">
      <path id="Trazado_875377" data-name="Trazado 875377" d="M35.3,148.8H31.674a31.674,31.674,0,1,1,0-63.348H42.8A12.367,12.367,0,0,0,55.128,73.12h0A12.368,12.368,0,0,0,42.8,60.787H34.623a8.51,8.51,0,1,1,0-17.021H57.862a13.372,13.372,0,0,0,0-26.745H48.508A8.511,8.511,0,0,1,48.508,0H357.686a11.139,11.139,0,0,1,11.1,11.1h0a11.14,11.14,0,0,1-11.1,11.1h-1.579a17.45,17.45,0,0,0,0,34.9h7.665a11.105,11.105,0,1,1,0,22.21H350.761a16.091,16.091,0,1,0,0,32.182h16.023a31.674,31.674,0,0,1,0,63.347h-7.35A12.368,12.368,0,0,0,347.1,187.181h0a12.368,12.368,0,0,0,12.332,12.331h8.172a8.51,8.51,0,1,1,0,17.021h-4.39a13.372,13.372,0,1,0,0,26.745h4.645a8.511,8.511,0,1,1,0,17.022H18.185a11.141,11.141,0,0,1-11.1-11.106h0a11.139,11.139,0,0,1,11.1-11.1h12.63a17.45,17.45,0,0,0,0-34.9H26.656a11.1,11.1,0,0,1,0-22.21H37.322a16.091,16.091,0,0,0,0-32.181Zm356.191,50.714A8.511,8.511,0,1,0,400,208.023a8.511,8.511,0,0,0-8.509-8.511M386.1,22.21A11.105,11.105,0,1,0,375,11.106,11.105,11.105,0,0,0,386.1,22.21M10.741,60.787a8.51,8.51,0,1,0-8.51-8.51,8.51,8.51,0,0,0,8.51,8.51" fill="#5da8b0" fill-rule="evenodd"/>
      <path id="Trazado_875378" data-name="Trazado 875378" d="M312.545,36.094h.084a9.452,9.452,0,0,1,17.682-6.608A7.463,7.463,0,0,1,340.951,36.1c.076,0,.155-.007.233-.007a4.149,4.149,0,1,1,0,8.3H329.816a.388.388,0,0,0,.388-.387V38.519h2.322a.379.379,0,0,0,.352-.229.375.375,0,0,0-.063-.415l-5.66-6.4a.389.389,0,0,0-.581,0l-5.658,6.4a.387.387,0,0,0,.29.644h2.32v5.486a.389.389,0,0,0,.388.387H312.545a4.149,4.149,0,0,1,0-8.3" transform="translate(-118.577 -9.159)" fill="#fff" fill-rule="evenodd"/>
      <path id="Trazado_875379" data-name="Trazado 875379" d="M518.3,384.518a14.3,14.3,0,1,1,14.3-14.3,14.321,14.321,0,0,1-14.3,14.3m0-27.3a12.995,12.995,0,1,0,12.995,12.995A13.009,13.009,0,0,0,518.3,357.219" transform="translate(-193.783 -136.846)" fill="#291f5c"/>
      <path id="Trazado_875380" data-name="Trazado 875380" d="M521.072,384.518c-5.438,0-9.862-6.417-9.862-14.3s4.424-14.3,9.862-14.3,9.862,6.417,9.862,14.3-4.424,14.3-9.862,14.3m0-27.3c-4.717,0-8.553,5.829-8.553,12.995s3.836,13,8.553,13,8.553-5.829,8.553-13-3.836-12.995-8.553-12.995" transform="translate(-196.558 -136.846)" fill="#291f5c"/>
      <path id="Trazado_875381" data-name="Trazado 875381" d="M531.947,379.4h-27.3a.655.655,0,0,1,0-1.309h27.3a.655.655,0,0,1,0,1.309" transform="translate(-193.783 -145.372)" fill="#291f5c"/>
      <path id="Trazado_875382" data-name="Trazado 875382" d="M524.625,384.518c-2.741,0-4.176-7.2-4.176-14.3s1.435-14.3,4.176-14.3,4.175,7.2,4.175,14.3-1.434,14.3-4.175,14.3m0-27.3c-.973,0-2.866,4.586-2.866,12.995s1.893,13,2.866,13,2.866-4.587,2.866-13-1.893-12.995-2.866-12.995" transform="translate(-200.11 -136.846)" fill="#291f5c"/>
      <path id="Trazado_875383" data-name="Trazado 875383" d="M196.05,240.15a8.111,8.111,0,0,1,1.18.489l.841-.841a.862.862,0,0,1,1.216,0l2.336,2.337a.861.861,0,0,1,0,1.214l-.841.841a8.119,8.119,0,0,1,.489,1.181h1.189a.862.862,0,0,1,.859.859v3.3a.862.862,0,0,1-.859.86h-1.189a8.119,8.119,0,0,1-.489,1.181l.841.841a.862.862,0,0,1,0,1.216l-2.336,2.336a.862.862,0,0,1-1.216,0l-.841-.842a8.049,8.049,0,0,1-1.18.491v1.189a.861.861,0,0,1-.859.858h-3.3a.861.861,0,0,1-.859-.858v-1.189a8.049,8.049,0,0,1-1.18-.491l-.842.842a.862.862,0,0,1-1.215,0l-2.336-2.336a.862.862,0,0,1,0-1.216l.841-.841a7.983,7.983,0,0,1-.489-1.181h-1.19a.862.862,0,0,1-.859-.86v-3.3a.862.862,0,0,1,.859-.859h1.19a8.174,8.174,0,0,1,.489-1.181l-.841-.841a.861.861,0,0,1,0-1.214l2.336-2.337a.861.861,0,0,1,1.215,0l.842.841a8.111,8.111,0,0,1,1.18-.489v-1.19a.861.861,0,0,1,.859-.859h3.3a.861.861,0,0,1,.859.859Zm-2.511,2.445a5.287,5.287,0,1,0,5.287,5.287,5.287,5.287,0,0,0-5.287-5.287" transform="translate(-70.654 -91.549)" fill="#fff" fill-rule="evenodd"/>
      <path id="Trazado_875384" data-name="Trazado 875384" d="M138.941,225.395h-6.7a2.4,2.4,0,0,1-2.4-2.4v-1.943a17.242,17.242,0,0,1-1.608-.667l-1.374,1.374a2.4,2.4,0,0,1-3.388,0l-4.736-4.736a2.4,2.4,0,0,1,0-3.388l1.374-1.375a17.246,17.246,0,0,1-.667-1.606h-1.942a2.4,2.4,0,0,1-2.4-2.4v-6.7a2.4,2.4,0,0,1,2.4-2.4h1.942a17.1,17.1,0,0,1,.667-1.608l-1.373-1.374a2.4,2.4,0,0,1,0-3.388l4.736-4.736a2.4,2.4,0,0,1,3.388,0l1.374,1.374a17.109,17.109,0,0,1,1.608-.667v-1.943a2.4,2.4,0,0,1,2.4-2.4h6.7a2.4,2.4,0,0,1,2.4,2.4v1.943a17,17,0,0,1,1.608.667l1.374-1.374a2.4,2.4,0,0,1,3.388,0l4.736,4.736a2.4,2.4,0,0,1,0,3.388l-1.374,1.374a16.913,16.913,0,0,1,.667,1.608h1.942a2.4,2.4,0,0,1,2.4,2.4v6.7a2.4,2.4,0,0,1-2.4,2.4h-1.942a17.081,17.081,0,0,1-.667,1.606l1.374,1.374a2.4,2.4,0,0,1,0,3.388l-4.737,4.737a2.4,2.4,0,0,1-3.388,0l-1.374-1.375a17.059,17.059,0,0,1-1.607.667V223a2.4,2.4,0,0,1-2.4,2.4m-10.833-6.454a.655.655,0,0,1,.3.071,15.527,15.527,0,0,0,2.3.952.655.655,0,0,1,.452.623V223a1.088,1.088,0,0,0,1.088,1.087h6.7A1.088,1.088,0,0,0,140.028,223v-2.412a.655.655,0,0,1,.453-.623,15.443,15.443,0,0,0,2.3-.953.655.655,0,0,1,.761.121l1.706,1.707a1.087,1.087,0,0,0,1.537,0l4.736-4.736a1.09,1.09,0,0,0,0-1.538l-1.706-1.706a.655.655,0,0,1-.12-.761,15.726,15.726,0,0,0,.953-2.3.654.654,0,0,1,.622-.453h2.41a1.088,1.088,0,0,0,1.087-1.087v-6.7a1.088,1.088,0,0,0-1.087-1.087h-2.41a.654.654,0,0,1-.622-.452,15.847,15.847,0,0,0-.953-2.3.654.654,0,0,1,.12-.76l1.7-1.7a1.089,1.089,0,0,0,0-1.538l-4.736-4.736a1.088,1.088,0,0,0-1.538,0l-1.7,1.706a.655.655,0,0,1-.76.12,15.907,15.907,0,0,0-2.3-.953.654.654,0,0,1-.452-.622v-2.411a1.088,1.088,0,0,0-1.087-1.087h-6.7a1.089,1.089,0,0,0-1.088,1.087v2.411a.654.654,0,0,1-.452.622,15.772,15.772,0,0,0-2.3.953.654.654,0,0,1-.761-.12l-1.706-1.706a1.089,1.089,0,0,0-1.538,0l-4.736,4.736a1.09,1.09,0,0,0,0,1.538l1.706,1.7a.654.654,0,0,1,.12.76,15.833,15.833,0,0,0-.953,2.3.654.654,0,0,1-.622.452h-2.41a1.088,1.088,0,0,0-1.087,1.087v6.7a1.088,1.088,0,0,0,1.087,1.087h2.41a.654.654,0,0,1,.622.452,15.712,15.712,0,0,0,.953,2.3.654.654,0,0,1-.12.76l-1.7,1.706a1.089,1.089,0,0,0,0,1.538l4.736,4.736a1.088,1.088,0,0,0,1.538,0l1.706-1.706a.654.654,0,0,1,.463-.192m7.483-2.655a11.372,11.372,0,1,1,11.372-11.373,11.385,11.385,0,0,1-11.372,11.373m0-21.436a10.063,10.063,0,1,0,10.064,10.062,10.074,10.074,0,0,0-10.064-10.062" transform="translate(-44.259 -70.913)" fill="#fff"/>
      <path id="Trazado_875385" data-name="Trazado 875385" d="M95.82,302.593v1.646a.763.763,0,0,1-1.27.572l-5.693-5.036a.767.767,0,0,1,0-1.145l5.693-5.036a.763.763,0,0,1,1.27.572v1.646h40.808a.765.765,0,0,1,.764.765v5.251a.765.765,0,0,1-.764.764Z" transform="translate(-34.066 -112.811)" fill="#291f5c" fill-rule="evenodd"/>
      <path id="Trazado_875386" data-name="Trazado 875386" d="M582.136,221.053h0a4.958,4.958,0,0,1,6.99,0l.71.709.708-.709a4.944,4.944,0,0,1,6.992,6.992l-7.7,7.7-7.7-7.7a4.958,4.958,0,0,1,0-6.992" transform="translate(-223.274 -84.44)" fill="#fff" fill-rule="evenodd"/>
      <path id="Trazado_875387" data-name="Trazado 875387" d="M583.183,240.146a19.792,19.792,0,1,1,19.793-19.792,19.815,19.815,0,0,1-19.793,19.792m0-38.275a18.483,18.483,0,1,0,18.484,18.484,18.5,18.5,0,0,0-18.484-18.484" transform="translate(-216.621 -77.115)" fill="#fff"/>
      <path id="Trazado_875388" data-name="Trazado 875388" d="M203.728,15.363h26.2a5.664,5.664,0,1,1,0,11.329h.565a2.655,2.655,0,0,0,0,5.311h13.765a5.681,5.681,0,0,1,5.664,5.664h0a5.681,5.681,0,0,1-5.664,5.664h-26.2a5.681,5.681,0,0,1-5.664-5.664h0A5.682,5.682,0,0,1,218.058,32h.043a2.655,2.655,0,1,0,0-5.311H203.728a5.664,5.664,0,0,1,0-11.329" transform="translate(-76.155 -5.907)" fill="#4a8298" fill-rule="evenodd"/>
      <path id="Trazado_875389" data-name="Trazado 875389" d="M433.626,352.082h31.013a6.706,6.706,0,0,0,0-13.411h.669a3.143,3.143,0,1,1,0-6.286H481.6a6.705,6.705,0,1,0,0-13.41H450.589a6.705,6.705,0,1,0,0,13.41h.05a3.143,3.143,0,0,1,0,6.286H433.626a6.706,6.706,0,1,0,0,13.411" transform="translate(-164.149 -122.644)" fill="#4a8298" fill-rule="evenodd"/>
      <path id="Trazado_875390" data-name="Trazado 875390" d="M411.054,141.863h45.4a9.817,9.817,0,1,1,0,19.634h.98a4.616,4.616,0,0,0-4.6,4.6h0a4.615,4.615,0,0,0,4.6,4.6h23.854a9.817,9.817,0,1,1,0,19.633h-45.4a9.817,9.817,0,1,1,0-19.633h.073a4.615,4.615,0,0,0,4.6-4.6h0a4.615,4.615,0,0,0-4.6-4.6H411.054a9.817,9.817,0,0,1,0-19.634" transform="translate(-154.274 -54.546)" fill="#4a8298" fill-rule="evenodd"/>
      <path id="Trazado_875391" data-name="Trazado 875391" d="M24.5,162.711H50.7a5.664,5.664,0,1,1,0,11.329h.565a2.655,2.655,0,0,0,0,5.311H65.025a5.665,5.665,0,0,1,0,11.33h-26.2a5.665,5.665,0,0,1,0-11.33h.044a2.655,2.655,0,0,0,0-5.311H24.5a5.664,5.664,0,1,1,0-11.329" transform="translate(-7.241 -62.562)" fill="#4a8298" fill-rule="evenodd"/>
      <path id="Trazado_875392" data-name="Trazado 875392" d="M495.443,225.711H483.407a1.2,1.2,0,0,0,0,2.39h12.036a1.2,1.2,0,0,0,0-2.39m-16.943,0h-2.861a1.2,1.2,0,0,0,0,2.39H478.5a1.2,1.2,0,0,0,0-2.39m9.175,5.548H475.639a1.2,1.2,0,0,0,0,2.39h12.036a1.2,1.2,0,0,0,0-2.39" transform="translate(-182.422 -86.785)" fill="#fff" fill-rule="evenodd"/>
      <path id="Trazado_875393" data-name="Trazado 875393" d="M78.584,392.257h0a1.112,1.112,0,0,1,1.109,1.109v5.259a1.109,1.109,0,0,1-2.219,0v-5.259a1.113,1.113,0,0,1,1.11-1.109" transform="translate(-29.788 -150.821)" fill="#fff" fill-rule="evenodd"/>
      <path id="Trazado_875394" data-name="Trazado 875394" d="M80.68,397.637h0a1.111,1.111,0,0,1-1.109,1.109H74.312a1.111,1.111,0,0,1-1.108-1.109h0a1.112,1.112,0,0,1,1.108-1.109h5.259a1.112,1.112,0,0,1,1.109,1.109" transform="translate(-28.147 -152.463)" fill="#fff" fill-rule="evenodd"/>
      <path id="Trazado_875395" data-name="Trazado 875395" d="M100.961,154.072h0a1.112,1.112,0,0,1,1.109,1.109v5.259a1.109,1.109,0,0,1-2.218,0v-5.259a1.112,1.112,0,0,1,1.109-1.109" transform="translate(-38.393 -59.24)" fill="#fff" fill-rule="evenodd"/>
      <path id="Trazado_875396" data-name="Trazado 875396" d="M103.058,159.452h0a1.113,1.113,0,0,1-1.109,1.109H96.69a1.113,1.113,0,0,1-1.109-1.109h0a1.113,1.113,0,0,1,1.109-1.109h5.259a1.113,1.113,0,0,1,1.109,1.109" transform="translate(-36.75 -60.882)" fill="#fff" fill-rule="evenodd"/>
      <path id="Trazado_875397" data-name="Trazado 875397" d="M527.506,117.951h0a1.112,1.112,0,0,1,1.108,1.109v5.259a1.109,1.109,0,0,1-2.219,0V119.06a1.113,1.113,0,0,1,1.11-1.109" transform="translate(-202.397 -45.352)" fill="#fff" fill-rule="evenodd"/>
      <path id="Trazado_875398" data-name="Trazado 875398" d="M529.6,123.332h0a1.113,1.113,0,0,1-1.109,1.109h-5.26a1.109,1.109,0,0,1,0-2.218h5.26a1.113,1.113,0,0,1,1.109,1.109" transform="translate(-200.755 -46.994)" fill="#fff" fill-rule="evenodd"/>
      <path id="Trazado_875399" data-name="Trazado 875399" d="M551.517,326.552h0a1.111,1.111,0,0,1,1.109,1.109v5.26a1.109,1.109,0,0,1-2.218,0v-5.26a1.112,1.112,0,0,1,1.109-1.109" transform="translate(-211.629 -125.558)" fill="#fff" fill-rule="evenodd"/>
      <path id="Trazado_875400" data-name="Trazado 875400" d="M553.612,331.932h0a1.112,1.112,0,0,1-1.109,1.11h-5.258a1.109,1.109,0,0,1,0-2.218H552.5a1.111,1.111,0,0,1,1.109,1.109" transform="translate(-209.987 -127.2)" fill="#fff" fill-rule="evenodd"/>
      <path id="Trazado_875401" data-name="Trazado 875401" d="M398.564,36.195h0a1.112,1.112,0,0,1,1.109,1.109v5.259a1.112,1.112,0,0,1-1.109,1.109h0a1.112,1.112,0,0,1-1.109-1.109V37.3a1.112,1.112,0,0,1,1.109-1.109" transform="translate(-152.82 -13.917)" fill="#fff" fill-rule="evenodd"/>
      <path id="Trazado_875402" data-name="Trazado 875402" d="M400.66,41.576h0a1.113,1.113,0,0,1-1.11,1.109h-5.258a1.112,1.112,0,0,1-1.109-1.109h0a1.112,1.112,0,0,1,1.109-1.109h5.258a1.112,1.112,0,0,1,1.11,1.109" transform="translate(-151.177 -15.559)" fill="#fff" fill-rule="evenodd"/>
      <path id="Trazado_875403" data-name="Trazado 875403" d="M229.606,189.9h0a1.113,1.113,0,0,1,1.109,1.109v5.259a1.112,1.112,0,0,1-1.109,1.109h0a1.112,1.112,0,0,1-1.109-1.109v-5.259a1.112,1.112,0,0,1,1.109-1.109" transform="translate(-87.856 -73.016)" fill="#fff" fill-rule="evenodd"/>
      <path id="Trazado_875404" data-name="Trazado 875404" d="M231.7,195.281h0a1.113,1.113,0,0,1-1.109,1.11h-5.259a1.109,1.109,0,0,1,0-2.219h5.259a1.112,1.112,0,0,1,1.109,1.109" transform="translate(-86.213 -74.658)" fill="#fff" fill-rule="evenodd"/>
      <path id="Trazado_875405" data-name="Trazado 875405" d="M133.011,275.172h12.035a1.2,1.2,0,0,1,1.195,1.2h0a1.2,1.2,0,0,1-1.195,1.193H133.011a1.2,1.2,0,0,1-1.2-1.193h0a1.2,1.2,0,0,1,1.2-1.2m16.942,0h2.86a1.2,1.2,0,0,1,1.195,1.2h0a1.2,1.2,0,0,1-1.195,1.193h-2.86a1.2,1.2,0,0,1-1.195-1.193h0a1.2,1.2,0,0,1,1.195-1.2m-9.175,5.549h12.035a1.194,1.194,0,1,1,0,2.389H140.778a1.194,1.194,0,1,1,0-2.389" transform="translate(-50.683 -105.802)" fill="#fff" fill-rule="evenodd"/>
      <path id="Trazado_875406" data-name="Trazado 875406" d="M475.275,123.791v1.646a.764.764,0,0,0,1.27.573l5.693-5.037a.767.767,0,0,0,0-1.145l-5.693-5.037a.764.764,0,0,0-1.27.573v1.646H439.161a.764.764,0,0,0-.763.765v5.251a.764.764,0,0,0,.763.764Z" transform="translate(-168.562 -44.063)" fill="#291f5c" fill-rule="evenodd"/>
      <path id="Trazado_875407" data-name="Trazado 875407" d="M355.494,68.094h-.873a.436.436,0,1,1,0-.872h.873a.436.436,0,1,1,0,.872m-3.49,0h-.872a.436.436,0,1,1,0-.872H352a.436.436,0,1,1,0,.872m-3.489,0h-.872a.436.436,0,1,1,0-.872h.872a.436.436,0,1,1,0,.872m-3.489,0h-.873a.436.436,0,1,1,0-.872h.873a.436.436,0,1,1,0,.872m-3.49,0h-.872a.436.436,0,1,1,0-.872h.872a.436.436,0,1,1,0,.872m-3.489,0h-.872a.436.436,0,1,1,0-.872h.872a.436.436,0,1,1,0,.872m-3.489,0h-.873a.436.436,0,1,1,0-.872h.873a.436.436,0,1,1,0,.872m-3.49,0h-.872a.436.436,0,1,1,0-.872h.872a.436.436,0,1,1,0,.872m-3.489,0h-.872a.436.436,0,1,1,0-.872h.872a.436.436,0,1,1,0,.872m-3.489,0h-.873a.436.436,0,1,1,0-.872h.873a.436.436,0,1,1,0,.872m-3.49,0h-.872a.436.436,0,1,1,0-.872h.872a.436.436,0,1,1,0,.872m-3.489,0h-.872a.436.436,0,1,1,0-.872h.872a.436.436,0,1,1,0,.872m-3.49,0h-.872a.436.436,0,1,1,0-.872h.872a.436.436,0,1,1,0,.872m-3.489,0h-.872a.436.436,0,1,1,0-.872h.872a.436.436,0,1,1,0,.872m-3.489,0h-.873a.436.436,0,1,1,0-.872h.873a.436.436,0,1,1,0,.872m-3.49,0h-.872a.436.436,0,1,1,0-.872h.872a.436.436,0,1,1,0,.872m-3.489,0h-.872a.436.436,0,1,1,0-.872h.872a.436.436,0,1,1,0,.872m-3.49,0H295.3a.436.436,0,0,1,0-.872h.872a.436.436,0,1,1,0,.872m-3.489,0h-.872a.436.436,0,1,1,0-.872h.872a.436.436,0,1,1,0,.872m-3.489,0h-.873a.436.436,0,0,1,0-.872h.873a.436.436,0,0,1,0,.872m-3.49,0h-.872a.436.436,0,0,1,0-.872h.872a.436.436,0,1,1,0,.872m-3.489,0h-.872a.436.436,0,0,1,0-.872h.872a.436.436,0,1,1,0,.872m-3.489,0h-.872a.436.436,0,1,1,0-.872h.872a.436.436,0,1,1,0,.872m-3.489,0h-.873a.436.436,0,0,1,0-.872h.873a.436.436,0,0,1,0,.872m-3.49,0h-.872a.436.436,0,0,1,0-.872h.872a.436.436,0,1,1,0,.872m-3.489,0h-.872a.436.436,0,1,1,0-.872h.872a.436.436,0,1,1,0,.872m-3.489,0h-.873a.436.436,0,0,1,0-.872h.873a.436.436,0,0,1,0,.872m-3.49,0H260.4a.436.436,0,1,1,0-.872h.872a.436.436,0,1,1,0,.872m-3.489,0h-.872a.436.436,0,1,1,0-.872h.872a.436.436,0,0,1,0,.872m-3.489,0h-.872a.436.436,0,1,1,0-.872h.872a.436.436,0,0,1,0,.872" transform="translate(-97.273 -25.847)" fill="#291f5c"/>
      <path id="Trazado_875408" data-name="Trazado 875408" d="M199.377,211.245a.436.436,0,0,1-.436-.436V210.5a.436.436,0,1,1,.872,0v.311a.436.436,0,0,1-.436.436m0-2.928a.436.436,0,0,1-.436-.436v-.873a.436.436,0,1,1,.872,0v.873a.436.436,0,0,1-.436.436m0-3.49a.435.435,0,0,1-.436-.436v-.872a.436.436,0,1,1,.872,0v.872a.435.435,0,0,1-.436.436m0-3.489a.436.436,0,0,1-.436-.436v-.872a.436.436,0,1,1,.872,0v.872a.436.436,0,0,1-.436.436m0-3.49a.436.436,0,0,1-.436-.436v-.872a.436.436,0,1,1,.872,0v.872a.436.436,0,0,1-.436.436m0-3.49a.435.435,0,0,1-.436-.436v-.872a.436.436,0,1,1,.872,0v.872a.435.435,0,0,1-.436.436m0-3.489a.435.435,0,0,1-.436-.436v-.873a.436.436,0,0,1,.872,0v.873a.435.435,0,0,1-.436.436m0-3.489a.436.436,0,0,1-.436-.436v-.872a.436.436,0,1,1,.872,0v.872a.436.436,0,0,1-.436.436m0-3.49a.435.435,0,0,1-.436-.436v-.873a.436.436,0,0,1,.872,0v.873a.435.435,0,0,1-.436.436m0-3.489a.436.436,0,0,1-.436-.436v-.872a.436.436,0,0,1,.872,0v.872a.436.436,0,0,1-.436.436m0-3.489a.435.435,0,0,1-.436-.436V175.6a.436.436,0,0,1,.872,0v.873a.435.435,0,0,1-.436.436" transform="translate(-76.492 -67.351)" fill="#291f5c"/>
      <path id="Trazado_875409" data-name="Trazado 875409" d="M506.529,254.955h-.873a.436.436,0,0,1,0-.873h.873a.436.436,0,1,1,0,.873m-3.489,0h-.872a.436.436,0,1,1,0-.873h.872a.436.436,0,1,1,0,.873m6.108-.01a.436.436,0,0,1-.034-.871c.172-.015.456-.045.825-.113a.436.436,0,1,1,.156.859c-.4.073-.718.107-.91.123l-.036,0m3.369-.89a.436.436,0,0,1-.177-.835c.246-.11.5-.233.751-.371a.436.436,0,1,1,.418.766c-.274.15-.547.284-.814.4a.43.43,0,0,1-.177.038m2.887-1.928a.437.437,0,0,1-.3-.751q.293-.282.572-.6a.436.436,0,1,1,.66.57c-.2.23-.409.453-.627.662a.437.437,0,0,1-.3.122m2.026-2.813a.431.431,0,0,1-.189-.044.435.435,0,0,1-.2-.582q.177-.367.336-.768a.436.436,0,1,1,.811.319c-.114.289-.235.564-.363.828a.436.436,0,0,1-.393.246M518.474,246a.47.47,0,0,1-.077-.007.438.438,0,0,1-.354-.507q.073-.4.124-.836a.436.436,0,1,1,.867.1q-.054.456-.13.887a.438.438,0,0,1-.429.36m.383-5.331a.489.489,0,0,1-.052,0,.436.436,0,0,1-.382-.484c.036-.3.08-.6.13-.886a.436.436,0,1,1,.859.153c-.048.27-.089.549-.123.836a.436.436,0,0,1-.433.385m.821-3.374a.429.429,0,0,1-.16-.031.436.436,0,0,1-.246-.566c.113-.289.234-.564.362-.828a.436.436,0,1,1,.785.38q-.178.367-.336.768a.436.436,0,0,1-.406.276m1.776-2.978a.437.437,0,0,1-.33-.721c.2-.23.409-.452.627-.662a.436.436,0,1,1,.6.628c-.195.188-.386.388-.571.6a.434.434,0,0,1-.331.151m2.705-2.173a.436.436,0,0,1-.21-.819c.275-.15.548-.284.814-.4a.436.436,0,0,1,.355.8c-.247.11-.5.233-.751.372a.442.442,0,0,1-.209.054m3.282-1.159a.436.436,0,0,1-.078-.865c.4-.073.718-.108.911-.123a.436.436,0,0,1,.071.869c-.173.014-.456.045-.825.112a.433.433,0,0,1-.079.007m7.849-.129h-.872a.436.436,0,1,1,0-.873h.872a.436.436,0,1,1,0,.873m-3.489,0h-.873a.436.436,0,1,1,0-.873h.873a.436.436,0,0,1,0,.873" transform="translate(-192.913 -88.428)" fill="#291f5c"/>
      <path id="Trazado_875410" data-name="Trazado 875410" d="M493.712,76.148H436.156A4.357,4.357,0,0,1,431.8,71.8v-36.2a4.357,4.357,0,0,1,4.352-4.353h57.556a4.358,4.358,0,0,1,4.353,4.353V71.8a4.358,4.358,0,0,1-4.353,4.352m-57.556-43.6a3.047,3.047,0,0,0-3.042,3.044V71.8a3.046,3.046,0,0,0,3.042,3.044h57.556a3.047,3.047,0,0,0,3.044-3.044v-36.2a3.047,3.047,0,0,0-3.044-3.044Z" transform="translate(-166.027 -12.012)" fill="#291f5c"/>
      <path id="Trazado_875411" data-name="Trazado 875411" d="M430.111,23.5H486.36a3.71,3.71,0,0,1,3.7,3.7V63.4a3.71,3.71,0,0,1-3.7,3.7H430.111a3.71,3.71,0,0,1-3.7-3.7V27.2a3.708,3.708,0,0,1,3.7-3.7" transform="translate(-163.954 -9.037)" fill="#fff" fill-rule="evenodd"/>
      <path id="Trazado_875412" data-name="Trazado 875412" d="M430.111,23.5H486.36a3.71,3.71,0,0,1,3.7,3.7v6.233H426.414V27.2a3.708,3.708,0,0,1,3.7-3.7" transform="translate(-163.954 -9.037)" fill="#c84058" fill-rule="evenodd"/>
      <path id="Trazado_875413" data-name="Trazado 875413" d="M433.194,31.942a.993.993,0,1,0-.993-.993.995.995,0,0,0,.993.993" transform="translate(-166.179 -11.518)" fill="#fff" fill-rule="evenodd"/>
      <path id="Trazado_875414" data-name="Trazado 875414" d="M440.6,31.942a.993.993,0,1,0-.993-.993,1,1,0,0,0,.993.993" transform="translate(-169.027 -11.518)" fill="#fff" fill-rule="evenodd"/>
      <path id="Trazado_875415" data-name="Trazado 875415" d="M448.01,31.942a.993.993,0,1,0-.993-.993,1,1,0,0,0,.993.993" transform="translate(-171.876 -11.518)" fill="#fff" fill-rule="evenodd"/>
      <path id="Trazado_875416" data-name="Trazado 875416" d="M518.957,28.214h-5.732a.436.436,0,1,1,0-.872h5.732a.436.436,0,1,1,0,.872" transform="translate(-197.165 -10.513)" fill="#fff"/>
      <path id="Trazado_875417" data-name="Trazado 875417" d="M518.957,31.734h-5.732a.436.436,0,1,1,0-.872h5.732a.436.436,0,1,1,0,.872" transform="translate(-197.165 -11.866)" fill="#fff"/>
      <path id="Trazado_875418" data-name="Trazado 875418" d="M518.957,35.253h-5.732a.436.436,0,1,1,0-.872h5.732a.436.436,0,1,1,0,.872" transform="translate(-197.165 -13.219)" fill="#fff"/>
      <path id="Trazado_875419" data-name="Trazado 875419" d="M434.792,43.3h19.917a2.688,2.688,0,0,1,2.68,2.68v22.9a2.688,2.688,0,0,1-2.68,2.68H434.792a2.687,2.687,0,0,1-2.68-2.68v-22.9a2.687,2.687,0,0,1,2.68-2.68" transform="translate(-166.145 -16.649)" fill="#f0c937" fill-rule="evenodd"/>
      <path id="Trazado_875420" data-name="Trazado 875420" d="M450.792,75.447V73.4a2.673,2.673,0,0,1-1.4-.828,2.087,2.087,0,0,1-.446-1.349,1.905,1.905,0,0,1,.5-1.349,2.021,2.021,0,0,1,1.342-.63V68.76h.714v.482a2.131,2.131,0,0,1,1.246.532,2.057,2.057,0,0,1,.59,1.174l-1.245.161a1,1,0,0,0-.591-.783v1.913a3.175,3.175,0,0,1,1.608.823,1.942,1.942,0,0,1,.43,1.3,2.161,2.161,0,0,1-.539,1.493,2.428,2.428,0,0,1-1.5.756v.914h-.714v-.9A2.275,2.275,0,0,1,449.421,76a2.568,2.568,0,0,1-.677-1.483l1.275-.151a1.62,1.62,0,0,0,.295.675,1.358,1.358,0,0,0,.479.41m0-5.141a.905.905,0,0,0-.454.338.861.861,0,0,0-.169.518.834.834,0,0,0,.153.482,1.052,1.052,0,0,0,.47.359Zm.714,5.221a1.062,1.062,0,0,0,.6-.351.948.948,0,0,0,.233-.64.861.861,0,0,0-.2-.564,1.231,1.231,0,0,0-.636-.365Z" transform="translate(-172.54 -26.438)" fill="#291f5c" fill-rule="evenodd"/>
      <path id="Trazado_875421" data-name="Trazado 875421" d="M441.652,78.838c-.894,0-2.573-.642-2.855-3.138-.218-1.938-.867-6.833-1.235-9.578l1.3-.174c.369,2.751,1.019,7.656,1.239,9.606s1.46,1.977,1.615,1.975h10.243c.159,0,1.417-.033,1.636-1.975.234-2.074.945-7.408,1.239-9.6l1.3.174c-.295,2.193-1,7.516-1.235,9.578-.292,2.575-2.059,3.172-2.967,3.136H441.734l-.082,0" transform="translate(-168.24 -25.357)" fill="#291f5c"/>
      <path id="Trazado_875422" data-name="Trazado 875422" d="M455.039,63.5H436.6a1.7,1.7,0,0,1-1.7-1.7V59.348a1.7,1.7,0,0,1,1.7-1.7h18.437a1.706,1.706,0,0,1,1.7,1.7v2.446a1.706,1.706,0,0,1-1.7,1.7M436.6,58.955a.394.394,0,0,0-.393.394v2.446a.394.394,0,0,0,.393.394h18.437a.4.4,0,0,0,.4-.394V59.348a.4.4,0,0,0-.4-.394Z" transform="translate(-167.217 -22.165)" fill="#291f5c"/>
      <path id="Trazado_875423" data-name="Trazado 875423" d="M454.856,54.331a.654.654,0,0,1-.654-.654v-.419a6.329,6.329,0,0,0-12.658,0v.419a.655.655,0,0,1-1.309,0v-.419a7.638,7.638,0,0,1,15.276,0v.419a.654.654,0,0,1-.654.654" transform="translate(-169.268 -17.541)" fill="#291f5c"/>
      <path id="Trazado_875424" data-name="Trazado 875424" d="M508.942,51.909H487.9a.654.654,0,1,1,0-1.309h21.04a.654.654,0,1,1,0,1.309" transform="translate(-187.345 -19.455)" fill="#291f5c"/>
      <path id="Trazado_875425" data-name="Trazado 875425" d="M504.877,65.767H487.9a.654.654,0,1,1,0-1.309h16.974a.654.654,0,0,1,0,1.309" transform="translate(-187.345 -24.784)" fill="#291f5c"/>
      <path id="Trazado_875426" data-name="Trazado 875426" d="M523.2,65.767h-1.744a.654.654,0,1,1,0-1.309H523.2a.654.654,0,1,1,0,1.309" transform="translate(-200.244 -24.784)" fill="#291f5c"/>
      <path id="Trazado_875427" data-name="Trazado 875427" d="M507.645,79.625H487.9a.654.654,0,1,1,0-1.309h19.742a.654.654,0,0,1,0,1.309" transform="translate(-187.345 -30.112)" fill="#291f5c"/>
      <path id="Trazado_875428" data-name="Trazado 875428" d="M196.612,118.4H137.3a4.993,4.993,0,0,1-4.987-4.987V39.747A4.993,4.993,0,0,1,137.3,34.76h59.311a4.993,4.993,0,0,1,4.987,4.987V113.41a4.993,4.993,0,0,1-4.987,4.987M137.3,36.069a3.683,3.683,0,0,0-3.679,3.678V113.41a3.683,3.683,0,0,0,3.679,3.679h59.311a3.683,3.683,0,0,0,3.679-3.679V39.747a3.683,3.683,0,0,0-3.679-3.678Z" transform="translate(-50.874 -13.365)" fill="#291f5c"/>
      <path id="Trazado_875429" data-name="Trazado 875429" d="M129.2,28.783h59.313a4.345,4.345,0,0,1,4.332,4.333V106.78a4.345,4.345,0,0,1-4.332,4.333H129.2a4.345,4.345,0,0,1-4.333-4.333V33.116a4.345,4.345,0,0,1,4.333-4.333" transform="translate(-48.012 -11.067)" fill="#fff" fill-rule="evenodd"/>
      <path id="Trazado_875430" data-name="Trazado 875430" d="M129.2,28.783h59.313a4.345,4.345,0,0,1,4.332,4.333v5.6H124.869v-5.6a4.345,4.345,0,0,1,4.333-4.333" transform="translate(-48.012 -11.067)" fill="#291f5c" fill-rule="evenodd"/>
      <path id="Trazado_875431" data-name="Trazado 875431" d="M131.65,37.223a.993.993,0,1,0-.993-.993,1,1,0,0,0,.993.993" transform="translate(-50.237 -13.548)" fill="#fff" fill-rule="evenodd"/>
      <path id="Trazado_875432" data-name="Trazado 875432" d="M139.057,37.223a.993.993,0,1,0-.993-.993,1,1,0,0,0,.993.993" transform="translate(-53.085 -13.548)" fill="#fff" fill-rule="evenodd"/>
      <path id="Trazado_875433" data-name="Trazado 875433" d="M146.465,37.223a.993.993,0,1,0-.993-.993,1,1,0,0,0,.993.993" transform="translate(-55.933 -13.548)" fill="#fff" fill-rule="evenodd"/>
      <path id="Trazado_875434" data-name="Trazado 875434" d="M224.813,33.494H219.08a.436.436,0,1,1,0-.872h5.733a.436.436,0,0,1,0,.872" transform="translate(-84.068 -12.543)" fill="#fff"/>
      <path id="Trazado_875435" data-name="Trazado 875435" d="M224.813,37.013H219.08a.436.436,0,1,1,0-.872h5.733a.436.436,0,0,1,0,.872" transform="translate(-84.068 -13.896)" fill="#fff"/>
      <path id="Trazado_875436" data-name="Trazado 875436" d="M224.813,40.533H219.08a.436.436,0,1,1,0-.872h5.733a.436.436,0,0,1,0,.872" transform="translate(-84.068 -15.249)" fill="#fff"/>
      <path id="Trazado_875437" data-name="Trazado 875437" d="M133.546,52.1h55.077a2.9,2.9,0,0,1,2.888,2.888V97.782a2.9,2.9,0,0,1-2.888,2.888H133.546a2.9,2.9,0,0,1-2.888-2.888V54.991a2.9,2.9,0,0,1,2.888-2.888" transform="translate(-50.237 -20.033)" fill="#c84058" fill-rule="evenodd"/>
      <path id="Trazado_875438" data-name="Trazado 875438" d="M158.179,113.245a5.116,5.116,0,0,1-5.111-5.111V97.656a.654.654,0,0,1,1.309,0v10.477a3.8,3.8,0,1,0,7.6,0V97.656a.654.654,0,1,1,1.309,0v10.477a5.117,5.117,0,0,1-5.111,5.111" transform="translate(-58.854 -37.297)" fill="#fff"/>
      <path id="Trazado_875439" data-name="Trazado 875439" d="M142.988,86.262h-3.472a2.626,2.626,0,0,1-2.623-2.623V76.116a2.626,2.626,0,0,1,2.623-2.623h3.472a.654.654,0,0,1,0,1.309h-3.472a1.316,1.316,0,0,0-1.314,1.314v7.523a1.316,1.316,0,0,0,1.314,1.315h3.472a.654.654,0,0,1,0,1.309" transform="translate(-52.635 -28.258)" fill="#fff"/>
      <path id="Trazado_875440" data-name="Trazado 875440" d="M193.561,89.443a2.919,2.919,0,0,1-.471-.035.654.654,0,0,1-.107-.028l-18.089-6.431a.655.655,0,0,1,.438-1.233l18.027,6.41a1.4,1.4,0,0,0,.947-.2c.059-.05.239-.2.239-.7V61.935c0-.493-.18-.646-.239-.7a1.4,1.4,0,0,0-.948-.2l-18.026,6.409a.655.655,0,0,1-.438-1.233l18.089-6.431a.654.654,0,0,1,.107-.028,2.711,2.711,0,0,1,2.056.479,2.107,2.107,0,0,1,.708,1.7V87.23a2.1,2.1,0,0,1-.708,1.7,2.458,2.458,0,0,1-1.585.515" transform="translate(-67.079 -22.962)" fill="#fff"/>
      <path id="Trazado_875441" data-name="Trazado 875441" d="M162.362,87.391H148.355a2.625,2.625,0,0,1-2.623-2.622V71.224a2.625,2.625,0,0,1,2.623-2.621h14.007a2.625,2.625,0,0,1,2.622,2.621V84.769a2.625,2.625,0,0,1-2.622,2.622m-14.007-17.48a1.315,1.315,0,0,0-1.314,1.313V84.769a1.315,1.315,0,0,0,1.314,1.313h14.007a1.315,1.315,0,0,0,1.313-1.313V71.224a1.315,1.315,0,0,0-1.313-1.313Z" transform="translate(-56.033 -26.378)" fill="#fff"/>
      <path id="Trazado_875442" data-name="Trazado 875442" d="M219.5,84.111h-3.7a.654.654,0,1,1,0-1.309h3.7a.654.654,0,0,1,0,1.309" transform="translate(-82.722 -31.837)" fill="#fff"/>
      <path id="Trazado_875443" data-name="Trazado 875443" d="M213.368,70.369a.654.654,0,0,1-.327-1.221l3.208-1.852a.654.654,0,0,1,.654,1.133l-3.208,1.851a.648.648,0,0,1-.326.088" transform="translate(-81.787 -25.841)" fill="#fff"/>
      <path id="Trazado_875444" data-name="Trazado 875444" d="M216.575,98.548a.648.648,0,0,1-.326-.088l-3.208-1.851a.654.654,0,0,1,.654-1.133l3.208,1.852a.654.654,0,0,1-.327,1.221" transform="translate(-81.787 -36.676)" fill="#fff"/>
      <path id="Trazado_875445" data-name="Trazado 875445" d="M131.319,137.267h0a2.272,2.272,0,0,1,3.2,0l.325.325.325-.325a2.266,2.266,0,0,1,3.2,3.2L134.848,144l-3.529-3.529a2.272,2.272,0,0,1,0-3.2" transform="translate(-50.237 -52.524)" fill="#f0c937" fill-rule="evenodd"/>
      <path id="Trazado_875446" data-name="Trazado 875446" d="M148.357,137.267h0a2.272,2.272,0,0,1,3.2,0l.325.325.326-.325a2.266,2.266,0,0,1,3.2,3.2L151.886,144l-3.529-3.529a2.273,2.273,0,0,1,0-3.2" transform="translate(-56.788 -52.524)" fill="#f0c937" fill-rule="evenodd"/>
      <path id="Trazado_875447" data-name="Trazado 875447" d="M165.394,137.267h0a2.273,2.273,0,0,1,3.2,0l.325.325.325-.325a2.266,2.266,0,0,1,3.2,3.2L168.924,144l-3.53-3.529a2.273,2.273,0,0,1,0-3.2" transform="translate(-63.339 -52.524)" fill="#f0c937" fill-rule="evenodd"/>
      <path id="Trazado_875448" data-name="Trazado 875448" d="M182.432,137.267h0a2.273,2.273,0,0,1,3.2,0l.325.325.324-.325a2.266,2.266,0,0,1,3.2,3.2L185.962,144l-3.53-3.529a2.272,2.272,0,0,1,0-3.2" transform="translate(-69.89 -52.524)" fill="#f0c937" fill-rule="evenodd"/>
      <path id="Trazado_875449" data-name="Trazado 875449" d="M202.862,144.083a.217.217,0,0,1-.154-.064l-3.53-3.529a2.484,2.484,0,0,1,3.513-3.513l.171.171.171-.171a2.484,2.484,0,0,1,3.513,3.513l-3.53,3.529a.214.214,0,0,1-.154.064m-3.376-6.8a2.052,2.052,0,0,0,0,2.9l3.376,3.375,3.375-3.375a2.055,2.055,0,0,0,0-2.9,2.1,2.1,0,0,0-2.9,0l-.326.325a.217.217,0,0,1-.308,0l-.325-.325a2.052,2.052,0,0,0-2.9,0" transform="translate(-76.304 -52.388)" fill="#f0c937"/>
      <path id="Trazado_875450" data-name="Trazado 875450" d="M219.9,144.083a.219.219,0,0,1-.154-.064l-3.529-3.529a2.484,2.484,0,0,1,3.513-3.513l.171.171.17-.171a2.484,2.484,0,0,1,3.513,3.513l-3.529,3.529a.219.219,0,0,1-.154.064m-1.927-7.4a2.048,2.048,0,0,0-1.448,3.494l3.375,3.375,3.375-3.375a2.054,2.054,0,0,0,0-2.9,2.105,2.105,0,0,0-2.9,0l-.324.326a.225.225,0,0,1-.308,0l-.325-.326a2.035,2.035,0,0,0-1.448-.6m-1.6.443h0Z" transform="translate(-82.856 -52.387)" fill="#f0c937"/>
    </g>
  </g>
  <g id="Grupo_1100261" data-name="Grupo 1100261" transform="translate(59.664 3.083)">
    <g id="Grupo_1100260" data-name="Grupo 1100260" clip-path="url(#clip-path-2)">
      <path id="Trazado_875451" data-name="Trazado 875451" d="M431.061,338.725H368.143l-4.312,101.209h73.724Z" transform="translate(-199.555 -133.321)" fill="#e7c5d2" fill-rule="evenodd"/>
      <path id="Trazado_875452" data-name="Trazado 875452" d="M400.694,95.446s-12.516,3.127-12.516,19.457,1.745,19.805,3.83,26.581,2.605,9.207,2.605,9.207-.608,17.634-.868,19.632-7.992,10.423-15.289,33.355,5.908,54.55,27.1,63.237,31.618-7.992,30.229-25.364-7.644-64.8-7.644-64.8a68.657,68.657,0,0,0-4.691-14.592c-3.648-8.338-8.512-30.228-9.729-34.4s-5.818-14.245-7.209-21.629-2.346-11.291-5.821-10.685" transform="translate(-204.401 -39.758)" fill="#e7c5d2" fill-rule="evenodd"/>
      <path id="Trazado_875453" data-name="Trazado 875453" d="M329.486,321.078s11.118,36.309,34.4,42.215,33.7-13.551,33.7-13.551-34.919-35.093-68.1-28.664" transform="translate(-186.35 -126.233)" fill="#e7c5d2" fill-rule="evenodd"/>
      <path id="Trazado_875454" data-name="Trazado 875454" d="M422.469,366.268a29.269,29.269,0,0,1-11.029-2.4c-7.3-2.994-13.946-8.768-19.209-16.7a.436.436,0,1,1,.728-.482c5.165,7.784,11.671,13.446,18.812,16.374,11.626,4.762,21.224,2.119,26.333-7.254a.436.436,0,0,1,.766.417c-3.609,6.622-9.34,10.044-16.4,10.044" transform="translate(-210.447 -136.307)" fill="#d38bac"/>
      <path id="Trazado_875455" data-name="Trazado 875455" d="M381.745,302.462v-16.9l-13.562-.844L359.7,296.639Z" transform="translate(-197.967 -112.557)" fill="#cce3e6" fill-rule="evenodd"/>
      <path id="Trazado_875456" data-name="Trazado 875456" d="M323.653,322.167a7.411,7.411,0,1,0,7.411,7.411,7.412,7.412,0,0,0-7.411-7.411" transform="translate(-181.257 -126.955)" fill="#cce3e6" fill-rule="evenodd"/>
      <path id="Trazado_875457" data-name="Trazado 875457" d="M334.6,77.842H270.264a9.242,9.242,0,0,0-9.214,9.215V237.691a9.241,9.241,0,0,0,9.214,9.213H334.6a9.24,9.24,0,0,0,9.214-9.213V87.057a9.243,9.243,0,0,0-9.214-9.215" transform="translate(-160.036 -33.013)" fill="#fff" fill-rule="evenodd"/>
      <path id="Trazado_875458" data-name="Trazado 875458" d="M326.767,101.989a.822.822,0,1,0,0-1.643H313.247a.822.822,0,1,0,0,1.643Zm4.357,0a.822.822,0,1,0,0-1.643h-1a.822.822,0,0,0,0,1.643Z" transform="translate(-179.79 -41.666)" fill="#cce3e6" fill-rule="evenodd"/>
      <path id="Trazado_875459" data-name="Trazado 875459" d="M339.857,115.065H272.516a1.708,1.708,0,0,0-1.7,1.7V236.6a1.708,1.708,0,0,0,1.7,1.7h67.341a1.709,1.709,0,0,0,1.7-1.7V116.767a1.708,1.708,0,0,0-1.7-1.7" transform="translate(-163.79 -47.325)" fill="#291f5c" fill-rule="evenodd"/>
      <path id="Trazado_875460" data-name="Trazado 875460" d="M280.306,123.491H338.7a2.289,2.289,0,0,1,2.282,2.282v8.54A2.289,2.289,0,0,1,338.7,136.6h-58.39a2.29,2.29,0,0,1-2.283-2.282v-8.54a2.29,2.29,0,0,1,2.283-2.282" transform="translate(-166.562 -50.565)" fill="#fff" fill-rule="evenodd"/>
      <path id="Trazado_875461" data-name="Trazado 875461" d="M361.47,123.491h8.463a2.268,2.268,0,0,1,2.261,2.262v8.58a2.267,2.267,0,0,1-2.261,2.262H361.47a2.269,2.269,0,0,1-2.263-2.262v-8.58a2.269,2.269,0,0,1,2.263-2.262" transform="translate(-197.777 -50.565)" fill="#c84058" fill-rule="evenodd"/>
      <path id="Trazado_875462" data-name="Trazado 875462" d="M363.418,127.8a3.867,3.867,0,0,1,1.264-.846,3.906,3.906,0,0,1,5.1,2.109v.006a3.9,3.9,0,0,1-.661,4.049l.313.314a.544.544,0,0,1,.527.141l1.276,1.273a.546.546,0,0,1-.773.772l-1.274-1.273a.546.546,0,0,1-.141-.527l-.315-.314a3.885,3.885,0,0,1-1.064.66h-.006a3.9,3.9,0,0,1-4.248-6.366m2.759-.419a3.172,3.172,0,0,0-1.217.241l-.006,0A3.174,3.174,0,0,0,363,130.555a3.194,3.194,0,0,0,.241,1.218v0a3.184,3.184,0,0,0,4.153,1.714l.006,0a3.205,3.205,0,0,0,1.714-1.716,3.2,3.2,0,0,0,0-2.436l0,0a3.175,3.175,0,0,0-2.935-1.955" transform="translate(-198.957 -51.781)" fill="#fff" fill-rule="evenodd"/>
      <path id="Trazado_875463" data-name="Trazado 875463" d="M355.9,161.624h8.463a2.267,2.267,0,0,1,2.261,2.262v8.58a2.267,2.267,0,0,1-2.261,2.261H355.9a2.268,2.268,0,0,1-2.263-2.261v-8.58a2.269,2.269,0,0,1,2.263-2.262" transform="translate(-195.635 -65.227)" fill="#fff" fill-rule="evenodd"/>
      <path id="Trazado_875464" data-name="Trazado 875464" d="M355.9,195.466h8.463a2.268,2.268,0,0,1,2.261,2.263v8.58a2.267,2.267,0,0,1-2.261,2.261H355.9a2.268,2.268,0,0,1-2.263-2.261v-8.58a2.269,2.269,0,0,1,2.263-2.263" transform="translate(-195.635 -78.239)" fill="#5da8b0" fill-rule="evenodd"/>
      <path id="Trazado_875465" data-name="Trazado 875465" d="M323,168.3H287.072a.654.654,0,0,1,0-1.309H323a.654.654,0,1,1,0,1.309" transform="translate(-169.79 -67.289)" fill="#fff"/>
      <path id="Trazado_875466" data-name="Trazado 875466" d="M330.9,176.734h-23.29a.654.654,0,1,1,0-1.309H330.9a.654.654,0,1,1,0,1.309" transform="translate(-177.685 -70.533)" fill="#fff"/>
      <path id="Trazado_875467" data-name="Trazado 875467" d="M300.16,176.734h-2.528a.654.654,0,0,1,0-1.309h2.528a.654.654,0,1,1,0,1.309" transform="translate(-173.851 -70.533)" fill="#fff"/>
      <path id="Trazado_875468" data-name="Trazado 875468" d="M323,202.138H287.072a.654.654,0,0,1,0-1.309H323a.654.654,0,1,1,0,1.309" transform="translate(-169.79 -80.301)" fill="#fff"/>
      <path id="Trazado_875469" data-name="Trazado 875469" d="M330.9,210.576h-23.29a.654.654,0,1,1,0-1.309H330.9a.654.654,0,1,1,0,1.309" transform="translate(-177.685 -83.545)" fill="#fff"/>
      <path id="Trazado_875470" data-name="Trazado 875470" d="M300.16,210.576h-2.528a.654.654,0,0,1,0-1.309h2.528a.654.654,0,1,1,0,1.309" transform="translate(-173.851 -83.545)" fill="#fff"/>
      <path id="Trazado_875471" data-name="Trazado 875471" d="M292.959,223.27h42.913a5.28,5.28,0,0,1,5.263,5.266v9.331a5.279,5.279,0,0,1-5.263,5.264H292.959a5.281,5.281,0,0,1-5.265-5.264v-9.331a5.281,5.281,0,0,1,5.265-5.266" transform="translate(-170.281 -88.929)" fill="#c84058" fill-rule="evenodd"/>
      <path id="Trazado_875472" data-name="Trazado 875472" d="M414.353,95.446a12,12,0,0,0-1.946.74,2.046,2.046,0,0,0-.43,1.75c.13,1.26,3.17,12.552,4.3,14.376s5.556,2.317,5.95,1.289a58.114,58.114,0,0,1-2.051-7.47c-1.39-7.383-2.346-11.291-5.821-10.685" transform="translate(-218.059 -39.758)" fill="#f1dce3" fill-rule="evenodd"/>
      <path id="Trazado_875473" data-name="Trazado 875473" d="M408.3,185.617a15.887,15.887,0,0,1-2.684-.22.436.436,0,1,1,.161-.857,15.025,15.025,0,0,0,4.718.025.436.436,0,1,1,.153.859,13.464,13.464,0,0,1-2.348.194" transform="translate(-215.485 -74.035)" fill="#d38bac"/>
      <path id="Trazado_875474" data-name="Trazado 875474" d="M408.989,221.84a.438.438,0,0,1-.159-.03,8.83,8.83,0,0,1-4.953-4.8.436.436,0,0,1,.82-.3A8.1,8.1,0,0,0,409.148,221a.436.436,0,0,1-.159.843" transform="translate(-214.943 -86.298)" fill="#d38bac"/>
      <path id="Trazado_875475" data-name="Trazado 875475" d="M378.341,387.165c7.709,1.957,14.009,1.13,18.988-.849l-30.242,23.361,1.162-27.3a30.36,30.36,0,0,0,10.091,4.787" transform="translate(-200.808 -150.106)" fill="#d38bac" fill-rule="evenodd"/>
      <path id="Trazado_875476" data-name="Trazado 875476" d="M253.449,287.134s-8.523,3.215-10.26,5.126-2.431,6.514-1.477,10.075,6.6,7.3,12.422,9.99,12.686-7.4,7.211-13.734c0,0-5.279-4.943-7.9-5.984Z" transform="translate(-152.435 -113.485)" fill="#e7c5d2" fill-rule="evenodd"/>
      <path id="Trazado_875477" data-name="Trazado 875477" d="M261.837,308.322a4.389,4.389,0,0,1-.316,1.5c-.31.726-2.583,5.354-2.251,7.835,0,0,.072.5-.547.278s-6.762-3.9-6.762-3.9a3.4,3.4,0,0,1-1.023-1.523c-.164-.788-.952-5.642,3.6-6.807a3.436,3.436,0,0,1,1.337-.006c.714.145,5.538,2.178,5.538,2.178s.414.151.42.451" transform="translate(-156.089 -120.597)" fill="#f1dce3" fill-rule="evenodd"/>
      <path id="Trazado_875478" data-name="Trazado 875478" d="M251.572,252.559v6.95s10.848,5.818,13.714,10.075,2.519,11.9-.7,13.9-5.906,2.781-11.2.087-13.551-8.077-13.551-8.077a7.607,7.607,0,0,1-3.388-7.124c.521-4.776,4.169-14.419,15.125-15.809" transform="translate(-150.558 -100.191)" fill="#e7c5d2" fill-rule="evenodd"/>
      <path id="Trazado_875479" data-name="Trazado 875479" d="M269.539,282.626a5.35,5.35,0,0,1-.385,1.829c-.379.888-3.159,6.548-2.753,9.582,0,0,.089.606-.668.339s-9.064-5.248-9.064-5.248a4.154,4.154,0,0,1-1.251-1.862c-.2-.965-1.163-6.9,4.406-8.322a4.2,4.2,0,0,1,1.635-.009c.873.177,7.568,3.139,7.568,3.139s.5.183.513.551" transform="translate(-157.798 -110.303)" fill="#f1dce3" fill-rule="evenodd"/>
      <path id="Trazado_875480" data-name="Trazado 875480" d="M250.308,206.693,236.659,215.2s-2.693,1.3-3.388,5.733.782,8.6,6.254,13.464,9.382,8.253,13.812,8.948,7.3-5.039,7.036-10.685-3.974-10.858-10.065-15.548Z" transform="translate(-149.294 -82.556)" fill="#e7c5d2" fill-rule="evenodd"/>
      <path id="Trazado_875481" data-name="Trazado 875481" d="M260.63,240.289a5.726,5.726,0,0,1-.564,1.91c-.478.913-3.91,6.689-3.736,9.947,0,0,.043.651-.738.3s-9.186-6.342-9.186-6.342a4.435,4.435,0,0,1-1.173-2.085c-.13-1.042-.651-7.427,5.386-8.469a4.5,4.5,0,0,1,1.738.13c.912.26,7.774,3.974,7.774,3.974s.521.239.5.63" transform="translate(-153.928 -93.64)" fill="#f1dce3" fill-rule="evenodd"/>
      <path id="Trazado_875482" data-name="Trazado 875482" d="M252.955,170s-6.873,3.214-9.479,5.386-3.562,8.165-3.475,14.072,1.3,9.555,6.862,9.9,6.092-4.429,6.092-6.775Z" transform="translate(-151.941 -68.447)" fill="#e7c5d2" fill-rule="evenodd"/>
      <path id="Trazado_875483" data-name="Trazado 875483" d="M240.354,190.759a42.253,42.253,0,0,0-.353,6.328c.046,3.1.4,5.581,1.538,7.285-1.29-2.711,1.383-5.317,1.73-5.882s.3-1.259.087-4.169-.478-4.386-1.3-4.473-1.686.9-1.7.911" transform="translate(-151.941 -76.077)" fill="#f1dce3" fill-rule="evenodd"/>
      <path id="Trazado_875484" data-name="Trazado 875484" d="M253.324,206.693v10.424l-12.369-2.71,2.881-1.8a8.191,8.191,0,0,0,3.4.859c5.56.347,6.092-4.43,6.092-6.775" transform="translate(-152.31 -82.556)" fill="#d38bac" fill-rule="evenodd"/>
      <path id="Trazado_875485" data-name="Trazado 875485" d="M246.962,256.762a30.96,30.96,0,0,0,7.227,4.934,12.646,12.646,0,0,0,2.4.787c.867.508,1.906,1.136,3,1.838q.421.27.852.553l-.852-.232-5.4-1.475-10.982-3a16.336,16.336,0,0,1,3.755-3.409" transform="translate(-153.176 -101.807)" fill="#d38bac" fill-rule="evenodd"/>
      <path id="Trazado_875486" data-name="Trazado 875486" d="M259.44,301.093l-5.4-1.6-11.224-3.32a5.7,5.7,0,0,1,.964-1.554,8.239,8.239,0,0,1,1.866-1.344c2.356,1.476,5.579,3.444,8.394,4.986.63.346,1.238.67,1.814.961a17.729,17.729,0,0,0,3.588,1.419,9.138,9.138,0,0,0,2.494.31,8.539,8.539,0,0,1,.82,1.12Z" transform="translate(-153.025 -115.847)" fill="#d38bac" fill-rule="evenodd"/>
      <path id="Trazado_875487" data-name="Trazado 875487" d="M359.924,352.138h7.269a8.2,8.2,0,0,0,3.09-.6l-10.553,5.154-9.924,4.847a75.293,75.293,0,0,1-6.412-9.4Z" transform="translate(-191.697 -138.247)" fill="#d38bac" fill-rule="evenodd"/>
      <path id="Trazado_875488" data-name="Trazado 875488" d="M404.112,220.8l-8.6,63.165V226.994c3.177-5.915,5.428-8.8,5.567-9.858a8.37,8.37,0,0,0,3.03,3.664" transform="translate(-211.738 -86.571)" fill="#d38bac" fill-rule="evenodd"/>
      <path id="Trazado_875489" data-name="Trazado 875489" d="M236.1,226.723a17.237,17.237,0,0,1,2.829,13.015c-1.413,7.651-10.486,33.495-12.01,39.165s-6.718,24.591-7.385,28.683-6.217,34.135-6.365,40.51c0,0,.252,2.323,1.219,2.724s3.878,1.063,5.662-.381,11.747-21.883,12.263-22.684-3.725-25.864,3.471-34.912,12.729-4.782,14.365-2.3,6.591,36.057,7.169,39.967a23.624,23.624,0,0,1-2.6,14.361c-2.719,4.939-10.755,30.448-12.105,34.824-.973,3.148-6.869,10.5-13.145,16.649H102.841c2.855-5.571,4.861-10.275,5.411-13.161,1.636-8.593-4.876-55.19-3.752-64.795s14.432-31.355,16.659-33.5,12.17,1.291,14.637,2.016a4.138,4.138,0,0,1,2.946,2.741s13.557-12.075,16.42-13.587,9.108-2.25,12.5,2.876c0,0,8.295-7.758,10.688-9.382s12.269-4.806,18.823,6.388c0,0,9.4-21.173,11.61-24.04s15.439-22.7,17.121-24.219,6.331-3.839,10.2-.956" transform="translate(-99.206 -89.729)" fill="#e7c5d2" fill-rule="evenodd"/>
      <path id="Trazado_875490" data-name="Trazado 875490" d="M332.584,326.079a7.162,7.162,0,0,1,5.326,3.192c.722,1.1,2.093,8.261,3.449,16.257-2.116,2.337-8.15-.419-8.938-2.743-.966-2.853-1.151-12.719-1.31-14.419a2.269,2.269,0,0,1,1.473-2.287" transform="translate(-186.97 -128.459)" fill="#f1dce3" fill-rule="evenodd"/>
      <path id="Trazado_875491" data-name="Trazado 875491" d="M310.271,226.723h0l0,0a3.041,3.041,0,0,1,.237,2.5,36.23,36.23,0,0,1-1.978,4.741c-.4.694-.918.544-1.534.362-.566-.166-5.8-2.434-11.246-.865a64.312,64.312,0,0,1,4.32-5.782c1.681-1.52,6.331-3.839,10.2-.956" transform="translate(-173.379 -89.729)" fill="#f1dce3" fill-rule="evenodd"/>
      <path id="Trazado_875492" data-name="Trazado 875492" d="M312.914,390.609a.436.436,0,0,1-.248-.8,12.41,12.41,0,0,1,6-2.123h.084a.436.436,0,0,1-.006.873h-.078a11.715,11.715,0,0,0-5.508,1.968.434.434,0,0,1-.247.078" transform="translate(-179.81 -152.148)" fill="#d38bac"/>
      <path id="Trazado_875493" data-name="Trazado 875493" d="M290.528,276.989a.446.446,0,0,1-.094-.01c-.368-.08-9.036-1.993-10.956-3.582a.436.436,0,0,1,.556-.672c1.459,1.208,8.137,2.866,10.587,3.4a.436.436,0,0,1-.093.862" transform="translate(-167.061 -107.906)" fill="#d38bac"/>
      <path id="Trazado_875494" data-name="Trazado 875494" d="M288.3,270.977a.443.443,0,0,1-.119-.017,48.659,48.659,0,0,0-7.566-1.574.437.437,0,0,1-.428-.445.46.46,0,0,1,.444-.428c2.215.041,7.561,1.543,7.787,1.607a.436.436,0,0,1-.118.856" transform="translate(-167.395 -106.325)" fill="#d38bac"/>
      <path id="Trazado_875495" data-name="Trazado 875495" d="M231.53,329.057a.437.437,0,0,1-.23-.808c7.123-4.408,14.707-21,14.783-21.163a.436.436,0,1,1,.795.361c-.314.692-7.771,17-15.117,21.545a.437.437,0,0,1-.23.065" transform="translate(-148.518 -121.058)" fill="#d38bac"/>
      <path id="Trazado_875496" data-name="Trazado 875496" d="M178.909,329.171a.437.437,0,0,1-.281-.771c4.141-3.474,17.67-16.454,17.807-16.585a.436.436,0,0,1,.6.63c-.137.13-13.687,13.131-17.85,16.624a.436.436,0,0,1-.28.1" transform="translate(-128.286 -122.928)" fill="#d38bac"/>
      <path id="Trazado_875497" data-name="Trazado 875497" d="M140.057,346.019h-.016a.435.435,0,0,1-.42-.451,11.209,11.209,0,0,1,2.477-6.339l10.484-10.011a.436.436,0,0,1,.6.631l-10.456,9.98a10.543,10.543,0,0,0-2.237,5.769.437.437,0,0,1-.436.421" transform="translate(-113.347 -129.62)" fill="#d38bac"/>
      <path id="Trazado_875498" data-name="Trazado 875498" d="M152.879,334.354a.437.437,0,0,1-.431-.376,26.219,26.219,0,0,0-.817-4.213.446.446,0,0,1,.128-.6.427.427,0,0,1,.59.106,21.846,21.846,0,0,1,.964,4.588.437.437,0,0,1-.372.492.5.5,0,0,1-.061,0" transform="translate(-117.94 -129.616)" fill="#d38bac"/>
      <path id="Trazado_875499" data-name="Trazado 875499" d="M295.736,399.7a.428.428,0,0,1-.129-.02.436.436,0,0,1-.288-.545c.09-.292,9.156-29.488,12.14-34.906a23.183,23.183,0,0,0,2.552-14.086c-.963-6.522-3.4-22.731-5.293-32.475a.436.436,0,0,1,.856-.166c1.893,9.763,4.336,25.986,5.3,32.509a24.09,24.09,0,0,1-2.65,14.64c-2.942,5.344-11.981,34.451-12.071,34.742a.436.436,0,0,1-.417.308M250.3,295.942a.437.437,0,0,1-.377-.216c-2.278-3.893-5.168-6.374-8.587-7.376a.436.436,0,1,1,.245-.836c3.423,1,6.333,3.373,8.659,7.054,2.8-6.258,5.745-12.341,8.768-18.094a.436.436,0,0,1,.772.406c-3.137,5.968-6.193,12.293-9.083,18.8a.437.437,0,0,1-.374.259H250.3" transform="translate(-152.335 -109.297)" fill="#d38bac"/>
      <path id="Trazado_875500" data-name="Trazado 875500" d="M352.378,251.479h83.413a4.163,4.163,0,0,1,4.152,4.152v21.443a4.163,4.163,0,0,1-4.152,4.151H352.378a4.163,4.163,0,0,1-4.152-4.151V255.631a4.163,4.163,0,0,1,4.152-4.152" transform="translate(-193.555 -99.776)" fill="#fff" fill-rule="evenodd"/>
      <path id="Trazado_875501" data-name="Trazado 875501" d="M466.8,279.3a9.751,9.751,0,1,0-9.751-9.751A9.77,9.77,0,0,0,466.8,279.3" transform="translate(-235.395 -102.975)" fill="#c84058" fill-rule="evenodd"/>
      <path id="Trazado_875502" data-name="Trazado 875502" d="M464.63,274.2a1.023,1.023,0,1,1,1.448-1.446l2.154,2.153,4.765-6.97a1.022,1.022,0,0,1,1.688,1.152l-5.424,7.934a1.1,1.1,0,0,1-.156.2,1.028,1.028,0,0,1-1.45,0Z" transform="translate(-238.197 -105.933)" fill="#291f5c" fill-rule="evenodd"/>
      <path id="Trazado_875503" data-name="Trazado 875503" d="M412.2,270.051H362.21a.655.655,0,0,1,0-1.309H412.2a.655.655,0,0,1,0,1.309" transform="translate(-198.681 -106.413)" fill="#291f5c"/>
      <path id="Trazado_875504" data-name="Trazado 875504" d="M423.183,281.729H390.778a.655.655,0,1,1,0-1.309h32.405a.655.655,0,0,1,0,1.309" transform="translate(-209.664 -110.903)" fill="#291f5c"/>
      <path id="Trazado_875505" data-name="Trazado 875505" d="M380.418,281.729H376.9a.655.655,0,0,1,0-1.309h3.517a.655.655,0,0,1,0,1.309" transform="translate(-204.329 -110.903)" fill="#291f5c"/>
      <path id="Trazado_875506" data-name="Trazado 875506" d="M398.408,302.673l44.674,5.667c-.292-2.7-.615-5.57-.957-8.531H398.8Z" transform="translate(-212.85 -118.358)" fill="#d38bac" fill-rule="evenodd"/>
    </g>
  </g>
</svg>
