<svg xmlns="http://www.w3.org/2000/svg" width="70" height="70" viewBox="0 0 70 70">
  <g id="Grupo_1098913" data-name="Grupo 1098913" transform="translate(-195 -1219)">
    <circle id="Elipse_11440" data-name="Elipse 11440" cx="35" cy="35" r="35" transform="translate(195 1219)" fill="#00ffdf"/>
    <g id="Grupo_1100265" data-name="Grupo 1100265" transform="translate(204.245 1228.46)">
      <path id="Trazado_875507" data-name="Trazado 875507" d="M25.647,51.295A25.648,25.648,0,0,1,7.512,7.512,25.648,25.648,0,0,1,43.783,43.783a25.479,25.479,0,0,1-18.136,7.512Zm0-48.089A22.442,22.442,0,1,0,48.089,25.647,22.467,22.467,0,0,0,25.647,3.206Z" fill="#a854f3"/>
      <path id="Trazado_875508" data-name="Trazado 875508" d="M191.213,110.427a4.007,4.007,0,1,1,4.007-4.007,1.6,1.6,0,0,0,3.206,0,7.225,7.225,0,0,0-5.61-7.032V97.6a1.6,1.6,0,1,0-3.206,0v1.785a7.213,7.213,0,0,0,1.6,14.245,4.007,4.007,0,1,1-4.007,4.007,1.6,1.6,0,1,0-3.206,0,7.224,7.224,0,0,0,5.61,7.032v1.785a1.6,1.6,0,0,0,3.206,0v-1.785a7.213,7.213,0,0,0-1.6-14.245Z" transform="translate(-165.566 -86.382)" fill="#a854f3"/>
    </g>
  </g>
</svg>
