<svg xmlns="http://www.w3.org/2000/svg" width="70" height="70" viewBox="0 0 70 70">
  <g id="Grupo_1098914" data-name="Grupo 1098914" transform="translate(-615 -1219)">
    <circle id="Elipse_11440" data-name="Elipse 11440" cx="35" cy="35" r="35" transform="translate(615 1219)" fill="#00ffdf"/>
    <g id="Grupo_1100266" data-name="Grupo 1100266" transform="translate(628.464 1232.464)">
      <path id="Trazado_875509" data-name="Trazado 875509" d="M193.528,70.384a11.942,11.942,0,1,0-11.942-11.942A11.955,11.955,0,0,0,193.528,70.384Zm0-22.2a10.259,10.259,0,1,1-10.259,10.259A10.271,10.271,0,0,1,193.528,48.182Zm0,0" transform="translate(-166.31 -42.587)" fill="#a854f3" stroke="#a854f3" stroke-width="0.5"/>
      <path id="Trazado_875510" data-name="Trazado 875510" d="M27.093,31.958A15.994,15.994,0,1,0,13.911,25L11.3,27.612l-.356-.356a.841.841,0,0,0-1.19,0L1.257,35.751a4.289,4.289,0,1,0,6.065,6.065l8.495-8.494a.842.842,0,0,0,0-1.19l-.356-.356,2.614-2.614a15.887,15.887,0,0,0,9.019,2.8Zm0-30.274a14.3,14.3,0,1,1-14.3,14.3,14.312,14.312,0,0,1,14.3-14.3ZM6.132,40.626A2.606,2.606,0,1,1,2.446,36.94l7.9-7.9.356.356h0l3.33,3.33Zm8.139-10.04L12.487,28.8l2.457-2.457a16.159,16.159,0,0,0,1.784,1.784Zm0,0" fill="#a854f3" stroke="#a854f3" stroke-width="0.5"/>
      <path id="Trazado_875511" data-name="Trazado 875511" d="M280.15,112.507a.841.841,0,0,0,.841-.841,2.039,2.039,0,1,1,3.031,1.781,3.524,3.524,0,0,0-1.834,3.053v1.2a.841.841,0,1,0,1.682,0v-1.2a1.84,1.84,0,0,1,.973-1.584,3.721,3.721,0,1,0-5.535-3.25A.841.841,0,0,0,280.15,112.507Zm0,0" transform="translate(-255.812 -98.864)" fill="#a854f3" stroke="#a854f3" stroke-width="0.5"/>
      <path id="Trazado_875512" data-name="Trazado 875512" d="M314.38,252.891a.841.841,0,1,0,.595.246A.847.847,0,0,0,314.38,252.891Zm0,0" transform="translate(-287.163 -231.616)" fill="#a854f3" stroke="#a854f3" stroke-width="0.5"/>
    </g>
  </g>
</svg>
