<svg xmlns="http://www.w3.org/2000/svg" width="70" height="70" viewBox="0 0 70 70">
  <g id="Grupo_1098915" data-name="Grupo 1098915" transform="translate(-1035 -1219)">
    <circle id="Elipse_11440" data-name="Elipse 11440" cx="35" cy="35" r="35" transform="translate(1035 1219)" fill="#00ffdf"/>
    <g id="Grupo_1100275" data-name="Grupo 1100275" transform="translate(968.976 1230.371)">
      <g id="Grupo_1100268" data-name="Grupo 1100268" transform="translate(100.22 3.536)">
        <g id="Grupo_1100267" data-name="Grupo 1100267" transform="translate(0)">
          <path id="Trazado_875513" data-name="Trazado 875513" d="M247.791,40a.884.884,0,1,0,.877.891A.885.885,0,0,0,247.791,40Z" transform="translate(-246.9 -40.005)" fill="#a854f3"/>
        </g>
      </g>
      <g id="Grupo_1100270" data-name="Grupo 1100270" transform="translate(94.836 8.84)">
        <g id="Grupo_1100269" data-name="Grupo 1100269" transform="translate(0)">
          <path id="Trazado_875514" data-name="Trazado 875514" d="M192.233,100a6.188,6.188,0,0,0-.093,12.376h.047A6.188,6.188,0,0,0,192.233,100Zm-.046,10.608h-.034a4.42,4.42,0,0,1,.032-8.84h.034a4.42,4.42,0,0,1-.032,8.84Z" transform="translate(-185.999 -100.002)" fill="#a854f3"/>
        </g>
      </g>
      <g id="Grupo_1100272" data-name="Grupo 1100272" transform="translate(103.702 4.156)">
        <g id="Grupo_1100271" data-name="Grupo 1100271">
          <path id="Trazado_875515" data-name="Trazado 875515" d="M287.466,47.062a.884.884,0,1,0-.591,1.666,9.713,9.713,0,0,1,6.458,9.228.884.884,0,0,0,.877.891h.007a.884.884,0,0,0,.884-.877A11.482,11.482,0,0,0,287.466,47.062Z" transform="translate(-286.287 -47.011)" fill="#a854f3"/>
        </g>
      </g>
      <g id="Grupo_1100274" data-name="Grupo 1100274" transform="translate(85.996)">
        <g id="Grupo_1100273" data-name="Grupo 1100273">
          <path id="Trazado_875516" data-name="Trazado 875516" d="M106.448,33.277c5.88-7.568,9.554-11.515,9.6-18.136A15.028,15.028,0,1,0,86,14.915c-.051,6.8,3.692,10.742,9.612,18.36-5.89.88-9.612,3.092-9.612,5.8,0,1.812,1.675,3.438,4.716,4.578a30.412,30.412,0,0,0,10.312,1.61,30.412,30.412,0,0,0,10.312-1.61c3.041-1.14,4.716-2.766,4.716-4.578C116.052,36.369,112.332,34.158,106.448,33.277ZM87.765,14.929a13.26,13.26,0,1,1,26.519.2c-.047,6.288-3.944,10.163-10.165,18.273-1.11,1.446-2.129,2.813-3.093,4.15-.962-1.338-1.96-2.681-3.087-4.151C91.461,24.951,87.717,21.368,87.765,14.929Zm13.26,28.563c-7.589,0-13.26-2.333-13.26-4.42,0-1.547,3.39-3.5,9.09-4.179,1.26,1.653,2.365,3.155,3.448,4.689a.884.884,0,0,0,.721.374h0a.884.884,0,0,0,.721-.373c1.073-1.514,2.208-3.053,3.457-4.689,5.694.678,9.081,2.632,9.081,4.178C114.284,41.159,108.613,43.492,101.024,43.492Z" transform="translate(-85.996)" fill="#a854f3"/>
        </g>
      </g>
    </g>
  </g>
</svg>
