<svg xmlns="http://www.w3.org/2000/svg" width="70" height="70" viewBox="0 0 70 70">
  <g id="Grupo_1100286" data-name="Grupo 1100286" transform="translate(-515 -526)">
    <circle id="Elipse_11440" data-name="Elipse 11440" cx="35" cy="35" r="35" transform="translate(515 526)" fill="#00ffdf"/>
    <g id="_x31_1" transform="translate(526.507 537.378)">
      <path id="Trazado_875665" data-name="Trazado 875665" d="M40.982,2.616H6a3.5,3.5,0,0,0-3.5,3.5c0,6.561,0,24.127,0,28.319a3.5,3.5,0,0,0,3.5,3.5H25.365a.875.875,0,1,0,0-1.749H6A1.751,1.751,0,0,1,4.25,34.433V11.678H42.736V34.433a1.751,1.751,0,0,1-1.749,1.749h-3.63a.875.875,0,1,0,0,1.749h3.63a3.5,3.5,0,0,0,3.5-3.5V6.119a3.511,3.511,0,0,0-3.5-3.5ZM17.8,9.929H4.25V6.119A1.751,1.751,0,0,1,6,4.37H17.8Zm24.932,0H19.548V4.37H40.987a1.744,1.744,0,0,1,1.744,1.744Z" transform="translate(0)" fill="#a854f3"/>
      <path id="Trazado_875666" data-name="Trazado 875666" d="M8.011,8.545h.346a.875.875,0,0,0,0-1.749H8.011a.875.875,0,1,0,0,1.749Z" transform="translate(-0.581 -0.524)" fill="#a854f3"/>
      <path id="Trazado_875667" data-name="Trazado 875667" d="M11.922,8.545h.346a.875.875,0,0,0,0-1.749h-.346a.875.875,0,1,0,0,1.749Z" transform="translate(-1.071 -0.524)" fill="#a854f3"/>
      <path id="Trazado_875668" data-name="Trazado 875668" d="M15.832,8.545h.346a.875.875,0,0,0,0-1.749h-.346a.875.875,0,0,0,0,1.749Z" transform="translate(-1.561 -0.524)" fill="#a854f3"/>
      <path id="Trazado_875669" data-name="Trazado 875669" d="M41.513,6.8H26.582a.875.875,0,1,0,0,1.749H41.513a.875.875,0,1,0,0-1.749Z" transform="translate(-2.908 -0.524)" fill="#a854f3"/>
      <path id="Trazado_875670" data-name="Trazado 875670" d="M30.623,42.467a3.495,3.495,0,1,0,6.988-.114v0l-.292-8.671a9.629,9.629,0,1,0-6.41-.005l-.285,8.793Zm3.5,1.731a1.742,1.742,0,0,1-1.749-1.731l.271-8.342a9.941,9.941,0,0,0,2.939,0l.279,8.282a1.742,1.742,0,0,1-1.74,1.791Zm-7.88-19.591a7.88,7.88,0,1,1,5.923,7.624,7.889,7.889,0,0,1-5.923-7.624Z" transform="translate(-2.756 -1.549)" fill="#a854f3"/>
      <path id="Trazado_875671" data-name="Trazado 875671" d="M34.494,28.89l4.844-4.844A.875.875,0,0,0,38.1,22.809l-4.844,4.844L31.52,25.915a.875.875,0,0,0-1.237,1.237l1.737,1.737a1.749,1.749,0,0,0,2.474,0Z" transform="translate(-3.449 -2.498)" fill="#a854f3"/>
      <path id="Trazado_875672" data-name="Trazado 875672" d="M10.822,32.061H8.25A1.751,1.751,0,0,0,6.5,33.81v2.563A1.751,1.751,0,0,0,8.25,38.123h2.572a1.751,1.751,0,0,0,1.749-1.749V33.81A1.751,1.751,0,0,0,10.822,32.061Zm0,4.312H8.25V33.81h2.572Z" transform="translate(-0.501 -3.69)" fill="#a854f3"/>
      <path id="Trazado_875673" data-name="Trazado 875673" d="M16.657,33.19a.875.875,0,1,0,0,1.749h5.936a.875.875,0,1,0,0-1.749Z" transform="translate(-1.664 -3.831)" fill="#a854f3"/>
      <path id="Trazado_875674" data-name="Trazado 875674" d="M16.657,38.741h9.21a.875.875,0,1,0,0-1.749h-9.21a.875.875,0,1,0,0,1.749Z" transform="translate(-1.664 -4.307)" fill="#a854f3"/>
      <path id="Trazado_875675" data-name="Trazado 875675" d="M12.571,25.271a1.751,1.751,0,0,0-1.749-1.749H8.25A1.751,1.751,0,0,0,6.5,25.271v2.563A1.751,1.751,0,0,0,8.25,29.583h2.572a1.751,1.751,0,0,0,1.749-1.749Zm-1.749,2.563H8.25V25.271h2.572Z" transform="translate(-0.501 -2.62)" fill="#a854f3"/>
      <path id="Trazado_875676" data-name="Trazado 875676" d="M16.655,26.4h4.128a.875.875,0,1,0,0-1.749H16.655a.875.875,0,0,0,0,1.749Z" transform="translate(-1.664 -2.761)" fill="#a854f3"/>
      <path id="Trazado_875677" data-name="Trazado 875677" d="M16.655,30.2h4.5a.875.875,0,1,0,0-1.749h-4.5a.875.875,0,0,0,0,1.749Z" transform="translate(-1.664 -3.237)" fill="#a854f3"/>
      <path id="Trazado_875678" data-name="Trazado 875678" d="M12.571,16.732a1.751,1.751,0,0,0-1.749-1.749H8.25A1.751,1.751,0,0,0,6.5,16.732v2.563A1.751,1.751,0,0,0,8.25,21.044h2.572a1.751,1.751,0,0,0,1.749-1.749Zm-1.749,2.563H8.25V16.732h2.572Z" transform="translate(-0.501 -1.55)" fill="#a854f3"/>
      <path id="Trazado_875679" data-name="Trazado 875679" d="M22.593,16.111H16.657a.875.875,0,0,0,0,1.749h5.936a.875.875,0,1,0,0-1.749Z" transform="translate(-1.664 -1.691)" fill="#a854f3"/>
      <path id="Trazado_875680" data-name="Trazado 875680" d="M16.655,21.66h4.959a.875.875,0,1,0,0-1.749H16.655a.875.875,0,0,0,0,1.749Z" transform="translate(-1.664 -2.167)" fill="#a854f3"/>
    </g>
  </g>
</svg>
