<svg xmlns="http://www.w3.org/2000/svg" width="70" height="70" viewBox="0 0 70 70">
  <g id="Grupo_1099441" data-name="Grupo 1099441" transform="translate(-515 -526)">
    <circle id="Elipse_11440" data-name="Elipse 11440" cx="35" cy="35" r="35" transform="translate(515 526)" fill="#00ffdf"/>
    <g id="Grupo_1099395" data-name="Grupo 1099395" transform="translate(529.553 539.001)">
      <path id="Trazado_874154" data-name="Trazado 874154" d="M107.9,445.679h3.679a1.663,1.663,0,0,0,0-3.323H107.9A1.663,1.663,0,0,0,107.9,445.679Zm0-2.08h3.679a.418.418,0,0,1,0,.836H107.9A.418.418,0,0,1,107.9,443.6Z" transform="translate(-97.484 -405.688)" fill="#a854f3"/>
      <path id="Trazado_874155" data-name="Trazado 874155" d="M108.606,255.757l-4.05,4.05-1.4-1.4a.622.622,0,0,0-.879.879l1.842,1.842a.622.622,0,0,0,.879,0l4.49-4.49A.622.622,0,0,0,108.606,255.757Z" transform="translate(-93.622 -234.388)" fill="#a854f3"/>
      <path id="Trazado_874156" data-name="Trazado 874156" d="M41.985,27.5a6.523,6.523,0,0,1-.556-1.531,31.567,31.567,0,0,0-2.737-7.3l-2.023-3.862a2.815,2.815,0,0,0-5.163.575,2.814,2.814,0,0,0-3.636,1.9,2.822,2.822,0,0,0-3.36,1.231V2.429A2.432,2.432,0,0,0,22.081,0H7.6a.622.622,0,0,0,0,1.243H22.081a1.187,1.187,0,0,1,1.186,1.186V4.246H1.25V2.429A1.187,1.187,0,0,1,2.436,1.243h1.68A.622.622,0,0,0,4.116,0H2.436A2.432,2.432,0,0,0,.007,2.429V40.012a2.432,2.432,0,0,0,2.429,2.429H22.081a2.432,2.432,0,0,0,2.429-2.429v-7.67l2.222,1.1A2.814,2.814,0,0,1,28,34.714a4.085,4.085,0,0,0,5.5,1.8l3.7-1.941a.622.622,0,0,0-.577-1.1l-3.7,1.941a2.825,2.825,0,0,1-3.811-1.244,4.065,4.065,0,0,0-1.835-1.839l-9.428-4.663a1.546,1.546,0,0,1,1.308-2.8l3.423,1.8a.626.626,0,0,0,.84-.839L17.48,14.477c-.976-1.836,1.639-3.53,2.636-1.626l4.2,8.023,1.1,2.1a.622.622,0,0,0,1.1-.577l-1.069-2.04a1.551,1.551,0,0,1,2.494-1.6l1.189,2.27a.622.622,0,0,0,1.1-.577l-1.209-2.308a1.56,1.56,0,0,1,2.537-1.3l1.2,2.285a.622.622,0,0,0,1.1-.577l-1.2-2.286a1.552,1.552,0,0,1,2.9-.87l2.023,3.862a30.327,30.327,0,0,1,2.63,7.015,7.4,7.4,0,0,0,.664,1.819,2.8,2.8,0,0,1-1.18,3.779.622.622,0,0,0,.577,1.1,4.047,4.047,0,0,0,1.7-5.457ZM23.266,40.012A1.187,1.187,0,0,1,22.081,41.2H2.436A1.187,1.187,0,0,1,1.25,40.012V35.454H23.266ZM15.992,25.066a2.809,2.809,0,0,0,.21,2.763A5.461,5.461,0,1,1,17.7,23.6a2.839,2.839,0,0,0-1.707,1.47ZM20.506,11.4a2.785,2.785,0,0,0-.927-.5A2.82,2.82,0,0,0,16.02,14.15H4.218a.207.207,0,0,1-.207-.207V9.5a.207.207,0,0,1,.207-.207H20.3a.207.207,0,0,1,.207.207Zm2.76,4.782-1.517-2.9V9.5A1.452,1.452,0,0,0,20.3,8.049H4.218A1.452,1.452,0,0,0,2.767,9.5v4.443a1.452,1.452,0,0,0,1.451,1.451H16.556L21.4,24.636l-1.668-.878-.022-.011a2.8,2.8,0,0,0-.768-.238,6.7,6.7,0,1,0-1.825,5.169c1.972,1.137,4.111,2.04,6.152,3.05V34.21H1.25V5.489H23.266Z" transform="translate(0)" fill="#a854f3"/>
    </g>
  </g>
</svg>
