<svg xmlns="http://www.w3.org/2000/svg" width="60" height="60" viewBox="0 0 60 60">
  <g id="Grupo_1099463" data-name="Grupo 1099463" transform="translate(-300 -1391)">
    <rect id="Rectángulo_401242" data-name="Rectángulo 401242" width="60" height="60" rx="10" transform="translate(300 1391)" fill="#fff" opacity="0.3"/>
    <g id="Page-1" transform="translate(311.002 1402.002)">
      <g id="_001---Thinking" data-name="001---Thinking" transform="translate(-0.002 -0.001)">
        <path id="Shape" d="M1.953,25.248a4.754,4.754,0,0,0,.673.389c.281.143.75.383.783.552a1.12,1.12,0,0,1-.076.656c-.1.208-.2.386-.285.54C2.81,27.8,2.414,28.507,3.013,29c.14.13.382.317.6.486a1.634,1.634,0,0,0-.211.936.936.936,0,0,0,.381.636c.146.1.3.195.454.282.381.217.53.318.584.519a1.791,1.791,0,0,1-.071.785c-.038.169-.075.337-.1.509A3.812,3.812,0,0,0,4.871,34.9a2.43,2.43,0,0,0,2.3,1.77,2.635,2.635,0,0,0,.53-.056,49.166,49.166,0,0,0,5.468-1.636c1.46.857,2.384,3.464,2.625,4.443a.649.649,0,0,0,.63.492L32.7,39.865a.649.649,0,0,0,.617-.843,5.009,5.009,0,0,0-.657-1.232,6.017,6.017,0,0,1-.42-.7,12.346,12.346,0,0,1-.732-1.846,21.858,21.858,0,0,1-.767-3.837,10.979,10.979,0,0,1,.852-5.695,14.5,14.5,0,0,1,1.761-2.784c.389-.525.793-1.069,1.156-1.641a10.03,10.03,0,0,0,1.336-3.158.649.649,0,0,0-1.263-.293,8.755,8.755,0,0,1-1.167,2.756c-.337.532-.726,1.056-1.1,1.564A15.671,15.671,0,0,0,30.4,25.194a12.269,12.269,0,0,0-.951,6.368,23.02,23.02,0,0,0,.818,4.068,13.518,13.518,0,0,0,.8,2.031,7.087,7.087,0,0,0,.5.843l.043.065-14.71.044a10.342,10.342,0,0,0-2.283-4.141l.584-.2c.436-.152.765-.267.935-.324,2.777-.885,4.166-2.15,4.128-3.761a.637.637,0,0,0-.662-.63.648.648,0,0,0-.633.663c.016.663-.531,1.635-3.227,2.494-.176.056-.519.175-.967.333-.482.168-1.093.382-1.767.611h0A50.51,50.51,0,0,1,7.44,35.34,1.155,1.155,0,0,1,6.1,34.477a2.594,2.594,0,0,1-.16-1.149c.019-.13.049-.266.079-.4a2.83,2.83,0,0,0,.065-1.4,2.149,2.149,0,0,0-1.2-1.324l-.139-.08a2.386,2.386,0,0,1,.25-.4.649.649,0,0,0-.125-.923c-.155-.114-.519-.389-.791-.606.031-.056.065-.119.1-.174.1-.179.219-.389.331-.627a2.421,2.421,0,0,0,.173-1.451c-.155-.791-.913-1.179-1.466-1.462a3.747,3.747,0,0,1-.534-.311,2.764,2.764,0,0,1-.389-.315c0-.1.106-.337.6-.938A26.166,26.166,0,0,0,5.863,18.1a1.927,1.927,0,0,0,.25-.877A2.27,2.27,0,0,0,5.162,15.6c-.263-.241-.511-.468-.539-.66a1.274,1.274,0,0,1,.105-.461c.106-.278.228-.55.35-.823A9.519,9.519,0,0,0,5.727,11.9a17.394,17.394,0,0,1,.584-2.145,11.119,11.119,0,0,1,2.327-3.8,10.68,10.68,0,0,1,5.812-2.762,42.141,42.141,0,0,1,6.084-.877,14.2,14.2,0,0,1,2.066.044.65.65,0,1,0,.121-1.294,15.775,15.775,0,0,0-2.254-.045,43.287,43.287,0,0,0-6.272.9,11.79,11.79,0,0,0-6.5,3.142,12.4,12.4,0,0,0-2.6,4.243,18.96,18.96,0,0,0-.639,2.344A8.4,8.4,0,0,1,3.9,13.127c-.13.3-.263.59-.38.9a2.266,2.266,0,0,0-.176,1.089,2.494,2.494,0,0,0,.949,1.444c.318.291.527.5.53.675a1.1,1.1,0,0,1-.11.281,25.032,25.032,0,0,1-2.838,4.612,2.7,2.7,0,0,0-.859,1.908A1.987,1.987,0,0,0,1.953,25.248Z" transform="translate(-0.998 -0.999)" fill="#3a1d71" stroke="#3a1d71" stroke-width="0.4"/>
        <path id="Shape-2" data-name="Shape" d="M11.99,12.525a8.543,8.543,0,0,1,1.78-2.918,8.3,8.3,0,0,1,4.444-2,.649.649,0,0,0-.252-1.272,9.513,9.513,0,0,0-5.134,2.383,9.832,9.832,0,0,0-2.054,3.364,16.5,16.5,0,0,0-.532,1.979l1.267.281A15.507,15.507,0,0,1,11.99,12.525Z" transform="translate(-4.246 -2.868)" fill="#3a1d71" stroke="#3a1d71" stroke-width="0.4"/>
        <path id="Shape-3" data-name="Shape" d="M29.339,4.632l-.389,1.94a7.725,7.725,0,0,0-1.092.454l-1.647-1.1a1.3,1.3,0,0,0-1.629.169L23.506,7.169a1.3,1.3,0,0,0-.171,1.644l1.1,1.639a7.722,7.722,0,0,0-.454,1.092l-1.938.389A1.3,1.3,0,0,0,21,13.205v1.53a1.3,1.3,0,0,0,1.038,1.272l1.94.389a7.722,7.722,0,0,0,.454,1.092l-1.1,1.647a1.3,1.3,0,0,0,.169,1.629l1.077,1.077a1.3,1.3,0,0,0,1.643.171l1.639-1.1a7.722,7.722,0,0,0,1.092.454l.389,1.938a1.3,1.3,0,0,0,1.272,1.041h1.53a1.3,1.3,0,0,0,1.272-1.038l.389-1.94a7.722,7.722,0,0,0,1.092-.454l1.647,1.1a1.3,1.3,0,0,0,1.629-.169l1.076-1.076a1.3,1.3,0,0,0,.171-1.644l-1.1-1.639a7.722,7.722,0,0,0,.454-1.092l1.938-.389a1.292,1.292,0,0,0,.893-.676l.977.655a1.184,1.184,0,0,0,.63.182,1.167,1.167,0,0,0,.828-.344l.863-.863a1.178,1.178,0,0,0,.151-1.475l-.837-1.252a6.1,6.1,0,0,0,.314-.754L46,11.19a1.167,1.167,0,0,0,.942-1.15V8.821A1.167,1.167,0,0,0,46,7.673l-1.474-.294a6.005,6.005,0,0,0-.313-.754l.85-1.267A1.172,1.172,0,0,0,44.9,3.9l-.863-.863a1.177,1.177,0,0,0-1.475-.151l-1.252.837a6.1,6.1,0,0,0-.754-.314l-.293-1.468A1.167,1.167,0,0,0,39.12,1H37.9a1.167,1.167,0,0,0-1.149.937l-.294,1.474a6,6,0,0,0-.754.315l-1.267-.85a1.173,1.173,0,0,0-1.458.162l-.584.584a1.328,1.328,0,0,0-.255-.028h-1.53A1.3,1.3,0,0,0,29.339,4.632Zm9.915,2.542-.3-.3a2.58,2.58,0,0,1,.806,4.868l-.984-.195a7.722,7.722,0,0,0-.454-1.092l1.1-1.647a1.3,1.3,0,0,0-.167-1.63ZM33.826,4.025l1.483,1A.649.649,0,0,0,36,5.04a4.743,4.743,0,0,1,1.187-.5.648.648,0,0,0,.467-.5L38,2.3h1.014l.348,1.751a.648.648,0,0,0,.467.5,4.743,4.743,0,0,1,1.187.5.649.649,0,0,0,.693-.023l1.483-.995.72.72L42.92,6.229a.648.648,0,0,0-.019.693,4.743,4.743,0,0,1,.5,1.187.648.648,0,0,0,.5.467l1.751.348V9.938l-1.748.348a.648.648,0,0,0-.5.467,4.743,4.743,0,0,1-.5,1.187.648.648,0,0,0,.019.693l.995,1.483-.72.72-1.446-.967v-.663a1.3,1.3,0,0,0-.454-.988,3.882,3.882,0,0,0-2.7-6.678,3.753,3.753,0,0,0-1.154.189,1.315,1.315,0,0,0-.908.2L34.9,7.026A7.725,7.725,0,0,0,33.8,6.572l-.389-1.938a1.186,1.186,0,0,0-.045-.153ZM30.144,7.211l.467-2.32h1.53l.466,2.322a.649.649,0,0,0,.466.5,6.389,6.389,0,0,1,1.531.636.648.648,0,0,0,.686-.022l1.962-1.313,1.087,1.081-1.316,1.964a.648.648,0,0,0-.022.686,6.389,6.389,0,0,1,.636,1.531.649.649,0,0,0,.5.466l2.32.464v1.531l-2.322.466a.649.649,0,0,0-.5.466A6.389,6.389,0,0,1,37,17.2a.648.648,0,0,0,.022.686l1.313,1.962-1.081,1.087-1.964-1.316A.648.648,0,0,0,34.6,19.6a6.389,6.389,0,0,1-1.531.636.649.649,0,0,0-.466.5l-.464,2.32h-1.53l-.466-2.322a.649.649,0,0,0-.466-.5,6.389,6.389,0,0,1-1.531-.636.648.648,0,0,0-.686.022L25.5,20.929l-1.087-1.081,1.316-1.964a.648.648,0,0,0,.022-.686,6.389,6.389,0,0,1-.636-1.531.649.649,0,0,0-.5-.466l-2.32-.464v-1.53l2.322-.466a.649.649,0,0,0,.5-.466,6.389,6.389,0,0,1,.636-1.531.648.648,0,0,0-.022-.686L24.418,8.093,25.5,7.006l1.964,1.316a.648.648,0,0,0,.686.022,6.389,6.389,0,0,1,1.531-.636A.649.649,0,0,0,30.144,7.211Z" transform="translate(-8.028 -0.999)" fill="#3a1d71" stroke="#3a1d71" stroke-width="0.4"/>
        <path id="Shape-4" data-name="Shape" d="M34.54,23.079A4.54,4.54,0,1,0,30,18.54,4.54,4.54,0,0,0,34.54,23.079Zm0-7.782A3.243,3.243,0,1,1,31.3,18.54,3.243,3.243,0,0,1,34.54,15.3Z" transform="translate(-11.192 -5.568)" fill="#3a1d71" stroke="#3a1d71" stroke-width="0.4"/>
        <ellipse id="Oval" cx="1" cy="0.5" rx="1" ry="0.5" transform="translate(22.456 12.454)" fill="#3a1d71" stroke="#3a1d71" stroke-width="0.4"/>
        <circle id="Oval-2" data-name="Oval" cx="0.5" cy="0.5" r="0.5" transform="translate(5.456 13.454)" fill="#3a1d71" stroke="#3a1d71" stroke-width="0.4"/>
      </g>
    </g>
  </g>
</svg>
