<svg xmlns="http://www.w3.org/2000/svg" xmlns:xlink="http://www.w3.org/1999/xlink" width="175.181" height="150" viewBox="0 0 175.181 150">
  <defs>
    <clipPath id="clip-path">
      <rect id="Rect치ngulo_401082" data-name="Rect치ngulo 401082" width="169.902" height="116.341" fill="#fff" stroke="#707070" stroke-width="1" opacity="0.61"/>
    </clipPath>
    <clipPath id="clip-path-2">
      <rect id="Rect치ngulo_401541" data-name="Rect치ngulo 401541" width="151.087" height="150" transform="translate(0 0)" fill="none"/>
    </clipPath>
  </defs>
  <g id="Grupo_1100001" data-name="Grupo 1100001" transform="translate(-324.369 -988)">
    <g id="Grupo_1099998" data-name="Grupo 1099998" transform="translate(329.648 988)">
      <path id="Trazado_874102" data-name="Trazado 874102" d="M424.984,247.41a42.6,42.6,0,0,1,3.834,20.5c-.3,4.667-1.487,9.871.807,14.232,2.814,5.35,9.683,7.382,15.3,7.736,25.479,1.606,47.871-15.379,64.019-33.4,12.879-14.377,26.052-31.856,28.281-51.575,2.01-17.778-10.161-33.823-25.664-41.112-17.254-8.113-37.8-9.339-56.531-7.289-23.92,2.619-51.4,14.178-55.56,40.819a33.188,33.188,0,0,0,2.376,18.86c4.172,9.112,12.333,15.381,18.3,23.2A43.9,43.9,0,0,1,424.984,247.41Z" transform="translate(-375.728 -139.989)" fill="#3a1d71" fill-rule="evenodd"/>
      <g id="Grupo_1099274" data-name="Grupo 1099274" transform="translate(19.308 125.078)">
        <path id="Trazado_874103" data-name="Trazado 874103" d="M397.325,537.733a1.809,1.809,0,0,0-.9,1.366c-.467,2.186.466,4.362,1.5,6.228,1.369,2.479,3.273,5.027,6.17,5.755a8.926,8.926,0,0,0,3.6.057c1.7-.278,3.891-1.122,4.378-3,.7-2.71-2.145-4.13-4.209-4.884a30.032,30.032,0,0,1-3.84-1.454,20.953,20.953,0,0,1-3.926-3.158,2.8,2.8,0,0,0-2.653-.959A1.19,1.19,0,0,0,397.325,537.733Z" transform="translate(-393.581 -531.383)" fill="#f0c518" fill-rule="evenodd"/>
        <path id="Trazado_874104" data-name="Trazado 874104" d="M391,521.482a2.161,2.161,0,1,0-3.027-.437A2.162,2.162,0,0,0,391,521.482Z" transform="translate(-387.539 -517.589)" fill="#f0c518" fill-rule="evenodd"/>
      </g>
      <path id="Trazado_874105" data-name="Trazado 874105" d="M401.091,188.5a45.046,45.046,0,0,1-14.2,16.863c-4.018,2.874-9.061,5.389-11.094,10.187-2.494,5.885.432,12.872,3.892,17.708,15.7,21.942,44.535,28.913,70.05,30.073,20.351.925,43.433.015,61.039-11.358,15.873-10.253,20.86-30.96,16.467-48.535-4.89-19.561-17.61-37.213-31.79-51.176-18.113-17.837-45.906-32.6-70.463-18.182a35.078,35.078,0,0,0-13.829,14.568c-4.662,9.516-4.337,20.4-6.749,30.517A46.52,46.52,0,0,1,401.091,188.5Z" transform="translate(-359.066 -119.851)" fill="#f0c518" fill-rule="evenodd"/>
      <path id="Trazado_874106" data-name="Trazado 874106" d="M395.309,234.913c-17.354-7.555-34.267-19.464-42.565-38.189-1.616-3.647-4.869-12.862-.179-19.661,2.611-3.785,6.866-5.5,10.981-7.162.988-.4,1.92-.775,2.833-1.18a46.542,46.542,0,0,0,17.851-14.081h0a47.988,47.988,0,0,0,5.308-8.745c1.622-3.469,2.941-7.185,4.217-10.779,2.353-6.625,4.785-13.476,9.237-19.228a37.131,37.131,0,0,1,17.579-12.249c13.115-4.46,26.5-2.8,39.787,4.94,10.628,6.19,21.059,16.45,29.372,28.89,9.435,14.119,20.887,35.917,21.864,59.578a54.021,54.021,0,0,1-6.451,27.939,41.218,41.218,0,0,1-21.136,19.037c-21.226,8.242-46.089,3.666-65.378-1.24A153.714,153.714,0,0,1,395.309,234.913Zm-9.982-79.435a47.945,47.945,0,0,1-18.39,14.507c-.934.415-1.921.813-2.876,1.2-3.926,1.584-7.985,3.222-10.36,6.665-4.414,6.4-.883,15.636.3,18.315,11.871,26.788,41.881,39.411,64.966,45.282,19.09,4.856,43.678,9.391,64.539,1.291,19.334-7.507,27.4-28.915,26.706-45.63-.964-23.34-12.3-44.9-21.633-58.867-7.188-10.756-33.3-44.945-67.57-33.292a35.754,35.754,0,0,0-16.931,11.787c-4.316,5.577-6.711,12.321-9.027,18.844-1.287,3.625-2.617,7.372-4.267,10.9a49.4,49.4,0,0,1-5.461,9Z" transform="translate(-342.019 -101.201)" fill="#fff" fill-rule="evenodd"/>
      <g id="Enmascarar_grupo_1098657" data-name="Enmascarar grupo 1098657" transform="translate(0 31.03)" clip-path="url(#clip-path)">
        <path id="Trazado_874108" data-name="Trazado 874108" d="M395.309,234.913c-17.354-7.555-34.267-19.464-42.565-38.189-1.616-3.647-4.869-12.862-.179-19.661,2.611-3.785,6.866-5.5,10.981-7.162.988-.4,1.92-.775,2.833-1.18a46.542,46.542,0,0,0,17.851-14.081h0a47.988,47.988,0,0,0,5.308-8.745c1.622-3.469,2.941-7.185,4.217-10.779,2.353-6.625,4.785-13.476,9.237-19.228a37.131,37.131,0,0,1,17.579-12.249c13.115-4.46,26.5-2.8,39.787,4.94,10.628,6.19,21.059,16.45,29.372,28.89,9.435,14.119,20.887,35.917,21.864,59.578a54.021,54.021,0,0,1-6.451,27.939,41.218,41.218,0,0,1-21.136,19.037c-21.226,8.242-46.089,3.666-65.378-1.24A153.714,153.714,0,0,1,395.309,234.913Zm-9.982-79.435a47.945,47.945,0,0,1-18.39,14.507c-.934.415-1.921.813-2.876,1.2-3.926,1.584-7.985,3.222-10.36,6.665-4.414,6.4-.883,15.636.3,18.315,11.871,26.788,41.881,39.411,64.966,45.282,19.09,4.856,43.678,9.391,64.539,1.291,19.334-7.507,27.4-28.915,26.706-45.63-.964-23.34-12.3-44.9-21.633-58.867-7.188-10.756-33.3-44.945-67.57-33.292a35.754,35.754,0,0,0-16.931,11.787c-4.316,5.577-6.711,12.321-9.027,18.844-1.287,3.625-2.617,7.372-4.267,10.9a49.4,49.4,0,0,1-5.461,9Z" transform="translate(-342.019 -132.231)" fill="#fff" fill-rule="evenodd"/>
      </g>
    </g>
    <g id="Grupo_1099994" data-name="Grupo 1099994" transform="translate(339.023 988)">
      <g id="Grupo_1099987" data-name="Grupo 1099987" transform="translate(0 0)" clip-path="url(#clip-path-2)">
        <path id="Trazado_875024" data-name="Trazado 875024" d="M128.291,103.886c-.3-.726-10.653-25.4-10.836-25.823A39.353,39.353,0,0,0,123.964,60.9l.607.513a5.29,5.29,0,0,0,8.691-3.6L134.2,46.66l9.51-5.9a5.3,5.3,0,0,0-.74-9.379L132.65,27.048l-2.671-10.867a5.3,5.3,0,0,0-9.148-2.194l-7.31,8.472c-10.768-.58-11.5-1.276-13.544-.442-1.524-1.444-2.343-1.126-12.749-4.547L83.538,6.906a5.3,5.3,0,0,0-9.315-1.317l-6.474,9.127c-10.634.472-11.861-.313-14.024,1.139-1.915-1.674-3.18-1.093-13.673-3.044L34.92,2.868a5.3,5.3,0,0,0-9.408,0L20.38,12.812,9.337,14.62a5.3,5.3,0,0,0-2.907,8.947L14.3,31.522l-.051.333c-4.475,1.121-5.207,1.128-6.667,1.792C1.527,35.437-1.536,45.205.766,50.733L31.96,125.661a10.231,10.231,0,0,0,12.351,5.867L78.581,121.4c6.573-1.929,11.2-11.441,7.939-18.14L80.048,88.429c1.485,1.02,2.948,1.915,4.329,2.693,3,11.123,6.718,22.858,19.312,27.465,18.25,25.226,21.032,28.923,22.85,31.417A48.057,48.057,0,0,0,149.976,128.2l1.111-2.149a279.769,279.769,0,0,1-22.8-22.164" transform="translate(0 -0.005)" fill="#fff"/>
        <path id="Trazado_875025" data-name="Trazado 875025" d="M103.583,31.975l5.343,10.352a2.19,2.19,0,0,0,1.592,1.157l11.5,1.883a2.19,2.19,0,0,1,1.2,3.7l-8.194,8.28a2.191,2.191,0,0,0-.608,1.872l1.762,11.515a2.19,2.19,0,0,1-3.149,2.288l-10.407-5.234a2.191,2.191,0,0,0-1.968,0L90.246,73.025A2.19,2.19,0,0,1,87.1,70.737l1.762-11.515a2.19,2.19,0,0,0-.608-1.872l-8.194-8.28a2.19,2.19,0,0,1,1.2-3.7l11.5-1.883a2.19,2.19,0,0,0,1.592-1.157l5.343-10.352a2.19,2.19,0,0,1,3.893,0" transform="translate(-71.421 -27.689)" fill="#ffb020"/>
        <path id="Trazado_875026" data-name="Trazado 875026" d="M567.036,65.568l3.841,11a2.191,2.191,0,0,0,1.415,1.368l11.12,3.474a2.19,2.19,0,0,1,.673,3.834l-9.273,7.052a2.191,2.191,0,0,0-.864,1.769l.133,11.648a2.19,2.19,0,0,1-3.439,1.825l-9.572-6.64a2.191,2.191,0,0,0-1.949-.275l-11.037,3.726a2.19,2.19,0,0,1-2.8-2.706l3.357-11.155a2.189,2.189,0,0,0-.34-1.938L541.347,79.2a2.19,2.19,0,0,1,1.709-3.5l11.647-.255a2.191,2.191,0,0,0,1.739-.923l6.74-9.5a2.19,2.19,0,0,1,3.854.546" transform="translate(-486.427 -57.643)" fill="#ffb020"/>
        <path id="Trazado_875027" data-name="Trazado 875027" d="M1017.789,153.064l2.781,11.312a2.191,2.191,0,0,0,1.279,1.5l10.74,4.512a2.19,2.19,0,0,1,.306,3.881l-9.9,6.14a2.189,2.189,0,0,0-1.028,1.679l-.973,11.609a2.19,2.19,0,0,1-3.6,1.49l-8.9-7.517a2.192,2.192,0,0,0-1.914-.459l-11.341,2.662a2.19,2.19,0,0,1-2.529-2.959l4.4-10.786a2.191,2.191,0,0,0-.155-1.962l-6.036-9.963a2.191,2.191,0,0,1,2.033-3.32l11.618.852a2.19,2.19,0,0,0,1.818-.755l7.61-8.819a2.19,2.19,0,0,1,3.786.909" transform="translate(-890.824 -136.146)" fill="#ffb020"/>
        <path id="Trazado_875028" data-name="Trazado 875028" d="M865.673,727.751c2.494,9.26,5.772,21.784,18.279,25.761,7.329,10.126,14.659,20.259,21.883,30.108a44.129,44.129,0,0,0,19.71-19.3,270.107,270.107,0,0,1-21.584-21.2l-10.729-25.572a17.382,17.382,0,0,0-2.273-4.259c-2.128-2.645-5.562-3.8-9.583-4.33a31.173,31.173,0,0,0-14.261,12.836c-.93,1.62-2.042,3.741-1.443,5.962" transform="translate(-778.326 -637.547)" fill="#ffad92"/>
        <path id="Trazado_875029" data-name="Trazado 875029" d="M691.477,465.464s10.482-11.838,23.007-7.5,6,35.369-20.184,45.442c0,0-24.071-7.811-27.174-26.533s15.157-25.133,24.351-11.4" transform="translate(-599.615 -410.975)" fill="#ff605b"/>
        <path id="Trazado_875030" data-name="Trazado 875030" d="M914.863,730.308c-7.345-5.979-11.417-15.758-9.776-25.048a46.193,46.193,0,0,1-4.127-12.453c-.907-5.072,2.406-6.757,4.281-4.13,3.892,5.443,6.529,11.905,11.528,16.359,2.437,2.168,5.45,3.888,6.973,6.774,1.956,3.705,1.334,9.408-.491,13.319-1.372,2.94-4.417,5.779-8.387,5.178" transform="translate(-810.072 -618.208)" fill="#ffad92"/>
        <path id="Trazado_875031" data-name="Trazado 875031" d="M942.651,883.172c-7.75-6.309-11.692-16.43-10.043-25.767a.755.755,0,0,1,1.488.259c-1.555,8.813,2.177,18.362,9.51,24.335a.756.756,0,0,1-.954,1.172" transform="translate(-838.338 -770.483)" fill="#ed6c4d"/>
        <path id="Trazado_875032" data-name="Trazado 875032" d="M77.972,318.836l33.634,70.8c1.954,3.926-1.956,10.718-6.184,11.96L71.148,411.722a7.144,7.144,0,0,1-8.607-4.082L31.346,332.711c-1.666-4,.791-11.954,5.03-12.97l33.533-4.649a7.143,7.143,0,0,1,8.064,3.745" transform="translate(-27.715 -283.176)" fill="#ff605b"/>
        <path id="Trazado_875033" data-name="Trazado 875033" d="M94.181,279.41l31.8,72.873a7.03,7.03,0,0,1-4.35,9.883L87.356,372.3a7.143,7.143,0,0,1-8.607-4.085L47.554,293.287a7.036,7.036,0,0,1,4.893-9.545l33.67-8.076a7.15,7.15,0,0,1,8.064,3.744" transform="translate(-42.276 -247.723)" fill="#00abfe"/>
        <path id="Trazado_875034" data-name="Trazado 875034" d="M79.911,322.2l29.427,70.334a6.461,6.461,0,0,0,7.782,3.7l30.614-9.057a6.357,6.357,0,0,0,3.932-8.933l-29.6-68.582a6.463,6.463,0,0,0-7.293-3.387l-2.517.6.4,1.057a3.443,3.443,0,0,1-2.607,4.605l-19.187,3.6a3.5,3.5,0,0,1-4-2.415l-.215-.7-2.314.554a6.367,6.367,0,0,0-4.422,8.635" transform="translate(-71.421 -275.26)" fill="#eae5db"/>
        <path id="Trazado_875035" data-name="Trazado 875035" d="M140.306,424.064l4.661,12.076a3.569,3.569,0,0,0,4.386,2.124l31.018-9.623a3.569,3.569,0,0,0,2.224-4.81l-4.83-11.319a3.567,3.567,0,0,0-4.267-2.026l-30.849,8.866a3.567,3.567,0,0,0-2.343,4.713" transform="translate(-125.957 -369.015)" fill="#ffb020"/>
        <path id="Trazado_875036" data-name="Trazado 875036" d="M194.691,518.633a4.533,4.533,0,1,1-6.15-1.8,4.507,4.507,0,0,1,6.15,1.8" transform="translate(-167.428 -464.274)" fill="#a369f7"/>
        <path id="Trazado_875037" data-name="Trazado 875037" d="M212.122,565.749a4.532,4.532,0,0,1-7.107,2.945,5.723,5.723,0,0,1,7.107-2.945" transform="translate(-184.365 -508.474)" fill="#7ad001"/>
        <path id="Trazado_875038" data-name="Trazado 875038" d="M211.353,533.427a2.9,2.9,0,0,0,.776,1.764.91.91,0,0,0,1.588-.692,2.88,2.88,0,0,0-.875-1.859,1,1,0,0,0-1.489.786" transform="translate(-190.062 -478.855)" fill="#7ad001"/>
        <path id="Trazado_875039" data-name="Trazado 875039" d="M292.615,457.451a.757.757,0,0,1,.512-.94l19.414-5.705a.755.755,0,0,1,.426,1.449l-19.414,5.705a.756.756,0,0,1-.938-.51" transform="translate(-263.114 -405.371)" fill="#ff605b"/>
        <path id="Trazado_875040" data-name="Trazado 875040" d="M311,509.94a.757.757,0,0,1,.512-.94l19.414-5.7a.755.755,0,1,1,.426,1.449l-19.414,5.7a.751.751,0,0,1-.938-.51" transform="translate(-279.649 -452.576)" fill="#ff605b"/>
        <path id="Trazado_875041" data-name="Trazado 875041" d="M329.706,590.916a.76.76,0,0,1,.512-.94l7.33-2.15a.757.757,0,0,1,.426,1.452l-7.33,2.15a.751.751,0,0,1-.938-.513" transform="translate(-296.469 -528.592)" fill="#ff605b"/>
        <path id="Trazado_875042" data-name="Trazado 875042" d="M232.027,647.22l4.661,12.076a3.569,3.569,0,0,0,4.386,2.124l31.018-9.626a3.567,3.567,0,0,0,2.224-4.807l-4.83-11.319a3.572,3.572,0,0,0-4.267-2.029L234.37,642.5a3.572,3.572,0,0,0-2.343,4.716" transform="translate(-208.44 -569.693)" fill="#7ad001"/>
        <path id="Trazado_875043" data-name="Trazado 875043" d="M286.412,741.792a4.532,4.532,0,1,1-6.15-1.809,4.5,4.5,0,0,1,6.15,1.809" transform="translate(-249.911 -664.953)" fill="#00abfe"/>
        <path id="Trazado_875044" data-name="Trazado 875044" d="M303.844,788.909a4.532,4.532,0,0,1-7.107,2.945,5.715,5.715,0,0,1,7.107-2.945" transform="translate(-266.848 -709.15)" fill="#ff605b"/>
        <path id="Trazado_875045" data-name="Trazado 875045" d="M303.074,756.582a2.9,2.9,0,0,0,.776,1.761.91.91,0,0,0,1.588-.7,2.872,2.872,0,0,0-.875-1.856,1,1,0,0,0-1.489.789" transform="translate(-272.545 -679.525)" fill="#ff605b"/>
        <path id="Trazado_875046" data-name="Trazado 875046" d="M384.338,680.6a.754.754,0,0,1,.512-.937l19.414-5.7a.752.752,0,1,1,.426,1.443l-19.414,5.708a.755.755,0,0,1-.938-.513" transform="translate(-345.598 -606.051)" fill="#ff605b"/>
        <path id="Trazado_875047" data-name="Trazado 875047" d="M402.725,733.089a.752.752,0,0,1,.512-.937l19.414-5.708a.755.755,0,0,1,.426,1.449L403.663,733.6a.755.755,0,0,1-.938-.512" transform="translate(-362.133 -653.246)" fill="#ff605b"/>
        <path id="Trazado_875048" data-name="Trazado 875048" d="M421.427,814.075a.763.763,0,0,1,.512-.943l7.33-2.15a.758.758,0,0,1,.426,1.455l-7.33,2.15a.755.755,0,0,1-.938-.513" transform="translate(-378.952 -729.268)" fill="#ff605b"/>
        <path id="Trazado_875049" data-name="Trazado 875049" d="M330.687,862.181l4.661,12.076a3.565,3.565,0,0,0,4.386,2.121l31.018-9.62a3.574,3.574,0,0,0,2.224-4.813l-4.83-11.316a3.564,3.564,0,0,0-4.267-2.026l-30.849,8.866a3.568,3.568,0,0,0-2.343,4.713" transform="translate(-297.162 -763.002)" fill="#a369f7"/>
        <path id="Trazado_875050" data-name="Trazado 875050" d="M385.072,956.747a4.532,4.532,0,1,1-6.15-1.8,4.5,4.5,0,0,1,6.15,1.8" transform="translate(-338.633 -858.26)" fill="#ff605b"/>
        <path id="Trazado_875051" data-name="Trazado 875051" d="M402.5,1003.864a4.527,4.527,0,0,1-7.107,2.945,5.827,5.827,0,0,1,2.677-2.7,5.888,5.888,0,0,1,4.429-.242" transform="translate(-355.57 -902.465)" fill="#ffb020"/>
        <path id="Trazado_875052" data-name="Trazado 875052" d="M401.734,971.544a2.888,2.888,0,0,0,.776,1.761.911.911,0,0,0,1.588-.689,2.887,2.887,0,0,0-.875-1.862,1,1,0,0,0-1.489.789" transform="translate(-361.267 -872.837)" fill="#ffb020"/>
        <path id="Trazado_875053" data-name="Trazado 875053" d="M483,895.565a.76.76,0,0,1,.512-.943l19.414-5.7a.755.755,0,0,1,.426,1.449l-19.414,5.708a.755.755,0,0,1-.938-.512" transform="translate(-434.32 -799.355)" fill="#ffb020"/>
        <path id="Trazado_875054" data-name="Trazado 875054" d="M501.385,948.057a.749.749,0,0,1,.512-.937l19.414-5.708a.755.755,0,0,1,.426,1.449l-19.414,5.7a.757.757,0,0,1-.938-.507" transform="translate(-450.856 -846.56)" fill="#ffb020"/>
        <path id="Trazado_875055" data-name="Trazado 875055" d="M520.087,1029.022a.757.757,0,0,1,.512-.937l7.33-2.15a.752.752,0,1,1,.426,1.443l-7.33,2.156a.755.755,0,0,1-.938-.513" transform="translate(-467.674 -922.569)" fill="#ffb020"/>
      </g>
    </g>
    <path id="Trazado_875110" data-name="Trazado 875110" d="M184.367,434.8l-1.243-1.589,4.835-3.808-4.835-3.808,1.243-1.588,6.853,5.4Zm-15.3-1.589,4.835-3.808-4.835-3.808,1.242-1.588,6.853,5.4-6.853,5.4Zm-14.061,0,4.835-3.808L155,425.6l1.242-1.588,6.853,5.4-6.853,5.4Z" transform="translate(169.366 563.989)" fill="#3a1d71" fill-rule="evenodd"/>
  </g>
</svg>
