<svg xmlns="http://www.w3.org/2000/svg" width="100" height="100" viewBox="0 0 100 100">
  <g id="Grupo_1099901" data-name="Grupo 1099901" transform="translate(-310 -2164)">
    <rect id="Rectángulo_401476" data-name="Rectángulo 401476" width="100" height="100" rx="10" transform="translate(310 2164)" fill="#fff" opacity="0.5"/>
    <g id="Grupo_1099900" data-name="Grupo 1099900" transform="translate(325.216 2120.393)">
      <path id="Trazado_874702" data-name="Trazado 874702" d="M203.989,193.521a41.582,41.582,0,0,1-.271-4.389V170.786a13.955,13.955,0,0,0-3.772-10.082c-2.851-2.883-7.087-4.345-12.589-4.345a17.767,17.767,0,0,0-9.952,2.76,14.254,14.254,0,0,0-4.363,4.479l-1.279-2.716a1.026,1.026,0,1,0-1.857.874l14.984,31.835a.064.064,0,0,1,0,.07l0,0c-.387.02-.8.031-1.235.032h-9.358a.114.114,0,0,1-.1-.065l-2.5-5.317a1.884,1.884,0,0,0-1.7-1.079H156.2a1.026,1.026,0,1,0,0,2.053h13.686l2.448,5.216a2.175,2.175,0,0,0,1.961,1.246h10.533a2.138,2.138,0,0,0,.467-.052c3.38-.209,5.966-1.074,7.824-2.631a15.111,15.111,0,0,0,.264,1.887,1.026,1.026,0,0,0,1,.8h7.629a1.993,1.993,0,0,0,1.98-2.227ZM176.5,170.947l3.979.843a1.026,1.026,0,0,0,1.235-.909c.216-2.321,1.83-4.8,5.713-4.8,3.082,0,4.922,1.331,4.922,3.56,0,.433,0,1.239-1.776,1.494l-8.668,1.289a17.345,17.345,0,0,0-4.178,1.133Zm5.626,11.953c.305-1.92,2.023-2.577,3.45-2.787l6.773-1.037v.381c0,2.571-.679,4.473-2.017,5.653a6.891,6.891,0,0,1-4.7,1.491,4.3,4.3,0,0,1-1.967-.42Zm13.12,10.794a27.788,27.788,0,0,1-.2-3.2,1.026,1.026,0,0,0-1.891-.554c-1.213,1.893-3.255,3.052-6.214,3.517a2.131,2.131,0,0,0-.2-.739l-1.934-4.11a7.587,7.587,0,0,0,.825.046c5.57,0,8.765-3.352,8.765-9.2V177.88a1.026,1.026,0,0,0-1.182-1.014l-7.949,1.217a6.2,6.2,0,0,0-4.311,2.341l-2.358-5.01a15.364,15.364,0,0,1,3.6-.961l8.665-1.289c3.073-.44,3.532-2.4,3.532-3.525,0-2.589-1.827-5.613-6.975-5.613a7.923,7.923,0,0,0-5.517,1.985,7.125,7.125,0,0,0-2.051,3.549l-4.455-.944-1.271-2.7a12.014,12.014,0,0,1,4.4-5.084,15.757,15.757,0,0,1,8.823-2.422c4.934,0,8.679,1.257,11.13,3.736a11.955,11.955,0,0,1,3.179,8.639v18.345a43.849,43.849,0,0,0,.277,4.563h-6.7Z" transform="translate(-133.934 -76.418)" fill="#3a1d71"/>
      <path id="Trazado_874703" data-name="Trazado 874703" d="M18.209,110.815H16.9a1.881,1.881,0,0,0-1.705,1.093l-2.434,5.3a.114.114,0,0,1-.1.066H2.126a.072.072,0,0,1-.066-.1L24.052,70.048a.3.3,0,0,1,.268-.17h4.188a.3.3,0,0,1,.267.169L34.12,81.4a1.026,1.026,0,1,0,1.857-.874L30.632,69.173a2.358,2.358,0,0,0-2.124-1.348H24.32a2.357,2.357,0,0,0-2.128,1.355L.2,116.305a2.125,2.125,0,0,0,1.926,3.024H12.659a2.172,2.172,0,0,0,1.969-1.262l2.387-5.2h1.194a1.026,1.026,0,1,0,0-2.053Z" transform="translate(0)" fill="#3a1d71"/>
      <path id="Trazado_874704" data-name="Trazado 874704" d="M160.238,235.414a1.026,1.026,0,0,0,.932-1.456l-5.011-10.879a1.027,1.027,0,0,0-.93-.6h0a1.027,1.027,0,0,0-.93.592l-5.077,10.879a1.026,1.026,0,0,0,.93,1.46Zm-5.017-9.466,3.414,7.413h-6.874Z" transform="translate(-128.716 -133.492)" fill="#3a1d71"/>
    </g>
  </g>
</svg>
