<svg xmlns="http://www.w3.org/2000/svg" width="100" height="100" viewBox="0 0 100 100">
  <g id="Grupo_1099902" data-name="Grupo 1099902" transform="translate(-310 -2502)">
    <rect id="Rectángulo_401242" data-name="Rectángulo 401242" width="100" height="100" rx="10" transform="translate(310 2502)" fill="#fff" opacity="0.5"/>
    <g id="Icons" transform="translate(330 2523)">
      <path id="Trazado_874693" data-name="Trazado 874693" d="M2,8H3V19a1,1,0,0,0,2,0V8H6A2,2,0,0,0,8,6V5H19a1,1,0,0,0,0-2H8V2A2,2,0,0,0,6,0H2A2,2,0,0,0,0,2V6A2,2,0,0,0,2,8ZM2,2H6V6H2Z" fill="#3a1d71"/>
      <path id="Trazado_874694" data-name="Trazado 874694" d="M2,60H6a2,2,0,0,0,2-2V57H19a1,1,0,0,0,0-2H8V54a2,2,0,0,0-2-2H5V41a1,1,0,0,0-2,0V52H2a2,2,0,0,0-2,2v4A2,2,0,0,0,2,60Zm0-6H6v4H2Z" fill="#3a1d71"/>
      <path id="Trazado_874695" data-name="Trazado 874695" d="M58,0H54a2,2,0,0,0-2,2V3H41a1,1,0,0,0,0,2H52V6a2,2,0,0,0,2,2h1V19a1,1,0,0,0,2,0V8h1a2,2,0,0,0,2-2V2A2,2,0,0,0,58,0ZM54,6V2h4V6Z" fill="#3a1d71"/>
      <path id="Trazado_874696" data-name="Trazado 874696" d="M58,52H57V41a1,1,0,0,0-2,0V52H54a2,2,0,0,0-2,2v1H41a1,1,0,0,0,0,2H52v1a2,2,0,0,0,2,2h4a2,2,0,0,0,2-2V54A2,2,0,0,0,58,52Zm-4,6V54h4v4Z" fill="#3a1d71"/>
      <path id="Trazado_874697" data-name="Trazado 874697" d="M37,5a1,1,0,0,0,0-2H23a1,1,0,0,0,0,2Z" fill="#3a1d71"/>
      <path id="Trazado_874698" data-name="Trazado 874698" d="M10,11v7a2,2,0,0,0,2,2h2a2,2,0,0,0,2-2V17a2,2,0,0,1,2-2h6a2,2,0,0,1,2,2V43.611a1.994,1.994,0,0,1-1.671,1.973l-2.658.443A1.994,1.994,0,0,0,20,48v2a2,2,0,0,0,2,2H38a2,2,0,0,0,2-2V48a1.994,1.994,0,0,0-1.671-1.973l-2.658-.443A1.994,1.994,0,0,1,34,43.611V17a2,2,0,0,1,2-2h6a2,2,0,0,1,2,2v1a2,2,0,0,0,2,2h2a2,2,0,0,0,2-2V11a3,3,0,0,0-3-3H13a3,3,0,0,0-3,3Zm38,0v7H46V17a4,4,0,0,0-4-4H36a4,4,0,0,0-4,4V43.611a3.988,3.988,0,0,0,3.342,3.946L38,48v2H22V48l2.658-.443A3.988,3.988,0,0,0,28,43.611V17a4,4,0,0,0-4-4H18a4,4,0,0,0-4,4v1H12V11a1,1,0,0,1,1-1H47A1,1,0,0,1,48,11Z" fill="#3a1d71"/>
      <path id="Trazado_874699" data-name="Trazado 874699" d="M4,22a1,1,0,0,0-1,1V37a1,1,0,0,0,2,0V23A1,1,0,0,0,4,22Z" fill="#3a1d71"/>
      <path id="Trazado_874700" data-name="Trazado 874700" d="M23,55a1,1,0,0,0,0,2H37a1,1,0,0,0,0-2Z" fill="#3a1d71"/>
      <path id="Trazado_874701" data-name="Trazado 874701" d="M56,38a1,1,0,0,0,1-1V23a1,1,0,0,0-2,0V37A1,1,0,0,0,56,38Z" fill="#3a1d71"/>
    </g>
  </g>
</svg>
