<svg id="Grupo_1099917" data-name="Grupo 1099917" xmlns="http://www.w3.org/2000/svg" xmlns:xlink="http://www.w3.org/1999/xlink" width="190" height="72.759" viewBox="0 0 190 72.759">
  <defs>
    <clipPath id="clip-path">
      <rect id="Rectángulo_401521" data-name="Rectángulo 401521" width="190" height="72.758" fill="none"/>
    </clipPath>
  </defs>
  <g id="Grupo_1099916" data-name="Grupo 1099916" clip-path="url(#clip-path)">
    <path id="Trazado_874864" data-name="Trazado 874864" d="M181.984,72.758,8.011,72.708C3.586,72.708,0,68.194,0,62.625L0,10.081C0,4.513,3.591,0,8.016,0L181.989.05C186.414.05,190,4.565,190,10.133l0,52.544c0,5.568-3.588,10.082-8.013,10.081" transform="translate(0 0)" fill="#ffcb05"/>
    <path id="Trazado_874865" data-name="Trazado 874865" d="M73.116,92.832a.537.537,0,0,1-.537-.537V88.809a3.05,3.05,0,0,1,1-2.257l1.878-1.7a3.417,3.417,0,0,1,2.3-.885h4.639a.537.537,0,0,1,.537.537V92.3a.537.537,0,0,1-.537.537Z" transform="translate(-55.633 -64.361)" fill="#ffcb05"/>
    <path id="Trazado_874866" data-name="Trazado 874866" d="M80.632,82.738v7.793H71.354V87.045a2.512,2.512,0,0,1,.824-1.859l1.878-1.7a2.892,2.892,0,0,1,1.937-.746Zm0-1.074H75.993a3.952,3.952,0,0,0-2.657,1.024l-1.878,1.7a3.587,3.587,0,0,0-1.177,2.655v3.486a1.074,1.074,0,0,0,1.074,1.074h9.278a1.074,1.074,0,0,0,1.074-1.074V82.738a1.074,1.074,0,0,0-1.074-1.074" transform="translate(-53.871 -62.597)" fill="#42210b"/>
    <path id="Trazado_874867" data-name="Trazado 874867" d="M84.158,103.757H74.88v-3.486a2.509,2.509,0,0,1,.4-1.353h8.877Z" transform="translate(-57.397 -75.823)" fill="#faa61a"/>
    <path id="Trazado_874868" data-name="Trazado 874868" d="M88.672,94.7h-3.4a.243.243,0,0,1-.152-.433l1.162-.929a1.983,1.983,0,0,1,1.236-.434H88.53" transform="translate(-65.177 -71.209)" fill="#fff"/>
    <path id="Trazado_874869" data-name="Trazado 874869" d="M86.906,93.469h-3.4a.78.78,0,0,1-.488-1.389l1.162-.93a2.525,2.525,0,0,1,1.572-.551h1.011a.537.537,0,0,1,0,1.074H85.754a1.447,1.447,0,0,0-.9.316l-.508.406h2.561a.537.537,0,1,1,0,1.074" transform="translate(-63.411 -69.446)" fill="#42210b"/>
    <line id="Línea_677" data-name="Línea 677" x1="1.407" transform="translate(15.97 28.485)" fill="#ffcb05"/>
    <path id="Trazado_874870" data-name="Trazado 874870" d="M68.045,120.774H66.638a.537.537,0,1,1,0-1.074h1.407a.537.537,0,1,1,0,1.074" transform="translate(-50.668 -91.752)" fill="#42210b"/>
    <path id="Trazado_874871" data-name="Trazado 874871" d="M80.734,116.271a2,2,0,1,1,2-2,2,2,0,0,1-2,2" transform="translate(-60.353 -86.063)" fill="#faa61a"/>
    <path id="Trazado_874872" data-name="Trazado 874872" d="M78.971,111.05a1.46,1.46,0,1,1-1.46,1.46,1.46,1.46,0,0,1,1.46-1.46m0-1.074A2.534,2.534,0,1,0,81.5,112.51a2.537,2.537,0,0,0-2.534-2.534" transform="translate(-58.59 -84.299)" fill="#42210b"/>
    <path id="Trazado_874873" data-name="Trazado 874873" d="M104.689,83.892c-2.464,0-3.109-.149-3.4-.279a.537.537,0,0,1-.316-.489V74.377a2.134,2.134,0,0,1,2.131-2.133h8.044a2.135,2.135,0,0,1,2.132,2.133v7.339a2.135,2.135,0,0,1-2.132,2.133h-3.977c.008,0-1.193.044-2.487.044Z" transform="translate(-77.402 -55.376)" fill="#ffcb05"/>
    <path id="Trazado_874874" data-name="Trazado 874874" d="M109.391,71.017a1.6,1.6,0,0,1,1.6,1.6v7.339a1.6,1.6,0,0,1-1.6,1.6h-3.977s-1.189.044-2.487.044a12.9,12.9,0,0,1-3.175-.231V72.613a1.6,1.6,0,0,1,1.595-1.6Zm0-1.074h-8.044a2.672,2.672,0,0,0-2.669,2.67V81.36a1.074,1.074,0,0,0,.631.979c.375.17,1.073.326,3.617.326,1.227,0,2.339-.038,2.507-.044h3.957a2.672,2.672,0,0,0,2.669-2.67V72.613a2.672,2.672,0,0,0-2.669-2.67" transform="translate(-75.639 -53.613)" fill="#42210b"/>
    <path id="Trazado_874875" data-name="Trazado 874875" d="M114.512,98.918v3.243a1.6,1.6,0,0,1-1.6,1.6H108.94s-4.851.18-5.662-.187V98.918Z" transform="translate(-79.165 -75.823)" fill="#faa61a"/>
    <path id="Trazado_874876" data-name="Trazado 874876" d="M129.431,82.725a.537.537,0,0,1-.537-.537v-1.8a.346.346,0,0,0-.345-.346H125.36a.537.537,0,0,1,0-1.074h3.189a1.421,1.421,0,0,1,1.419,1.42v1.8a.537.537,0,0,1-.537.537" transform="translate(-95.679 -60.532)" fill="#fff"/>
    <path id="Trazado_874877" data-name="Trazado 874877" d="M122.269,116.271a2,2,0,1,1,2-2,2,2,0,0,1-2,2" transform="translate(-92.191 -86.063)" fill="#faa61a"/>
    <path id="Trazado_874878" data-name="Trazado 874878" d="M120.506,111.05a1.46,1.46,0,1,1-1.46,1.46,1.46,1.46,0,0,1,1.46-1.46m0-1.074a2.534,2.534,0,1,0,2.534,2.534,2.537,2.537,0,0,0-2.534-2.534" transform="translate(-90.428 -84.299)" fill="#42210b"/>
    <path id="Rectángulo_401512" data-name="Rectángulo 401512" d="M6.619,0h3.847a6.619,6.619,0,0,1,6.619,6.619v0a6.619,6.619,0,0,1-6.619,6.619H6.62A6.62,6.62,0,0,1,0,6.619v0A6.619,6.619,0,0,1,6.619,0Z" transform="translate(44.994 16.919)" fill="#ffcb05"/>
    <path id="Trazado_874879" data-name="Trazado 874879" d="M205.652,71.236a1.843,1.843,0,0,1,1.843,1.843v8.478a1.843,1.843,0,0,1-1.843,1.843H193.327a1.843,1.843,0,0,1-1.843-1.843V73.079a1.843,1.843,0,0,1,1.843-1.843Zm0-1.074H193.327a2.92,2.92,0,0,0-2.917,2.917v8.478a2.92,2.92,0,0,0,2.917,2.917h12.325a2.92,2.92,0,0,0,2.917-2.917V73.079a2.92,2.92,0,0,0-2.917-2.917" transform="translate(-145.953 -53.781)" fill="#42210b"/>
    <path id="Trazado_874880" data-name="Trazado 874880" d="M195.01,101.032v4.188a1.843,1.843,0,0,0,1.843,1.843h12.325a1.843,1.843,0,0,0,1.843-1.843v-4.188Z" transform="translate(-149.479 -77.443)" fill="#faa61a"/>
    <path id="Trazado_874881" data-name="Trazado 874881" d="M202.507,81.788a2.529,2.529,0,0,1-1.8-.746l-6.14-6.14a.537.537,0,1,1,.76-.76l6.14,6.14a1.472,1.472,0,0,0,2.082,0l6.1-6.12a.537.537,0,0,1,.761.758l-6.1,6.121a2.531,2.531,0,0,1-1.8.746Z" transform="translate(-149.019 -56.711)" fill="#42210b"/>
    <path id="Trazado_874882" data-name="Trazado 874882" d="M241.56,106.387a.536.536,0,0,1-.379-.157l-5.729-5.712a.537.537,0,1,1,.758-.761l5.729,5.712a.537.537,0,0,1-.379.917" transform="translate(-180.358 -76.346)" fill="#42210b"/>
    <path id="Trazado_874883" data-name="Trazado 874883" d="M195.534,106.336a.537.537,0,0,1-.379-.918l5.608-5.575a.537.537,0,0,1,.757.762l-5.608,5.575a.537.537,0,0,1-.379.156" transform="translate(-149.469 -76.412)" fill="#42210b"/>
    <path id="Trazado_874884" data-name="Trazado 874884" d="M233.294,80.056h-2.51a.537.537,0,0,1,0-1.074h2.51a.537.537,0,0,1,0,1.074" transform="translate(-176.489 -60.541)" fill="#fff"/>
    <path id="Trazado_874885" data-name="Trazado 874885" d="M319.9,85.4H299.865a.587.587,0,0,1,0-1.173H319.9a1.282,1.282,0,0,0,1.281-1.281V74.355a1.282,1.282,0,0,0-1.281-1.281H299.984a.587.587,0,0,1,0-1.173H319.9a2.457,2.457,0,0,1,2.454,2.455v8.592A2.457,2.457,0,0,1,319.9,85.4" transform="translate(-229.403 -55.113)" fill="#42210b"/>
    <path id="Trazado_874886" data-name="Trazado 874886" d="M373.085,105.663a.536.536,0,0,1-.379-.157l-5.313-5.3a.537.537,0,1,1,.758-.761l5.313,5.3a.537.537,0,0,1-.379.917" transform="translate(-281.493 -76.109)" fill="#42210b"/>
    <path id="Trazado_874887" data-name="Trazado 874887" d="M365.42,81.245h-2.328a.537.537,0,0,1,0-1.074h2.328a.537.537,0,0,1,0,1.074" transform="translate(-277.906 -61.453)" fill="#fff"/>
    <path id="Trazado_874888" data-name="Trazado 874888" d="M308.49,99.358h-8.462a.537.537,0,1,1,0-1.074h8.462a.537.537,0,0,1,0,1.074" transform="translate(-229.566 -75.337)" fill="#42210b"/>
    <path id="Trazado_874889" data-name="Trazado 874889" d="M317.688,111.694h-5.661a.537.537,0,0,1,0-1.074h5.661a.537.537,0,0,1,0,1.074" transform="translate(-238.764 -84.792)" fill="#42210b"/>
    <path id="Trazado_874890" data-name="Trazado 874890" d="M323.262,82.907a2.384,2.384,0,0,1-1.7-.7l-2.384-2.385a2.445,2.445,0,0,0-1.716-.71h-5.358a.537.537,0,1,1,0-1.074h5.358a3.527,3.527,0,0,1,2.475,1.025l2.384,2.385a1.328,1.328,0,0,0,1.877,0l5.655-5.676a.537.537,0,0,1,.761.758L324.96,82.2a2.385,2.385,0,0,1-1.7.7Z" transform="translate(-238.824 -57.957)" fill="#42210b"/>
    <path id="Trazado_874891" data-name="Trazado 874891" d="M376.908,80.646a1.274,1.274,0,0,0-.12-.539l-4.809,4.827,4.824,4.81a1.278,1.278,0,0,0,.1-.507Z" transform="translate(-285.129 -61.404)" fill="#faa61a"/>
    <path id="Trazado_874892" data-name="Trazado 874892" d="M437.046,87.434a7.489,7.489,0,0,0-2.211.334,3.447,3.447,0,0,0-1.965,3.113V93.02a3.443,3.443,0,0,0,1.519,2.858v2.91h6.105V90.881a3.448,3.448,0,0,0-3.448-3.447" transform="translate(-331.803 -67.02)" fill="#ffcb05"/>
    <path id="Trazado_874893" data-name="Trazado 874893" d="M438.939,97.708h-6.105a.473.473,0,0,1-.473-.473V94.566a3.918,3.918,0,0,1-1.519-3.1V89.329a3.941,3.941,0,0,1,2.234-3.54,7.852,7.852,0,0,1,2.415-.38,3.925,3.925,0,0,1,3.921,3.921v7.906a.473.473,0,0,1-.473.473m-5.632-.947h5.159V89.329a2.978,2.978,0,0,0-2.975-2.974,7.272,7.272,0,0,0-2.007.288,2.99,2.99,0,0,0-1.7,2.686v2.138a2.974,2.974,0,0,0,1.31,2.466.473.473,0,0,1,.208.392Z" transform="translate(-330.249 -65.467)" fill="#42210b"/>
    <path id="Trazado_874894" data-name="Trazado 874894" d="M441.449,104.981h-6.786v1.489A3.027,3.027,0,0,0,436,108.98a.42.42,0,0,1,.185.347v2.491h5.267Z" transform="translate(-333.178 -80.47)" fill="#faa61a"/>
    <path id="Trazado_874895" data-name="Trazado 874895" d="M455.168,123.365a.473.473,0,0,1-.473-.473v-2.91a.473.473,0,0,1,.208-.392,4.264,4.264,0,0,0,.675-.565.473.473,0,0,1,.68.658,5.2,5.2,0,0,1-.617.543v2.666a.473.473,0,0,1-.473.473" transform="translate(-348.533 -91.124)" fill="#42210b"/>
    <path id="Trazado_874896" data-name="Trazado 874896" d="M434.348,105.395h-2.49a.473.473,0,1,1,0-.947h2.49a.473.473,0,0,1,0,.947" transform="translate(-330.664 -80.061)" fill="#42210b"/>
    <rect id="Rectángulo_401513" data-name="Rectángulo 401513" width="7.072" height="6.375" transform="translate(110.274 22.651)" fill="#ffcb05"/>
    <path id="Trazado_874897" data-name="Trazado 874897" d="M477.825,102.309h-7.072a.473.473,0,0,1-.473-.473V95.461a.473.473,0,0,1,.473-.473h7.072a.473.473,0,0,1,.473.473v6.375a.473.473,0,0,1-.473.473m-6.6-.947h6.126V95.934h-6.126Z" transform="translate(-360.478 -72.81)" fill="#42210b"/>
    <rect id="Rectángulo_401514" data-name="Rectángulo 401514" width="8.378" height="1.518" transform="translate(109.606 21.589)" fill="#ffcb05"/>
    <path id="Trazado_874898" data-name="Trazado 874898" d="M476.268,92.9H467.89a.473.473,0,0,1-.473-.473V90.91a.473.473,0,0,1,.473-.473h8.378a.473.473,0,0,1,.473.473v1.518a.473.473,0,0,1-.473.473m-7.9-.947h7.431v-.571h-7.431Z" transform="translate(-358.284 -69.322)" fill="#42210b"/>
    <path id="Trazado_874899" data-name="Trazado 874899" d="M490.147,84.773a8.243,8.243,0,0,0-1.779,1.41,8.242,8.242,0,0,0,2.268-.1.7.7,0,0,0-.489-1.311" transform="translate(-374.344 -64.946)" fill="#ffcb05"/>
    <path id="Trazado_874900" data-name="Trazado 874900" d="M487.823,85.122c-.3,0-.637-.007-1.023-.019a.473.473,0,0,1-.306-.821,7.826,7.826,0,0,1,1.934-1.506,1.173,1.173,0,1,1,.819,2.2,4.462,4.462,0,0,1-1.424.148m.936-1.459h0a3.423,3.423,0,0,0-.723.511,3.4,3.4,0,0,0,.88-.087.224.224,0,0,0,.127-.118.226.226,0,0,0-.285-.306" transform="translate(-372.79 -63.393)" fill="#42210b"/>
    <rect id="Rectángulo_401515" data-name="Rectángulo 401515" width="3.848" height="0.68" transform="translate(110.025 22.008)" fill="#faa61a"/>
    <rect id="Rectángulo_401516" data-name="Rectángulo 401516" width="3.179" height="5.081" transform="translate(110.693 23.525)" fill="#faa61a"/>
    <path id="Trazado_874901" data-name="Trazado 874901" d="M476.246,84.773a8.242,8.242,0,0,1,1.779,1.41,8.242,8.242,0,0,1-2.268-.1.7.7,0,0,1,.489-1.311" transform="translate(-364.329 -64.946)" fill="#ffcb05"/>
    <path id="Trazado_874902" data-name="Trazado 874902" d="M475.463,85.12a4.464,4.464,0,0,1-1.425-.148,1.173,1.173,0,0,1,.82-2.2h0a7.821,7.821,0,0,1,1.934,1.506.473.473,0,0,1-.306.821c-.386.012-.725.019-1.023.019m-1.015-1.473a.23.23,0,0,0-.094.021.224.224,0,0,0-.118.127.227.227,0,0,0,.006.174.223.223,0,0,0,.126.117,3.41,3.41,0,0,0,.881.087,3.425,3.425,0,0,0-.723-.511.227.227,0,0,0-.078-.014" transform="translate(-362.775 -63.391)" fill="#42210b"/>
    <path id="Trazado_874903" data-name="Trazado 874903" d="M463.568,104.437a.869.869,0,0,1-.872-.864v-1.053a.529.529,0,0,1-.047-.154.512.512,0,0,1,.109-.392l.019-.025a.5.5,0,0,1,.044-.055l.44-.56.019-.022.2-.222a.888.888,0,0,1,.68-.317.86.86,0,0,1,.861.716.812.812,0,0,1,0,.249h.645a.865.865,0,0,1,.864.864v.97a.859.859,0,0,1-.852.864Z" transform="translate(-354.627 -77.245)" fill="#fff"/>
    <path id="Trazado_874904" data-name="Trazado 874904" d="M462.6,99.694a.392.392,0,0,1,.393.318.355.355,0,0,1-.072.276c-.025.031-.111.131-.188.221-.049.057-.025.151.05.151h1.323a.391.391,0,0,1,.391.391v.97a.384.384,0,0,1-.379.391h-2.109a.4.4,0,0,1-.4-.391v-1.186a.057.057,0,0,0-.024-.046.049.049,0,0,1-.02-.07l.026-.034c.007-.007.017-.014.017-.023s0,0,0,0,.012-.014.018-.021l.444-.565.2-.23a.4.4,0,0,1,.26-.146.431.431,0,0,1,.06,0m0-.947h0a1.385,1.385,0,0,0-.191.014,1.343,1.343,0,0,0-.847.467l-.193.216-.037.045-.14.178-.291.37a.9.9,0,0,0-.061.078l0,.006-.008.011a.982.982,0,0,0-.161.926v.963a1.343,1.343,0,0,0,1.345,1.337h2.109a1.333,1.333,0,0,0,1.325-1.337v-.97a1.339,1.339,0,0,0-1.337-1.337H463.9a1.334,1.334,0,0,0-1.3-.966" transform="translate(-353.073 -75.692)" fill="#42210b"/>
    <path id="Trazado_874905" data-name="Trazado 874905" d="M447.338,96.566a.641.641,0,0,0-.636-.646h-1.219a.306.306,0,0,1-.308-.3v-.954c0-.007,0-.011,0-.018a1.471,1.471,0,0,0-2.942,0V97.3a1.214,1.214,0,0,0,1.312,1.269h3.146a.646.646,0,0,0,.646-.646Z" transform="translate(-338.98 -71.439)" fill="#ffcb05"/>
    <path id="Trazado_874906" data-name="Trazado 874906" d="M445.138,97.488h-3.146a1.688,1.688,0,0,1-1.786-1.743v-2.63h0v0s0-.025,0-.028a1.944,1.944,0,0,1,3.888,0s0,.023,0,.026v.785h1.053a1.116,1.116,0,0,1,1.109,1.119v1.356a1.12,1.12,0,0,1-1.12,1.119m-3.985-4.381v2.638a.755.755,0,0,0,.839.8h3.146a.173.173,0,0,0,.173-.172V95.013a.168.168,0,0,0-.163-.173h-1.219a.78.78,0,0,1-.781-.777v-.939c0-.008,0-.024,0-.033a1,1,0,0,0-2,.008Z" transform="translate(-337.427 -69.886)" fill="#42210b"/>
    <line id="Línea_678" data-name="Línea 678" y2="7.194" transform="translate(113.81 21.74)" fill="#ffcb05"/>
    <rect id="Rectángulo_401517" data-name="Rectángulo 401517" width="0.947" height="7.194" transform="translate(113.337 21.74)" fill="#42210b"/>
    <path id="Trazado_874907" data-name="Trazado 874907" d="M442.532,70.344h-5.459v1.3h0a2.729,2.729,0,0,0,5.459,0h0Z" transform="translate(-335.025 -53.92)" fill="#fff"/>
    <path id="Trazado_874908" data-name="Trazado 874908" d="M438.249,73.275a3.2,3.2,0,0,1-3.2-3.181v-.3c0-.007,0-.013,0-.02v-.689h0v-.3a.473.473,0,0,1,.473-.473h5.459a.473.473,0,0,1,.473.473v1.3a3.2,3.2,0,0,1-3.2,3.185m-2.257-3.613v.428a2.256,2.256,0,0,0,4.512,0v-.824h-4.513v.4Z" transform="translate(-333.471 -52.366)" fill="#42210b"/>
    <path id="Trazado_874909" data-name="Trazado 874909" d="M441.053,60.182v-.976a2.518,2.518,0,0,0-2.519-2.518h-1.291a2.519,2.519,0,0,0-2.519,2.518v.976Z" transform="translate(-333.225 -43.452)" fill="#faa61a"/>
    <path id="Trazado_874910" data-name="Trazado 874910" d="M439.5,59.1h-6.328a.473.473,0,0,1-.473-.473v-.976a3,3,0,0,1,2.992-2.992h1.291a3,3,0,0,1,2.992,2.992v.976a.473.473,0,0,1-.473.473m-5.855-.947h5.382v-.5a2.047,2.047,0,0,0-2.045-2.045H435.69a2.048,2.048,0,0,0-2.046,2.045Z" transform="translate(-331.672 -41.898)" fill="#42210b"/>
    <path id="Trazado_874911" data-name="Trazado 874911" d="M440.67,70.575h-7.5a.473.473,0,1,1,0-.947h7.5a.473.473,0,1,1,0,.947" transform="translate(-331.672 -53.371)" fill="#42210b"/>
    <path id="Trazado_874912" data-name="Trazado 874912" d="M449.934,62.325a.537.537,0,0,1-.476-.288.7.7,0,0,0-.714-.372.537.537,0,0,1,0-1.074,1.78,1.78,0,0,1,1.666.948.537.537,0,0,1-.475.786" transform="translate(-343.56 -46.444)" fill="#fff"/>
    <path id="Trazado_874913" data-name="Trazado 874913" d="M451.138,137.561v-1.1h0v-1.15h3.284a1.15,1.15,0,0,1,1.143,1.152v1.1Z" transform="translate(-345.806 -103.721)" fill="#ffcb05"/>
    <path id="Trazado_874914" data-name="Trazado 874914" d="M454.013,136.482h-4.429a.473.473,0,0,1-.473-.473v-1.1c0-.014,0-.028,0-.042v-1.108a.473.473,0,0,1,.473-.473h3.284a1.623,1.623,0,0,1,1.617,1.625v1.1a.473.473,0,0,1-.473.473m-3.956-.947h3.483v-.622a.677.677,0,0,0-.674-.678h-2.807v.677c0,.014,0,.028,0,.042Z" transform="translate(-344.252 -102.168)" fill="#42210b"/>
    <path id="Trazado_874915" data-name="Trazado 874915" d="M439.378,137.561v-1.1h0v-1.15h3.284a1.15,1.15,0,0,1,1.143,1.152v1.1Z" transform="translate(-336.792 -103.721)" fill="#ffcb05"/>
    <path id="Trazado_874916" data-name="Trazado 874916" d="M442.253,136.482h-4.429a.473.473,0,0,1-.473-.473v-1.1c0-.014,0-.028,0-.042v-1.108a.473.473,0,0,1,.473-.473h3.284a1.623,1.623,0,0,1,1.617,1.625v1.1a.473.473,0,0,1-.473.473m-3.956-.947h3.483v-.622a.676.676,0,0,0-.674-.678H438.3v.677c0,.014,0,.028,0,.042Z" transform="translate(-335.238 -102.168)" fill="#42210b"/>
    <path id="Trazado_874917" data-name="Trazado 874917" d="M448.81,138.5h-.546a.537.537,0,1,1,0-1.074h.546a.537.537,0,0,1,0,1.074" transform="translate(-343.192 -105.338)" fill="#fff"/>
    <path id="Trazado_874918" data-name="Trazado 874918" d="M461.889,138.5h-.364a.537.537,0,0,1,0-1.074h.364a.537.537,0,0,1,0,1.074" transform="translate(-353.356 -105.338)" fill="#fff"/>
    <path id="Trazado_874919" data-name="Trazado 874919" d="M559.707,72.847a.705.705,0,0,1-.458-.2l-.519-.518a4.35,4.35,0,1,0-6.152,6.152l6.164,6.146a1.424,1.424,0,0,0,.965.413Z" transform="translate(-422.586 -54.313)" fill="#faa61a"/>
    <path id="Trazado_874920" data-name="Trazado 874920" d="M561.752,82.44a2.528,2.528,0,0,1-1.8-.746l-5.783-5.783a.537.537,0,0,1,.76-.76l5.783,5.783a1.472,1.472,0,0,0,2.082,0l5.763-5.784a.537.537,0,1,1,.761.758l-5.764,5.785a2.53,2.53,0,0,1-1.8.746Z" transform="translate(-424.661 -57.483)" fill="#42210b"/>
    <path id="Trazado_874921" data-name="Trazado 874921" d="M560.337,67.33a4.349,4.349,0,0,1,3.076,7.425l-2.544,2.536L557.247,80.9a1.433,1.433,0,0,1-2.022,0l-6.164-6.146a4.35,4.35,0,0,1,6.152-6.152l.519.518a.715.715,0,0,0,1.01,0l.519-.518a4.335,4.335,0,0,1,3.075-1.273m0-1.074a5.388,5.388,0,0,0-3.835,1.588l-.265.264-.266-.265a5.424,5.424,0,0,0-7.67,7.672l6.165,6.147a2.506,2.506,0,0,0,3.538,0l3.623-3.611,2.544-2.536a5.423,5.423,0,0,0-3.834-9.26" transform="translate(-419.069 -50.787)" fill="#42210b"/>
    <path id="Trazado_874922" data-name="Trazado 874922" d="M603.015,81.461a.537.537,0,0,1-.536-.509,2.688,2.688,0,0,0-1.02-1.993,2.3,2.3,0,0,0-1.884-.459.537.537,0,1,1-.211-1.053,3.406,3.406,0,0,1,2.754.664,3.761,3.761,0,0,1,1.433,2.787.537.537,0,0,1-.509.564h-.028" transform="translate(-459.094 -59.315)" fill="#fff"/>
    <path id="Trazado_874923" data-name="Trazado 874923" d="M596.7,102.908a.536.536,0,0,1-.377-.154l-2.792-2.746a.537.537,0,1,1,.753-.766l2.792,2.746a.537.537,0,0,1-.376.92" transform="translate(-454.83 -75.953)" fill="#42210b"/>
    <path id="Trazado_874924" data-name="Trazado 874924" d="M564.7,103.208a.537.537,0,0,1-.376-.92l3.02-2.96a.537.537,0,1,1,.752.767l-3.02,2.96a.535.535,0,0,1-.376.153" transform="translate(-432.44 -76.02)" fill="#42210b"/>
    <path id="Trazado_874925" data-name="Trazado 874925" d="M679.108,72.847a.705.705,0,0,1-.458-.2l-.519-.518a4.35,4.35,0,1,0-6.152,6.152l6.164,6.146a1.424,1.424,0,0,0,.965.413Z" transform="translate(-514.109 -54.313)" fill="#faa61a"/>
    <path id="Trazado_874926" data-name="Trazado 874926" d="M679.738,67.33a4.349,4.349,0,0,1,3.076,7.425l-2.543,2.536L676.648,80.9a1.433,1.433,0,0,1-2.022,0l-6.164-6.146a4.35,4.35,0,0,1,6.152-6.152l.519.518a.715.715,0,0,0,1.01,0l.519-.518a4.335,4.335,0,0,1,3.075-1.273m0-1.074a5.388,5.388,0,0,0-3.835,1.588l-.265.264-.266-.265a5.424,5.424,0,0,0-7.67,7.672l6.165,6.147a2.506,2.506,0,0,0,3.538,0l3.623-3.611,2.543-2.536a5.423,5.423,0,0,0-3.834-9.26" transform="translate(-510.592 -50.787)" fill="#42210b"/>
    <path id="Trazado_874927" data-name="Trazado 874927" d="M722.414,81.461a.537.537,0,0,1-.536-.509,2.69,2.69,0,0,0-1.019-1.993,2.3,2.3,0,0,0-1.884-.459.537.537,0,1,1-.211-1.053,3.406,3.406,0,0,1,2.754.664,3.763,3.763,0,0,1,1.433,2.787.537.537,0,0,1-.509.564h-.028" transform="translate(-550.616 -59.315)" fill="#fff"/>
    <path id="Trazado_874928" data-name="Trazado 874928" d="M576.029,241.562a2.464,2.464,0,1,1-2.464-2.465,2.464,2.464,0,0,1,2.464,2.465" transform="translate(-437.76 -183.273)" fill="#faa61a"/>
    <path id="Trazado_874929" data-name="Trazado 874929" d="M571.8,242.8a3,3,0,1,1,3-3,3,3,0,0,1-3,3m0-4.929a1.927,1.927,0,1,0,1.927,1.928,1.93,1.93,0,0,0-1.927-1.928" transform="translate(-435.996 -181.51)" fill="#42210b"/>
    <line id="Línea_679" data-name="Línea 679" y1="10.141" transform="translate(138.269 48.044)" fill="#faa61a"/>
    <rect id="Rectángulo_401518" data-name="Rectángulo 401518" width="1.074" height="10.141" transform="translate(137.732 48.044)" fill="#42210b"/>
    <path id="Trazado_874930" data-name="Trazado 874930" d="M607,230.409a2.464,2.464,0,1,1-2.464-2.465A2.464,2.464,0,0,1,607,230.409" transform="translate(-461.5 -174.724)" fill="#faa61a"/>
    <path id="Trazado_874931" data-name="Trazado 874931" d="M602.774,231.647a3,3,0,1,1,3-3,3,3,0,0,1-3,3m0-4.929a1.927,1.927,0,1,0,1.927,1.928,1.93,1.93,0,0,0-1.927-1.928" transform="translate(-459.738 -172.961)" fill="#42210b"/>
    <line id="Línea_680" data-name="Línea 680" y1="9.018" transform="translate(145.5 46.365)" fill="#faa61a"/>
    <rect id="Rectángulo_401519" data-name="Rectángulo 401519" width="1.074" height="9.018" transform="translate(144.963 46.365)" fill="#42210b"/>
    <path id="Trazado_874932" data-name="Trazado 874932" d="M599.44,195.189,592.208,197v-1.789a1.7,1.7,0,0,1,1.284-1.645l4.663-1.167a1.033,1.033,0,0,1,1.284,1Z" transform="translate(-453.939 -147.452)" fill="#ffcb05"/>
    <path id="Trazado_874933" data-name="Trazado 874933" d="M590.445,195.772a.537.537,0,0,1-.537-.537v-1.79a2.229,2.229,0,0,1,1.691-2.166l4.663-1.167a1.57,1.57,0,0,1,1.951,1.523v1.79a.537.537,0,0,1-.407.521l-7.232,1.809a.537.537,0,0,1-.13.016m6.2-4.632a.5.5,0,0,0-.122.015l-4.663,1.167a1.157,1.157,0,0,0-.878,1.124v1.1l6.158-1.541v-1.37a.5.5,0,0,0-.495-.5" transform="translate(-452.176 -145.689)" fill="#42210b"/>
    <path id="Trazado_874934" data-name="Trazado 874934" d="M580.116,246.312a.537.537,0,0,1-.522-.41.221.221,0,0,0-.215-.169.537.537,0,1,1,0-1.074,1.292,1.292,0,0,1,1.259.989.537.537,0,0,1-.522.664" transform="translate(-443.694 -187.536)" fill="#fff"/>
    <path id="Trazado_874935" data-name="Trazado 874935" d="M611.536,234.882a.537.537,0,0,1-.521-.41.221.221,0,0,0-.216-.169.537.537,0,1,1,0-1.074,1.292,1.292,0,0,1,1.259.989.537.537,0,0,1-.522.664" transform="translate(-467.778 -178.775)" fill="#fff"/>
    <path id="Trazado_874936" data-name="Trazado 874936" d="M82.99,208.2l.639,1.314h0l.444,1.41.261.818,0,0,1.6,5.076a2.079,2.079,0,1,1-3.965,1.253L80.5,213.416l-1.481-3.959A2.08,2.08,0,1,1,82.99,208.2" transform="translate(-60.499 -158.478)" fill="#faa61a"/>
    <path id="Trazado_874937" data-name="Trazado 874937" d="M82.187,218.306a2.621,2.621,0,0,1-2.492-1.829l-1.459-4.648-1.476-3.946-.009-.027a2.617,2.617,0,0,1,4.977-1.616l.6,1.229a.523.523,0,0,1,.058.124l.7,2.226c.006.018.01.035.014.053l1.583,5.028a2.62,2.62,0,0,1-2.5,3.406M77.771,207.52l1.475,3.945.009.027,1.463,4.661a1.542,1.542,0,1,0,2.941-.93l-1.6-5.077c-.005-.016-.009-.033-.013-.05l-.671-2.121-.632-1.3a.514.514,0,0,1-.029-.073,1.543,1.543,0,0,0-2.946.917" transform="translate(-58.738 -156.716)" fill="#42210b"/>
    <path id="Trazado_874938" data-name="Trazado 874938" d="M80.935,204.321H76.94a3.276,3.276,0,0,0,0,6.551h3.995Z" transform="translate(-56.466 -156.616)" fill="#faa61a"/>
    <path id="Trazado_874939" data-name="Trazado 874939" d="M79.173,209.645H75.178a3.813,3.813,0,0,1,0-7.625h3.995a.537.537,0,0,1,.537.537v6.551a.537.537,0,0,1-.537.537m-3.995-6.551a2.739,2.739,0,0,0,0,5.477h3.458v-5.477Z" transform="translate(-54.703 -154.852)" fill="#42210b"/>
    <path id="Trazado_874940" data-name="Trazado 874940" d="M110.48,204.321h3.995a3.287,3.287,0,1,1,0,6.551H110.48Z" transform="translate(-84.685 -156.616)" fill="#fff"/>
    <path id="Trazado_874941" data-name="Trazado 874941" d="M112.711,209.645h-4a.537.537,0,0,1-.537-.537v-6.551a.537.537,0,0,1,.537-.537h4a3.822,3.822,0,1,1,0,7.625m-3.458-1.074h3.458a2.752,2.752,0,1,0,0-5.477h-3.458Z" transform="translate(-82.921 -154.852)" fill="#42210b"/>
    <path id="Trazado_874942" data-name="Trazado 874942" d="M104.777,195.168V201.7l4.522,2.611a1.377,1.377,0,0,0,2.065-1.192v-9.367a1.377,1.377,0,0,0-2.065-1.192Z" transform="translate(-80.314 -147.456)" fill="#ffcb05"/>
    <path id="Trazado_874943" data-name="Trazado 874943" d="M108.223,203.265a1.91,1.91,0,0,1-.957-.259l-4.522-2.611a.537.537,0,0,1-.269-.465V193.4a.536.536,0,0,1,.269-.465l4.522-2.611a1.914,1.914,0,0,1,2.87,1.657v9.367a1.92,1.92,0,0,1-1.913,1.917m-4.673-3.645,4.253,2.456a.839.839,0,0,0,1.259-.727v-9.367a.84.84,0,0,0-1.26-.727l-4.253,2.456Z" transform="translate(-78.55 -145.689)" fill="#42210b"/>
    <path id="Trazado_874944" data-name="Trazado 874944" d="M144.566,191.663a.537.537,0,0,1-.38-.917l1.807-1.807a.537.537,0,1,1,.759.76l-1.807,1.807a.535.535,0,0,1-.38.157" transform="translate(-110.401 -144.706)" fill="#fff"/>
    <path id="Trazado_874945" data-name="Trazado 874945" d="M155.266,217.257h-2.555a.537.537,0,0,1,0-1.074h2.555a.537.537,0,1,1,0,1.074" transform="translate(-116.644 -165.709)" fill="#fff"/>
    <path id="Trazado_874946" data-name="Trazado 874946" d="M146.373,238.728a.535.535,0,0,1-.38-.157l-1.807-1.806a.537.537,0,0,1,.759-.76l1.807,1.806a.537.537,0,0,1-.38.917" transform="translate(-110.402 -180.782)" fill="#fff"/>
    <path id="Trazado_874947" data-name="Trazado 874947" d="M86.9,212.99H84.733a.537.537,0,0,1,0-1.074H86.9a.537.537,0,0,1,0,1.074" transform="translate(-64.538 -162.438)" fill="#fff"/>
    <path id="Trazado_874948" data-name="Trazado 874948" d="M111.719,204.155a.537.537,0,0,1-.291-.989L113.25,202a.537.537,0,0,1,.58.9l-1.822,1.17a.535.535,0,0,1-.29.085" transform="translate(-85.223 -154.768)" fill="#fff"/>
    <path id="Trazado_874949" data-name="Trazado 874949" d="M706.773,203.568a2.985,2.985,0,0,1-2.975-2.975V196.55a2.975,2.975,0,0,1,5.95,0v4.042a2.985,2.985,0,0,1-2.975,2.975" transform="translate(-539.475 -148.379)" fill="#ffcb05"/>
    <path id="Trazado_874950" data-name="Trazado 874950" d="M705.01,192.35a2.449,2.449,0,0,1,2.438,2.438v4.042a2.438,2.438,0,0,1-4.876,0v-4.042a2.449,2.449,0,0,1,2.438-2.438m0-1.074a3.523,3.523,0,0,0-3.512,3.512v4.042a3.512,3.512,0,0,0,7.024,0v-4.042a3.523,3.523,0,0,0-3.512-3.512" transform="translate(-537.712 -146.617)" fill="#42210b"/>
    <path id="Trazado_874951" data-name="Trazado 874951" d="M696.71,221.194a6.046,6.046,0,0,1-6.039-6.04v-1.706a.537.537,0,1,1,1.074,0v1.706a4.966,4.966,0,0,0,9.932,0v-1.762a.537.537,0,1,1,1.074,0v1.762a6.047,6.047,0,0,1-6.041,6.04" transform="translate(-529.413 -163.158)" fill="#42210b"/>
    <line id="Línea_681" data-name="Línea 681" y2="3.508" transform="translate(167.298 57.5)" fill="#ffcb05"/>
    <rect id="Rectángulo_401520" data-name="Rectángulo 401520" width="1.074" height="3.508" transform="translate(166.761 57.5)" fill="#42210b"/>
    <path id="Trazado_874952" data-name="Trazado 874952" d="M706.416,258.831h-7.324a.537.537,0,0,1,0-1.074h7.324a.537.537,0,0,1,0,1.074" transform="translate(-535.456 -197.576)" fill="#42210b"/>
    <path id="Trazado_874953" data-name="Trazado 874953" d="M705,191.278a3.522,3.522,0,0,0-3.5,3.512v4.042a3.521,3.521,0,0,0,3.5,3.512Z" transform="translate(-537.712 -146.618)" fill="#faa61a"/>
    <path id="Trazado_874954" data-name="Trazado 874954" d="M705.01,192.35a2.449,2.449,0,0,1,2.438,2.438v4.042a2.438,2.438,0,0,1-4.876,0v-4.042a2.449,2.449,0,0,1,2.438-2.438m0-1.074a3.523,3.523,0,0,0-3.512,3.512v4.042a3.512,3.512,0,0,0,7.024,0v-4.042a3.523,3.523,0,0,0-3.512-3.512" transform="translate(-537.712 -146.617)" fill="#42210b"/>
    <path id="Trazado_874955" data-name="Trazado 874955" d="M714.981,204.061a.537.537,0,0,1-.537-.537v-1.706a.95.95,0,0,0-.946-.945.537.537,0,0,1,0-1.074,2.024,2.024,0,0,1,2.02,2.019v1.706a.537.537,0,0,1-.537.537" transform="translate(-546.5 -153.15)" fill="#fff"/>
    <path id="Trazado_874956" data-name="Trazado 874956" d="M444.617,211.214a1.733,1.733,0,0,1-.864-.234.529.529,0,0,1-.085-.061l-3.365-2.94h-2.376a1.916,1.916,0,0,1-1.914-1.915v-2.906a1.917,1.917,0,0,1,1.914-1.915H440.3l3.365-2.94a.53.53,0,0,1,.085-.061,1.728,1.728,0,0,1,2.6,1.5v9.739a1.734,1.734,0,0,1-1.732,1.733" transform="translate(-334.213 -151.779)" fill="#ffcb05"/>
    <path id="Trazado_874957" data-name="Trazado 874957" d="M442.855,196.784a1.194,1.194,0,0,1,1.2,1.195v9.739a1.191,1.191,0,0,1-1.791,1.034l-3.516-3.072h-2.577a1.377,1.377,0,0,1-1.377-1.378V201.4a1.378,1.378,0,0,1,1.377-1.378h2.577l3.516-3.072a1.185,1.185,0,0,1,.6-.162m0-1.074h0a2.27,2.27,0,0,0-1.132.305,1.065,1.065,0,0,0-.17.122l-3.213,2.807h-2.174a2.454,2.454,0,0,0-2.451,2.452V204.3a2.454,2.454,0,0,0,2.451,2.452h2.174l3.213,2.807a1.063,1.063,0,0,0,.17.122,2.266,2.266,0,0,0,3.4-1.964v-9.739a2.272,2.272,0,0,0-2.269-2.269" transform="translate(-332.451 -150.016)" fill="#42210b"/>
    <path id="Trazado_874958" data-name="Trazado 874958" d="M438.314,226.6v1.379a1.377,1.377,0,0,0,1.377,1.378h2.577l3.516,3.072a1.194,1.194,0,0,0,1.791-1.034v-4.8Z" transform="translate(-335.976 -173.693)" fill="#faa61a"/>
    <path id="Trazado_874959" data-name="Trazado 874959" d="M445.778,219.561h-1.86a.537.537,0,1,1,0-1.074h1.86a.537.537,0,0,1,0,1.074" transform="translate(-339.86 -167.475)" fill="#fff"/>
    <path id="Trazado_874960" data-name="Trazado 874960" d="M462.534,210.185a.537.537,0,0,1-.348-.946l1.417-1.206a.537.537,0,0,1,.7.818l-1.417,1.206a.534.534,0,0,1-.348.128" transform="translate(-354.13 -159.363)" fill="#fff"/>
    <path id="Trazado_874961" data-name="Trazado 874961" d="M489.731,220.946a.584.584,0,0,1-.479-.917,2.438,2.438,0,0,0,0-2.795.584.584,0,0,1,.96-.665,3.605,3.605,0,0,1,0,4.126.583.583,0,0,1-.48.251" transform="translate(-374.942 -165.812)" fill="#42210b"/>
    <path id="Trazado_874962" data-name="Trazado 874962" d="M497.6,215.857a.584.584,0,0,1-.421-.987,5.713,5.713,0,0,0,.023-7.155.584.584,0,1,1,.849-.8,6.865,6.865,0,0,1-.029,8.764.582.582,0,0,1-.422.18" transform="translate(-380.971 -158.463)" fill="#42210b"/>
    <path id="Trazado_874963" data-name="Trazado 874963" d="M505.321,211.98a.584.584,0,0,1-.4-1.012,7.585,7.585,0,0,0,.031-10.511.584.584,0,1,1,.8-.852,8.746,8.746,0,0,1-.035,12.219.581.581,0,0,1-.4.155" transform="translate(-386.891 -152.88)" fill="#42210b"/>
    <path id="Trazado_874964" data-name="Trazado 874964" d="M336.808,211.214a1.734,1.734,0,0,1-.864-.234.546.546,0,0,1-.085-.061l-3.365-2.94h-2.376a1.916,1.916,0,0,1-1.914-1.915v-2.906a1.917,1.917,0,0,1,1.914-1.915h2.376l3.365-2.94a.539.539,0,0,1,.085-.061,1.728,1.728,0,0,1,2.6,1.5v9.739a1.734,1.734,0,0,1-1.732,1.733" transform="translate(-251.576 -151.779)" fill="#ffcb05"/>
    <path id="Trazado_874965" data-name="Trazado 874965" d="M335.045,196.784a1.194,1.194,0,0,1,1.195,1.195v9.739a1.2,1.2,0,0,1-1.195,1.2,1.182,1.182,0,0,1-.6-.162l-3.516-3.072h-2.577a1.377,1.377,0,0,1-1.377-1.378V201.4a1.377,1.377,0,0,1,1.377-1.378h2.577l3.516-3.072a1.184,1.184,0,0,1,.6-.162m0-1.074h0a2.269,2.269,0,0,0-1.132.305,1.073,1.073,0,0,0-.17.121l-3.213,2.807h-2.174A2.454,2.454,0,0,0,325.9,201.4V204.3a2.454,2.454,0,0,0,2.451,2.452h2.174l3.213,2.807a1.058,1.058,0,0,0,.17.121,2.265,2.265,0,0,0,3.4-1.964v-9.739a2.272,2.272,0,0,0-2.269-2.269" transform="translate(-249.813 -150.016)" fill="#42210b"/>
    <path id="Trazado_874966" data-name="Trazado 874966" d="M330.505,226.6v1.379a1.377,1.377,0,0,0,1.377,1.378h2.577l3.516,3.072a1.193,1.193,0,0,0,1.79-1.034v-4.8Z" transform="translate(-253.339 -173.693)" fill="#faa61a"/>
    <path id="Trazado_874967" data-name="Trazado 874967" d="M337.968,219.561h-1.861a.537.537,0,1,1,0-1.074h1.861a.537.537,0,1,1,0,1.074" transform="translate(-257.221 -167.475)" fill="#fff"/>
    <path id="Trazado_874968" data-name="Trazado 874968" d="M354.724,210.185a.537.537,0,0,1-.348-.946l1.417-1.206a.537.537,0,1,1,.7.818l-1.417,1.206a.535.535,0,0,1-.348.128" transform="translate(-271.491 -159.363)" fill="#fff"/>
    <path id="Trazado_874969" data-name="Trazado 874969" d="M381.92,220.946a.584.584,0,0,1-.479-.917,2.437,2.437,0,0,0,0-2.795.584.584,0,0,1,.96-.665,3.605,3.605,0,0,1,0,4.126.583.583,0,0,1-.48.251" transform="translate(-292.303 -165.812)" fill="#42210b"/>
    <path id="Trazado_874970" data-name="Trazado 874970" d="M225.41,211.214a1.734,1.734,0,0,1-.864-.234.547.547,0,0,1-.085-.061l-3.364-2.94h-2.376a1.916,1.916,0,0,1-1.914-1.915v-2.906a1.917,1.917,0,0,1,1.914-1.915H221.1l3.364-2.94a.549.549,0,0,1,.085-.061,1.728,1.728,0,0,1,2.6,1.5v9.739a1.734,1.734,0,0,1-1.732,1.733" transform="translate(-166.187 -151.779)" fill="#ffcb05"/>
    <path id="Trazado_874971" data-name="Trazado 874971" d="M223.647,196.784a1.194,1.194,0,0,1,1.2,1.195v9.739a1.2,1.2,0,0,1-1.195,1.2,1.182,1.182,0,0,1-.6-.162l-3.516-3.072h-2.577a1.377,1.377,0,0,1-1.377-1.378V201.4a1.377,1.377,0,0,1,1.377-1.378h2.577l3.516-3.072a1.184,1.184,0,0,1,.6-.162m0-1.074h0a2.269,2.269,0,0,0-1.132.305,1.073,1.073,0,0,0-.17.121l-3.213,2.807h-2.174a2.454,2.454,0,0,0-2.451,2.452V204.3a2.454,2.454,0,0,0,2.451,2.452h2.174l3.213,2.807a1.059,1.059,0,0,0,.17.121,2.265,2.265,0,0,0,3.4-1.964v-9.739a2.272,2.272,0,0,0-2.269-2.269" transform="translate(-164.424 -150.016)" fill="#42210b"/>
    <path id="Trazado_874972" data-name="Trazado 874972" d="M219.107,226.6v1.379a1.377,1.377,0,0,0,1.377,1.378h2.577l3.516,3.072a1.193,1.193,0,0,0,1.79-1.034v-4.8Z" transform="translate(-167.95 -173.693)" fill="#faa61a"/>
    <path id="Trazado_874973" data-name="Trazado 874973" d="M226.57,219.561h-1.861a.537.537,0,1,1,0-1.074h1.861a.537.537,0,0,1,0,1.074" transform="translate(-171.832 -167.475)" fill="#fff"/>
    <path id="Trazado_874974" data-name="Trazado 874974" d="M243.326,210.185a.537.537,0,0,1-.348-.946l1.417-1.206a.537.537,0,1,1,.7.818l-1.417,1.206a.535.535,0,0,1-.348.128" transform="translate(-186.103 -159.363)" fill="#fff"/>
  </g>
</svg>
