<svg xmlns="http://www.w3.org/2000/svg" xmlns:xlink="http://www.w3.org/1999/xlink" width="118" height="118" viewBox="0 0 118 118">
  <defs>
    <filter id="Elipse_9685" x="0" y="0" width="118" height="118" filterUnits="userSpaceOnUse">
      <feOffset dy="3" input="SourceAlpha"/>
      <feGaussianBlur stdDeviation="3" result="blur"/>
      <feFlood flood-opacity="0.161"/>
      <feComposite operator="in" in2="blur"/>
      <feComposite in="SourceGraphic"/>
    </filter>
  </defs>
  <g id="Grupo_1100222" data-name="Grupo 1100222" transform="translate(9 6)">
    <g transform="matrix(1, 0, 0, 1, -9, -6)" filter="url(#Elipse_9685)">
      <g id="Elipse_9685-2" data-name="Elipse 9685" transform="translate(9 6)" fill="#f2e5fd" stroke="#a854f3" stroke-width="5">
        <circle cx="50" cy="50" r="50" stroke="none"/>
        <circle cx="50" cy="50" r="47.5" fill="none"/>
      </g>
    </g>
    <g id="Grupo_1100238" data-name="Grupo 1100238" transform="translate(19.285 19.576)">
      <path id="Trazado_875353" data-name="Trazado 875353" d="M108.778,34.7h3.354a.076.076,0,0,1,.076.075v4.933a.891.891,0,1,0,1.781,0V34.773a1.859,1.859,0,0,0-1.857-1.857h-3.354a.891.891,0,0,0,0,1.781Z" transform="translate(-94.784 -29.007)" fill="#a854f3"/>
      <path id="Trazado_875354" data-name="Trazado 875354" d="M51.743,21.474a2.95,2.95,0,1,0-2.95-2.95,2.953,2.953,0,0,0,2.95,2.95Zm0-4.119a1.169,1.169,0,1,1-1.169,1.169A1.17,1.17,0,0,1,51.743,17.355Z" transform="translate(-42.708 -13.725)" fill="#a854f3"/>
      <path id="Trazado_875355" data-name="Trazado 875355" d="M119.12,157.108h7.846a.891.891,0,1,0,0-1.781H119.12a.891.891,0,1,0,0,1.781Z" transform="translate(-103.898 -136.881)" fill="#a854f3"/>
      <path id="Trazado_875356" data-name="Trazado 875356" d="M119.12,189.7h10.62a.891.891,0,0,0,0-1.781H119.12a.891.891,0,0,0,0,1.781Z" transform="translate(-103.898 -165.598)" fill="#a854f3"/>
      <path id="Trazado_875357" data-name="Trazado 875357" d="M134.811,220.5H119.12a.891.891,0,1,0,0,1.781h15.691a.891.891,0,1,0,0-1.781Z" transform="translate(-103.898 -194.316)" fill="#a854f3"/>
      <path id="Trazado_875358" data-name="Trazado 875358" d="M134.811,253.087H119.12a.891.891,0,1,0,0,1.781h15.691a.891.891,0,1,0,0-1.781Z" transform="translate(-103.898 -223.032)" fill="#a854f3"/>
      <path id="Trazado_875359" data-name="Trazado 875359" d="M134.811,285.674H119.12a.891.891,0,1,0,0,1.781h15.691a.891.891,0,1,0,0-1.781Z" transform="translate(-103.898 -251.749)" fill="#a854f3"/>
      <path id="Trazado_875360" data-name="Trazado 875360" d="M134.811,318.261H119.12a.891.891,0,1,0,0,1.781h15.691a.891.891,0,1,0,0-1.781Z" transform="translate(-103.898 -280.466)" fill="#a854f3"/>
      <path id="Trazado_875361" data-name="Trazado 875361" d="M226.181,43.239h.037a5.376,5.376,0,1,0-2.679-10.059.891.891,0,0,0,.877,1.551,3.6,3.6,0,0,1,1.743-.463,3.6,3.6,0,0,1,.048,7.19h-.025a3.6,3.6,0,0,1-3.568-4.027.891.891,0,1,0-1.769-.212,5.415,5.415,0,0,0-.038.68,5.376,5.376,0,0,0,5.375,5.34Z" transform="translate(-194.293 -28.628)" fill="#a854f3"/>
      <path id="Trazado_875362" data-name="Trazado 875362" d="M465.325,224.14a2.95,2.95,0,1,0,2.95,2.95,2.954,2.954,0,0,0-2.95-2.95Zm0,4.119a1.169,1.169,0,1,1,1.169-1.169A1.17,1.17,0,0,1,465.325,228.259Z" transform="translate(-407.175 -197.523)" fill="#a854f3"/>
      <path id="Trazado_875363" data-name="Trazado 875363" d="M200.9,390.013h3.051a.891.891,0,1,0,0-1.781H200.9a.891.891,0,1,0,0,1.781Z" transform="translate(-175.968 -342.128)" fill="#a854f3"/>
      <path id="Trazado_875364" data-name="Trazado 875364" d="M52.973,28.677h-.385V19.193a2.127,2.127,0,0,0-2.125-2.125H36.777a9.274,9.274,0,0,0,4.345-7.895A9.234,9.234,0,1,0,23.5,13.082H12.417A2.216,2.216,0,0,0,10.2,15.3v1.772H2.455A2.127,2.127,0,0,0,.33,19.193V48.707h0a2.133,2.133,0,0,0,2.125,2.125H18.725v2.41s0,.01,0,.015a13.41,13.41,0,0,1-1.532,5.811H14.852a.891.891,0,1,0,0,1.781H38.066a.891.891,0,0,0,0-1.781H35.723a13.349,13.349,0,0,1-1.531-5.811s0-.01,0-.015v-2.41H50.463a2.133,2.133,0,0,0,2.125-2.125h0V30.458h.385a.891.891,0,1,0,0-1.781ZM26.584,4.008a7.5,7.5,0,0,1,2.45-1.657,7.351,7.351,0,0,1,2.7-.563,7.5,7.5,0,0,1,5.353,2.105,7.4,7.4,0,0,1,2.255,5.292,7.486,7.486,0,0,1-3.656,6.464,3.948,3.948,0,0,0-1.4,1.435l-2.315,4.041L29.6,17.114A3.954,3.954,0,0,0,28.175,15.7,7.445,7.445,0,0,1,26.584,4.008ZM11.985,15.3a.433.433,0,0,1,.432-.432h12.16a9.22,9.22,0,0,0,2.709,2.377,2.172,2.172,0,0,1,.779.78l2.464,4.171a1.656,1.656,0,0,0,1.439.822h.012a1.656,1.656,0,0,0,1.44-.841l.729-1.272V34.561a.891.891,0,1,0,1.781,0V22.479H46.69a.223.223,0,0,1,.188.242v5.957H38.62a.891.891,0,1,0,0,1.781h8.258v12.7H35.93V38.685a.891.891,0,1,0-1.781,0v4.473H11.985Zm-9.874,3.9a.344.344,0,0,1,.343-.343H10.2V20.7H6.228A2,2,0,0,0,4.258,22.72V43.158H2.111ZM10.2,22.479V43.158H6.04V22.72a.223.223,0,0,1,.188-.242Zm8.964,36.588a14.407,14.407,0,0,0,1.338-5.832v-2.4h11.9v2.4a14.41,14.41,0,0,0,1.338,5.832Zm31.638-10.36a.336.336,0,0,1-.019.109.343.343,0,0,1-.324.234H2.455a.349.349,0,0,1-.344-.343V44.939h48.7Zm0-5.549H48.659v-12.7h2.147Zm0-14.481H48.659V22.72A2,2,0,0,0,46.69,20.7H35.93V18.849H50.463a.344.344,0,0,1,.343.343v9.485Z" transform="translate(0 0)" fill="#a854f3"/>
    </g>
  </g>
</svg>
