<svg xmlns="http://www.w3.org/2000/svg" xmlns:xlink="http://www.w3.org/1999/xlink" width="118" height="118" viewBox="0 0 118 118">
  <defs>
    <filter id="Elipse_9685" x="0" y="0" width="118" height="118" filterUnits="userSpaceOnUse">
      <feOffset dy="3" input="SourceAlpha"/>
      <feGaussianBlur stdDeviation="3" result="blur"/>
      <feFlood flood-opacity="0.161"/>
      <feComposite operator="in" in2="blur"/>
      <feComposite in="SourceGraphic"/>
    </filter>
  </defs>
  <g id="Grupo_1100221" data-name="Grupo 1100221" transform="translate(9 6)">
    <g transform="matrix(1, 0, 0, 1, -9, -6)" filter="url(#Elipse_9685)">
      <g id="Elipse_9685-2" data-name="Elipse 9685" transform="translate(9 6)" fill="#f2e5fd" stroke="#a854f3" stroke-width="5">
        <circle cx="50" cy="50" r="50" stroke="none"/>
        <circle cx="50" cy="50" r="47.5" fill="none"/>
      </g>
    </g>
    <g id="Grupo_1100234" data-name="Grupo 1100234" transform="translate(21.069 8.958)">
      <g id="Grupo_1100235" data-name="Grupo 1100235" transform="translate(30.038 11.302)">
        <g id="Grupo_1100234-2" data-name="Grupo 1100234" transform="translate(0 0)">
          <path id="Trazado_875343" data-name="Trazado 875343" d="M290.5,96.795H268.858a3.1,3.1,0,0,0-3.093,3.093v39.459a3.1,3.1,0,0,0,3.093,3.093H290.5a3.1,3.1,0,0,0,3.093-3.093V99.888A3.1,3.1,0,0,0,290.5,96.795Zm1.4,42.552a1.4,1.4,0,0,1-1.4,1.4H268.858a1.4,1.4,0,0,1-1.4-1.4v-2.429h24.434Zm0-4.125H267.46V99.888a1.4,1.4,0,0,1,1.4-1.4h4.4l.409,1.8a1.954,1.954,0,0,0,1.916,1.531h.942a.848.848,0,1,0,0-1.7h-.942a.268.268,0,0,1-.263-.21L275,98.49h9.361l-.324,1.431a.268.268,0,0,1-.263.21H280.52a.848.848,0,0,0,0,1.7h3.252a1.954,1.954,0,0,0,1.916-1.531l.409-1.8h4.4a1.4,1.4,0,0,1,1.4,1.4Z" transform="translate(-265.765 -87.132)" fill="#a854f3"/>
          <path id="Trazado_875344" data-name="Trazado 875344" d="M374.1,462.912h1.832a.848.848,0,1,0,0-1.7H374.1a.848.848,0,1,0,0,1.7Z" transform="translate(-361.106 -410.366)" fill="#a854f3"/>
          <path id="Trazado_875345" data-name="Trazado 875345" d="M309.2,184.485a10.15,10.15,0,1,0,10.15,10.15,10.162,10.162,0,0,0-10.15-10.15Zm0,18.605a8.455,8.455,0,1,1,8.455-8.455A8.465,8.465,0,0,1,309.2,203.09Z" transform="translate(-295.29 -164.911)" fill="#a854f3"/>
          <path id="Trazado_875346" data-name="Trazado 875346" d="M350.168,226.3a2.6,2.6,0,0,0-3.678,0l-1.1,1.1-1.1-1.1a2.6,2.6,0,1,0-3.672,3.685l1.106,1.083L340.6,232.19a2.559,2.559,0,0,0,3.6,3.641l1.191-1.167,1.191,1.167a2.559,2.559,0,0,0,3.6-3.641l-1.122-1.118,1.112-1.089A2.6,2.6,0,0,0,350.168,226.3Zm-1.193,2.473-1.718,1.683a.848.848,0,0,0-.006,1.2l.391.391h0l1.338,1.334a.864.864,0,0,1-1.215,1.229l-1.784-1.748a.848.848,0,0,0-1.186,0l-1.784,1.748a.864.864,0,0,1-1.214-1.229l1.729-1.726a.848.848,0,0,0-.006-1.2l-1.712-1.677a.906.906,0,0,1,1.281-1.281l1.7,1.7a.848.848,0,0,0,1.2,0l1.7-1.7a.906.906,0,0,1,1.287,1.275Z" transform="translate(-331.476 -201.328)" fill="#a854f3"/>
          <path id="Trazado_875347" data-name="Trazado 875347" d="M365.283,15.554l-.007,3.037a.848.848,0,0,0,.846.85h0a.848.848,0,0,0,.848-.846l.007-3.04,1.9-2.925a.848.848,0,0,0-1.421-.925l-1.331,2.045-1.347-2.063a.848.848,0,1,0-1.419.927Z" transform="translate(-352.21 -11.303)" fill="#a854f3"/>
        </g>
      </g>
      <g id="Grupo_1100237" data-name="Grupo 1100237" transform="translate(0 11.302)">
        <g id="Grupo_1100236" data-name="Grupo 1100236">
          <path id="Trazado_875348" data-name="Trazado 875348" d="M24.732,96.795H3.093A3.1,3.1,0,0,0,0,99.888v39.459a3.1,3.1,0,0,0,3.093,3.093H24.732a3.1,3.1,0,0,0,3.093-3.093V99.888A3.1,3.1,0,0,0,24.732,96.795Zm-6.139,1.7-.324,1.431a.268.268,0,0,1-.263.21H9.819a.268.268,0,0,1-.263-.21L9.232,98.49Zm7.537,40.857a1.4,1.4,0,0,1-1.4,1.4H3.093a1.4,1.4,0,0,1-1.4-1.4v-2.429H26.13Zm0-4.125H1.7V99.888a1.4,1.4,0,0,1,1.4-1.4h4.4l.409,1.8a1.954,1.954,0,0,0,1.916,1.531h8.187a1.955,1.955,0,0,0,1.916-1.531l.409-1.8h4.4a1.4,1.4,0,0,1,1.4,1.4v35.334Z" transform="translate(0 -87.132)" fill="#a854f3"/>
          <path id="Trazado_875349" data-name="Trazado 875349" d="M108.337,462.912h1.832a.848.848,0,0,0,0-1.7h-1.832a.848.848,0,1,0,0,1.7Z" transform="translate(-95.34 -410.366)" fill="#a854f3"/>
          <path id="Trazado_875350" data-name="Trazado 875350" d="M49.378,184.485a10.15,10.15,0,1,0,6.364,18.058.848.848,0,0,0-1.064-1.32,8.361,8.361,0,0,1-5.3,1.867,8.455,8.455,0,1,1,8.455-8.455,8.366,8.366,0,0,1-.9,3.794.848.848,0,0,0,1.515.762,10.047,10.047,0,0,0,1.078-4.556,10.162,10.162,0,0,0-10.15-10.15Z" transform="translate(-34.794 -164.911)" fill="#a854f3"/>
          <path id="Trazado_875351" data-name="Trazado 875351" d="M82.121,228.6l-3.595,3.595-.572-.572a2.438,2.438,0,0,0-3.447,3.447l2.805,2.805a1.717,1.717,0,0,0,2.428,0l5.828-5.828a2.438,2.438,0,1,0-3.447-3.447Zm2.249,2.249-5.828,5.828a.022.022,0,0,1-.03,0l-2.805-2.805a.742.742,0,0,1,1.05-1.05l1.107,1.107a.939.939,0,0,0,1.328,0L83.32,229.8a.742.742,0,1,1,1.05,1.05Z" transform="translate(-65.454 -203.406)" fill="#a854f3"/>
          <path id="Trazado_875352" data-name="Trazado 875352" d="M94.464,19.285a.848.848,0,0,0,1.181-.2l1.737-2.465,1.734,2.465A.848.848,0,0,0,100.5,18.1l-2.083-2.962,1.764-2.5a.848.848,0,1,0-1.386-.976l-1.414,2.008-1.412-2.007a.848.848,0,1,0-1.387.976l1.762,2.5L94.259,18.1A.848.848,0,0,0,94.464,19.285Z" transform="translate(-83.468 -11.302)" fill="#a854f3"/>
        </g>
      </g>
    </g>
  </g>
</svg>
