<svg xmlns="http://www.w3.org/2000/svg" width="34.618" height="185.205" viewBox="0 0 34.618 185.205">
  <g id="Grupo_1100050" data-name="Grupo 1100050" transform="translate(76.522 185.205) rotate(180)">
    <g id="Grupo_1100049" data-name="Grupo 1100049" transform="translate(41.905 0)">
      <path id="Trazado_875215" data-name="Trazado 875215" d="M75.788,12.34l-.014-.011L61.019.544A2.288,2.288,0,0,0,60.633.3L60.208.113l-.29-.077h-.212a3.406,3.406,0,0,0-.985,0H58.3l-.328.139a2.39,2.39,0,0,0-.5.293L42.653,12.328a1.744,1.744,0,0,0-.014,2.854l.014.011a3.082,3.082,0,0,0,3.573,0l8.826-7.024a1.146,1.146,0,0,1,1.366.011.7.7,0,0,1,.276.528V183.187a2.595,2.595,0,0,0,5.06,0h0V8.708a.891.891,0,0,1,.979-.759,1.1,1.1,0,0,1,.662.22l8.787,7.024a3.079,3.079,0,0,0,3.592,0A1.744,1.744,0,0,0,75.788,12.34Z" transform="translate(-41.905 0)" fill="#a854f3"/>
    </g>
  </g>
</svg>
