<svg xmlns="http://www.w3.org/2000/svg" xmlns:xlink="http://www.w3.org/1999/xlink" width="118" height="118" viewBox="0 0 118 118">
  <defs>
    <filter id="Elipse_9685" x="0" y="0" width="118" height="118" filterUnits="userSpaceOnUse">
      <feOffset dy="3" input="SourceAlpha"/>
      <feGaussianBlur stdDeviation="3" result="blur"/>
      <feFlood flood-opacity="0.161"/>
      <feComposite operator="in" in2="blur"/>
      <feComposite in="SourceGraphic"/>
    </filter>
  </defs>
  <g id="Grupo_1100223" data-name="Grupo 1100223" transform="translate(9 6)">
    <g transform="matrix(1, 0, 0, 1, -9, -6)" filter="url(#Elipse_9685)">
      <g id="Elipse_9685-2" data-name="Elipse 9685" transform="translate(9 6)" fill="#f2e5fd" stroke="#a854f3" stroke-width="5">
        <circle cx="50" cy="50" r="50" stroke="none"/>
        <circle cx="50" cy="50" r="47.5" fill="none"/>
      </g>
    </g>
    <g id="Grupo_1100239" data-name="Grupo 1100239" transform="translate(-31.436 14.375)">
      <g id="Grupo_1100240" data-name="Grupo 1100240" transform="translate(49.732 0.001)">
        <g id="Grupo_1100239-2" data-name="Grupo 1100239" transform="translate(0 0)">
          <path id="Trazado_875365" data-name="Trazado 875365" d="M65.206,180.886a4.657,4.657,0,0,0-6-.583,4.742,4.742,0,0,0-.995.83,4.747,4.747,0,0,0-.995-.83,4.658,4.658,0,0,0-6,.583,5.145,5.145,0,0,0-1.489,3.6c-.031,4.805,3.961,7.144,7.168,9.023l.6.355a1.393,1.393,0,0,0,1.419,0l.6-.355c3.207-1.879,7.2-4.218,7.168-9.023A5.143,5.143,0,0,0,65.206,180.886Zm-6.734,10.822-.258.152-.258-.152c-3.028-1.774-6.159-3.609-6.136-7.209a3.044,3.044,0,0,1,.873-2.132,2.505,2.505,0,0,1,1.8-.807,3.117,3.117,0,0,1,1.617.511,2.392,2.392,0,0,1,1.028,1.26,1.131,1.131,0,0,0,2.151,0,2.391,2.391,0,0,1,1.028-1.26,2.592,2.592,0,0,1,3.418.3h0a3.043,3.043,0,0,1,.873,2.132C64.631,188.1,61.5,189.933,58.472,191.708Z" transform="translate(-49.732 -154.503)" fill="#a854f3"/>
          <path id="Trazado_875366" data-name="Trazado 875366" d="M195.328,33.08a3.794,3.794,0,0,0-1.928.439,3.89,3.89,0,0,0-3.644-3.292,3.791,3.791,0,0,0-2.089.529,3.823,3.823,0,0,0-5.366-2.2V26.883a14.642,14.642,0,0,0,5.182-8.987l.268.158a1.5,1.5,0,0,0,1.524,0l.782-.46c4.293-2.515,9.158-5.366,9.119-11.4a6.346,6.346,0,0,0-1.836-4.44,5.664,5.664,0,0,0-7.378-.711,5.782,5.782,0,0,0-1.449,1.286,5.786,5.786,0,0,0-1.449-1.287,5.664,5.664,0,0,0-7.378.711,6.346,6.346,0,0,0-1.836,4.44c0,.3.011.6.033.883A9.573,9.573,0,0,0,174.593,8.4a8.047,8.047,0,0,0-2.455,2.379A8.048,8.048,0,0,0,169.683,8.4c-3.619-2.269-7.52-1.9-10.435,1a9,9,0,0,0-2.6,6.3,13.675,13.675,0,0,0,3.675,9.536,1.044,1.044,0,0,0,1.559-1.388,11.672,11.672,0,0,1-3.147-8.134,6.9,6.9,0,0,1,1.986-4.833,5.962,5.962,0,0,1,7.855-.709,5.629,5.629,0,0,1,2.41,2.978,1.213,1.213,0,0,0,2.307,0,5.628,5.628,0,0,1,2.41-2.978,5.962,5.962,0,0,1,7.855.709,6.9,6.9,0,0,1,1.986,4.833,11.723,11.723,0,0,1-3.242,8.243V21.393a3.83,3.83,0,0,0-3.969-3.827,3.9,3.9,0,0,0-3.691,3.891l-.024,8.242q-.739.439-1.48.873l-1,.587-1-.588a68.47,68.47,0,0,1-5.832-3.685,1.044,1.044,0,0,0-1.233,1.684,70.009,70.009,0,0,0,6.011,3.8q.594.348,1.179.693a1.723,1.723,0,0,0,1.755,0q.583-.345,1.177-.692l.417-.245-.027,9.345-.6-1.818c-.009-.027-.019-.054-.03-.08a4.481,4.481,0,0,0-4.138-2.746,2.42,2.42,0,0,0-2.417,2.529l.347,7.687a10.508,10.508,0,0,0,2.755,6.625l3.957,4.307.044.045a2.706,2.706,0,0,1,.824,1.939v1.581h-.243a2.092,2.092,0,0,0-2.09,2.09v5.527a2.092,2.092,0,0,0,2.09,2.09h4.386a1.044,1.044,0,1,0,0-2.087l-4.389,0,0-5.53,19.231,0,0,5.53H184.37a1.044,1.044,0,1,0,0,2.087h9.943a2.092,2.092,0,0,0,2.09-2.09V63.631a2.092,2.092,0,0,0-2.09-2.09h-.259v-.8a8.169,8.169,0,0,1,1.5-4.727l1.589-2.256a10.245,10.245,0,0,0,1.878-5.929V36.975a3.85,3.85,0,0,0-3.691-3.895ZM185.027,9.4a8.068,8.068,0,0,0-5.057-2.442c-.022-.244-.034-.495-.032-.753a4.244,4.244,0,0,1,1.219-2.972,3.582,3.582,0,0,1,2.553-1.14,4.238,4.238,0,0,1,2.246.716A3.4,3.4,0,0,1,187.413,4.6a1.153,1.153,0,0,0,1.1.8h0a1.153,1.153,0,0,0,1.1-.8,3.4,3.4,0,0,1,1.458-1.795,3.6,3.6,0,0,1,4.8.424A4.243,4.243,0,0,1,197.089,6.2c.031,4.833-4.1,7.251-8.087,9.589l-.489.287-.489-.287-.4-.234a9,9,0,0,0-2.6-6.161Zm11.905,38.426a8.17,8.17,0,0,1-1.5,4.727l-1.589,2.256a10.244,10.244,0,0,0-1.878,5.929v.8H177.415V59.961a4.8,4.8,0,0,0-1.439-3.418l-3.937-4.286a8.417,8.417,0,0,1-2.207-5.307l-.347-7.687a.333.333,0,0,1,.332-.348,2.4,2.4,0,0,1,2.2,1.434l.582,1.774a2.084,2.084,0,0,0,4.064-.643l.065-20.02a1.792,1.792,0,0,1,1.678-1.808,1.743,1.743,0,0,1,1.807,1.742l0,20.307a1.044,1.044,0,1,0,2.087,0V31.874a1.726,1.726,0,0,1,.528-1.164,1.743,1.743,0,0,1,1.275-.487,1.792,1.792,0,0,1,1.678,1.808l0,9.67a1.044,1.044,0,1,0,2.087,0v-7.7a1.74,1.74,0,0,1,1.8-1.692,1.792,1.792,0,0,1,1.678,1.808l-.01,7.58a1.044,1.044,0,0,0,2.087,0s.01-4.748.01-4.793a1.743,1.743,0,0,1,1.807-1.742,1.793,1.793,0,0,1,1.678,1.809V47.824Z" transform="translate(-141.769 -0.001)" fill="#a854f3"/>
        </g>
      </g>
    </g>
  </g>
</svg>
