<svg xmlns="http://www.w3.org/2000/svg" width="70" height="70" viewBox="0 0 70 70">
  <g id="Grupo_1100288" data-name="Grupo 1100288" transform="translate(-515 -526)">
    <circle id="Elipse_11440" data-name="Elipse 11440" cx="35" cy="35" r="35" transform="translate(515 526)" fill="#00ffdf"/>
    <g id="Grupo_1100298" data-name="Grupo 1100298" transform="translate(529.672 540.671)">
      <path id="Trazado_875659" data-name="Trazado 875659" d="M265.484,242.645a1.837,1.837,0,0,0,1.325-.559l3.122-3.2a1.851,1.851,0,0,0-2.65-2.584l-1.831,1.877-.321-.312a1.851,1.851,0,1,0-2.581,2.654l1.646,1.6A1.841,1.841,0,0,0,265.484,242.645Zm-2.117-3.909a.658.658,0,0,1,.93-.013l.748.727a.6.6,0,0,0,.843-.011l2.247-2.3a.657.657,0,0,1,.941.918l-3.122,3.2a.66.66,0,0,1-.929.012l-1.646-1.6A.658.658,0,0,1,263.367,238.736Z" transform="translate(-241.184 -217.024)" fill="#a854f3"/>
      <path id="Trazado_875660" data-name="Trazado 875660" d="M218.729,191.922a.6.6,0,0,0-.953.719,7.868,7.868,0,0,0,.714.821,7.763,7.763,0,1,0-1.907-3.124.6.6,0,0,0,1.137-.363,6.58,6.58,0,1,1,1.614,2.644,6.684,6.684,0,0,1-.606-.7Z" transform="translate(-199.043 -165.894)" fill="#a854f3"/>
      <path id="Trazado_875661" data-name="Trazado 875661" d="M39.836,32.977l-3.765-3.765a.6.6,0,0,0-.844,0l-.023.023-1.449-1.449a10.484,10.484,0,0,0,1.669-5.047.6.6,0,0,0-1.191-.075,9.3,9.3,0,0,1-9.282,8.714h-.056A9.3,9.3,0,1,1,34.1,20.424a.6.6,0,0,0,1.175-.211A10.509,10.509,0,0,0,29.871,12.8V7.991a.6.6,0,0,0-.175-.422L22.3.175A.6.6,0,0,0,21.878,0H1.789A1.792,1.792,0,0,0,0,1.79V6.806a.6.6,0,0,0,1.194,0V1.79a.6.6,0,0,1,.6-.6H21.282V6.8a1.792,1.792,0,0,0,1.79,1.79h5.605V12.26a10.546,10.546,0,0,0-3.622-.681l-.018,0H11.712a.6.6,0,1,0,0,1.194h8.356a10.461,10.461,0,0,0-2.381,1.709H11.712a.6.6,0,1,0,0,1.194h4.9a10.388,10.388,0,0,0-1.959,4.267H11.713a.6.6,0,1,0,0,1.194h2.768q-.041.467-.042.941,0,.389.028.773H11.713a.6.6,0,1,0,0,1.194h2.91a10.387,10.387,0,0,0,1.993,4.437h-4.9a.6.6,0,1,0,0,1.194H17.69a10.459,10.459,0,0,0,2.377,1.707H11.712a.6.6,0,1,0,0,1.194H24.941a10.552,10.552,0,0,0,3.736-.683v6.979a.6.6,0,0,1-.6.6H1.789a.6.6,0,0,1-.6-.6V9.193A.6.6,0,0,0,0,9.193V38.868a1.792,1.792,0,0,0,1.791,1.79H28.08a1.792,1.792,0,0,0,1.79-1.79v-7.52q.4-.212.784-.461L32.1,32.336a.6.6,0,0,0-.023.867l3.765,3.765a2.822,2.822,0,0,0,3.991-3.991ZM23.072,7.395a.6.6,0,0,1-.6-.6V2.037l5.358,5.357Zm8.556,22.778q.382-.316.74-.672t.672-.74l1.319,1.319-1.413,1.412Zm7.364,5.951a1.636,1.636,0,0,1-2.3,0l-3.343-3.343,2.3-2.3,3.343,3.343A1.636,1.636,0,0,1,38.992,36.123Z" fill="#a854f3"/>
      <path id="Trazado_875662" data-name="Trazado 875662" d="M52.728,143.59h2.611a1.336,1.336,0,0,0,1.335-1.335v-2.611a1.336,1.336,0,0,0-1.335-1.335H52.728a1.336,1.336,0,0,0-1.335,1.335v2.611A1.336,1.336,0,0,0,52.728,143.59Zm-.141-3.945a.141.141,0,0,1,.141-.141h2.611a.141.141,0,0,1,.141.141v2.611a.141.141,0,0,1-.141.141H52.728a.141.141,0,0,1-.141-.141Z" transform="translate(-47.313 -127.327)" fill="#a854f3"/>
      <path id="Trazado_875663" data-name="Trazado 875663" d="M51.393,247.623a1.336,1.336,0,0,0,1.335,1.335h2.611a1.336,1.336,0,0,0,1.335-1.335v-2.611a1.336,1.336,0,0,0-1.335-1.335H52.728a1.336,1.336,0,0,0-1.335,1.335Zm1.194-2.611a.141.141,0,0,1,.141-.141h2.611a.141.141,0,0,1,.141.141v2.611a.142.142,0,0,1-.141.141H52.728a.141.141,0,0,1-.141-.141Z" transform="translate(-47.313 -224.327)" fill="#a854f3"/>
      <path id="Trazado_875664" data-name="Trazado 875664" d="M51.393,355.13a1.336,1.336,0,0,0,1.335,1.335h2.611a1.336,1.336,0,0,0,1.335-1.335V352.52a1.336,1.336,0,0,0-1.335-1.335H52.728a1.336,1.336,0,0,0-1.335,1.335Zm1.194-2.611a.141.141,0,0,1,.141-.141h2.611a.141.141,0,0,1,.141.141v2.611a.141.141,0,0,1-.141.141H52.728a.141.141,0,0,1-.141-.141Z" transform="translate(-47.313 -323.297)" fill="#a854f3"/>
    </g>
  </g>
</svg>
