<svg xmlns="http://www.w3.org/2000/svg" xmlns:xlink="http://www.w3.org/1999/xlink" width="190" height="108.181" viewBox="0 0 190 108.181">
  <defs>
    <clipPath id="clip-path">
      <rect width="57" height="39" fill="none"/>
    </clipPath>
  </defs>
  <g id="Grupo_1099294" data-name="Grupo 1099294" transform="translate(-1230 -804.667)">
    <rect id="Rectángulo_401078" data-name="Rectángulo 401078" width="168" height="91" rx="10" transform="translate(1252 821.848)" fill="#e8eefe"/>
    <g id="Cuadrícula_de_repetición_14" data-name="Cuadrícula de repetición 14" transform="translate(1230 873.848)" clip-path="url(#clip-path)">
      <g transform="translate(-180 -1074)">
        <circle id="Elipse_9675" data-name="Elipse 9675" cx="3" cy="3" r="3" transform="translate(180 1074)" fill="#a854f3"/>
        <circle id="Elipse_9676" data-name="Elipse 9676" cx="3" cy="3" r="3" transform="translate(195 1074)" fill="#a854f3"/>
        <circle id="Elipse_9677" data-name="Elipse 9677" cx="3" cy="3" r="3" transform="translate(212 1074)" fill="#a854f3"/>
        <circle id="Elipse_9678" data-name="Elipse 9678" cx="3" cy="3" r="3" transform="translate(227 1074)" fill="#a854f3"/>
        <circle id="Elipse_9679" data-name="Elipse 9679" cx="3" cy="3" r="3" transform="translate(244 1074)" fill="#a854f3"/>
        <circle id="Elipse_9680" data-name="Elipse 9680" cx="3" cy="3" r="3" transform="translate(259 1074)" fill="#a854f3"/>
      </g>
      <g transform="translate(-180 -1058)">
        <circle id="Elipse_9675-2" data-name="Elipse 9675" cx="3" cy="3" r="3" transform="translate(180 1074)" fill="#a854f3"/>
        <circle id="Elipse_9676-2" data-name="Elipse 9676" cx="3" cy="3" r="3" transform="translate(195 1074)" fill="#a854f3"/>
        <circle id="Elipse_9677-2" data-name="Elipse 9677" cx="3" cy="3" r="3" transform="translate(212 1074)" fill="#a854f3"/>
        <circle id="Elipse_9678-2" data-name="Elipse 9678" cx="3" cy="3" r="3" transform="translate(227 1074)" fill="#a854f3"/>
        <circle id="Elipse_9679-2" data-name="Elipse 9679" cx="3" cy="3" r="3" transform="translate(244 1074)" fill="#a854f3"/>
        <circle id="Elipse_9680-2" data-name="Elipse 9680" cx="3" cy="3" r="3" transform="translate(259 1074)" fill="#a854f3"/>
      </g>
      <g transform="translate(-180 -1042)">
        <circle id="Elipse_9675-3" data-name="Elipse 9675" cx="3" cy="3" r="3" transform="translate(180 1074)" fill="#a854f3"/>
        <circle id="Elipse_9676-3" data-name="Elipse 9676" cx="3" cy="3" r="3" transform="translate(195 1074)" fill="#a854f3"/>
        <circle id="Elipse_9677-3" data-name="Elipse 9677" cx="3" cy="3" r="3" transform="translate(212 1074)" fill="#a854f3"/>
        <circle id="Elipse_9678-3" data-name="Elipse 9678" cx="3" cy="3" r="3" transform="translate(227 1074)" fill="#a854f3"/>
        <circle id="Elipse_9679-3" data-name="Elipse 9679" cx="3" cy="3" r="3" transform="translate(244 1074)" fill="#a854f3"/>
        <circle id="Elipse_9680-3" data-name="Elipse 9680" cx="3" cy="3" r="3" transform="translate(259 1074)" fill="#a854f3"/>
      </g>
    </g>
    <g id="Grupo_1099979" data-name="Grupo 1099979" transform="translate(1156.6 698.867)">
      <g id="Layer_x0020_1" transform="translate(168.4 105.8)">
        <g id="_319707120" transform="translate(0 0)">
          <g id="Grupo_1099977" data-name="Grupo 1099977" transform="translate(1.036 1.101)">
            <g id="Grupo_1099976" data-name="Grupo 1099976">
              <path id="_224388096" d="M177.524,109.2h7.251l14.114,4.208L213,109.2h7.251a5.927,5.927,0,0,1,5.924,5.924v83.2a5.927,5.927,0,0,1-5.924,5.924H177.524a5.927,5.927,0,0,1-5.924-5.924v-83.2A5.948,5.948,0,0,1,177.524,109.2Z" transform="translate(-171.6 -109.2)" fill="#5c5e71" fill-rule="evenodd"/>
              <path id="_224387952" d="M177.591,109.2h42.731a5.927,5.927,0,0,1,5.924,5.924v83.2a5.927,5.927,0,0,1-5.924,5.924h-42.7a5.927,5.927,0,0,1-5.924-5.924v-83.2A5.9,5.9,0,0,1,177.591,109.2Z" transform="translate(-171.667 -109.2)" fill="#e4eaf8" fill-rule="evenodd"/>
              <path id="_224387928" d="M196.139,161.1h7.251a.939.939,0,0,1,.939.939v7.251a.939.939,0,0,1-.939.939h-7.251a.939.939,0,0,1-.939-.939v-7.251A.961.961,0,0,1,196.139,161.1Z" transform="translate(-187.56 -144.299)" fill="#e04141" fill-rule="evenodd"/>
              <path id="_224387544" d="M242.9,161.1h7.284a.939.939,0,0,1,.939.939v7.251a.939.939,0,0,1-.939.939h-7.251a.939.939,0,0,1-.939-.939v-7.251A.893.893,0,0,1,242.9,161.1Z" transform="translate(-219.206 -144.299)" fill="#e04141" fill-rule="evenodd"/>
              <path id="_224387640" d="M289.539,161.1h7.251a.939.939,0,0,1,.939.939v7.251a.939.939,0,0,1-.939.939h-7.251a.939.939,0,0,1-.939-.939v-7.251A.961.961,0,0,1,289.539,161.1Z" transform="translate(-250.725 -144.299)" fill="#e04141" fill-rule="evenodd"/>
              <path id="_224388168" d="M196.139,215.8h7.251a.939.939,0,0,1,.939.939v7.219a.939.939,0,0,1-.939.939h-7.251a.939.939,0,0,1-.939-.939v-7.251A.955.955,0,0,1,196.139,215.8Z" transform="translate(-187.56 -181.291)" fill="#29af5c" fill-rule="evenodd"/>
              <path id="_221312312" d="M242.9,215.8h7.284a.939.939,0,0,1,.939.939v7.219a.939.939,0,0,1-.939.939h-7.251a.939.939,0,0,1-.939-.939v-7.251A.885.885,0,0,1,242.9,215.8Z" transform="translate(-219.206 -181.291)" fill="#29af5c" fill-rule="evenodd"/>
              <path id="_221311952" d="M289.539,215.8h7.251a.939.939,0,0,1,.939.939v7.219a.939.939,0,0,1-.939.939h-7.251a.939.939,0,0,1-.939-.939v-7.251A.955.955,0,0,1,289.539,215.8Z" transform="translate(-250.725 -181.291)" fill="#29af5c" fill-rule="evenodd"/>
              <path id="_221312288" d="M196.139,270.4h7.251a.939.939,0,0,1,.939.939v7.251a.939.939,0,0,1-.939.939h-7.251a.939.939,0,0,1-.939-.939v-7.251A.939.939,0,0,1,196.139,270.4Z" transform="translate(-187.56 -218.216)" fill="#659bf6" fill-rule="evenodd"/>
              <path id="_221311904" d="M242.9,270.4h7.284a.939.939,0,0,1,.939.939v7.251a.939.939,0,0,1-.939.939h-7.251a.939.939,0,0,1-.939-.939v-7.251A.875.875,0,0,1,242.9,270.4Z" transform="translate(-219.206 -218.216)" fill="#659bf6" fill-rule="evenodd"/>
              <path id="_221311400" d="M289.539,270.4h7.251a.939.939,0,0,1,.939.939v7.251a.939.939,0,0,1-.939.939h-7.251a.939.939,0,0,1-.939-.939v-7.251A.939.939,0,0,1,289.539,270.4Z" transform="translate(-250.725 -218.216)" fill="#659bf6" fill-rule="evenodd"/>
              <path id="_221311304" d="M196.139,352h7.251a.939.939,0,0,1,.939.939v7.251a.939.939,0,0,1-.939.939h-7.251a.939.939,0,0,1-.939-.939v-7.251A.984.984,0,0,1,196.139,352Z" transform="translate(-187.56 -273.401)" fill="#af66da" fill-rule="evenodd"/>
              <path id="_221310416" d="M242.9,352h7.284a.939.939,0,0,1,.939.939v7.251a.939.939,0,0,1-.939.939h-7.251a.939.939,0,0,1-.939-.939v-7.251A.911.911,0,0,1,242.9,352Z" transform="translate(-219.206 -273.401)" fill="#af66da" fill-rule="evenodd"/>
              <path id="_221311088" d="M289.539,352h7.251a.939.939,0,0,1,.939.939v7.251a.939.939,0,0,1-.939.939h-7.251a.939.939,0,0,1-.939-.939v-7.251A.984.984,0,0,1,289.539,352Z" transform="translate(-250.725 -273.401)" fill="#af66da" fill-rule="evenodd"/>
              <path id="_221310608" d="M212.4,109.2h28.228v4.759a4.766,4.766,0,0,1-4.759,4.759H217.159a4.766,4.766,0,0,1-4.759-4.759Z" transform="translate(-199.192 -109.2)" fill="#4a4c59" fill-rule="evenodd"/>
            </g>
            <path id="_221311160" d="M238.568,120.7a1.068,1.068,0,1,0,0,2.137h9.873a1.068,1.068,0,0,0,0-2.137Z" transform="translate(-216.167 -116.977)" fill="#7b7d86"/>
            <path id="_221310632" d="M281.1,122.737a1.068,1.068,0,0,0,0-2.137h-.032a1.069,1.069,0,1,0,.032,2.137Z" transform="translate(-244.909 -116.91)" fill="#7b7d86"/>
            <path id="_221310896" d="M226.3,122.737a1.068,1.068,0,0,0,0-2.137h-.032a1.078,1.078,0,0,0-1.068,1.068A1.129,1.129,0,0,0,226.3,122.737Z" transform="translate(-207.849 -116.91)" fill="#7b7d86"/>
          </g>
          <g id="Grupo_1099978" data-name="Grupo 1099978">
            <path id="_319707432" d="M233.738,117.554H215.027a5.844,5.844,0,0,1-5.827-5.827v-4.759a1.068,1.068,0,1,1,2.137,0v4.759a3.689,3.689,0,0,0,3.69,3.69h18.711a3.689,3.689,0,0,0,3.69-3.69v-4.759a1.068,1.068,0,1,1,2.137,0v4.759a5.865,5.865,0,0,1-5.827,5.827Z" transform="translate(-195.992 -105.868)" fill-rule="evenodd"/>
            <path id="_319706328" d="M175.36,107.937a4.849,4.849,0,0,0-4.856,4.856v83.2a4.849,4.849,0,0,0,4.856,4.856h42.731a4.87,4.87,0,0,0,4.856-4.856v-83.2a4.849,4.849,0,0,0-4.856-4.856Zm42.763,95.044H175.392a7,7,0,0,1-6.992-6.992v-83.2a7,7,0,0,1,6.992-6.992h42.731a7,7,0,0,1,6.992,6.992v83.2A6.943,6.943,0,0,1,218.123,202.981Z" transform="translate(-168.4 -105.8)" fill-rule="evenodd"/>
            <path id="_319706184" d="M248.342,122.737h-9.873a1.068,1.068,0,0,1,0-2.137h9.873a1.068,1.068,0,0,1,0,2.137Z" transform="translate(-215.063 -115.809)" fill-rule="evenodd"/>
            <path id="_319706256" d="M281.168,122.737a1.057,1.057,0,0,1-1.068-1.068,1.068,1.068,0,0,1,2.137,0A1.1,1.1,0,0,1,281.168,122.737Z" transform="translate(-243.94 -115.809)" fill-rule="evenodd"/>
            <path id="_319706688" d="M226.368,122.737a1.057,1.057,0,0,1-1.068-1.068,1.068,1.068,0,1,1,2.137,0A1.037,1.037,0,0,1,226.368,122.737Z" transform="translate(-206.88 -115.809)" fill-rule="evenodd"/>
            <path id="_319706568" d="M194.139,167.1h6.992V160.1h-6.992Zm7.187,2.1h-7.251a1.983,1.983,0,0,1-1.975-1.975v-7.251A1.983,1.983,0,0,1,194.075,158h7.251a1.983,1.983,0,0,1,1.975,1.975v7.251A2,2,0,0,1,201.326,169.2Z" transform="translate(-184.428 -141.102)" fill-rule="evenodd"/>
            <path id="_319706664" d="M240.8,167.1H247.8V160.1H240.8Zm7.122,2.1h-7.251a1.983,1.983,0,0,1-1.975-1.975v-7.251A1.983,1.983,0,0,1,240.675,158h7.251a1.983,1.983,0,0,1,1.975,1.975v7.251A1.942,1.942,0,0,1,247.926,169.2Z" transform="translate(-215.943 -141.102)" fill-rule="evenodd"/>
            <path id="_319706520" d="M287.6,167.1H294.6V160.1H287.6Zm7.122,2.1h-7.251a1.983,1.983,0,0,1-1.975-1.975v-7.251A1.983,1.983,0,0,1,287.475,158h7.251a1.983,1.983,0,0,1,1.975,1.975v7.251A1.983,1.983,0,0,1,294.726,169.2Z" transform="translate(-247.592 -141.102)" fill-rule="evenodd"/>
            <path id="_319706472" d="M194.139,221.6h6.992V214.6h-6.992Zm7.187,2.1h-7.251a1.983,1.983,0,0,1-1.975-1.975v-7.251a1.983,1.983,0,0,1,1.975-1.975h7.251a1.983,1.983,0,0,1,1.975,1.975v7.251A2,2,0,0,1,201.326,223.7Z" transform="translate(-184.428 -177.959)" fill-rule="evenodd"/>
            <path id="_319706784" d="M240.8,221.6H247.8V214.6H240.8Zm7.122,2.1h-7.251a1.983,1.983,0,0,1-1.975-1.975v-7.251a1.983,1.983,0,0,1,1.975-1.975h7.251a1.983,1.983,0,0,1,1.975,1.975v7.251A1.942,1.942,0,0,1,247.926,223.7Z" transform="translate(-215.943 -177.959)" fill-rule="evenodd"/>
            <path id="_319706352" d="M287.6,221.6H294.6V214.6H287.6Zm7.122,2.1h-7.251a1.983,1.983,0,0,1-1.975-1.975v-7.251a1.983,1.983,0,0,1,1.975-1.975h7.251a1.983,1.983,0,0,1,1.975,1.975v7.251A1.983,1.983,0,0,1,294.726,223.7Z" transform="translate(-247.592 -177.959)" fill-rule="evenodd"/>
            <path id="_319707792" d="M194.139,276.232h6.992v-6.992h-6.992Zm7.187,2.169h-7.251a1.983,1.983,0,0,1-1.975-1.975v-7.251a1.983,1.983,0,0,1,1.975-1.975h7.251a1.983,1.983,0,0,1,1.975,1.975v7.251A2.026,2.026,0,0,1,201.326,278.4Z" transform="translate(-184.428 -214.952)" fill-rule="evenodd"/>
            <path id="_319708104" d="M240.8,276.232H247.8v-6.992H240.8Zm7.122,2.169h-7.251a1.983,1.983,0,0,1-1.975-1.975v-7.251a1.983,1.983,0,0,1,1.975-1.975h7.251a1.983,1.983,0,0,1,1.975,1.975v7.251A1.962,1.962,0,0,1,247.926,278.4Z" transform="translate(-215.943 -214.952)" fill-rule="evenodd"/>
            <path id="_319707744" d="M287.6,276.232H294.6v-6.992H287.6Zm7.122,2.169h-7.251a1.983,1.983,0,0,1-1.975-1.975v-7.251a1.983,1.983,0,0,1,1.975-1.975h7.251a1.983,1.983,0,0,1,1.975,1.975v7.251A2,2,0,0,1,294.726,278.4Z" transform="translate(-247.592 -214.952)" fill-rule="evenodd"/>
            <path id="_319708008" d="M194.139,358h6.992V351h-6.992Zm7.187,2.1h-7.251a1.983,1.983,0,0,1-1.975-1.975v-7.251a1.983,1.983,0,0,1,1.975-1.975h7.251a1.983,1.983,0,0,1,1.975,1.975v7.251A2,2,0,0,1,201.326,360.1Z" transform="translate(-184.428 -270.204)" fill-rule="evenodd"/>
            <path id="_319707720" d="M240.8,358H247.8V351H240.8Zm7.122,2.1h-7.251a1.983,1.983,0,0,1-1.975-1.975v-7.251a1.983,1.983,0,0,1,1.975-1.975h7.251a1.983,1.983,0,0,1,1.975,1.975v7.251A1.942,1.942,0,0,1,247.926,360.1Z" transform="translate(-215.943 -270.204)" fill-rule="evenodd"/>
            <path id="_319707336" d="M287.6,358H294.6V351H287.6Zm7.122,2.1h-7.251a1.983,1.983,0,0,1-1.975-1.975v-7.251a1.983,1.983,0,0,1,1.975-1.975h7.251a1.983,1.983,0,0,1,1.975,1.975v7.251A1.983,1.983,0,0,1,294.726,360.1Z" transform="translate(-247.592 -270.204)" fill-rule="evenodd"/>
          </g>
        </g>
      </g>
    </g>
  </g>
</svg>
