<svg xmlns="http://www.w3.org/2000/svg" xmlns:xlink="http://www.w3.org/1999/xlink" width="118" height="118" viewBox="0 0 118 118">
  <defs>
    <filter id="Elipse_9685" x="0" y="0" width="118" height="118" filterUnits="userSpaceOnUse">
      <feOffset dy="3" input="SourceAlpha"/>
      <feGaussianBlur stdDeviation="3" result="blur"/>
      <feFlood flood-opacity="0.161"/>
      <feComposite operator="in" in2="blur"/>
      <feComposite in="SourceGraphic"/>
    </filter>
  </defs>
  <g id="Grupo_1100244" data-name="Grupo 1100244" transform="translate(130 7858.704)">
    <g id="Grupo_1100224" data-name="Grupo 1100224" transform="translate(-121 -7852.704)">
      <g transform="matrix(1, 0, 0, 1, -9, -6)" filter="url(#Elipse_9685)">
        <g id="Elipse_9685-2" data-name="Elipse 9685" transform="translate(9 6)" fill="#f2e5fd" stroke="#a854f3" stroke-width="5">
          <circle cx="50" cy="50" r="50" stroke="none"/>
          <circle cx="50" cy="50" r="47.5" fill="none"/>
        </g>
      </g>
    </g>
    <g id="Grupo_1100243" data-name="Grupo 1100243" transform="translate(-129.461 -7832.508)">
      <g id="Grupo_1100242" data-name="Grupo 1100242" transform="translate(32.431 0)">
        <g id="Grupo_1100241" data-name="Grupo 1100241">
          <path id="Trazado_875367" data-name="Trazado 875367" d="M84.119,48.89,75.061,35.615a5.966,5.966,0,0,0,2.962-2.151,5.892,5.892,0,0,0,.378-3.637,6.712,6.712,0,0,1,0-2.241,6.456,6.456,0,0,1,1.083-1.855,6.066,6.066,0,0,0,1.526-3.423,6.067,6.067,0,0,0-1.526-3.423A6.462,6.462,0,0,1,78.4,17.029a6.712,6.712,0,0,1,0-2.241,5.892,5.892,0,0,0-.378-3.637A6.023,6.023,0,0,0,75.03,8.986a6.591,6.591,0,0,1-1.911-1.1,6.588,6.588,0,0,1-1.1-1.911,6.022,6.022,0,0,0-2.165-2.993,5.894,5.894,0,0,0-3.638-.378,6.7,6.7,0,0,1-2.24,0,6.459,6.459,0,0,1-1.855-1.084A6.067,6.067,0,0,0,58.7,0a6.067,6.067,0,0,0-3.423,1.526,6.457,6.457,0,0,1-1.855,1.083,6.708,6.708,0,0,1-2.24,0,5.892,5.892,0,0,0-3.638.378,6.023,6.023,0,0,0-2.165,2.993,6.588,6.588,0,0,1-1.1,1.911,6.591,6.591,0,0,1-1.911,1.1,6.022,6.022,0,0,0-2.993,2.165A5.893,5.893,0,0,0,39,14.788a6.715,6.715,0,0,1,0,2.24,6.459,6.459,0,0,1-1.084,1.855A6.067,6.067,0,0,0,36.4,22.307a6.067,6.067,0,0,0,1.526,3.423A6.458,6.458,0,0,1,39,27.585a6.707,6.707,0,0,1,0,2.24,5.893,5.893,0,0,0,.378,3.638,5.368,5.368,0,0,0,2.592,1.985L32.8,48.89a2.121,2.121,0,0,0,1.435,3.293l3.557.537h0l2.46.371a.373.373,0,0,1,.269.183l1.238,2.147,1.8,3.126a2.11,2.11,0,0,0,1.757,1.06l.082,0a2.109,2.109,0,0,0,1.75-.925L57.037,44.2a3.869,3.869,0,0,0,1.666.41,3.632,3.632,0,0,0,1.291-.251l9.772,14.321a2.109,2.109,0,0,0,1.75.925l.082,0a2.11,2.11,0,0,0,1.757-1.06l1.8-3.126L76.4,53.275a.373.373,0,0,1,.269-.183l2.46-.371h0l3.557-.537a2.121,2.121,0,0,0,1.435-3.293Zm-46.6,2.022L34.5,50.456a.375.375,0,0,1-.254-.582L43.57,36.207a3.336,3.336,0,0,1,.715.517,6.588,6.588,0,0,1,1.1,1.911c.066.148.134.3.2.451Zm8.2,6.789a.375.375,0,0,1-.634-.024l-1.524-2.643,5.438-7.969a.873.873,0,0,0-1.443-.984l-4.964,7.274-.549-.951a2.11,2.11,0,0,0-1.521-1.038L39.431,51.2l7.126-10.442a3.566,3.566,0,0,0,.989.87,4.672,4.672,0,0,0,2.728.46l-.45.66a.873.873,0,0,0,1.443.984l1.243-1.821a3.478,3.478,0,0,1,.915.094,6.454,6.454,0,0,1,1.855,1.084l.271.2ZM58.7,42.868a4.739,4.739,0,0,1-2.4-1.192,7.728,7.728,0,0,0-2.431-1.358,5.091,5.091,0,0,0-1.318-.154,15.369,15.369,0,0,0-1.551.106,4.692,4.692,0,0,1-2.586-.153,4.717,4.717,0,0,1-1.445-2.193,7.878,7.878,0,0,0-1.455-2.435,7.878,7.878,0,0,0-2.435-1.455,4.716,4.716,0,0,1-2.193-1.445A4.69,4.69,0,0,1,40.74,30a8.011,8.011,0,0,0-.049-2.869A7.73,7.73,0,0,0,39.334,24.7a4.738,4.738,0,0,1-1.192-2.4,4.739,4.739,0,0,1,1.192-2.4,7.731,7.731,0,0,0,1.358-2.431,8.011,8.011,0,0,0,.049-2.869,4.689,4.689,0,0,1,.153-2.586,4.716,4.716,0,0,1,2.193-1.445,7.878,7.878,0,0,0,2.435-1.455,7.878,7.878,0,0,0,1.455-2.435A4.716,4.716,0,0,1,48.421,4.5a4.691,4.691,0,0,1,2.586-.153A8,8,0,0,0,53.875,4.3a7.729,7.729,0,0,0,2.431-1.358,4.739,4.739,0,0,1,2.4-1.192,4.739,4.739,0,0,1,2.4,1.192A7.73,7.73,0,0,0,63.53,4.3a8.013,8.013,0,0,0,2.869.049,4.688,4.688,0,0,1,2.586.153,4.715,4.715,0,0,1,1.445,2.193,7.88,7.88,0,0,0,1.455,2.435,7.878,7.878,0,0,0,2.435,1.455,4.716,4.716,0,0,1,2.193,1.445,4.689,4.689,0,0,1,.153,2.586,8.012,8.012,0,0,0,.049,2.869,7.73,7.73,0,0,0,1.358,2.431,4.738,4.738,0,0,1,1.192,2.4,4.739,4.739,0,0,1-1.192,2.4,7.725,7.725,0,0,0-1.358,2.431A8.009,8.009,0,0,0,76.664,30a4.689,4.689,0,0,1-.153,2.586,4.716,4.716,0,0,1-2.193,1.445,7.878,7.878,0,0,0-2.435,1.455,7.877,7.877,0,0,0-1.455,2.435,4.716,4.716,0,0,1-1.445,2.193,4.688,4.688,0,0,1-2.586.153,8.017,8.017,0,0,0-2.869.049A7.728,7.728,0,0,0,61.1,41.676a4.739,4.739,0,0,1-2.4,1.192Zm13.14,14.808a.375.375,0,0,1-.634.024l-9.68-14.185c.2-.141.4-.285.6-.426a6.462,6.462,0,0,1,1.855-1.084,2.738,2.738,0,0,1,.444-.075l8.941,13.1ZM76.4,51.365A2.11,2.11,0,0,0,74.883,52.4l-.549.951L66.618,42.046a5.3,5.3,0,0,0,3.24-.418,3.364,3.364,0,0,0,.716-.561L77.49,51.2Zm6.307-1.13a.364.364,0,0,1-.288.221l-3.017.456L71.622,39.5c.144-.291.275-.584.4-.868a6.591,6.591,0,0,1,1.1-1.911,2.685,2.685,0,0,1,.375-.307l9.183,13.457a.364.364,0,0,1,.034.361Z" transform="translate(-32.431 0)" fill="#a854f3"/>
          <path id="Trazado_875368" data-name="Trazado 875368" d="M161.485,80.346a14.66,14.66,0,1,0-14.66,14.66A14.676,14.676,0,0,0,161.485,80.346Zm-14.66,12.914a12.914,12.914,0,1,1,12.914-12.914A12.928,12.928,0,0,1,146.825,93.259Z" transform="translate(-120.554 -58.039)" fill="#a854f3"/>
          <path id="Trazado_875369" data-name="Trazado 875369" d="M195.016,126.7a3.268,3.268,0,0,0-2.326.963l-5.755,5.755-1.162-1.162a3.289,3.289,0,0,0-4.652,4.652l4.263,4.262a2.193,2.193,0,0,0,3.1,0l2.751-2.751A.873.873,0,0,0,190,137.185l-2.751,2.751a.458.458,0,0,1-.633,0l-4.263-4.262a1.543,1.543,0,1,1,2.182-2.182l1.681,1.681a1.014,1.014,0,0,0,1.432,0l6.274-6.274a1.543,1.543,0,0,1,2.182,2.182l-3.241,3.241a.873.873,0,0,0,1.235,1.235l3.242-3.241a3.289,3.289,0,0,0-2.326-5.615Z" transform="translate(-162.961 -111.95)" fill="#a854f3"/>
        </g>
      </g>
    </g>
  </g>
</svg>
