<svg xmlns="http://www.w3.org/2000/svg" xmlns:xlink="http://www.w3.org/1999/xlink" width="175.181" height="150" viewBox="0 0 175.181 150">
  <defs>
    <clipPath id="clip-path">
      <rect id="Rect치ngulo_401082" data-name="Rect치ngulo 401082" width="169.902" height="116.341" fill="#fff" stroke="#707070" stroke-width="1" opacity="0.61"/>
    </clipPath>
    <clipPath id="clip-path-2">
      <rect id="Rect치ngulo_401543" data-name="Rect치ngulo 401543" width="118.833" height="150" fill="none"/>
    </clipPath>
  </defs>
  <g id="Grupo_1100000" data-name="Grupo 1100000" transform="translate(-324.369 -547)">
    <g id="Grupo_1099997" data-name="Grupo 1099997" transform="translate(329.648 547)">
      <path id="Trazado_874102" data-name="Trazado 874102" d="M424.984,247.41a42.6,42.6,0,0,1,3.834,20.5c-.3,4.667-1.487,9.871.807,14.232,2.814,5.35,9.683,7.382,15.3,7.736,25.479,1.606,47.871-15.379,64.019-33.4,12.879-14.377,26.052-31.856,28.281-51.575,2.01-17.778-10.161-33.823-25.664-41.112-17.254-8.113-37.8-9.339-56.531-7.289-23.92,2.619-51.4,14.178-55.56,40.819a33.188,33.188,0,0,0,2.376,18.86c4.172,9.112,12.333,15.381,18.3,23.2A43.9,43.9,0,0,1,424.984,247.41Z" transform="translate(-375.728 -139.989)" fill="#3a1d71" fill-rule="evenodd"/>
      <g id="Grupo_1099274" data-name="Grupo 1099274" transform="translate(19.308 125.078)">
        <path id="Trazado_874103" data-name="Trazado 874103" d="M397.325,537.733a1.809,1.809,0,0,0-.9,1.366c-.467,2.186.466,4.362,1.5,6.228,1.369,2.479,3.273,5.027,6.17,5.755a8.926,8.926,0,0,0,3.6.057c1.7-.278,3.891-1.122,4.378-3,.7-2.71-2.145-4.13-4.209-4.884a30.032,30.032,0,0,1-3.84-1.454,20.953,20.953,0,0,1-3.926-3.158,2.8,2.8,0,0,0-2.653-.959A1.19,1.19,0,0,0,397.325,537.733Z" transform="translate(-393.581 -531.383)" fill="#f0c518" fill-rule="evenodd"/>
        <path id="Trazado_874104" data-name="Trazado 874104" d="M391,521.482a2.161,2.161,0,1,0-3.027-.437A2.162,2.162,0,0,0,391,521.482Z" transform="translate(-387.539 -517.589)" fill="#f0c518" fill-rule="evenodd"/>
      </g>
      <path id="Trazado_874105" data-name="Trazado 874105" d="M401.091,188.5a45.046,45.046,0,0,1-14.2,16.863c-4.018,2.874-9.061,5.389-11.094,10.187-2.494,5.885.432,12.872,3.892,17.708,15.7,21.942,44.535,28.913,70.05,30.073,20.351.925,43.433.015,61.039-11.358,15.873-10.253,20.86-30.96,16.467-48.535-4.89-19.561-17.61-37.213-31.79-51.176-18.113-17.837-45.906-32.6-70.463-18.182a35.078,35.078,0,0,0-13.829,14.568c-4.662,9.516-4.337,20.4-6.749,30.517A46.52,46.52,0,0,1,401.091,188.5Z" transform="translate(-359.066 -119.851)" fill="#f0c518" fill-rule="evenodd"/>
      <path id="Trazado_874106" data-name="Trazado 874106" d="M395.309,234.913c-17.354-7.555-34.267-19.464-42.565-38.189-1.616-3.647-4.869-12.862-.179-19.661,2.611-3.785,6.866-5.5,10.981-7.162.988-.4,1.92-.775,2.833-1.18a46.542,46.542,0,0,0,17.851-14.081h0a47.988,47.988,0,0,0,5.308-8.745c1.622-3.469,2.941-7.185,4.217-10.779,2.353-6.625,4.785-13.476,9.237-19.228a37.131,37.131,0,0,1,17.579-12.249c13.115-4.46,26.5-2.8,39.787,4.94,10.628,6.19,21.059,16.45,29.372,28.89,9.435,14.119,20.887,35.917,21.864,59.578a54.021,54.021,0,0,1-6.451,27.939,41.218,41.218,0,0,1-21.136,19.037c-21.226,8.242-46.089,3.666-65.378-1.24A153.714,153.714,0,0,1,395.309,234.913Zm-9.982-79.435a47.945,47.945,0,0,1-18.39,14.507c-.934.415-1.921.813-2.876,1.2-3.926,1.584-7.985,3.222-10.36,6.665-4.414,6.4-.883,15.636.3,18.315,11.871,26.788,41.881,39.411,64.966,45.282,19.09,4.856,43.678,9.391,64.539,1.291,19.334-7.507,27.4-28.915,26.706-45.63-.964-23.34-12.3-44.9-21.633-58.867-7.188-10.756-33.3-44.945-67.57-33.292a35.754,35.754,0,0,0-16.931,11.787c-4.316,5.577-6.711,12.321-9.027,18.844-1.287,3.625-2.617,7.372-4.267,10.9a49.4,49.4,0,0,1-5.461,9Z" transform="translate(-342.019 -101.201)" fill="#fff" fill-rule="evenodd"/>
      <g id="Enmascarar_grupo_1098657" data-name="Enmascarar grupo 1098657" transform="translate(0 31.03)" clip-path="url(#clip-path)">
        <path id="Trazado_874108" data-name="Trazado 874108" d="M395.309,234.913c-17.354-7.555-34.267-19.464-42.565-38.189-1.616-3.647-4.869-12.862-.179-19.661,2.611-3.785,6.866-5.5,10.981-7.162.988-.4,1.92-.775,2.833-1.18a46.542,46.542,0,0,0,17.851-14.081h0a47.988,47.988,0,0,0,5.308-8.745c1.622-3.469,2.941-7.185,4.217-10.779,2.353-6.625,4.785-13.476,9.237-19.228a37.131,37.131,0,0,1,17.579-12.249c13.115-4.46,26.5-2.8,39.787,4.94,10.628,6.19,21.059,16.45,29.372,28.89,9.435,14.119,20.887,35.917,21.864,59.578a54.021,54.021,0,0,1-6.451,27.939,41.218,41.218,0,0,1-21.136,19.037c-21.226,8.242-46.089,3.666-65.378-1.24A153.714,153.714,0,0,1,395.309,234.913Zm-9.982-79.435a47.945,47.945,0,0,1-18.39,14.507c-.934.415-1.921.813-2.876,1.2-3.926,1.584-7.985,3.222-10.36,6.665-4.414,6.4-.883,15.636.3,18.315,11.871,26.788,41.881,39.411,64.966,45.282,19.09,4.856,43.678,9.391,64.539,1.291,19.334-7.507,27.4-28.915,26.706-45.63-.964-23.34-12.3-44.9-21.633-58.867-7.188-10.756-33.3-44.945-67.57-33.292a35.754,35.754,0,0,0-16.931,11.787c-4.316,5.577-6.711,12.321-9.027,18.844-1.287,3.625-2.617,7.372-4.267,10.9a49.4,49.4,0,0,1-5.461,9Z" transform="translate(-342.019 -132.231)" fill="#fff" fill-rule="evenodd"/>
      </g>
    </g>
    <g id="Grupo_1099996" data-name="Grupo 1099996" transform="translate(354.96 547)">
      <g id="Grupo_1099991" data-name="Grupo 1099991" clip-path="url(#clip-path-2)">
        <path id="Trazado_875078" data-name="Trazado 875078" d="M107.578,52.139l-17.646.124,2.3-4.2a13.173,13.173,0,0,0,.924-8.677,11.311,11.311,0,0,0,5.64-7.144l3.678-14.382A11.248,11.248,0,0,0,94,4.078L76.8.269A11.232,11.232,0,0,0,63.432,8.61L60.353,21.326c-3.074-.92-5.142-2.382-8.647-1.927l-2.358-7.135A11.248,11.248,0,0,0,34.785,5.229L18.246,11.3a11.314,11.314,0,0,0-6.764,14.235L15.124,36.1l-5.951,1.12A11.314,11.314,0,0,0,.154,50.141l2.518,15a11.217,11.217,0,0,0,9.686,9.307L5.675,84.914c-3.881,6.079-.387,15.593,5.659,18.09L40.407,115.01a59.024,59.024,0,0,0,4.316,7.065c-1.149,25.806-1.037,22.093-.617,25.217A42.652,42.652,0,0,0,58.9,150h0a41.887,41.887,0,0,0,19.432-4.791c-1.084-13-2.334-18.314-.764-25.069,1.9-8.167,3.68-16.48,5.295-24.708a20.5,20.5,0,0,0,.46-7.481,11.169,11.169,0,0,0,6.76,2.023l17.43-.488a11.256,11.256,0,0,0,10.937-10.965l.378-14.841a11.248,11.248,0,0,0-11.251-11.542" transform="translate(0 0)" fill="#fff"/>
        <path id="Trazado_875079" data-name="Trazado 875079" d="M143.8,96.489l4.956,14.376a7.784,7.784,0,0,0,10.192,4.713l16.24-6.347a7.784,7.784,0,0,0,4.557-9.692l-4.658-14.1a7.784,7.784,0,0,0-10.071-4.865l-16.538,6.067a7.784,7.784,0,0,0-4.678,9.844" transform="translate(-129.039 -72.089)" fill="#ff605b"/>
        <path id="Trazado_875080" data-name="Trazado 875080" d="M206.949,185.594l3.28,9.7a1.526,1.526,0,0,0,1.893.97l13.3-4.071a1.577,1.577,0,0,0,1.039-1.809,1.526,1.526,0,0,1,2.035-1.774l.367.142a1.526,1.526,0,0,0,2.038-1.762l-1.239-5.451a1.526,1.526,0,0,0-2.613-.694l-.424.462a1.526,1.526,0,0,1-2.618-.715l-.052-.245A1.526,1.526,0,0,0,222,179.2l-14.063,4.445a1.526,1.526,0,0,0-.986,1.945" transform="translate(-186.182 -161.22)" fill="#ffb020"/>
        <path id="Trazado_875081" data-name="Trazado 875081" d="M34.8,384.682l2.518,15a7.784,7.784,0,0,0,9.276,6.329l17.065-3.582a7.784,7.784,0,0,0,6.093-8.808l-2.27-14.671a7.784,7.784,0,0,0-9.131-6.459l-17.312,3.257a7.784,7.784,0,0,0-6.237,8.938" transform="translate(-31.224 -335.115)" fill="#a369f7"/>
        <path id="Trazado_875082" data-name="Trazado 875082" d="M119.286,473.352l-1.08,3.549a1.314,1.314,0,0,0,1.909,1.522c1.679-.945,3.3-1.958,4.888-2.929a25.291,25.291,0,0,0,7.314-1.1c6.513-2.265,7.91-8.311,5.04-11.467-2.319-2.55-9.061-4.037-14.739-1.065-4.748,2.485-6.246,6.625-3.331,11.489" transform="translate(-106.017 -414.198)" fill="#7ad001"/>
        <path id="Trazado_875083" data-name="Trazado 875083" d="M159.715,539.631a1.152,1.152,0,1,1,1.152,1.152,1.152,1.152,0,0,1-1.152-1.152" transform="translate(-143.744 -484.631)" fill="#fff"/>
        <path id="Trazado_875084" data-name="Trazado 875084" d="M208.47,528.115a1.152,1.152,0,1,1,1.152,1.152,1.152,1.152,0,0,1-1.152-1.152" transform="translate(-187.623 -474.267)" fill="#fff"/>
        <path id="Trazado_875085" data-name="Trazado 875085" d="M263.75,516.6a1.152,1.152,0,1,1,1.152,1.152,1.152,1.152,0,0,1-1.152-1.152" transform="translate(-237.375 -463.902)" fill="#fff"/>
        <path id="Trazado_875086" data-name="Trazado 875086" d="M633.87,40.689l-3.578,14.779a7.784,7.784,0,0,0,6.042,9.465l17.1,3.412a7.784,7.784,0,0,0,9.064-5.7l3.679-14.382a7.784,7.784,0,0,0-5.858-9.528l-17.2-3.809a7.784,7.784,0,0,0-9.248,5.768" transform="translate(-567.064 -31.262)" fill="#7ad001"/>
        <path id="Trazado_875087" data-name="Trazado 875087" d="M772.185,121.027c-1.787,1.673-3.214,8.39-2.744,10.692a3.2,3.2,0,0,0,5.141,2.134c2.446-1.558,4.5-6.924,4.371-9.23-.2-3.509-4.152-6.046-6.768-3.6" transform="translate(-692.416 -108.048)" fill="#fff"/>
        <path id="Trazado_875088" data-name="Trazado 875088" d="M718.108,210.239a16.384,16.384,0,0,1-.99-4.106.75.75,0,0,1,1.484-.223,15.262,15.262,0,0,0,.884,3.737c2.343,5.454,9.828,5.556,12.447,1.187a1.584,1.584,0,0,0,.265-1.132.75.75,0,0,1,.719-.78.743.743,0,0,1,.78.719,3.034,3.034,0,0,1-.477,1.965c-3.289,5.487-12.318,5.137-15.112-1.366" transform="translate(-645.399 -184.744)" fill="#1d1d3d"/>
        <path id="Trazado_875089" data-name="Trazado 875089" d="M428.637,751.7q2.847-12.248,5.269-24.59c1.047-5.334.754-6.787-1.441-11.051a80.846,80.846,0,0,0-8.069-13.451c-9.93,10.76-20.034,21.359-30.565,32.82a55.536,55.536,0,0,0,8.862,17.933s-1.038,23.287-.988,23.665a37.788,37.788,0,0,0,27.448-1.6c-.533-7.681-2.4-15.608-.518-23.723" transform="translate(-354.449 -632.347)" fill="#ffad92"/>
        <path id="Trazado_875090" data-name="Trazado 875090" d="M116.363,268.072l-40.4,58.993c-2.13,3.337.731,9.81,4.407,11.328L113.6,352.117a6.451,6.451,0,0,0,8.118-2.843L156.9,284.99c1.878-3.433.433-10.807-3.275-12.126l-29.66-7.383a6.453,6.453,0,0,0-7.6,2.59" transform="translate(-67.709 -238.597)" fill="#ff605b"/>
        <path id="Trazado_875091" data-name="Trazado 875091" d="M115.98,230.842,77.026,291.873a6.349,6.349,0,0,0,2.959,9.29l33.234,13.724a6.451,6.451,0,0,0,8.118-2.843l35.175-64.283a6.353,6.353,0,0,0-3.479-9.037l-29.455-10.471a6.453,6.453,0,0,0-7.6,2.59" transform="translate(-68.425 -205.09)" fill="#00abfe"/>
        <path id="Trazado_875092" data-name="Trazado 875092" d="M183.683,274.2l-19.307,35.141-8.854,16.111-4.987,9.078A5.832,5.832,0,0,1,143.2,337.1l-30.051-12.41a5.739,5.739,0,0,1-2.675-8.4l24.986-39.207,9.406-14.768,2.176-3.415a5.836,5.836,0,0,1,6.871-2.342l2.2.781-.458.911a3.108,3.108,0,0,0,1.9,4.383l16.881,5.065a3.162,3.162,0,0,0,3.821-1.785l.26-.609,2.025.718a5.746,5.746,0,0,1,3.144,8.172" transform="translate(-98.611 -230.603)" fill="#eae5db"/>
        <path id="Trazado_875093" data-name="Trazado 875093" d="M397.368,364.206l-8.854,16.111-20.067-48.363,9.406-14.768Z" transform="translate(-331.602 -285.468)" fill="#fff"/>
        <path id="Trazado_875094" data-name="Trazado 875094" d="M141.373,807.232l-2.416,4.187a3.617,3.617,0,0,0,1.793,5.168l30.433,12.136a3.617,3.617,0,0,0,4.572-1.736l2.184-4.348a3.617,3.617,0,0,0-1.9-4.986l-30.2-11.976a3.617,3.617,0,0,0-4.466,1.555" transform="translate(-124.625 -724.88)" fill="#b2aca3"/>
        <path id="Trazado_875095" data-name="Trazado 875095" d="M192.326,838.85l-1.482,3.062a2.1,2.1,0,0,0,1.188,2.9l3.362,1.2a2.1,2.1,0,0,0,2.667-1.226l1.221-3.174a2.1,2.1,0,0,0-1.268-2.74l-3.1-1.084a2.1,2.1,0,0,0-2.586,1.069" transform="translate(-171.57 -753.897)" fill="#ffb020"/>
        <path id="Trazado_875096" data-name="Trazado 875096" d="M294.261,880.042l-1.482,3.062a2.1,2.1,0,0,0,1.188,2.9l3.362,1.2A2.1,2.1,0,0,0,300,885.971l1.221-3.174a2.1,2.1,0,0,0-1.269-2.74l-3.1-1.084a2.1,2.1,0,0,0-2.586,1.069" transform="translate(-263.312 -790.97)" fill="#7ad001"/>
        <path id="Trazado_875097" data-name="Trazado 875097" d="M398.065,922.62l-1.482,3.062a2.1,2.1,0,0,0,1.188,2.9l3.362,1.2a2.1,2.1,0,0,0,2.667-1.226l1.221-3.174a2.1,2.1,0,0,0-1.268-2.74l-3.1-1.084a2.1,2.1,0,0,0-2.586,1.069" transform="translate(-356.736 -829.29)" fill="#a369f7"/>
        <path id="Trazado_875098" data-name="Trazado 875098" d="M420,433.688a.75.75,0,0,1-.344-1l3.74-7.644a.75.75,0,1,1,1.347.659L421,433.344a.75.75,0,0,1-1,.344" transform="translate(-377.623 -382.158)" fill="#1d1d3d"/>
        <path id="Trazado_875099" data-name="Trazado 875099" d="M475.355,446.9a.75.75,0,0,1,0-1.061l6.245-6.2c-1.583-.78-2-1.212-3.948-2.069a.75.75,0,0,1,.6-1.373c2.375,1.046,2.661,1.527,4.938,2.529a.75.75,0,0,1,.226,1.218l-7.008,6.963a.75.75,0,0,1-1.06,0" transform="translate(-427.624 -392.514)" fill="#1d1d3d"/>
        <path id="Trazado_875100" data-name="Trazado 875100" d="M564.675,505.14a5.525,5.525,0,0,1,1.226-6.116c1.568-1.474,4.107-2.052,5.673-.324,2.03,2.241-.145,5.889-2.542,7.708-1.855,1.407-3.544.552-4.357-1.269m2.253-5.023a3.985,3.985,0,0,0-.884,4.411c.623,1.394,1.407,1.2,2.081.686,1.452-1.1,3.689-4.014,2.337-5.506-.951-1.049-2.587-.481-3.534.409" transform="translate(-507.808 -447.875)" fill="#1d1d3d"/>
        <path id="Trazado_875101" data-name="Trazado 875101" d="M642.1,542.036a5.525,5.525,0,0,1,1.226-6.116c1.578-1.483,4.116-2.043,5.673-.323,2.032,2.242-.144,5.888-2.542,7.708-1.866,1.415-3.55.537-4.357-1.269m2.253-5.023a3.985,3.985,0,0,0-.884,4.411c.624,1.4,1.413,1.193,2.081.686,1.495-1.134,3.672-4.031,2.337-5.506-.947-1.045-2.566-.5-3.534.409" transform="translate(-577.488 -481.082)" fill="#1d1d3d"/>
        <path id="Trazado_875102" data-name="Trazado 875102" d="M555.792,491.9a.815.815,0,1,1-.815-.815.815.815,0,0,1,.815.815" transform="translate(-498.745 -441.98)" fill="#1d1d3d"/>
        <path id="Trazado_875103" data-name="Trazado 875103" d="M531.733,537.646a.815.815,0,1,1-.815-.815.815.815,0,0,1,.815.815" transform="translate(-477.092 -483.148)" fill="#1d1d3d"/>
        <path id="Trazado_875104" data-name="Trazado 875104" d="M552.195,732.262c-4.836-5.4-6.926-11.043-9.586-17.327-1.069-2.524-2.663-2.21-3.781-.316-2.846,4.825-1.9,10.7-.187,16.062a105.689,105.689,0,0,0,1.352,20.618c3.865-2.383,6.6-6.187,9.2-9.912,1.839-2.639,3.747-5.617,3.007-9.125" transform="translate(-483.312 -641.808)" fill="#ffad92"/>
        <path id="Trazado_875105" data-name="Trazado 875105" d="M532.507,744.612a105.828,105.828,0,0,1-1.365-20.637c-1.745-5.5-2.664-11.534.294-16.55,1.4-2.381,3.78-2.754,5.117.4,1.537,3.2,3.776,10.775,9.455,17.12a.75.75,0,0,1-1.117,1c-5.877-6.566-8.189-14.355-9.718-17.535-.718-1.693-1.474-1.873-2.444-.227-2.729,4.626-1.754,10.338-.119,15.453a.743.743,0,0,1,.035.247,104.5,104.5,0,0,0,1.341,20.472.75.75,0,1,1-1.478.254" transform="translate(-476.566 -634.994)" fill="#ed6c4d"/>
        <path id="Trazado_875106" data-name="Trazado 875106" d="M820.054,563.921l-.192,15.2a7.784,7.784,0,0,0,8,7.879l17.43-.488a7.784,7.784,0,0,0,7.563-7.583l.378-14.841a7.784,7.784,0,0,0-7.836-7.982l-17.616.124a7.784,7.784,0,0,0-7.728,7.685" transform="translate(-737.876 -500.501)" fill="#ffb020"/>
        <path id="Trazado_875107" data-name="Trazado 875107" d="M921.162,618.866l-6.03,4.21-2.557-3.523-4.889-3.705-.76-12.448,3.59,6.825a1.355,1.355,0,0,0-.211.727,1.38,1.38,0,1,0,1.38-1.38,1.231,1.231,0,0,0-.289.033l-4.469-6.205L918,609.5l1.231,6.272Z" transform="translate(-816.234 -543.06)" fill="#eae5db"/>
        <path id="Trazado_875108" data-name="Trazado 875108" d="M971.611,746.614l7.768-5.068,1.726,2.534-7.932,5.09Z" transform="translate(-874.45 -667.392)" fill="#00abfe"/>
      </g>
    </g>
    <path id="Trazado_874111" data-name="Trazado 874111" d="M184.367,434.8l-1.243-1.589,4.835-3.808-4.835-3.808,1.243-1.588,6.853,5.4Zm-15.3-1.589,4.835-3.808-4.835-3.808,1.242-1.588,6.853,5.4-6.853,5.4Zm-14.061,0,4.835-3.808L155,425.6l1.242-1.588,6.853,5.4-6.853,5.4Z" transform="translate(169.366 122.989)" fill="#3a1d71" fill-rule="evenodd"/>
  </g>
</svg>
