<svg id="Grupo_1099946" data-name="Grupo 1099946" xmlns="http://www.w3.org/2000/svg" width="70" height="70" viewBox="0 0 70 70">
  <rect id="Rectángulo_401236" data-name="Rectángulo 401236" width="70" height="70" rx="10" transform="translate(0 0)" fill="#fff" opacity="0.3"/>
  <path id="Trazado_875022" data-name="Trazado 875022" d="M16.013,8.465A2.353,2.353,0,1,1,13.66,6.112a2.353,2.353,0,0,1,2.353,2.353Zm-2.158,4.113.084,0,2.038,10.188a3.53,3.53,0,0,0-.718,5.549l-3.072,7.167a4.1,4.1,0,0,0-.608-.138Zm3.062-1.593a4.111,4.111,0,0,0,.662-1.254l15.376,3.295a5.249,5.249,0,0,0,.3.945l-7.891,5.463Zm.83-3.022a4.118,4.118,0,1,0-7.322,3.05L4.5,20.892a2.983,2.983,0,0,0-.393-.026,2.941,2.941,0,0,0-.267,5.87l4,10A4.118,4.118,0,1,0,15,40.281l15.939-1.138a2.942,2.942,0,0,0,5.361-2.4l6.483-6.483a3.53,3.53,0,1,0,1.015-6.674l-3.041-7.1A5.295,5.295,0,1,0,32.877,11.2ZM11.8,12.142,6.1,21.648a2.942,2.942,0,0,1-.518,4.7l3.718,9.3a4.072,4.072,0,0,1,.492-.181l2.318-23.184q-.156-.064-.306-.139Zm29.852-.25a3.529,3.529,0,1,1-3.529-3.529A3.529,3.529,0,0,1,41.657,11.892Zm-2.985,5.266-3.4,18.107,6.15-6.15a3.533,3.533,0,0,1,.741-4.845L39.095,17.1Q38.886,17.137,38.672,17.159ZM14.989,38.512a4.092,4.092,0,0,0-.521-1.273l8.7-6.525,7.794,5.668a2.92,2.92,0,0,0-.33,1.012Zm-.772-3.29,2.577-6.013a3.535,3.535,0,0,0,3.284-.742l1.6,1.162Zm8.935-6.7L21.073,27.01a3.544,3.544,0,0,0-.018-2.444l4.1-2.842L27.3,23.864a2.927,2.927,0,0,0-.527,1.681q0,.127.011.251ZM29.715,22.6a2.936,2.936,0,0,0-1,.176L26.634,20.7l7.578-5.246a5.328,5.328,0,0,0,.73.665l-4.369,6.61a2.938,2.938,0,0,0-.859-.127Zm2.941,2.941a2.928,2.928,0,0,0-.627-1.815l4.489-6.792q.187.06.38.106L33.577,34.757l-2.2-6.783a2.938,2.938,0,0,0,1.282-2.429Zm-5.164,1.926a2.934,2.934,0,0,0,2.193,1.015l2.036,6.267-7.076-5.146Zm-3.6-7.016-3.853,2.668a3.515,3.515,0,0,0-2.286-.84h-.072l-2.01-10.049Zm9.655,18.509a1.176,1.176,0,1,0-1.176-1.176A1.177,1.177,0,0,0,33.546,38.964ZM17.752,27.577a1.765,1.765,0,1,0-1.765-1.765A1.765,1.765,0,0,0,17.752,27.577ZM5.28,23.808A1.176,1.176,0,1,1,4.1,22.631,1.176,1.176,0,0,1,5.28,23.808Zm24.434,2.914a1.176,1.176,0,1,0-1.176-1.176A1.176,1.176,0,0,0,29.715,26.722Zm13.347,1.6a1.765,1.765,0,1,1,2.5,0A1.765,1.765,0,0,1,43.061,28.325ZM10.97,41.765a2.353,2.353,0,1,0-2.353-2.353A2.353,2.353,0,0,0,10.97,41.765Z" transform="translate(10.499 11.061)" fill="#3a1d71" fill-rule="evenodd"/>
</svg>
