<svg id="Grupo_1099947" data-name="Grupo 1099947" xmlns="http://www.w3.org/2000/svg" width="70" height="70" viewBox="0 0 70 70">
  <rect id="Rectángulo_401237" data-name="Rectángulo 401237" width="70" height="70" rx="10" transform="translate(0 0)" fill="#fff" opacity="0.3"/>
  <g id="Grupo_1099969" data-name="Grupo 1099969" transform="translate(10.289 10.547)">
    <g id="Grupo_1099948" data-name="Grupo 1099948" transform="translate(1.9 21.155)">
      <path id="Trazado_875003" data-name="Trazado 875003" d="M24.693,55.251H5.858A3.941,3.941,0,0,1,1.9,51.293V32.458A3.941,3.941,0,0,1,5.858,28.5h.806a.733.733,0,1,1,0,1.466H5.858a2.471,2.471,0,0,0-2.492,2.492V51.293a2.471,2.471,0,0,0,2.492,2.492H24.693a.733.733,0,1,1,0,1.466Z" transform="translate(-1.9 -28.5)" fill="#3a1d71"/>
    </g>
    <g id="Grupo_1099949" data-name="Grupo 1099949" transform="translate(23.96 21.155)">
      <path id="Trazado_875004" data-name="Trazado 875004" d="M51.568,55.251H32.733a.733.733,0,0,1,0-1.466H51.568a2.471,2.471,0,0,0,2.492-2.492V32.458a2.471,2.471,0,0,0-2.492-2.492h-.806a.733.733,0,1,1,0-1.466h.806a3.941,3.941,0,0,1,3.958,3.958V51.293A3.941,3.941,0,0,1,51.568,55.251Z" transform="translate(-32 -28.5)" fill="#3a1d71"/>
    </g>
    <g id="Grupo_1099950" data-name="Grupo 1099950" transform="translate(23.96 17.417)">
      <path id="Trazado_875005" data-name="Trazado 875005" d="M32.733,53.6A.692.692,0,0,1,32,52.862V28.6a5.224,5.224,0,0,1,5.2-5.2H47.464A4.067,4.067,0,0,1,51.5,27.431V45.094a4.067,4.067,0,0,1-4.031,4.031H37.2a3.754,3.754,0,0,0-3.738,3.738A.734.734,0,0,1,32.733,53.6ZM37.2,24.866A3.754,3.754,0,0,0,33.466,28.6V49.271A5.26,5.26,0,0,1,37.2,47.732H47.464a2.6,2.6,0,0,0,2.565-2.565V27.431a2.6,2.6,0,0,0-2.565-2.565Z" transform="translate(-32 -23.4)" fill="#3a1d71"/>
    </g>
    <g id="Grupo_1099951" data-name="Grupo 1099951" transform="translate(5.931 17.417)">
      <path id="Trazado_875006" data-name="Trazado 875006" d="M26.162,53.889a.692.692,0,0,1-.733-.733v-.293a3.754,3.754,0,0,0-3.738-3.738H11.431A4.067,4.067,0,0,1,7.4,45.094V27.431A4.067,4.067,0,0,1,11.431,23.4H21.691a5.224,5.224,0,0,1,5.2,5.2V53.156A.692.692,0,0,1,26.162,53.889ZM11.431,24.866a2.6,2.6,0,0,0-2.565,2.565V45.094a2.6,2.6,0,0,0,2.565,2.565H21.691A5.26,5.26,0,0,1,25.429,49.2V28.6a3.754,3.754,0,0,0-3.738-3.738Z" transform="translate(-7.4 -23.4)" fill="#3a1d71"/>
    </g>
    <g id="Grupo_1099952" data-name="Grupo 1099952" transform="translate(35.723 1)">
      <path id="Trazado_875007" data-name="Trazado 875007" d="M59.08,11.334H48.82a.77.77,0,0,1-.66-.366.666.666,0,0,1,0-.733l5.13-8.868A.875.875,0,0,1,53.95,1a.77.77,0,0,1,.66.366l5.13,8.868a.666.666,0,0,1,0,.733A.77.77,0,0,1,59.08,11.334ZM50.139,9.868h7.7L53.95,3.2Z" transform="translate(-48.05 -1)" fill="#3a1d71"/>
    </g>
    <g id="Grupo_1099953" data-name="Grupo 1099953" transform="translate(1.9 1)">
      <path id="Trazado_875008" data-name="Trazado 875008" d="M7.03,11.334A5.1,5.1,0,0,1,1.9,6.2,5.161,5.161,0,0,1,7.03,1a5.224,5.224,0,0,1,5.2,5.2A5.161,5.161,0,0,1,7.03,11.334Zm0-8.868A3.691,3.691,0,0,0,3.366,6.2,3.754,3.754,0,0,0,7.1,9.941,3.691,3.691,0,0,0,10.768,6.2,3.754,3.754,0,0,0,7.03,2.466Z" transform="translate(-1.9 -1)" fill="#3a1d71"/>
    </g>
    <g id="Grupo_1099954" data-name="Grupo 1099954" transform="translate(18.39 1)">
      <path id="Trazado_875009" data-name="Trazado 875009" d="M34.661,11.334H26.525A2.127,2.127,0,0,1,24.4,9.208V3.125A2.127,2.127,0,0,1,26.525,1h8.135a2.127,2.127,0,0,1,2.125,2.125V9.208A2.127,2.127,0,0,1,34.661,11.334ZM26.525,2.466a.657.657,0,0,0-.66.66V9.208a.657.657,0,0,0,.66.66h8.135a.657.657,0,0,0,.66-.66V3.125a.657.657,0,0,0-.66-.66Z" transform="translate(-24.4 -1)" fill="#3a1d71"/>
    </g>
    <g id="Grupo_1099955" data-name="Grupo 1099955" transform="translate(23.887 10.015)">
      <path id="Trazado_875010" data-name="Trazado 875010" d="M32.633,24.953a.692.692,0,0,1-.733-.733V14.033a.733.733,0,1,1,1.466,0V24.147a.8.8,0,0,1-.733.806Z" transform="translate(-31.9 -13.3)" fill="#3a1d71"/>
    </g>
    <g id="Grupo_1099956" data-name="Grupo 1099956" transform="translate(6.297 9.868)">
      <path id="Trazado_875011" data-name="Trazado 875011" d="M41.174,18.377H10.758A2.862,2.862,0,0,1,7.9,15.519V13.833a.733.733,0,0,1,1.466,0v1.686a1.392,1.392,0,0,0,1.393,1.393H41.1a1.392,1.392,0,0,0,1.393-1.393V13.979a.733.733,0,1,1,1.466,0v1.539a2.8,2.8,0,0,1-2.785,2.858Z" transform="translate(-7.9 -13.1)" fill="#3a1d71"/>
    </g>
    <g id="Grupo_1099962" data-name="Grupo 1099962" transform="translate(9.082 21.081)">
      <g id="Grupo_1099957" data-name="Grupo 1099957">
        <path id="Trazado_875012" data-name="Trazado 875012" d="M24.159,34.776H12.433a.692.692,0,0,1-.733-.733v-4.91a.692.692,0,0,1,.733-.733H24.086a.692.692,0,0,1,.733.733v4.91A.638.638,0,0,1,24.159,34.776ZM13.166,33.31H23.353V29.866H13.166Z" transform="translate(-11.7 -28.4)" fill="#3a1d71"/>
      </g>
      <g id="Grupo_1099958" data-name="Grupo 1099958" transform="translate(0 8.062)">
        <path id="Trazado_875013" data-name="Trazado 875013" d="M24.159,40.866H12.433a.733.733,0,1,1,0-1.466H24.086a.692.692,0,0,1,.733.733A.677.677,0,0,1,24.159,40.866Z" transform="translate(-11.7 -39.4)" fill="#3a1d71"/>
      </g>
      <g id="Grupo_1099959" data-name="Grupo 1099959" transform="translate(0 10.993)">
        <path id="Trazado_875014" data-name="Trazado 875014" d="M24.159,44.866H12.433a.733.733,0,1,1,0-1.466H24.086a.692.692,0,0,1,.733.733A.677.677,0,0,1,24.159,44.866Z" transform="translate(-11.7 -43.4)" fill="#3a1d71"/>
      </g>
      <g id="Grupo_1099960" data-name="Grupo 1099960" transform="translate(0 13.998)">
        <path id="Trazado_875015" data-name="Trazado 875015" d="M24.159,48.966H12.433a.733.733,0,0,1,0-1.466H24.086a.692.692,0,0,1,.733.733A.677.677,0,0,1,24.159,48.966Z" transform="translate(-11.7 -47.5)" fill="#3a1d71"/>
      </g>
      <g id="Grupo_1099961" data-name="Grupo 1099961" transform="translate(0 16.93)">
        <path id="Trazado_875016" data-name="Trazado 875016" d="M24.159,52.966H12.433a.733.733,0,1,1,0-1.466H24.086a.692.692,0,0,1,.733.733A.677.677,0,0,1,24.159,52.966Z" transform="translate(-11.7 -51.5)" fill="#3a1d71"/>
      </g>
    </g>
    <g id="Grupo_1099968" data-name="Grupo 1099968" transform="translate(27.112 21.081)">
      <g id="Grupo_1099963" data-name="Grupo 1099963">
        <path id="Trazado_875017" data-name="Trazado 875017" d="M48.759,34.776H37.033a.692.692,0,0,1-.733-.733v-4.91a.692.692,0,0,1,.733-.733H48.686a.692.692,0,0,1,.733.733v4.91a.638.638,0,0,1-.66.733ZM37.766,33.31H47.953V29.866H37.766Z" transform="translate(-36.3 -28.4)" fill="#3a1d71"/>
      </g>
      <g id="Grupo_1099964" data-name="Grupo 1099964" transform="translate(0 8.062)">
        <path id="Trazado_875018" data-name="Trazado 875018" d="M48.759,40.866H37.033a.733.733,0,1,1,0-1.466H48.686a.692.692,0,0,1,.733.733.677.677,0,0,1-.66.733Z" transform="translate(-36.3 -39.4)" fill="#3a1d71"/>
      </g>
      <g id="Grupo_1099965" data-name="Grupo 1099965" transform="translate(0 10.993)">
        <path id="Trazado_875019" data-name="Trazado 875019" d="M48.759,44.866H37.033a.733.733,0,1,1,0-1.466H48.686a.692.692,0,0,1,.733.733.677.677,0,0,1-.66.733Z" transform="translate(-36.3 -43.4)" fill="#3a1d71"/>
      </g>
      <g id="Grupo_1099966" data-name="Grupo 1099966" transform="translate(0 13.998)">
        <path id="Trazado_875020" data-name="Trazado 875020" d="M48.759,48.966H37.033a.733.733,0,1,1,0-1.466H48.686a.692.692,0,0,1,.733.733.677.677,0,0,1-.66.733Z" transform="translate(-36.3 -47.5)" fill="#3a1d71"/>
      </g>
      <g id="Grupo_1099967" data-name="Grupo 1099967" transform="translate(0 16.93)">
        <path id="Trazado_875021" data-name="Trazado 875021" d="M48.759,52.966H37.033a.733.733,0,1,1,0-1.466H48.686a.692.692,0,0,1,.733.733.677.677,0,0,1-.66.733Z" transform="translate(-36.3 -51.5)" fill="#3a1d71"/>
      </g>
    </g>
  </g>
</svg>
