<svg xmlns="http://www.w3.org/2000/svg" width="70" height="70" viewBox="0 0 70 70">
  <g id="Grupo_1100289" data-name="Grupo 1100289" transform="translate(-515 -526)">
    <circle id="Elipse_11440" data-name="Elipse 11440" cx="35" cy="35" r="35" transform="translate(515 526)" fill="#00ffdf"/>
    <g id="Grupo_1100299" data-name="Grupo 1100299" transform="translate(513.225 524.137)">
      <path id="Trazado_875681" data-name="Trazado 875681" d="M17.325,48.76a.725.725,0,1,0,0,1.45H36.05V48.7H17.325Z" transform="translate(0 -12.592)" fill="#a854f3"/>
      <path id="Trazado_875682" data-name="Trazado 875682" d="M69.964,48.8H51.3v1.51H69.964a.734.734,0,0,0,.725-.725A.715.715,0,0,0,69.964,48.8Z" transform="translate(-13.74 -12.631)" fill="#a854f3"/>
      <path id="Trazado_875683" data-name="Trazado 875683" d="M48.76,69.723a.725.725,0,1,0,1.45,0V51.3H48.7V69.723Z" transform="translate(-12.711 -13.621)" fill="#a854f3"/>
      <path id="Trazado_875684" data-name="Trazado 875684" d="M50.35,17.725a.725.725,0,1,0-1.45,0V36.208h1.51V17.725Z" transform="translate(-12.79 -0.04)" fill="#a854f3"/>
      <path id="Trazado_875685" data-name="Trazado 875685" d="M48.8,48.8h1.51v1.51H48.8Z" transform="translate(-12.75 -12.631)" fill="#a854f3"/>
      <path id="Trazado_875686" data-name="Trazado 875686" d="M17.325,39.409h5.859a.734.734,0,0,0,.725-.725V32.825a.734.734,0,0,0-.725-.725H17.325a.734.734,0,0,0-.725.725v5.859A.7.7,0,0,0,17.325,39.409Zm.785-5.8h4.349v4.349H18.11Z" transform="translate(0 -6.019)" fill="#a854f3"/>
      <path id="Trazado_875687" data-name="Trazado 875687" d="M32.82,39.409H38.68a.734.734,0,0,0,.725-.725V32.825a.734.734,0,0,0-.725-.725H32.82a.734.734,0,0,0-.725.725v5.859A.666.666,0,0,0,32.82,39.409Zm.725-5.8h4.349v4.349H33.545Z" transform="translate(-6.133 -6.019)" fill="#a854f3"/>
      <path id="Trazado_875688" data-name="Trazado 875688" d="M17.325,24.309h5.859a.734.734,0,0,0,.725-.725V17.725A.734.734,0,0,0,23.184,17H17.325a.734.734,0,0,0-.725.725v5.859a.734.734,0,0,0,.725.725Zm.785-5.859h4.349V22.8H18.11Z" transform="translate(0 -0.04)" fill="#a854f3"/>
      <path id="Trazado_875689" data-name="Trazado 875689" d="M32.82,24.309H38.68a.734.734,0,0,0,.725-.725V17.725A.734.734,0,0,0,38.68,17H32.82a.734.734,0,0,0-.725.725v5.859a.7.7,0,0,0,.725.725Zm.725-5.859h4.349V22.8H33.545Z" transform="translate(-6.133 -0.04)" fill="#a854f3"/>
      <path id="Trazado_875690" data-name="Trazado 875690" d="M56.62,39.409H62.48a.734.734,0,0,0,.725-.725V32.825a.734.734,0,0,0-.725-.725H56.62a.734.734,0,0,0-.725.725v5.859a.666.666,0,0,0,.725.725Zm.725-5.8h4.349v4.349H57.345Z" transform="translate(-15.557 -6.019)" fill="#a854f3"/>
      <path id="Trazado_875691" data-name="Trazado 875691" d="M56.62,24.309H62.48a.734.734,0,0,0,.725-.725V17.725A.734.734,0,0,0,62.48,17H56.62a.734.734,0,0,0-.725.725v5.859a.7.7,0,0,0,.725.725Zm.725-5.859h4.349V22.8H57.345Z" transform="translate(-15.557 -0.04)" fill="#a854f3"/>
      <path id="Trazado_875692" data-name="Trazado 875692" d="M77.884,16.9H72.025a.734.734,0,0,0-.725.725v5.859a.734.734,0,0,0,.725.725h5.859a.734.734,0,0,0,.725-.725V17.625a.734.734,0,0,0-.725-.725ZM77.1,22.759H72.75V18.41H77.1Z" transform="translate(-21.66)" fill="#a854f3"/>
      <path id="Trazado_875693" data-name="Trazado 875693" d="M77.884,70.9H72.025a.734.734,0,0,0-.725.725v5.859a.734.734,0,0,0,.725.725h5.859a.734.734,0,0,0,.725-.725V71.625A.734.734,0,0,0,77.884,70.9ZM77.1,76.759H72.75V72.41H77.1Z" transform="translate(-21.66 -21.382)" fill="#a854f3"/>
      <path id="Trazado_875694" data-name="Trazado 875694" d="M23.184,55.8H17.325a.734.734,0,0,0-.725.725v5.859a.734.734,0,0,0,.725.725h5.859a.734.734,0,0,0,.725-.725V56.525a.7.7,0,0,0-.725-.725ZM22.4,61.6H18.05V57.25H22.4Z" transform="translate(0 -15.403)" fill="#a854f3"/>
      <path id="Trazado_875695" data-name="Trazado 875695" d="M38.584,55.8H32.725a.734.734,0,0,0-.725.725v5.859a.734.734,0,0,0,.725.725h5.859a.734.734,0,0,0,.725-.725V56.525a.666.666,0,0,0-.725-.725Zm-.725,5.8H33.51V57.25h4.349Z" transform="translate(-6.098 -15.403)" fill="#a854f3"/>
      <path id="Trazado_875696" data-name="Trazado 875696" d="M62.384,70.9H56.525a.734.734,0,0,0-.725.725v5.859a.734.734,0,0,0,.725.725h5.859a.734.734,0,0,0,.725-.725V71.625A.7.7,0,0,0,62.384,70.9Zm-.725,5.859H57.31V72.41h4.349Z" transform="translate(-15.522 -21.382)" fill="#a854f3"/>
      <path id="Trazado_875697" data-name="Trazado 875697" d="M62.384,55.8H56.525a.734.734,0,0,0-.725.725v5.859a.734.734,0,0,0,.725.725h5.859a.734.734,0,0,0,.725-.725V56.525a.666.666,0,0,0-.725-.725Zm-.725,5.8H57.31V57.25h4.349Z" transform="translate(-15.522 -15.403)" fill="#a854f3"/>
      <path id="Trazado_875698" data-name="Trazado 875698" d="M77.884,55.8H72.025a.734.734,0,0,0-.725.725v5.859a.734.734,0,0,0,.725.725h5.859a.734.734,0,0,0,.725-.725V56.525a.7.7,0,0,0-.725-.725ZM77.1,61.6H72.75V57.25H77.1Z" transform="translate(-21.66 -15.403)" fill="#a854f3"/>
    </g>
  </g>
</svg>
