<svg xmlns="http://www.w3.org/2000/svg" xmlns:xlink="http://www.w3.org/1999/xlink" width="175.181" height="150" viewBox="0 0 175.181 150">
  <defs>
    <clipPath id="clip-path">
      <rect id="Rect치ngulo_401082" data-name="Rect치ngulo 401082" width="169.902" height="116.341" fill="#fff" stroke="#707070" stroke-width="1" opacity="0.61"/>
    </clipPath>
    <clipPath id="clip-path-2">
      <rect id="Rect치ngulo_401542" data-name="Rect치ngulo 401542" width="151.275" height="149.999" transform="translate(0 0)" fill="none"/>
    </clipPath>
  </defs>
  <g id="Grupo_1099999" data-name="Grupo 1099999" transform="translate(-324.369 -767)">
    <g id="Grupo_1099993" data-name="Grupo 1099993" transform="translate(329.648 767)">
      <path id="Trazado_874102" data-name="Trazado 874102" d="M424.984,247.41a42.6,42.6,0,0,1,3.834,20.5c-.3,4.667-1.487,9.871.807,14.232,2.814,5.35,9.683,7.382,15.3,7.736,25.479,1.606,47.871-15.379,64.019-33.4,12.879-14.377,26.052-31.856,28.281-51.575,2.01-17.778-10.161-33.823-25.664-41.112-17.254-8.113-37.8-9.339-56.531-7.289-23.92,2.619-51.4,14.178-55.56,40.819a33.188,33.188,0,0,0,2.376,18.86c4.172,9.112,12.333,15.381,18.3,23.2A43.9,43.9,0,0,1,424.984,247.41Z" transform="translate(-375.728 -139.989)" fill="#3a1d71" fill-rule="evenodd"/>
      <g id="Grupo_1099274" data-name="Grupo 1099274" transform="translate(19.308 125.078)">
        <path id="Trazado_874103" data-name="Trazado 874103" d="M397.325,537.733a1.809,1.809,0,0,0-.9,1.366c-.467,2.186.466,4.362,1.5,6.228,1.369,2.479,3.273,5.027,6.17,5.755a8.927,8.927,0,0,0,3.6.057c1.7-.278,3.891-1.122,4.378-3,.7-2.71-2.145-4.13-4.209-4.884a30.025,30.025,0,0,1-3.84-1.454,20.952,20.952,0,0,1-3.926-3.158,2.8,2.8,0,0,0-2.653-.959A1.181,1.181,0,0,0,397.325,537.733Z" transform="translate(-393.581 -531.383)" fill="#f0c518" fill-rule="evenodd"/>
        <path id="Trazado_874104" data-name="Trazado 874104" d="M391,521.482a2.161,2.161,0,1,0-3.027-.437A2.162,2.162,0,0,0,391,521.482Z" transform="translate(-387.539 -517.589)" fill="#f0c518" fill-rule="evenodd"/>
      </g>
      <path id="Trazado_874105" data-name="Trazado 874105" d="M401.091,188.5a45.046,45.046,0,0,1-14.2,16.863c-4.018,2.874-9.061,5.389-11.094,10.187-2.494,5.885.432,12.872,3.892,17.708,15.7,21.942,44.535,28.913,70.05,30.073,20.351.925,43.433.015,61.039-11.358,15.873-10.253,20.86-30.96,16.467-48.535-4.89-19.561-17.61-37.213-31.79-51.176-18.113-17.837-45.906-32.6-70.463-18.182a35.078,35.078,0,0,0-13.829,14.568c-4.662,9.516-4.337,20.4-6.749,30.517A46.52,46.52,0,0,1,401.091,188.5Z" transform="translate(-359.066 -119.851)" fill="#f0c518" fill-rule="evenodd"/>
      <path id="Trazado_874106" data-name="Trazado 874106" d="M395.309,234.913c-17.354-7.555-34.267-19.464-42.565-38.189-1.616-3.647-4.869-12.862-.179-19.661,2.611-3.785,6.866-5.5,10.981-7.162.988-.4,1.92-.775,2.833-1.18a46.542,46.542,0,0,0,17.851-14.081h0a47.99,47.99,0,0,0,5.308-8.745c1.621-3.469,2.941-7.185,4.217-10.779,2.353-6.625,4.785-13.476,9.237-19.228a37.131,37.131,0,0,1,17.579-12.249c13.115-4.46,26.5-2.8,39.787,4.94,10.628,6.19,21.059,16.45,29.372,28.89,9.435,14.119,20.887,35.917,21.864,59.578a54.02,54.02,0,0,1-6.451,27.939,41.218,41.218,0,0,1-21.136,19.037c-21.226,8.242-46.089,3.666-65.378-1.24A153.715,153.715,0,0,1,395.309,234.913Zm-9.982-79.435a47.945,47.945,0,0,1-18.39,14.507c-.934.415-1.921.813-2.876,1.2-3.926,1.584-7.985,3.222-10.36,6.665-4.414,6.4-.883,15.636.3,18.315,11.871,26.788,41.881,39.411,64.966,45.282,19.09,4.856,43.678,9.391,64.539,1.291,19.334-7.507,27.4-28.915,26.706-45.63-.964-23.34-12.3-44.895-21.633-58.867-7.188-10.756-33.3-44.945-67.57-33.292a35.754,35.754,0,0,0-16.931,11.787c-4.316,5.577-6.711,12.321-9.027,18.844-1.287,3.625-2.617,7.372-4.267,10.9a49.4,49.4,0,0,1-5.461,9Z" transform="translate(-342.019 -101.201)" fill="#fff" fill-rule="evenodd"/>
      <g id="Enmascarar_grupo_1098657" data-name="Enmascarar grupo 1098657" transform="translate(0 31.03)" clip-path="url(#clip-path)">
        <path id="Trazado_874108" data-name="Trazado 874108" d="M395.309,234.913c-17.354-7.555-34.267-19.464-42.565-38.189-1.616-3.647-4.869-12.862-.179-19.661,2.611-3.785,6.866-5.5,10.981-7.162.988-.4,1.92-.775,2.833-1.18a46.542,46.542,0,0,0,17.851-14.081h0a47.99,47.99,0,0,0,5.308-8.745c1.621-3.469,2.941-7.185,4.217-10.779,2.353-6.625,4.785-13.476,9.237-19.228a37.131,37.131,0,0,1,17.579-12.249c13.115-4.46,26.5-2.8,39.787,4.94,10.628,6.19,21.059,16.45,29.372,28.89,9.435,14.119,20.887,35.917,21.864,59.578a54.02,54.02,0,0,1-6.451,27.939,41.218,41.218,0,0,1-21.136,19.037c-21.226,8.242-46.089,3.666-65.378-1.24A153.715,153.715,0,0,1,395.309,234.913Zm-9.982-79.435a47.945,47.945,0,0,1-18.39,14.507c-.934.415-1.921.813-2.876,1.2-3.926,1.584-7.985,3.222-10.36,6.665-4.414,6.4-.883,15.636.3,18.315,11.871,26.788,41.881,39.411,64.966,45.282,19.09,4.856,43.678,9.391,64.539,1.291,19.334-7.507,27.4-28.915,26.706-45.63-.964-23.34-12.3-44.895-21.633-58.867-7.188-10.756-33.3-44.945-67.57-33.292a35.754,35.754,0,0,0-16.931,11.787c-4.316,5.577-6.711,12.321-9.027,18.844-1.287,3.625-2.617,7.372-4.267,10.9a49.4,49.4,0,0,1-5.461,9Z" transform="translate(-342.019 -132.231)" fill="#fff" fill-rule="evenodd"/>
      </g>
    </g>
    <g id="Grupo_1099995" data-name="Grupo 1099995" transform="translate(339.023 767)">
      <g id="Grupo_1099989" data-name="Grupo 1099989" transform="translate(0 0)" clip-path="url(#clip-path-2)">
        <path id="Trazado_875056" data-name="Trazado 875056" d="M145.364,16.035,110.3,2.211A9.31,9.31,0,0,0,98.211,7.445l-11.6,29.188a34.474,34.474,0,0,0-8.88-1.161,34.928,34.928,0,0,0-12.058,2.167L53.063,5.884A9.31,9.31,0,0,0,40.971.65L5.911,14.474A9.322,9.322,0,0,0,.723,26.744L31.042,99.423a9.324,9.324,0,0,0,13.031,4.622L56.21,97.513a34.858,34.858,0,0,0,13.012,6.4l-.005,2.857a6.691,6.691,0,0,0-1.385,1.087,6.568,6.568,0,0,0-1.888,4.762l.432,27.83A9.825,9.825,0,0,0,76.14,150l.183,0a9.794,9.794,0,0,0,9.589-9.85l.147-27.682a6.654,6.654,0,0,0-3.217-5.594l.052-2.285A34.763,34.763,0,0,0,96.17,99.669l11.031,5.938a9.324,9.324,0,0,0,13.031-4.623l30.319-72.679a9.322,9.322,0,0,0-5.188-12.27" transform="translate(0 0.003)" fill="#fff"/>
        <path id="Trazado_875057" data-name="Trazado 875057" d="M38.174,48.685,73.235,34.861a5.855,5.855,0,0,1,7.589,3.285L108.3,107.308a5.855,5.855,0,0,1-2.666,7.317L73.416,131.967a5.855,5.855,0,0,1-8.179-2.9L34.918,56.386a5.855,5.855,0,0,1,3.256-7.7" transform="translate(-30.989 -30.976)" fill="#ff605b"/>
        <path id="Trazado_875058" data-name="Trazado 875058" d="M238.818,459.161a16.129,16.129,0,0,1-3.043-4.4.756.756,0,1,1,1.334-.714,14.754,14.754,0,0,0,2.735,4c2.963,2.734,6.415,1.282,7.184-3.129.377-2.163.13-4.325.6-6.608.995-4.823,4.158-6.682,9.425-4.172,2.633,1.255,5.132,1.8,7.762.535a6.384,6.384,0,0,0,3.582-4.81.756.756,0,0,1,1.5.182,7.93,7.93,0,0,1-4.429,5.991c-3.086,1.481-6,.927-9.067-.534-3.3-1.576-6.291-1.74-7.292,3.112-.414,2.007-.214,4.4-.592,6.562-1.007,5.781-5.972,7.422-9.7,3.982" transform="translate(-211.916 -394.907)" fill="#fff"/>
        <path id="Trazado_875059" data-name="Trazado 875059" d="M366.849,463.533a7.783,7.783,0,0,0-2.243,2.23,2.654,2.654,0,0,0,2.278,2.392,2.431,2.431,0,0,0,2.577-1.977c.166-1.185-.815-2.422-2.612-2.646" transform="translate(-327.836 -416.785)" fill="#ffb020"/>
        <path id="Trazado_875060" data-name="Trazado 875060" d="M301.067,606.782l2.654,5.526,32.8-14.3-2.4-5.425Z" transform="translate(-270.705 -532.818)" fill="#00abfe"/>
        <path id="Trazado_875061" data-name="Trazado 875061" d="M353.116,717.672l2.654,5.526,32.8-14.3-2.4-5.425Z" transform="translate(-317.505 -632.525)" fill="#c72f55"/>
        <path id="Trazado_875062" data-name="Trazado 875062" d="M211.324,184.069a9.671,9.671,0,1,1-13.046-4.1,9.625,9.625,0,0,1,13.046,4.1" transform="translate(-173.604 -160.83)" fill="#00abfe"/>
        <path id="Trazado_875063" data-name="Trazado 875063" d="M246.984,285.428a9.671,9.671,0,0,1-15.286,5.984,12.21,12.21,0,0,1,15.286-5.984" transform="translate(-208.331 -255.943)" fill="#7ad001"/>
        <path id="Trazado_875064" data-name="Trazado 875064" d="M247.52,214.986a6.181,6.181,0,0,0,1.583,3.793,1.943,1.943,0,0,0,3.417-1.41,6.139,6.139,0,0,0-1.789-4c-1.258-.962-3.057.211-3.21,1.617" transform="translate(-222.549 -191.534)" fill="#7ad001"/>
        <path id="Trazado_875065" data-name="Trazado 875065" d="M799.838,64.166,764.777,50.342a5.855,5.855,0,0,0-7.589,3.285l-27.475,69.162a5.855,5.855,0,0,0,2.667,7.317L764.6,147.448a5.855,5.855,0,0,0,8.179-2.9l30.319-72.679a5.855,5.855,0,0,0-3.256-7.7" transform="translate(-655.748 -44.896)" fill="#00abfe"/>
        <path id="Trazado_875066" data-name="Trazado 875066" d="M946.4,470.657c-.372-2.137-.176-4.548-.592-6.563-.985-4.774-3.9-4.728-7.292-3.112-.534.255-1.087.518-1.65.733a9.446,9.446,0,0,1-7.417-.2,7.929,7.929,0,0,1-4.429-5.991.756.756,0,0,1,1.5-.182,6.383,6.383,0,0,0,3.582,4.81c2.631,1.263,5.131.718,7.762-.535,5.364-2.557,8.453-.537,9.425,4.172.477,2.313.221,4.431.6,6.608.773,4.434,4.235,5.85,7.184,3.129a14.769,14.769,0,0,0,2.735-4,.756.756,0,1,1,1.334.714,16.146,16.146,0,0,1-3.043,4.4c-3.726,3.438-8.692,1.8-9.7-3.981" transform="translate(-831.727 -408.822)" fill="#fff"/>
        <path id="Trazado_875067" data-name="Trazado 875067" d="M1089.7,479.015a7.781,7.781,0,0,1,2.243,2.23,2.653,2.653,0,0,1-2.278,2.392,2.431,2.431,0,0,1-2.577-1.977c-.166-1.185.815-2.422,2.612-2.646" transform="translate(-977.44 -430.706)" fill="#ff605b"/>
        <path id="Trazado_875068" data-name="Trazado 875068" d="M882.826,622.264l-2.654,5.526-32.8-14.3,2.4-5.425Z" transform="translate(-761.914 -546.739)" fill="#ff605b"/>
        <path id="Trazado_875069" data-name="Trazado 875069" d="M830.777,733.153l-2.654,5.526-32.8-14.3,2.4-5.425Z" transform="translate(-715.114 -646.445)" fill="#a369f7"/>
        <path id="Trazado_875070" data-name="Trazado 875070" d="M1081.952,199.55a9.671,9.671,0,1,0,13.046-4.1,9.626,9.626,0,0,0-13.046,4.1" transform="translate(-971.85 -174.749)" fill="#ffb020"/>
        <path id="Trazado_875071" data-name="Trazado 875071" d="M1082.5,300.909a9.671,9.671,0,0,0,15.285,5.984,12.21,12.21,0,0,0-15.285-5.984" transform="translate(-973.329 -269.863)" fill="#a369f7"/>
        <path id="Trazado_875072" data-name="Trazado 875072" d="M1173.566,230.467a6.18,6.18,0,0,1-1.583,3.793,1.943,1.943,0,0,1-3.417-1.41,6.139,6.139,0,0,1,1.789-4c1.258-.962,3.057.211,3.21,1.617" transform="translate(-1050.715 -205.455)" fill="#a369f7"/>
        <path id="Trazado_875073" data-name="Trazado 875073" d="M727.563,983.648l-.273,12.073-6.585.066,0-1.923.017-9.692Z" transform="translate(-648.022 -884.447)" fill="#b2aca3"/>
        <path id="Trazado_875074" data-name="Trazado 875074" d="M462.778,405.891a31.271,31.271,0,1,1,17.476,40.624,31.271,31.271,0,0,1-17.476-40.624" transform="translate(-414.102 -347.239)" fill="#ffb020"/>
        <path id="Trazado_875075" data-name="Trazado 875075" d="M562.3,473.386A26.086,26.086,0,1,1,547.719,439.5,25.951,25.951,0,0,1,562.3,473.386" transform="translate(-460.339 -393.502)" fill="#fff"/>
        <path id="Trazado_875076" data-name="Trazado 875076" d="M640.626,601.707l4.881,11.232a3.694,3.694,0,0,0,6.1,1.037l16.111-17.4a2.878,2.878,0,0,0-4.153-3.986L649.386,606.84l-3.468-7.505a2.9,2.9,0,0,0-5.292,2.372" transform="translate(-575.803 -532.063)" fill="#7ad001"/>
        <path id="Trazado_875077" data-name="Trazado 875077" d="M691.493,1084.152l6.852.049a3.159,3.159,0,0,1,3.136,3.122l-.147,27.648a6.3,6.3,0,0,1-12.59.217l-.431-27.805a3.159,3.159,0,0,1,3.181-3.23" transform="translate(-618.896 -974.815)" fill="#a369f7"/>
      </g>
    </g>
    <path id="Trazado_875109" data-name="Trazado 875109" d="M184.367,434.8l-1.243-1.589,4.835-3.808-4.835-3.808,1.243-1.588,6.853,5.4Zm-15.3-1.589,4.835-3.808-4.835-3.808,1.242-1.588,6.853,5.4-6.853,5.4Zm-14.061,0,4.835-3.808L155,425.6l1.242-1.588,6.853,5.4-6.853,5.4Z" transform="translate(169.366 342.989)" fill="#3a1d71" fill-rule="evenodd"/>
  </g>
</svg>
