<svg xmlns="http://www.w3.org/2000/svg" width="84" height="84" viewBox="0 0 84 84">
  <g id="Grupo_1099859" data-name="Grupo 1099859" transform="translate(-220 -1919)">
    <circle id="Elipse_11549" data-name="Elipse 11549" cx="40" cy="40" r="40" transform="translate(222 1921)" fill="#fff" stroke="#8722e2" stroke-width="4"/>
    <g id="Grupo_1099881" data-name="Grupo 1099881" transform="translate(238.745 1936.997)">
      <g id="Grupo_1099860" data-name="Grupo 1099860" transform="translate(6.311 19.272)">
        <g id="Grupo_1099859-2" data-name="Grupo 1099859">
          <path id="Trazado_874670" data-name="Trazado 874670" d="M74.485,214.295h-4.14a2.769,2.769,0,0,0-2.766,2.766v1.969a2.769,2.769,0,0,0,2.766,2.766h4.14a2.769,2.769,0,0,0,2.766-2.766v-1.969A2.769,2.769,0,0,0,74.485,214.295Zm1.4,4.735a1.4,1.4,0,0,1-1.4,1.4h-4.14a1.4,1.4,0,0,1-1.4-1.4v-1.969a1.4,1.4,0,0,1,1.4-1.4h4.14a1.4,1.4,0,0,1,1.4,1.4Z" transform="translate(-67.579 -214.295)" fill="#0b47db" stroke="#0b47db" stroke-width="0.5"/>
        </g>
      </g>
      <g id="Grupo_1099862" data-name="Grupo 1099862" transform="translate(30.529 19.272)">
        <g id="Grupo_1099861" data-name="Grupo 1099861">
          <path id="Trazado_874671" data-name="Trazado 874671" d="M343.781,214.295h-4.14a2.769,2.769,0,0,0-2.766,2.766v1.969a2.769,2.769,0,0,0,2.766,2.766h4.14a2.769,2.769,0,0,0,2.766-2.766v-1.969A2.769,2.769,0,0,0,343.781,214.295Zm1.4,4.735a1.4,1.4,0,0,1-1.4,1.4h-4.14a1.4,1.4,0,0,1-1.4-1.4v-1.969a1.4,1.4,0,0,1,1.4-1.4h4.14a1.4,1.4,0,0,1,1.4,1.4Z" transform="translate(-336.875 -214.295)" fill="#0b47db" stroke="#0b47db" stroke-width="0.5"/>
        </g>
      </g>
      <g id="Grupo_1099864" data-name="Grupo 1099864" transform="translate(18.42)">
        <g id="Grupo_1099863" data-name="Grupo 1099863">
          <path id="Trazado_874672" data-name="Trazado 874672" d="M209.134,0h-4.14a2.769,2.769,0,0,0-2.766,2.766V4.735A2.769,2.769,0,0,0,204.994,7.5h4.14A2.769,2.769,0,0,0,211.9,4.735V2.766A2.769,2.769,0,0,0,209.134,0Zm1.4,4.735a1.4,1.4,0,0,1-1.4,1.4h-4.14a1.4,1.4,0,0,1-1.4-1.4V2.766a1.4,1.4,0,0,1,1.4-1.4h4.14a1.4,1.4,0,0,1,1.4,1.4Z" transform="translate(-202.228)" fill="#0b47db" stroke="#0b47db" stroke-width="0.5"/>
        </g>
      </g>
      <g id="Grupo_1099866" data-name="Grupo 1099866" transform="translate(0.256 38.544)">
        <g id="Grupo_1099865" data-name="Grupo 1099865" transform="translate(0)">
          <path id="Trazado_874673" data-name="Trazado 874673" d="M7.162,428.591H3.022a2.769,2.769,0,0,0-2.766,2.766v1.969a2.743,2.743,0,0,0,.552,1.658.684.684,0,0,0,1.094-.82,1.385,1.385,0,0,1-.278-.837v-1.969a1.4,1.4,0,0,1,1.4-1.4h4.14a1.4,1.4,0,0,1,1.4,1.4v1.969a1.4,1.4,0,0,1-1.4,1.4H3.478a.684.684,0,0,0,0,1.368H7.162a2.769,2.769,0,0,0,2.766-2.766v-1.969A2.769,2.769,0,0,0,7.162,428.591Z" transform="translate(-0.256 -428.591)" fill="#0b47db" stroke="#0b47db" stroke-width="0.5"/>
        </g>
      </g>
      <g id="Grupo_1099868" data-name="Grupo 1099868" transform="translate(12.365 38.544)">
        <g id="Grupo_1099867" data-name="Grupo 1099867">
          <path id="Trazado_874674" data-name="Trazado 874674" d="M141.81,428.591h-4.14a2.769,2.769,0,0,0-2.766,2.766v1.969a2.769,2.769,0,0,0,2.766,2.766h4.14a2.769,2.769,0,0,0,2.766-2.766v-1.969A2.769,2.769,0,0,0,141.81,428.591Zm1.4,4.735a1.4,1.4,0,0,1-1.4,1.4h-4.14a1.4,1.4,0,0,1-1.4-1.4v-1.969a1.4,1.4,0,0,1,1.4-1.4h4.14a1.4,1.4,0,0,1,1.4,1.4Z" transform="translate(-134.904 -428.591)" fill="#0b47db" stroke="#0b47db" stroke-width="0.5"/>
        </g>
      </g>
      <g id="Grupo_1099870" data-name="Grupo 1099870" transform="translate(24.474 38.544)">
        <g id="Grupo_1099869" data-name="Grupo 1099869">
          <path id="Trazado_874675" data-name="Trazado 874675" d="M276.457,428.591h-4.14a2.769,2.769,0,0,0-2.766,2.766v1.969a2.769,2.769,0,0,0,2.766,2.766h4.14a2.769,2.769,0,0,0,2.766-2.766v-1.969A2.769,2.769,0,0,0,276.457,428.591Zm0,6.134h-4.14a1.4,1.4,0,0,1-1.4-1.4v-1.969a1.4,1.4,0,0,1,1.4-1.4h4.14a1.4,1.4,0,0,1,1.4,1.4v1.969h0A1.4,1.4,0,0,1,276.457,434.724Z" transform="translate(-269.551 -428.591)" fill="#0b47db" stroke="#0b47db" stroke-width="0.5"/>
        </g>
      </g>
      <g id="Grupo_1099872" data-name="Grupo 1099872" transform="translate(36.584 38.544)">
        <g id="Grupo_1099871" data-name="Grupo 1099871">
          <path id="Trazado_874676" data-name="Trazado 874676" d="M411.1,428.591h-4.14a2.769,2.769,0,0,0-2.766,2.766v1.969a2.769,2.769,0,0,0,2.766,2.766h4.14a2.769,2.769,0,0,0,2.766-2.766v-1.969A2.769,2.769,0,0,0,411.1,428.591Zm1.4,4.735a1.4,1.4,0,0,1-1.4,1.4h-4.14a1.4,1.4,0,0,1-1.4-1.4v-1.969a1.4,1.4,0,0,1,1.4-1.4h4.14a1.4,1.4,0,0,1,1.4,1.4Z" transform="translate(-404.199 -428.591)" fill="#0b47db" stroke="#0b47db" stroke-width="0.5"/>
        </g>
      </g>
      <g id="Grupo_1099874" data-name="Grupo 1099874" transform="translate(4.408 27.652)">
        <g id="Grupo_1099873" data-name="Grupo 1099873">
          <path id="Trazado_874677" data-name="Trazado 874677" d="M59.218,312.4H53.847v-4.24a.684.684,0,0,0-1.368,0v4.24H47.109a.684.684,0,0,0-.684.684v3.647a.684.684,0,0,0,1.368,0v-2.963H58.534v2.963h0a.684.684,0,0,0,1.368,0V313.08A.684.684,0,0,0,59.218,312.4Z" transform="translate(-46.425 -307.472)" fill="#0b47db" stroke="#0b47db" stroke-width="0.5"/>
        </g>
      </g>
      <g id="Grupo_1099876" data-name="Grupo 1099876" transform="translate(28.627 27.652)">
        <g id="Grupo_1099875" data-name="Grupo 1099875">
          <path id="Trazado_874678" data-name="Trazado 874678" d="M328.514,312.4h-5.371v-4.24a.684.684,0,1,0-1.368,0v4.24H316.4a.684.684,0,0,0-.684.684v3.647a.684.684,0,0,0,1.368,0v-2.963H327.83v2.963a.684.684,0,0,0,1.368,0V313.08A.684.684,0,0,0,328.514,312.4Z" transform="translate(-315.721 -307.472)" fill="#0b47db" stroke="#0b47db" stroke-width="0.5"/>
        </g>
      </g>
      <g id="Grupo_1099878" data-name="Grupo 1099878" transform="translate(31.272 13.461)">
        <g id="Grupo_1099877" data-name="Grupo 1099877">
          <path id="Trazado_874679" data-name="Trazado 874679" d="M349.232,149.681h-3.409a.684.684,0,0,0,0,1.368h2.725v2.963a.684.684,0,1,0,1.368,0v-3.647A.684.684,0,0,0,349.232,149.681Z" transform="translate(-345.139 -149.681)" fill="#0b47db" stroke="#0b47db" stroke-width="0.5"/>
        </g>
      </g>
      <g id="Grupo_1099880" data-name="Grupo 1099880" transform="translate(10.463 8.537)">
        <g id="Grupo_1099879" data-name="Grupo 1099879">
          <path id="Trazado_874680" data-name="Trazado 874680" d="M132.962,99.856h-5.737v-4.24a.684.684,0,0,0-1.368,0v4.24H114.432a.684.684,0,0,0-.684.684v3.647a.684.684,0,1,0,1.368,0v-2.963h17.846a.684.684,0,1,0,0-1.368Z" transform="translate(-113.748 -94.932)" fill="#0b47db" stroke="#0b47db" stroke-width="0.5"/>
        </g>
      </g>
    </g>
  </g>
</svg>
