<svg xmlns="http://www.w3.org/2000/svg" xmlns:xlink="http://www.w3.org/1999/xlink" width="190" height="111.092" viewBox="0 0 190 111.092">
  <defs>
    <clipPath id="clip-path">
      <rect width="75" height="39" fill="none"/>
    </clipPath>
  </defs>
  <g id="Grupo_1099464" data-name="Grupo 1099464" transform="translate(-1230 -801.756)">
    <rect id="Rectángulo_401078" data-name="Rectángulo 401078" width="168" height="91" rx="10" transform="translate(1252 821.848)" fill="#d6e1fd"/>
    <g id="Cuadrícula_de_repetición_14" data-name="Cuadrícula de repetición 14" transform="translate(1230 863.848)" clip-path="url(#clip-path)">
      <g transform="translate(-180 -1074)">
        <circle id="Elipse_9675" data-name="Elipse 9675" cx="3" cy="3" r="3" transform="translate(180 1074)" fill="#a854f3"/>
        <circle id="Elipse_9676" data-name="Elipse 9676" cx="3" cy="3" r="3" transform="translate(195 1074)" fill="#a854f3"/>
        <circle id="Elipse_9677" data-name="Elipse 9677" cx="3" cy="3" r="3" transform="translate(212 1074)" fill="#a854f3"/>
        <circle id="Elipse_9678" data-name="Elipse 9678" cx="3" cy="3" r="3" transform="translate(227 1074)" fill="#a854f3"/>
        <circle id="Elipse_9679" data-name="Elipse 9679" cx="3" cy="3" r="3" transform="translate(244 1074)" fill="#a854f3"/>
        <circle id="Elipse_9680" data-name="Elipse 9680" cx="3" cy="3" r="3" transform="translate(259 1074)" fill="#a854f3"/>
      </g>
      <g transform="translate(-180 -1058)">
        <circle id="Elipse_9675-2" data-name="Elipse 9675" cx="3" cy="3" r="3" transform="translate(180 1074)" fill="#a854f3"/>
        <circle id="Elipse_9676-2" data-name="Elipse 9676" cx="3" cy="3" r="3" transform="translate(195 1074)" fill="#a854f3"/>
        <circle id="Elipse_9677-2" data-name="Elipse 9677" cx="3" cy="3" r="3" transform="translate(212 1074)" fill="#a854f3"/>
        <circle id="Elipse_9678-2" data-name="Elipse 9678" cx="3" cy="3" r="3" transform="translate(227 1074)" fill="#a854f3"/>
        <circle id="Elipse_9679-2" data-name="Elipse 9679" cx="3" cy="3" r="3" transform="translate(244 1074)" fill="#a854f3"/>
        <circle id="Elipse_9680-2" data-name="Elipse 9680" cx="3" cy="3" r="3" transform="translate(259 1074)" fill="#a854f3"/>
      </g>
      <g transform="translate(-180 -1042)">
        <circle id="Elipse_9675-3" data-name="Elipse 9675" cx="3" cy="3" r="3" transform="translate(180 1074)" fill="#a854f3"/>
        <circle id="Elipse_9676-3" data-name="Elipse 9676" cx="3" cy="3" r="3" transform="translate(195 1074)" fill="#a854f3"/>
        <circle id="Elipse_9677-3" data-name="Elipse 9677" cx="3" cy="3" r="3" transform="translate(212 1074)" fill="#a854f3"/>
        <circle id="Elipse_9678-3" data-name="Elipse 9678" cx="3" cy="3" r="3" transform="translate(227 1074)" fill="#a854f3"/>
        <circle id="Elipse_9679-3" data-name="Elipse 9679" cx="3" cy="3" r="3" transform="translate(244 1074)" fill="#a854f3"/>
        <circle id="Elipse_9680-3" data-name="Elipse 9680" cx="3" cy="3" r="3" transform="translate(259 1074)" fill="#a854f3"/>
      </g>
    </g>
    <g id="Account_x2C__mobile_x2C__profile_x2C__setting_x2C__ui_development_x2C__UX_x2C__UI_1_" transform="translate(1319.786 800.756)">
      <g id="XMLID_1282_" transform="translate(2 1)">
        <g id="XMLID_1678_" transform="translate(32.697 5.945)">
          <g id="Grupo_1099466" data-name="Grupo 1099466">
            <g id="Grupo_1099465" data-name="Grupo 1099465">
              <path id="Trazado_874264" data-name="Trazado 874264" d="M23.4,5.972H14.486a1.486,1.486,0,0,1,0-2.972H23.4a1.486,1.486,0,1,1,0,2.972Z" transform="translate(-13 -3)" fill="#3a1d71"/>
            </g>
          </g>
        </g>
        <g id="XMLID_1677_" transform="translate(14.862 29.725)">
          <g id="Grupo_1099468" data-name="Grupo 1099468">
            <g id="Grupo_1099467" data-name="Grupo 1099467">
              <path id="Trazado_874265" data-name="Trazado 874265" d="M47.129,70.45h-32.7A7.44,7.44,0,0,1,7,63.019V42.211a1.486,1.486,0,1,1,2.972,0V63.019a4.464,4.464,0,0,0,4.459,4.459h32.7a4.464,4.464,0,0,0,4.459-4.459V12.486a1.486,1.486,0,1,1,2.972,0V63.019A7.44,7.44,0,0,1,47.129,70.45Z" transform="translate(-7 -11)" fill="#3a1d71"/>
            </g>
          </g>
        </g>
        <g id="XMLID_1676_" transform="translate(14.862)">
          <g id="Grupo_1099470" data-name="Grupo 1099470">
            <g id="Grupo_1099469" data-name="Grupo 1099469">
              <path id="Trazado_874266" data-name="Trazado 874266" d="M53.074,12.89A1.487,1.487,0,0,1,51.587,11.4V8.431a4.464,4.464,0,0,0-4.459-4.459h-32.7A4.464,4.464,0,0,0,9.972,8.431V11.4A1.486,1.486,0,1,1,7,11.4V8.431A7.44,7.44,0,0,1,14.431,1h32.7A7.44,7.44,0,0,1,54.56,8.431V11.4A1.487,1.487,0,0,1,53.074,12.89Z" transform="translate(-7 -1)" fill="#3a1d71"/>
            </g>
          </g>
        </g>
        <g id="XMLID_1669_" transform="translate(23.78 68.367)">
          <g id="Grupo_1099472" data-name="Grupo 1099472">
            <g id="Grupo_1099471" data-name="Grupo 1099471">
              <path id="Trazado_874267" data-name="Trazado 874267" d="M23.376,26.972H11.486a1.486,1.486,0,0,1,0-2.972h11.89a1.486,1.486,0,0,1,0,2.972Z" transform="translate(-10 -24)" fill="#3a1d71"/>
            </g>
          </g>
        </g>
        <g id="XMLID_1294_" transform="translate(23.78 74.312)">
          <g id="Grupo_1099474" data-name="Grupo 1099474">
            <g id="Grupo_1099473" data-name="Grupo 1099473">
              <path id="Trazado_874268" data-name="Trazado 874268" d="M32.294,28.972H11.486a1.486,1.486,0,1,1,0-2.972H32.294a1.486,1.486,0,0,1,0,2.972Z" transform="translate(-10 -26)" fill="#3a1d71"/>
            </g>
          </g>
        </g>
        <g id="XMLID_1663_" transform="translate(23.78 62.422)">
          <g id="Grupo_1099476" data-name="Grupo 1099476">
            <g id="Grupo_1099475" data-name="Grupo 1099475">
              <path id="Trazado_874269" data-name="Trazado 874269" d="M38.239,24.972H11.486a1.486,1.486,0,0,1,0-2.972H38.239a1.486,1.486,0,1,1,0,2.972Z" transform="translate(-10 -22)" fill="#3a1d71"/>
            </g>
          </g>
        </g>
        <g id="XMLID_1647_" transform="translate(13.376 23.78)">
          <g id="Grupo_1099478" data-name="Grupo 1099478">
            <g id="Grupo_1099477" data-name="Grupo 1099477">
              <path id="Trazado_874270" data-name="Trazado 874270" d="M13.931,23.862a7.431,7.431,0,1,1,7.431-7.431A7.44,7.44,0,0,1,13.931,23.862Zm0-11.89a4.459,4.459,0,1,0,4.459,4.459A4.464,4.464,0,0,0,13.931,11.972Z" transform="translate(-6.5 -9)" fill="#3a1d71"/>
            </g>
          </g>
        </g>
        <g id="XMLID_1646_" transform="translate(6.243 41.615)">
          <g id="Grupo_1099480" data-name="Grupo 1099480">
            <g id="Grupo_1099479" data-name="Grupo 1099479">
              <path id="Trazado_874271" data-name="Trazado 874271" d="M18.665,29.862A20.749,20.749,0,0,1,4.578,24.328a1.485,1.485,0,0,1-.434-1.448A10.337,10.337,0,0,1,14.206,15h8.917a10.343,10.343,0,0,1,10.065,7.877,1.487,1.487,0,0,1-.434,1.448,20.75,20.75,0,0,1-14.09,5.538ZM7.289,22.749a18.123,18.123,0,0,0,22.751,0,7.372,7.372,0,0,0-6.917-4.777H14.206A7.372,7.372,0,0,0,7.289,22.749Z" transform="translate(-4.1 -15)" fill="#3a1d71"/>
            </g>
          </g>
        </g>
        <g id="XMLID_1645_" transform="translate(0 14.862)">
          <g id="Grupo_1099482" data-name="Grupo 1099482">
            <g id="Grupo_1099481" data-name="Grupo 1099481">
              <path id="Trazado_874272" data-name="Trazado 874272" d="M22.807,47.615A20.807,20.807,0,1,1,43.615,26.807,20.832,20.832,0,0,1,22.807,47.615Zm0-38.642A17.835,17.835,0,1,0,40.642,26.807,17.853,17.853,0,0,0,22.807,8.972Z" transform="translate(-2 -6)" fill="#3a1d71"/>
            </g>
          </g>
        </g>
        <g id="XMLID_1575_" transform="translate(5.945 62.125)">
          <g id="XMLID_1641_">
            <g id="Grupo_1099484" data-name="Grupo 1099484">
              <g id="Grupo_1099483" data-name="Grupo 1099483">
                <path id="Trazado_874273" data-name="Trazado 874273" d="M5.486,25.021A1.367,1.367,0,0,1,4,23.683v-.3a1.486,1.486,0,0,1,2.972,0,1.621,1.621,0,0,1-1.486,1.635Z" transform="translate(-4 -21.9)" fill="#3a1d71"/>
              </g>
            </g>
          </g>
          <g id="XMLID_1597_" transform="translate(0 5.945)">
            <g id="Grupo_1099486" data-name="Grupo 1099486">
              <g id="Grupo_1099485" data-name="Grupo 1099485">
                <path id="Trazado_874274" data-name="Trazado 874274" d="M5.486,27.021A1.367,1.367,0,0,1,4,25.683v-.3a1.486,1.486,0,1,1,2.972,0A1.621,1.621,0,0,1,5.486,27.021Z" transform="translate(-4 -23.9)" fill="#3a1d71"/>
              </g>
            </g>
          </g>
          <g id="XMLID_1578_" transform="translate(0 11.89)">
            <g id="Grupo_1099488" data-name="Grupo 1099488">
              <g id="Grupo_1099487" data-name="Grupo 1099487">
                <path id="Trazado_874275" data-name="Trazado 874275" d="M5.486,29.021A1.367,1.367,0,0,1,4,27.684v-.3a1.486,1.486,0,1,1,2.972,0,1.621,1.621,0,0,1-1.486,1.635Z" transform="translate(-4 -25.9)" fill="#3a1d71"/>
              </g>
            </g>
          </g>
        </g>
        <g id="XMLID_1295_" transform="translate(62.422 35.67)">
          <g id="Grupo_1099490" data-name="Grupo 1099490">
            <g id="Grupo_1099489" data-name="Grupo 1099489">
              <path id="Trazado_874276" data-name="Trazado 874276" d="M26.983,54.615h-2.5a1.486,1.486,0,1,1,0-2.972h1.3l.728-3.374a1.481,1.481,0,0,1,1.1-1.13,14.242,14.242,0,0,0,4.063-1.7,1.485,1.485,0,0,1,1.572.015l2.943,1.882L38.017,45.5l-1.882-2.919A1.49,1.49,0,0,1,36.115,41a14.149,14.149,0,0,0,1.694-4.063,1.491,1.491,0,0,1,1.124-1.106l3.386-.752V32.535l-3.386-.752a1.491,1.491,0,0,1-1.124-1.106,14.233,14.233,0,0,0-1.694-4.063,1.478,1.478,0,0,1,.018-1.575l1.885-2.946L36.2,20.274l-2.946,1.885a1.479,1.479,0,0,1-1.572.015,14.312,14.312,0,0,0-4.063-1.7,1.481,1.481,0,0,1-1.1-1.13l-.728-3.374h-1.3a1.486,1.486,0,1,1,0-2.972h2.5a1.485,1.485,0,0,1,1.451,1.174l.794,3.665a17.2,17.2,0,0,1,3.184,1.332L35.6,17.129a1.488,1.488,0,0,1,1.852.2l3.511,3.508a1.484,1.484,0,0,1,.2,1.852l-2.042,3.192a17.253,17.253,0,0,1,1.332,3.189l3.671.814a1.488,1.488,0,0,1,1.165,1.451v4.934a1.485,1.485,0,0,1-1.165,1.451l-3.671.814a17.142,17.142,0,0,1-1.332,3.187l2.039,3.163a1.48,1.48,0,0,1-.193,1.852l-3.511,3.537a1.485,1.485,0,0,1-1.855.205l-3.192-2.042a17.285,17.285,0,0,1-3.184,1.332l-.794,3.665a1.484,1.484,0,0,1-1.451,1.18Z" transform="translate(-23 -13)" fill="#3a1d71"/>
            </g>
          </g>
        </g>
        <g id="XMLID_1874_" transform="translate(59.533 47.56)">
          <g id="Grupo_1099492" data-name="Grupo 1099492">
            <g id="Grupo_1099491" data-name="Grupo 1099491">
              <path id="Trazado_874277" data-name="Trazado 874277" d="M29.533,34.145a1.486,1.486,0,0,1-.627-2.833,5.947,5.947,0,0,0-2.5-11.34,5.874,5.874,0,0,0-2.31.467A1.485,1.485,0,0,1,22.934,17.7,8.8,8.8,0,0,1,26.4,17,8.918,8.918,0,0,1,30.16,34.006a1.479,1.479,0,0,1-.627.14Z" transform="translate(-22.028 -17)" fill="#3a1d71"/>
            </g>
          </g>
        </g>
        <g id="XMLID_1894_" transform="translate(47.56 14.862)">
          <g id="Grupo_1099494" data-name="Grupo 1099494">
            <g id="Grupo_1099493" data-name="Grupo 1099493">
              <path id="Trazado_874278" data-name="Trazado 874278" d="M41.78,17.89H23.945a5.945,5.945,0,1,1,0-11.89H41.78a5.945,5.945,0,1,1,0,11.89ZM23.945,8.972a2.972,2.972,0,0,0,0,5.945H41.78a2.972,2.972,0,0,0,0-5.945Z" transform="translate(-18 -6)" fill="#3a1d71"/>
            </g>
          </g>
        </g>
      </g>
    </g>
  </g>
</svg>
