<svg xmlns="http://www.w3.org/2000/svg" xmlns:xlink="http://www.w3.org/1999/xlink" width="122" height="123.001" viewBox="0 0 122 123.001">
  <defs>
    <filter id="Elipse_9685" x="0" y="1.001" width="122" height="122" filterUnits="userSpaceOnUse">
      <feOffset dy="3" input="SourceAlpha"/>
      <feGaussianBlur stdDeviation="3" result="blur"/>
      <feFlood flood-opacity="0.161"/>
      <feComposite operator="in" in2="blur"/>
      <feComposite in="SourceGraphic"/>
    </filter>
  </defs>
  <g id="Grupo_1099500" data-name="Grupo 1099500" transform="translate(-739 -9747.527)">
    <circle id="Elipse_11310" data-name="Elipse 11310" cx="59" cy="59" r="59" transform="translate(741 9747.527)" fill="#fff"/>
    <g id="Grupo_1098210" data-name="Grupo 1098210" transform="translate(0 208.528)">
      <g transform="matrix(1, 0, 0, 1, 739, 9539)" filter="url(#Elipse_9685)">
        <g id="Elipse_9685-2" data-name="Elipse 9685" transform="translate(9 7)" fill="#f2e5fd" stroke="#a854f3" stroke-width="5">
          <circle cx="52" cy="52" r="52" stroke="none"/>
          <circle cx="52" cy="52" r="49.5" fill="none"/>
        </g>
      </g>
      <g id="Grupo_1099504" data-name="Grupo 1099504" transform="translate(665.546 9557.042)">
        <path id="Trazado_874281" data-name="Trazado 874281" d="M147.624,25.154h-1.317V14.618a3.955,3.955,0,0,0-3.951-3.951h-15.8a3.955,3.955,0,0,0-3.951,3.951V25.154h-1.317a3.955,3.955,0,0,0-3.951,3.951V53.6a6.618,6.618,0,0,0,1.443,4.114l2.532,3.165a6.556,6.556,0,0,0,5.142,2.471h.1v5.268a2.637,2.637,0,0,0,2.634,2.634h10.536a2.637,2.637,0,0,0,2.634-2.634V63.347h.1a6.56,6.56,0,0,0,5.143-2.471l2.531-3.165a6.618,6.618,0,0,0,1.443-4.114V29.105A3.955,3.955,0,0,0,147.624,25.154ZM125.235,14.618a1.318,1.318,0,0,1,1.317-1.317h15.8a1.318,1.318,0,0,1,1.317,1.317V25.154H125.235Zm14.487,54H129.186V63.347h10.536ZM148.941,53.6a3.959,3.959,0,0,1-.867,2.468l-2.53,3.165a3.936,3.936,0,0,1-3.087,1.483H126.45a3.931,3.931,0,0,1-3.085-1.483l-2.531-3.165a3.959,3.959,0,0,1-.867-2.468V29.105a1.318,1.318,0,0,1,1.317-1.317h26.34a1.318,1.318,0,0,1,1.317,1.317Z" transform="translate(0)" fill="#3a1d71"/>
        <path id="Trazado_874282" data-name="Trazado 874282" d="M206.617,53.333h-2.634a1.317,1.317,0,1,0,0,2.634h2.634a1.317,1.317,0,0,0,0-2.634Z" transform="translate(-74.797 -37.398)" fill="#3a1d71"/>
        <path id="Trazado_874283" data-name="Trazado 874283" d="M270.617,53.333h-2.634a1.317,1.317,0,0,0,0,2.634h2.634a1.317,1.317,0,0,0,0-2.634Z" transform="translate(-130.895 -37.398)" fill="#3a1d71"/>
        <path id="Trazado_874284" data-name="Trazado 874284" d="M214.52,185.284A1.317,1.317,0,0,0,213.2,186.6v4.609l-2.634,1.976V182.65a1.317,1.317,0,1,0-2.634,0v13.17l-2.634-1.976v-4.61a1.317,1.317,0,1,0-2.634,0V194.5a1.316,1.316,0,0,0,.527,1.053l4.741,3.556v5.927a1.317,1.317,0,0,0,2.634,0v-8.561l4.741-3.556a1.316,1.316,0,0,0,.527-1.053V186.6a1.317,1.317,0,0,0-1.318-1.317Z" transform="translate(-74.797 -149.594)" fill="#3a1d71"/>
      </g>
    </g>
  </g>
</svg>
