<svg xmlns="http://www.w3.org/2000/svg" width="70" height="70" viewBox="0 0 70 70">
  <g id="Grupo_1100264" data-name="Grupo 1100264" transform="translate(-1035 -1219)">
    <circle id="Elipse_11440" data-name="Elipse 11440" cx="35" cy="35" r="35" transform="translate(1035 1219)" fill="#00ffdf"/>
    <g id="Grupo_1098912" data-name="Grupo 1098912" transform="translate(1048.853 1232.853)">
      <path id="Trazado_873214" data-name="Trazado 873214" d="M23,5h6.5V6.3H23Z" transform="translate(-7.702 -1.4)" fill="#a854f3"/>
      <path id="Trazado_873215" data-name="Trazado 873215" d="M23,9h6.5v1.3H23Z" transform="translate(-7.702 -2.801)" fill="#a854f3"/>
      <path id="Trazado_873216" data-name="Trazado 873216" d="M27,13h1.3v1.3H27Z" transform="translate(-9.102 -4.201)" fill="#a854f3"/>
      <path id="Trazado_873217" data-name="Trazado 873217" d="M23,13h1.3v1.3H23Z" transform="translate(-7.702 -4.201)" fill="#a854f3"/>
      <path id="Trazado_873218" data-name="Trazado 873218" d="M31,13h1.3v1.3H31Z" transform="translate(-10.502 -4.201)" fill="#a854f3"/>
      <path id="Trazado_873219" data-name="Trazado 873219" d="M25.126,23.938l2.14-2.14H37.14a3.112,3.112,0,0,0,3.095-2.769l1.041-9.371a3.222,3.222,0,0,0,.019-.345A3.116,3.116,0,0,0,38.182,6.2h-14l.194-1.742a3.2,3.2,0,0,0,.019-.344A3.116,3.116,0,0,0,21.284,1H4.113A3.116,3.116,0,0,0,1,4.113a3.189,3.189,0,0,0,.019.344L2.06,13.829A3.111,3.111,0,0,0,5.155,16.6H11.4v5.2H8.8V19.2H1v6.5H8.8V23.1h2.6v6.5H8.8V27H1v6.5H8.8V30.9h2.6v6.5H8.8V34.8H1v6.5H8.8V38.7h3.9V30.9h7.149v1.95H23.1v2.6h-3.25v5.2h7.8V38.7h5.2v1.95h7.8v-5.2H37.4v-2.6h3.25v-5.2h-7.8V29.6h-5.2v-1.95H24.4v-3.3a1.573,1.573,0,0,0,.729-.406ZM7.5,24.4H2.3V20.5H7.5Zm0,7.8H2.3V28.3H7.5Zm0,7.8H2.3V36.1H7.5ZM30.9,12.049A1.95,1.95,0,1,1,32.846,14,1.952,1.952,0,0,1,30.9,12.049ZM36.745,20.5h-7.8V19.2a3.9,3.9,0,0,1,7.8,0ZM24.04,7.5H38.182A1.815,1.815,0,0,1,40,9.312a1.732,1.732,0,0,1-.012.2l-1.041,9.371a1.8,1.8,0,0,1-.9,1.367V19.2a5.2,5.2,0,0,0-3.051-4.729,3.249,3.249,0,1,0-4.3,0A5.2,5.2,0,0,0,27.647,19.2v1.3h-.919l-2.521,2.521a.279.279,0,0,1-.459-.19V20.5H22.053a1.811,1.811,0,0,1-1.8-1.613L20,16.6h.246a3.112,3.112,0,0,0,3.095-2.769ZM3.352,13.685,2.312,4.313a1.712,1.712,0,0,1-.012-.2A1.815,1.815,0,0,1,4.113,2.3H21.284A1.815,1.815,0,0,1,23.1,4.113a1.731,1.731,0,0,1-.012.2l-1.041,9.371a1.811,1.811,0,0,1-1.8,1.614H17.248v2.331a.28.28,0,0,1-.459.19l-2.14-2.14V14A5.2,5.2,0,0,0,11.6,9.269a3.25,3.25,0,1,0-4.3,0A5.2,5.2,0,0,0,4.25,14v1.054a1.806,1.806,0,0,1-.9-1.367ZM7.5,6.849A1.95,1.95,0,1,1,9.449,8.8,1.952,1.952,0,0,1,7.5,6.849ZM13.348,15.3h-7.8V14a3.9,3.9,0,1,1,7.8,0Zm13,24.047h-5.2v-2.6h5.2Zm13,0h-5.2v-2.6h5.2Zm-5.2-10.4h5.2v2.6h-5.2Zm-1.3,1.95v1.95H36.1v2.6h-3.25V37.4h-5.2v-1.95H24.4v-2.6h3.25V30.9Zm-6.5.65h-5.2v-2.6h5.2Zm-6.5-3.9V29.6H12.7v-13h1.031l2.14,2.14a1.569,1.569,0,0,0,2.679-1.109V16.6h.14l.27,2.43A3.111,3.111,0,0,0,22.053,21.8h.394v1.031a1.563,1.563,0,0,0,.65,1.265v3.553Z" fill="#a854f3"/>
      <path id="Trazado_873220" data-name="Trazado 873220" d="M5,57H7.6v1.3H5Z" transform="translate(-1.4 -19.605)" fill="#a854f3"/>
      <path id="Trazado_873221" data-name="Trazado 873221" d="M5,45H7.6v1.3H5Z" transform="translate(-1.4 -15.404)" fill="#a854f3"/>
      <path id="Trazado_873222" data-name="Trazado 873222" d="M5,33H7.6v1.3H5Z" transform="translate(-1.4 -11.203)" fill="#a854f3"/>
    </g>
  </g>
</svg>
