<svg xmlns="http://www.w3.org/2000/svg" width="100" height="100" viewBox="0 0 100 100">
  <g id="Grupo_1099903" data-name="Grupo 1099903" transform="translate(-310 -2333)">
    <rect id="Rectángulo_401477" data-name="Rectángulo 401477" width="100" height="100" rx="10" transform="translate(310 2333)" fill="#fff" opacity="0.5"/>
    <g id="Page-1" transform="translate(330 2353)">
      <g id="_012---Edit-Text" data-name="012---Edit-Text">
        <path id="Shape" d="M11.92,16h6.16a1.5,1.5,0,0,0,1.385-2.077l-3.081-7.4a1.5,1.5,0,0,0-2.769,0l-3.08,7.4A1.5,1.5,0,0,0,11.92,16ZM15,8.4,17.331,14H12.669Z" fill="#3a1d71"/>
        <path id="Shape-2" data-name="Shape" d="M2,29H8a2,2,0,0,0,2-2V26a3.013,3.013,0,0,0-1.3-2.47L10.167,20h9.666l1.755,4.217A2.983,2.983,0,0,0,21,26v1a2,2,0,0,0,2,2h6a2,2,0,0,0,2-2V26a3,3,0,0,0-2.749-2.99L19.18,1.231A2,2,0,0,0,17.333,0H13.667A2,2,0,0,0,11.82,1.231L2.749,23.01A3.005,3.005,0,0,0,0,26v1A2,2,0,0,0,2,29Zm0-3a1,1,0,0,1,1-1h.42a1,1,0,0,0,.923-.616L13.667,2h3.666l9.324,22.384A1,1,0,0,0,27.58,25H28a1,1,0,0,1,1,1v1H23V26a1.031,1.031,0,0,1,.386-.791,1,1,0,0,0,.3-1.163l-2-4.815A2,2,0,0,0,19.833,18H10.167a1.994,1.994,0,0,0-1.846,1.23L6.477,23.655A1,1,0,0,0,7.2,25.019,1.01,1.01,0,0,1,8,26v1H2Z" fill="#3a1d71"/>
        <path id="Shape-3" data-name="Shape" d="M42.112,51.28l6.18-1.236a2.492,2.492,0,0,0,1.278-.684l2.976-2.976a2.5,2.5,0,0,0,.586-.926L59.83,26.7a2.233,2.233,0,0,0-.526-2.322,2.156,2.156,0,0,0-1.119-.583,2.224,2.224,0,0,0-2.929-1.669L54,22.578V11.57C54,7.243,54,0,44.75,0a17.593,17.593,0,0,0-8.343,2.044,2,2,0,0,0-.951,2.182l.611,2.635A1.985,1.985,0,0,0,37.147,8.2a2.019,2.019,0,0,0,1.747-.008A12.227,12.227,0,0,1,44.135,7a6.83,6.83,0,0,1,2.3.259c.433.172.7.43.682,1.2,0,.262-.013.971-.033,1.54-3.955.024-7.7.417-10.562,3.181a9.968,9.968,0,0,0-2.753,9.9,8.12,8.12,0,0,0,4.587,5.078l-1.857.664a2.509,2.509,0,0,0-.927.586L32.6,32.39a2.486,2.486,0,0,0-.684,1.277L30.68,39.848a.5.5,0,0,1-.137.255l-1.456,1.456a2.488,2.488,0,0,0-2.112.7L22.732,46.5a2.5,2.5,0,0,0,0,3.535l9.193,9.193a2.5,2.5,0,0,0,3.535,0l4.24-4.243a2.49,2.49,0,0,0,.7-2.113l1.455-1.455A.5.5,0,0,1,42.112,51.28ZM35.688,22.511a7.952,7.952,0,0,1,2.227-7.892C40.461,12.162,44,11.975,48,12c1.12,0,1.12-.892,1.12-3.52A2.985,2.985,0,0,0,47.178,5.4,8.113,8.113,0,0,0,44.143,5a14.2,14.2,0,0,0-6.129,1.4l-.636-2.612A15.546,15.546,0,0,1,44.75,2C51.48,2,52,5.966,52,11.57V23.292L41.7,26.971A6.448,6.448,0,0,1,35.688,22.511Zm-1.642,35.3a.5.5,0,0,1-.707,0l-9.193-9.192a.5.5,0,0,1,0-.707l1.768-1.768,9.9,9.9Zm4.243-4.242-1.061,1.06-9.9-9.9,1.061-1.061a.5.5,0,0,1,.707,0l9.193,9.192a.5.5,0,0,1,0,.711ZM40.442,50l-1.093,1.1-8.485-8.49,1.092-1.092a2.49,2.49,0,0,0,.685-1.278l1.235-6.18a.5.5,0,0,1,.138-.256l2.975-2.976a.5.5,0,0,1,.186-.117l5.012-1.79.03-.011,11.162-3.987h.015l2.535-.9a.225.225,0,0,1,.236.368l-9.138,9.137a4,4,0,1,0,1.414,1.415L57.579,25.8a.192.192,0,0,1,.316,0,.221.221,0,0,1,.052.23l-6.7,18.755a.507.507,0,0,1-.117.185l-2.976,2.976a.5.5,0,0,1-.256.137l-6.18,1.236A2.489,2.489,0,0,0,40.442,50ZM46.42,38.368a2.048,2.048,0,0,1-2.828,0,2,2,0,1,1,2.828,0Z" fill="#3a1d71"/>
        <path id="Shape-4" data-name="Shape" d="M48.021,15c-3.157-.062-6.637.12-8.546,1.99a4.539,4.539,0,0,0-1.337,3.379A4.364,4.364,0,0,0,42.726,25a6.216,6.216,0,0,0,6.006-4.186A4.984,4.984,0,0,0,49,19.288V16A1,1,0,0,0,48.021,15ZM47,19.288a2.974,2.974,0,0,1-.163.887A4.18,4.18,0,0,1,42.726,23a2.389,2.389,0,0,1-2.588-2.631,2.58,2.58,0,0,1,.737-1.95C42.094,17.224,44.762,17,47,16.99Z" fill="#3a1d71"/>
        <path id="Shape-5" data-name="Shape" d="M3,30a1,1,0,0,0-1,1v8a1,1,0,0,0,2,0V36H27v3a1,1,0,0,0,2,0V31a1,1,0,0,0-2,0v3H4V31A1,1,0,0,0,3,30Z" fill="#3a1d71"/>
      </g>
    </g>
  </g>
</svg>
