<svg xmlns="http://www.w3.org/2000/svg" width="60" height="60" viewBox="0 0 60 60">
  <g id="Grupo_1099459" data-name="Grupo 1099459" transform="translate(-300 -1091)">
    <rect id="Rectángulo_401239" data-name="Rectángulo 401239" width="60" height="60" rx="10" transform="translate(300 1091)" fill="#fff" opacity="0.3"/>
    <g id="_001---Task-List" data-name="001---Task-List" transform="translate(312.629 1099.286)">
      <path id="Shape" d="M2.9,43.428H31.847a2.9,2.9,0,0,0,2.9-2.9V6.39a2.16,2.16,0,0,0-.185-.869c-.006-.015-.015-.028-.022-.043a2.171,2.171,0,0,0-.429-.624L29.888.636A2.171,2.171,0,0,0,29.26.2c-.013-.006-.024-.014-.038-.02A2.155,2.155,0,0,0,28.353,0H2.9A2.9,2.9,0,0,0,0,2.9V40.533a2.9,2.9,0,0,0,2.9,2.9ZM32.271,5.067H31.123a1.448,1.448,0,0,1-1.448-1.448V2.471ZM1.448,2.9A1.448,1.448,0,0,1,2.9,1.448H28.228V3.619a2.9,2.9,0,0,0,2.9,2.9h2.171V40.533a1.448,1.448,0,0,1-1.448,1.448H2.9a1.448,1.448,0,0,1-1.448-1.448Z" transform="translate(0)" fill="#3a1d71"/>
      <path id="Shape-2" data-name="Shape" d="M8.171,19.413h4.343a2.171,2.171,0,0,0,2.171-2.171V13.2l1.959-1.959a.724.724,0,0,0-1.023-1.023L14.24,11.6a2.161,2.161,0,0,0-1.726-.869H8.171A2.171,2.171,0,0,0,6,12.9v4.343a2.171,2.171,0,0,0,2.171,2.171ZM7.448,12.9a.724.724,0,0,1,.724-.724h4.343a.719.719,0,0,1,.673.475L11.067,14.77l-.936-.936a.724.724,0,0,0-1.023,1.023l1.448,1.448a.724.724,0,0,0,1.023,0l1.66-1.66v2.6a.724.724,0,0,1-.724.724H8.171a.724.724,0,0,1-.724-.724Z" transform="translate(-1.657 -2.765)" fill="#3a1d71"/>
      <path id="Shape-3" data-name="Shape" d="M8.171,33.686h4.343a2.171,2.171,0,0,0,2.171-2.171V27.171A2.171,2.171,0,0,0,12.514,25H8.171A2.171,2.171,0,0,0,6,27.171v4.343A2.171,2.171,0,0,0,8.171,33.686Zm-.724-6.514a.724.724,0,0,1,.724-.724h4.343a.724.724,0,0,1,.724.724v4.343a.724.724,0,0,1-.724.724H8.171a.724.724,0,0,1-.724-.724Z" transform="translate(-1.657 -6.905)" fill="#3a1d71"/>
      <path id="Shape-4" data-name="Shape" d="M8.171,47.686h4.343a2.171,2.171,0,0,0,2.171-2.171V41.171A2.171,2.171,0,0,0,12.514,39H8.171A2.171,2.171,0,0,0,6,41.171v4.343A2.171,2.171,0,0,0,8.171,47.686Zm-.724-6.514a.724.724,0,0,1,.724-.724h4.343a.724.724,0,0,1,.724.724v4.343a.724.724,0,0,1-.724.724H8.171a.724.724,0,0,1-.724-.724Z" transform="translate(-1.657 -10.772)" fill="#3a1d71"/>
      <path id="Path" d="M23.724,14.448h12.3a.724.724,0,1,0,0-1.448h-12.3a.724.724,0,1,0,0,1.448Z" transform="translate(-6.353 -3.591)" fill="#3a1d71"/>
      <path id="Path-2" data-name="Path" d="M23.724,19.448h7.238a.724.724,0,1,0,0-1.448H23.724a.724.724,0,1,0,0,1.448Z" transform="translate(-6.353 -4.972)" fill="#3a1d71"/>
      <path id="Path-3" data-name="Path" d="M23.724,28.448h12.3a.724.724,0,1,0,0-1.448h-12.3a.724.724,0,1,0,0,1.448Z" transform="translate(-6.353 -7.458)" fill="#3a1d71"/>
      <path id="Path-4" data-name="Path" d="M23.724,33.448h7.238a.724.724,0,1,0,0-1.448H23.724a.724.724,0,1,0,0,1.448Z" transform="translate(-6.353 -8.839)" fill="#3a1d71"/>
      <path id="Path-5" data-name="Path" d="M23.724,42.448h12.3a.724.724,0,1,0,0-1.448h-12.3a.724.724,0,1,0,0,1.448Z" transform="translate(-6.353 -11.324)" fill="#3a1d71"/>
      <path id="Path-6" data-name="Path" d="M23.724,47.448h7.238a.724.724,0,1,0,0-1.448H23.724a.724.724,0,1,0,0,1.448Z" transform="translate(-6.353 -12.705)" fill="#3a1d71"/>
    </g>
  </g>
</svg>
