<svg xmlns="http://www.w3.org/2000/svg" width="1328.965" height="667.846" viewBox="0 0 1328.965 667.846">
  <path id="Trazado_868826" data-name="Trazado 868826" d="M1328.965-378.794s-55.921-27.415-127.914-38.331c-73.237-10.916-146.123-20.617-213.535-17.983-68.656,1.484-175.528,11.692-244.633,25.662S489.957-362.312,433.29-353.2c-56.666,7.963-110.428,15.566-218.75,11.263S18.519-357.894,0-370.411V-975.153s81.51-20.8,135.446-28.157c52.693-7.352,202.631-9.647,331.015,11.519,105.645,17.587,257.933,52.048,351.962,65.009,13.649,1.881,250.9,10.529,314.9,2.184,62.756-8.346,174.006-31.307,194.676-40.411C1328-951.724,1328.965-378.794,1328.965-378.794Z" transform="translate(0 1008.535)" fill="#f2f6ff" fill-rule="evenodd"/>
</svg>
