<svg xmlns="http://www.w3.org/2000/svg" xmlns:xlink="http://www.w3.org/1999/xlink" width="118" height="118" viewBox="0 0 118 118">
  <defs>
    <filter id="Elipse_9685" x="0" y="0" width="118" height="118" filterUnits="userSpaceOnUse">
      <feOffset dy="3" input="SourceAlpha"/>
      <feGaussianBlur stdDeviation="3" result="blur"/>
      <feFlood flood-opacity="0.161"/>
      <feComposite operator="in" in2="blur"/>
      <feComposite in="SourceGraphic"/>
    </filter>
  </defs>
  <g id="Grupo_1100228" data-name="Grupo 1100228" transform="translate(130 9475)">
    <g id="Grupo_1098210" data-name="Grupo 1098210" transform="translate(-121 -9469)">
      <g transform="matrix(1, 0, 0, 1, -9, -6)" filter="url(#Elipse_9685)">
        <g id="Elipse_9685-2" data-name="Elipse 9685" transform="translate(9 6)" fill="#f2e5fd" stroke="#a854f3" stroke-width="5">
          <circle cx="50" cy="50" r="50" stroke="none"/>
          <circle cx="50" cy="50" r="47.5" fill="none"/>
        </g>
      </g>
    </g>
    <g id="Grupo_1100227" data-name="Grupo 1100227" transform="translate(-99.176 -9477.398)">
      <g id="Grupo_1100226" data-name="Grupo 1100226" transform="translate(0 33.965)">
        <g id="Grupo_1100225" data-name="Grupo 1100225" transform="translate(0 0)">
          <path id="Trazado_875336" data-name="Trazado 875336" d="M54.625,74.94H53.256V45.8a2.272,2.272,0,0,0-2.269-2.269H44.4V35.689a1.726,1.726,0,0,0-1.724-1.724H24.246a.827.827,0,1,0,0,1.653H42.672a.071.071,0,0,1,.071.071V70.864H13.61V35.689a.071.071,0,0,1,.071-.071h6.726a.827.827,0,1,0,0-1.653H13.681a1.726,1.726,0,0,0-1.724,1.724v7.837H5.388A2.272,2.272,0,0,0,3.118,45.8V74.94H1.727A1.729,1.729,0,0,0,0,76.668V79.2a3.633,3.633,0,0,0,3.629,3.629H41.664a.827.827,0,0,0,0-1.653H3.629A1.978,1.978,0,0,1,1.653,79.2V76.668a.075.075,0,0,1,.074-.074l22.07,0v1.41a1.527,1.527,0,0,0,1.525,1.525H31.03a1.527,1.527,0,0,0,1.525-1.525V76.6l22.07,0a.075.075,0,0,1,.074.074V79.2a1.978,1.978,0,0,1-1.976,1.976H45.475a.827.827,0,1,0,0,1.653h7.249A3.633,3.633,0,0,0,56.353,79.2V76.668A1.73,1.73,0,0,0,54.625,74.94ZM44.4,49.259h3.027a.5.5,0,0,1,.5.5V70.368a.5.5,0,0,1-.5.5H44.4ZM30.9,77.879H25.451V76.6H30.9ZM51.6,74.94H4.771V45.8a.617.617,0,0,1,.616-.616h6.569v2.427H8.952A2.151,2.151,0,0,0,6.8,49.755V70.368a2.151,2.151,0,0,0,2.149,2.149H47.423a2.151,2.151,0,0,0,2.149-2.149V49.755a2.151,2.151,0,0,0-2.149-2.149H44.4V45.179h6.591a.617.617,0,0,1,.616.616V74.94ZM11.957,49.259v21.6H8.952a.5.5,0,0,1-.5-.5V49.755a.5.5,0,0,1,.5-.5Z" transform="translate(0 -33.965)" fill="#a854f3"/>
        </g>
      </g>
      <path id="Trazado_875337" data-name="Trazado 875337" d="M185.574,82.923a9.437,9.437,0,0,0-6.87-2.7,9.5,9.5,0,0,0-5.685,16.941,1.954,1.954,0,0,1,.745,1.535v5.273a1.735,1.735,0,0,0,1.357,1.69,3.705,3.705,0,0,0,3.615,2.915h.4a3.705,3.705,0,0,0,3.615-2.915,1.735,1.735,0,0,0,1.357-1.691V98.7a1.931,1.931,0,0,1,.714-1.511,9.5,9.5,0,0,0,.758-14.263Zm-3.124,21.047a.08.08,0,0,1-.08.08H175.5a.08.08,0,0,1-.08-.08v-1.836h7.033Zm-3.318,2.953h-.4a2.049,2.049,0,0,1-1.872-1.22H181A2.05,2.05,0,0,1,179.131,106.922Zm4.661-11.034a3.549,3.549,0,0,0-1.343,2.809v1.784h-7.033V98.7a3.6,3.6,0,0,0-1.368-2.828,7.852,7.852,0,1,1,9.744.02Z" transform="translate(-150.756 -41.156)" fill="#a854f3"/>
    </g>
  </g>
</svg>
