<svg xmlns="http://www.w3.org/2000/svg" width="60" height="60" viewBox="0 0 60 60">
  <g id="Grupo_1099462" data-name="Grupo 1099462" transform="translate(-300 -1292)">
    <rect id="Rectángulo_401241" data-name="Rectángulo 401241" width="60" height="60" rx="10" transform="translate(300 1292)" fill="#fff" opacity="0.3"/>
    <g id="Grupo_1099461" data-name="Grupo 1099461" transform="translate(306.779 1295.604)">
      <path id="Trazado_874261" data-name="Trazado 874261" d="M18.436,42.218a.86.86,0,0,0,.625-.26.875.875,0,0,0,0-1.235,14.284,14.284,0,0,1,4.5-23.242.875.875,0,1,0-.685-1.611,16.03,16.03,0,0,0-5.061,26.088.865.865,0,0,0,.62.26Z" transform="translate(-6.228 -5.263)" fill="#3a1d71" stroke="#3a1d71" stroke-width="0.4"/>
      <path id="Trazado_874262" data-name="Trazado 874262" d="M78.519,70.288l-4.066-4.071a.886.886,0,1,0-1.24,1.265l2.5,2.5H67.555a.875.875,0,0,0,0,1.751h8.288l-2.626,2.626a.88.88,0,0,0,.62,1.5.89.89,0,0,0,.62-.26l4.066-4.066a.875.875,0,0,0-.005-1.245Z" transform="translate(-33 -30.338)" fill="#3a1d71" stroke="#3a1d71" stroke-width="0.4"/>
      <path id="Trazado_874263" data-name="Trazado 874263" d="M38.342,29.692A5.387,5.387,0,0,0,43.008,25.6a.875.875,0,1,0-1.7-.415,3.671,3.671,0,1,1-.915-3.386l-1.966,1.961-.5-.735a.875.875,0,0,0-1.425,1l1.105,1.615a.875.875,0,0,0,.64.365h.1a.88.88,0,0,0,.615-.255L44.2,20.485a.877.877,0,1,0-1.24-1.24l-1.32,1.32a5.442,5.442,0,0,0-3.881-1.651h-.17A15.975,15.975,0,0,0,23,9.341l2.576-2.576a.875.875,0,1,0-1.235-1.24L20.271,9.6a.865.865,0,0,0,0,1.235L24.337,14.9a.875.875,0,0,0,1.235-1.24l-2.566-2.571a14.219,14.219,0,0,1,12.834,8.188,5.4,5.4,0,0,0,.725,10.313A14.264,14.264,0,0,1,22.922,39.646H9.273V37.085a.875.875,0,0,0-.875-.875H1.535a.875.875,0,0,0-.875.875v6.862a.875.875,0,0,0,.875.875H8.4a.875.875,0,0,0,.875-.875V41.391H22.922A16,16,0,0,0,38.342,29.692ZM7.522,43.072H2.411V37.96H7.522Z" transform="translate(0 0)" fill="#3a1d71" stroke="#3a1d71" stroke-width="0.4"/>
    </g>
  </g>
</svg>
