<svg xmlns="http://www.w3.org/2000/svg" xmlns:xlink="http://www.w3.org/1999/xlink" width="106.136" height="106.135" viewBox="0 0 106.136 106.135">
  <defs>
    <filter id="Elipse_9685" x="0" y="0" width="106.136" height="106.135" filterUnits="userSpaceOnUse">
      <feOffset dy="3" input="SourceAlpha"/>
      <feGaussianBlur stdDeviation="3" result="blur"/>
      <feFlood flood-opacity="0.161"/>
      <feComposite operator="in" in2="blur"/>
      <feComposite in="SourceGraphic"/>
    </filter>
  </defs>
  <g id="Grupo_1099973" data-name="Grupo 1099973" transform="translate(-737.932 -9747.46)">
    <circle id="Elipse_11310" data-name="Elipse 11310" cx="50" cy="50" r="50" transform="translate(741 9747.527)" fill="#fff"/>
    <g id="Grupo_1098210" data-name="Grupo 1098210" transform="translate(746.932 9753.46)">
      <g transform="matrix(1, 0, 0, 1, -9, -6)" filter="url(#Elipse_9685)">
        <g id="Elipse_9685-2" data-name="Elipse 9685" transform="translate(9 6)" fill="#f2e5fd" stroke="#a854f3" stroke-width="5">
          <circle cx="44.068" cy="44.068" r="44.068" stroke="none"/>
          <circle cx="44.068" cy="44.068" r="41.568" fill="none"/>
        </g>
      </g>
    </g>
    <g id="Grupo_1099921" data-name="Grupo 1099921" transform="translate(765.781 9758.692)">
      <rect id="Rectángulo_401525" data-name="Rectángulo 401525" width="14.711" height="25.219" transform="translate(1.051 32.734)" fill="#0277bd"/>
      <path id="Trazado_874976" data-name="Trazado 874976" d="M15.762,251.321H1.051A1.051,1.051,0,0,1,0,250.27V225.051A1.051,1.051,0,0,1,1.051,224H15.762a1.051,1.051,0,0,1,1.051,1.051V250.27A1.051,1.051,0,0,1,15.762,251.321Zm-13.66-2.1h12.61V226.1H2.1v23.117Z" transform="translate(0 -192.317)" fill="#01579b"/>
      <path id="Trazado_874977" data-name="Trazado 874977" d="M160,63.364a10.89,10.89,0,0,0,6.3,2.1h19.44a3.669,3.669,0,0,0,2.522-6.347,3.655,3.655,0,0,0,2.1-6.3,3.655,3.655,0,0,0,1.261-6.9,4.2,4.2,0,0,0-2.207-7.774H174.711a33.543,33.543,0,0,0,2.1-9.457c0-3.94-3.415-7.356-5.254-7.356a5.5,5.5,0,0,0-3.152,1.051v7.356L162.1,43.4,160,44.45Z" transform="translate(-144.238 -9.614)" fill="#eceff1"/>
      <path id="Trazado_874978" data-name="Trazado 874978" d="M176.128,56.9h-19.44a11.794,11.794,0,0,1-7.049-2.408,1.051,1.051,0,0,1-.307-.744V34.835a1.051,1.051,0,0,1,.58-.939l1.772-.887L157.739,19.9V12.769a1.051,1.051,0,0,1,.393-.822,6.6,6.6,0,0,1,3.81-1.28c2.432,0,6.3,3.848,6.3,8.406a30.271,30.271,0,0,1-1.681,8.406h13.24a5.254,5.254,0,0,1,5.254,5.254,5.189,5.189,0,0,1-1.366,3.522,4.7,4.7,0,0,1-1.229,7.513,4.654,4.654,0,0,1,.494,2.1,4.71,4.71,0,0,1-2.6,4.2,4.655,4.655,0,0,1,.494,2.1A4.734,4.734,0,0,1,176.128,56.9Zm-24.694-3.634a10.827,10.827,0,0,0,5.254,1.532h19.44a2.629,2.629,0,0,0,2.627-2.627,2.593,2.593,0,0,0-.83-1.9,1.051,1.051,0,0,1,.6-1.809,2.6,2.6,0,0,0,1.5-4.5,1.051,1.051,0,0,1,.6-1.809,2.6,2.6,0,0,0,.889-4.92,1.051,1.051,0,0,1-.069-1.828,3.152,3.152,0,0,0-1.641-5.828H165.095a1.051,1.051,0,0,1-.981-1.425,32.673,32.673,0,0,0,2.032-9.083c0-3.442-3.052-6.3-4.2-6.3a4.427,4.427,0,0,0-2.1.569v6.786a1.062,1.062,0,0,1-.1.441l-6.3,13.66a1.051,1.051,0,0,1-.483.5l-1.522.761Z" transform="translate(-134.622 0)" fill="#01579b"/>
    </g>
  </g>
</svg>
