<svg xmlns="http://www.w3.org/2000/svg" xmlns:xlink="http://www.w3.org/1999/xlink" width="118" height="118" viewBox="0 0 118 118">
  <defs>
    <filter id="Elipse_9685" x="0" y="0" width="118" height="118" filterUnits="userSpaceOnUse">
      <feOffset dy="3" input="SourceAlpha"/>
      <feGaussianBlur stdDeviation="3" result="blur"/>
      <feFlood flood-opacity="0.161"/>
      <feComposite operator="in" in2="blur"/>
      <feComposite in="SourceGraphic"/>
    </filter>
  </defs>
  <g id="Grupo_1100233" data-name="Grupo 1100233" transform="translate(-626 -2225)">
    <g id="Grupo_1100220" data-name="Grupo 1100220" transform="translate(635 2231)">
      <g transform="matrix(1, 0, 0, 1, -9, -6)" filter="url(#Elipse_9685)">
        <g id="Elipse_9685-2" data-name="Elipse 9685" transform="translate(9 6)" fill="#f2e5fd" stroke="#a854f3" stroke-width="5">
          <circle cx="50" cy="50" r="50" stroke="none"/>
          <circle cx="50" cy="50" r="47.5" fill="none"/>
        </g>
      </g>
    </g>
    <g id="Grupo_1100232" data-name="Grupo 1100232" transform="translate(617.106 2249)">
      <g id="Grupo_1100231" data-name="Grupo 1100231" transform="translate(40.894)">
        <g id="Grupo_1100230" data-name="Grupo 1100230" transform="translate(0)">
          <g id="Grupo_1100229" data-name="Grupo 1100229">
            <path id="Trazado_875338" data-name="Trazado 875338" d="M157.133,331.793a.952.952,0,0,0-1.248.506.9.9,0,0,1-1.666,0,.952.952,0,1,0-1.754.742,2.809,2.809,0,0,0,5.174,0A.952.952,0,0,0,157.133,331.793Z" transform="translate(-138.232 -289.597)" fill="#a854f3"/>
            <path id="Trazado_875339" data-name="Trazado 875339" d="M140.078,290.864a.952.952,0,1,0-1.9,0v1.514a.952.952,0,1,0,1.9,0Z" transform="translate(-125.821 -253.1)" fill="#a854f3"/>
            <path id="Trazado_875340" data-name="Trazado 875340" d="M194.5,289.912a.952.952,0,0,0-.952.952v1.514a.952.952,0,1,0,1.9,0v-1.514A.952.952,0,0,0,194.5,289.912Z" transform="translate(-174.161 -253.1)" fill="#a854f3"/>
            <path id="Trazado_875341" data-name="Trazado 875341" d="M91.058,4.446A15.087,15.087,0,0,0,80.321,0H80.31a15.138,15.138,0,0,0-3.661.451A.952.952,0,0,0,77.111,2.3a13.239,13.239,0,0,1,3.2-.394h.01a13.269,13.269,0,0,1,9.345,22.7,13.187,13.187,0,0,1-9.346,3.863h-.1A13.162,13.162,0,0,1,74.649,27.2a1.944,1.944,0,0,0-1.44-.091l-4.519,1.48a.034.034,0,0,1-.044-.011.034.034,0,0,1-.01-.044l1.26-3.7a1.946,1.946,0,0,0-.279-1.778,13.177,13.177,0,0,1-2.579-7.866A13.365,13.365,0,0,1,73.59,3.745a.952.952,0,1,0-.97-1.639,15.278,15.278,0,0,0-7.488,13.082c0,.108,0,.216.006.323a11.577,11.577,0,0,0-5.316-1.284H55.571A11.661,11.661,0,0,0,43.918,25.761c-.012,1.039-.013,4.072-.011,7.021a3.806,3.806,0,0,0,.039,7.453,10.238,10.238,0,0,0,10.2,9.439h.353s0,1.293,0,1.373a6.408,6.408,0,0,0-2.893,1.1A6,6,0,0,0,49.114,57v7.043a.952.952,0,0,0,.952.952h15.3a.952.952,0,0,0,.952-.952V61.815a.952.952,0,0,0-1.9,0V63.1H61.668V61.07l.5-.4a.952.952,0,1,0-1.2-1.481l-.852.689a.952.952,0,0,0-.354.741V63.1h-4.1V60.615a.952.952,0,0,0-.354-.741l-.852-.689a.952.952,0,1,0-1.2,1.481l.5.4V63.1H51.019V57a4.081,4.081,0,0,1,2.963-3.925c.4-.115.817-.133,1.222-.227a4.051,4.051,0,0,0,.79.471,4.159,4.159,0,0,0,3.439,0,4.056,4.056,0,0,0,.791-.472c.182.042.378.07.591.1a4.215,4.215,0,0,1,1.9.741A4.094,4.094,0,0,1,64.409,57v.441a.952.952,0,0,0,1.9,0V57a6,6,0,0,0-2.486-4.856,7.279,7.279,0,0,0-2.9-1.107c.005-.127,0-1.369,0-1.369h.353a10.238,10.238,0,0,0,10.2-9.439,3.806,3.806,0,0,0,.03-7.455v-.973h-.033V29.682l2.324-.761a.044.044,0,0,1,.033,0A15.207,15.207,0,0,0,95.508,15.193a15.087,15.087,0,0,0-4.45-10.747ZM42.8,36.5a1.9,1.9,0,0,1,1.11-1.726c0,1.368,0,2.6.005,3.455A1.9,1.9,0,0,1,42.8,36.5Zm29.831,0a1.9,1.9,0,0,1-1.15,1.746V34.758A1.9,1.9,0,0,1,72.629,36.5ZM45.823,25.783a9.757,9.757,0,0,1,9.749-9.65h4.252a9.672,9.672,0,0,1,5.546,1.734,15.049,15.049,0,0,0,2.713,6.317.042.042,0,0,1,.01.036l-1.26,3.7A1.95,1.95,0,0,0,68.672,30.5a1.964,1.964,0,0,0,.611-.1l.291-.1c0,1.514,0,3.238,0,4.9a22.511,22.511,0,0,1-.779-2.49,1.661,1.661,0,0,0-1.617-1.266h-.012A69.76,69.76,0,0,1,49.225,29.38,1.76,1.76,0,0,0,47,30.891a17.413,17.413,0,0,1-1.186,4.647c0-.562,0-8.821.008-9.756ZM58.646,51.59a2.286,2.286,0,0,1-1.866,0,2.168,2.168,0,0,1-.391-.226c.009-.168.01-.35.01-.548V49.673h2.63v1.142c0,.2,0,.379.01.547a2.178,2.178,0,0,1-.392.227Zm2.64-3.821H54.141a8.329,8.329,0,0,1-8.313-8.046,21.062,21.062,0,0,0,3.049-8.463,71.892,71.892,0,0,0,18.116,2.093,26.773,26.773,0,0,0,2.607,6.4,8.329,8.329,0,0,1-8.313,8.017Z" transform="translate(-40.894)" fill="#a854f3"/>
          </g>
          <path id="Trazado_875342" data-name="Trazado 875342" d="M282.67,63.1l-1.224-1.224a3.527,3.527,0,0,0-4.988,4.989L281,71.411a2.363,2.363,0,0,0,3.337,0l9.439-9.438a3.527,3.527,0,1,0-4.989-4.988h0Zm7.466-4.772a1.623,1.623,0,0,1,2.295,2.295l-9.439,9.438a.455.455,0,0,1-.644,0l-4.543-4.543a1.623,1.623,0,0,1,2.295-2.295l1.793,1.793a1.1,1.1,0,0,0,1.556,0Z" transform="translate(-245.645 -48.846)" fill="#a854f3"/>
        </g>
      </g>
    </g>
  </g>
</svg>
