<svg xmlns="http://www.w3.org/2000/svg" xmlns:xlink="http://www.w3.org/1999/xlink" width="295" height="240.612" viewBox="0 0 295 240.612">
  <defs>
    <clipPath id="clip-path">
      <rect id="Rect치ngulo_401252" data-name="Rect치ngulo 401252" width="295" height="240.612" fill="none"/>
    </clipPath>
  </defs>
  <g id="Grupo_1099508" data-name="Grupo 1099508" transform="translate(0 0.004)">
    <g id="Grupo_1099507" data-name="Grupo 1099507" transform="translate(0 -0.004)" clip-path="url(#clip-path)">
      <path id="Trazado_874295" data-name="Trazado 874295" d="M347.026,285.448H246.194a15.6,15.6,0,0,1-15.58-15.581V211.423a15.6,15.6,0,0,1,15.58-15.58H347.026a15.6,15.6,0,0,1,15.58,15.58v58.444a15.6,15.6,0,0,1-15.58,15.581M246.194,197.486a13.953,13.953,0,0,0-13.937,13.937v58.444a13.953,13.953,0,0,0,13.937,13.938H347.026a13.954,13.954,0,0,0,13.937-13.938V211.423a13.953,13.953,0,0,0-13.937-13.937Z" transform="translate(-190.449 -161.733)"/>
      <path id="Trazado_874296" data-name="Trazado 874296" d="M200.07,940.023a2.021,2.021,0,1,1-2.013,2.021,2.017,2.017,0,0,1,2.013-2.021" transform="translate(-163.562 -776.301)" fill-rule="evenodd"/>
      <path id="Trazado_874297" data-name="Trazado 874297" d="M160.472,940.023a2.021,2.021,0,1,1-2.014,2.021,2.017,2.017,0,0,1,2.014-2.021" transform="translate(-130.86 -776.301)" fill-rule="evenodd"/>
      <path id="Trazado_874298" data-name="Trazado 874298" d="M120.852,940.023a2.021,2.021,0,1,1-2.013,2.021,2.017,2.017,0,0,1,2.013-2.021" transform="translate(-98.141 -776.301)" fill-rule="evenodd"/>
      <path id="Trazado_874299" data-name="Trazado 874299" d="M120.852,940.023a2.021,2.021,0,1,1-2.013,2.021,2.017,2.017,0,0,1,2.013-2.021" transform="translate(-98.141 -776.301)" fill-rule="evenodd"/>
      <path id="Trazado_874300" data-name="Trazado 874300" d="M81.232,940.023a2.021,2.021,0,1,1-2.014,2.021,2.017,2.017,0,0,1,2.014-2.021" transform="translate(-65.421 -776.301)" fill-rule="evenodd"/>
      <path id="Trazado_874301" data-name="Trazado 874301" d="M41.634,940.023a2.021,2.021,0,1,1-2.013,2.021,2.017,2.017,0,0,1,2.013-2.021" transform="translate(-32.72 -776.301)" fill-rule="evenodd"/>
      <path id="Trazado_874302" data-name="Trazado 874302" d="M2.013,940.023A2.021,2.021,0,1,1,0,942.044a2.017,2.017,0,0,1,2.013-2.021" transform="translate(0 -776.301)" fill-rule="evenodd"/>
      <path id="Trazado_874303" data-name="Trazado 874303" d="M200.07,940.023a2.021,2.021,0,1,1-2.013,2.021,2.017,2.017,0,0,1,2.013-2.021" transform="translate(-163.562 -776.301)" fill-rule="evenodd"/>
      <path id="Trazado_874304" data-name="Trazado 874304" d="M160.472,940.023a2.021,2.021,0,1,1-2.014,2.021,2.017,2.017,0,0,1,2.014-2.021" transform="translate(-130.86 -776.301)" fill-rule="evenodd"/>
      <path id="Trazado_874305" data-name="Trazado 874305" d="M120.852,940.023a2.021,2.021,0,1,1-2.013,2.021,2.017,2.017,0,0,1,2.013-2.021" transform="translate(-98.141 -776.301)" fill-rule="evenodd"/>
      <path id="Trazado_874306" data-name="Trazado 874306" d="M120.852,940.023a2.021,2.021,0,1,1-2.013,2.021,2.017,2.017,0,0,1,2.013-2.021" transform="translate(-98.141 -776.301)" fill-rule="evenodd"/>
      <path id="Trazado_874307" data-name="Trazado 874307" d="M81.232,940.023a2.021,2.021,0,1,1-2.014,2.021,2.017,2.017,0,0,1,2.014-2.021" transform="translate(-65.421 -776.301)" fill-rule="evenodd"/>
      <path id="Trazado_874308" data-name="Trazado 874308" d="M41.634,940.023a2.021,2.021,0,1,1-2.013,2.021,2.017,2.017,0,0,1,2.013-2.021" transform="translate(-32.72 -776.301)" fill-rule="evenodd"/>
      <path id="Trazado_874309" data-name="Trazado 874309" d="M2.013,940.023A2.021,2.021,0,1,1,0,942.044a2.017,2.017,0,0,1,2.013-2.021" transform="translate(0 -776.301)" fill-rule="evenodd"/>
      <path id="Trazado_874310" data-name="Trazado 874310" d="M200.07,979.82a2.019,2.019,0,1,1-2.013,2.019,2.016,2.016,0,0,1,2.013-2.019" transform="translate(-163.562 -809.167)" fill-rule="evenodd"/>
      <path id="Trazado_874311" data-name="Trazado 874311" d="M160.472,979.82a2.019,2.019,0,1,1-2.014,2.019,2.016,2.016,0,0,1,2.014-2.019" transform="translate(-130.86 -809.167)" fill-rule="evenodd"/>
      <path id="Trazado_874312" data-name="Trazado 874312" d="M120.852,979.82a2.019,2.019,0,1,1-2.013,2.019,2.016,2.016,0,0,1,2.013-2.019" transform="translate(-98.141 -809.167)" fill-rule="evenodd"/>
      <path id="Trazado_874313" data-name="Trazado 874313" d="M120.852,979.82a2.019,2.019,0,1,1-2.013,2.019,2.016,2.016,0,0,1,2.013-2.019" transform="translate(-98.141 -809.167)" fill-rule="evenodd"/>
      <path id="Trazado_874314" data-name="Trazado 874314" d="M81.232,979.82a2.019,2.019,0,1,1-2.014,2.019,2.016,2.016,0,0,1,2.014-2.019" transform="translate(-65.421 -809.167)" fill-rule="evenodd"/>
      <path id="Trazado_874315" data-name="Trazado 874315" d="M41.634,979.82a2.019,2.019,0,1,1-2.013,2.019,2.016,2.016,0,0,1,2.013-2.019" transform="translate(-32.72 -809.167)" fill-rule="evenodd"/>
      <path id="Trazado_874316" data-name="Trazado 874316" d="M2.013,979.82A2.019,2.019,0,1,1,0,981.839a2.016,2.016,0,0,1,2.013-2.019" transform="translate(0 -809.167)" fill-rule="evenodd"/>
      <path id="Trazado_874317" data-name="Trazado 874317" d="M363.371,124.1H464.2a14.759,14.759,0,0,1,14.759,14.759v58.444A14.759,14.759,0,0,1,464.2,212.065H363.371a14.759,14.759,0,0,1-14.759-14.759V138.862A14.759,14.759,0,0,1,363.371,124.1" transform="translate(-287.895 -102.488)" fill="#fff" fill-rule="evenodd"/>
      <path id="Trazado_874318" data-name="Trazado 874318" d="M460.308,208.993H359.476a15.6,15.6,0,0,1-15.58-15.58V134.968a15.6,15.6,0,0,1,15.58-15.58H460.308a15.6,15.6,0,0,1,15.58,15.58v58.444a15.6,15.6,0,0,1-15.58,15.58M359.476,121.031a13.953,13.953,0,0,0-13.937,13.937v58.444a13.953,13.953,0,0,0,13.937,13.937H460.308a13.953,13.953,0,0,0,13.937-13.937V134.968a13.953,13.953,0,0,0-13.937-13.937Z" transform="translate(-284.001 -98.594)"/>
      <path id="Trazado_874319" data-name="Trazado 874319" d="M769.24,5.08H879.872a7.084,7.084,0,0,1,7.084,7.084V223.037a7.084,7.084,0,0,1-7.084,7.084H769.24a7.084,7.084,0,0,1-7.084-7.084V12.164A7.084,7.084,0,0,1,769.24,5.08" transform="translate(-629.414 -4.195)" fill="#fff" fill-rule="evenodd"/>
      <path id="Trazado_874320" data-name="Trazado 874320" d="M875.672,226.807H765.04a7.977,7.977,0,0,1-7.969-7.969V7.966A7.978,7.978,0,0,1,765.04,0H875.672a7.978,7.978,0,0,1,7.969,7.97V218.838a7.977,7.977,0,0,1-7.969,7.969M765.04,1.767a6.206,6.206,0,0,0-6.2,6.2V218.838a6.207,6.207,0,0,0,6.2,6.2H875.672a6.207,6.207,0,0,0,6.2-6.2V7.966a6.206,6.206,0,0,0-6.2-6.2Z" transform="translate(-625.214 0.004)"/>
      <path id="Trazado_874321" data-name="Trazado 874321" d="M805,43.051h98.175a7.084,7.084,0,0,1,7.084,7.084V239.583a7.084,7.084,0,0,1-7.084,7.084H805a7.084,7.084,0,0,1-7.085-7.084V50.135A7.084,7.084,0,0,1,805,43.051" transform="translate(-658.944 -35.552)" fill="#fff" fill-rule="evenodd"/>
      <path id="Trazado_874322" data-name="Trazado 874322" d="M898.977,243.353H800.8a7.978,7.978,0,0,1-7.969-7.969V45.936a7.978,7.978,0,0,1,7.969-7.97h98.175a7.979,7.979,0,0,1,7.97,7.97V235.384a7.978,7.978,0,0,1-7.97,7.969M800.8,39.737a6.206,6.206,0,0,0-6.2,6.2V235.384a6.207,6.207,0,0,0,6.2,6.2h98.175a6.207,6.207,0,0,0,6.2-6.2V45.936a6.206,6.206,0,0,0-6.2-6.2Z" transform="translate(-654.748 -31.353)"/>
      <path id="Trazado_874323" data-name="Trazado 874323" d="M836.3,75.124h85.6a7.084,7.084,0,0,1,7.084,7.084V116.8a7.084,7.084,0,0,1-7.084,7.084H836.3a7.084,7.084,0,0,1-7.084-7.084V82.208a7.084,7.084,0,0,1,7.084-7.084" transform="translate(-684.791 -62.039)" fill="#2b95ff" fill-rule="evenodd"/>
      <path id="Trazado_874324" data-name="Trazado 874324" d="M1250.273,421.462h-13.755a7.914,7.914,0,0,1-7.906-7.906V399.8a7.914,7.914,0,0,1,7.906-7.905h13.755a7.915,7.915,0,0,1,7.906,7.905v13.755a7.915,7.915,0,0,1-7.906,7.906m-13.755-27.924a6.27,6.27,0,0,0-6.263,6.263v13.755a6.27,6.27,0,0,0,6.263,6.263h13.755a6.27,6.27,0,0,0,6.263-6.263V399.8a6.27,6.27,0,0,0-6.263-6.263Z" transform="translate(-1014.629 -323.639)"/>
      <path id="Trazado_874325" data-name="Trazado 874325" d="M1049.951,421.462H1036.2a7.914,7.914,0,0,1-7.906-7.906V399.8a7.914,7.914,0,0,1,7.906-7.905h13.756a7.914,7.914,0,0,1,7.906,7.905v13.755a7.915,7.915,0,0,1-7.906,7.906M1036.2,393.538a6.27,6.27,0,0,0-6.263,6.263v13.755a6.27,6.27,0,0,0,6.263,6.263h13.756a6.27,6.27,0,0,0,6.262-6.263V399.8a6.27,6.27,0,0,0-6.262-6.263Z" transform="translate(-849.196 -323.639)"/>
      <path id="Trazado_874326" data-name="Trazado 874326" d="M839.8,421.462H826.042a7.915,7.915,0,0,1-7.905-7.906V399.8a7.914,7.914,0,0,1,7.905-7.905H839.8A7.914,7.914,0,0,1,847.7,399.8v13.755a7.915,7.915,0,0,1-7.905,7.906m-13.756-27.924a6.27,6.27,0,0,0-6.263,6.263v13.755a6.27,6.27,0,0,0,6.263,6.263H839.8a6.27,6.27,0,0,0,6.263-6.263V399.8a6.27,6.27,0,0,0-6.263-6.263Z" transform="translate(-675.645 -323.639)"/>
      <path id="Trazado_874327" data-name="Trazado 874327" d="M1240.033,815.561h13.755a7.084,7.084,0,0,1,7.084,7.084V836.4a7.084,7.084,0,0,1-7.084,7.084h-13.755a7.084,7.084,0,0,1-7.084-7.084V822.645a7.084,7.084,0,0,1,7.084-7.084" transform="translate(-1018.21 -673.517)" fill="#2b95ff" fill-rule="evenodd"/>
      <path id="Trazado_874328" data-name="Trazado 874328" d="M1039.711,815.561h13.755a7.084,7.084,0,0,1,7.084,7.084V836.4a7.084,7.084,0,0,1-7.084,7.084h-13.755a7.084,7.084,0,0,1-7.084-7.084V822.645a7.084,7.084,0,0,1,7.084-7.084" transform="translate(-852.778 -673.517)" fill="#2b95ff" fill-rule="evenodd"/>
      <path id="Trazado_874329" data-name="Trazado 874329" d="M829.558,815.561h13.755a7.084,7.084,0,0,1,7.084,7.084V836.4a7.084,7.084,0,0,1-7.084,7.084H829.558a7.084,7.084,0,0,1-7.084-7.084V822.645a7.084,7.084,0,0,1,7.084-7.084" transform="translate(-679.226 -673.517)" fill="#2b95ff" fill-rule="evenodd"/>
      <path id="Trazado_874330" data-name="Trazado 874330" d="M1240.033,1012.155h13.755a7.084,7.084,0,0,1,7.084,7.084v13.755a7.084,7.084,0,0,1-7.084,7.084h-13.755a7.084,7.084,0,0,1-7.084-7.084v-13.755a7.084,7.084,0,0,1,7.084-7.084" transform="translate(-1018.21 -835.87)" fill="#2b95ff" fill-rule="evenodd"/>
      <path id="Trazado_874331" data-name="Trazado 874331" d="M1039.711,1012.155h13.755a7.084,7.084,0,0,1,7.084,7.084v13.755a7.084,7.084,0,0,1-7.084,7.084h-13.755a7.084,7.084,0,0,1-7.084-7.084v-13.755a7.084,7.084,0,0,1,7.084-7.084" transform="translate(-852.778 -835.87)" fill="#2b95ff" fill-rule="evenodd"/>
      <path id="Trazado_874332" data-name="Trazado 874332" d="M829.558,1012.155h13.755a7.084,7.084,0,0,1,7.084,7.084v13.755a7.084,7.084,0,0,1-7.084,7.084H829.558a7.084,7.084,0,0,1-7.084-7.084v-13.755a7.084,7.084,0,0,1,7.084-7.084" transform="translate(-679.226 -835.87)" fill="#2b95ff" fill-rule="evenodd"/>
      <path id="Trazado_874333" data-name="Trazado 874333" d="M907.439,708.424H814.281a5.545,5.545,0,0,1,0-11.089h93.158a5.545,5.545,0,0,1,0,11.089m-93.158-9.446a3.9,3.9,0,0,0,0,7.8h93.158a3.9,3.9,0,0,0,0-7.8Z" transform="translate(-667.882 -575.882)"/>
      <path id="Trazado_874334" data-name="Trazado 874334" d="M1075.785,702.053h48.291a4.723,4.723,0,0,1,0,9.446h-48.291a4.723,4.723,0,1,1,0-9.446" transform="translate(-884.518 -579.778)" fill-rule="evenodd"/>
      <path id="Trazado_874335" data-name="Trazado 874335" d="M1048.262,701.546a5.048,5.048,0,1,1-5.047,5.047,5.047,5.047,0,0,1,5.047-5.047" transform="translate(-861.521 -579.359)" fill="#2b95ff" fill-rule="evenodd"/>
      <path id="Trazado_874336" data-name="Trazado 874336" d="M907.439,627.034H814.281a5.544,5.544,0,1,1,0-11.089h93.158a5.544,5.544,0,0,1,0,11.089m-93.158-9.446a3.9,3.9,0,1,0,0,7.8h93.158a3.9,3.9,0,0,0,0-7.8Z" transform="translate(-667.882 -508.667)"/>
      <path id="Trazado_874337" data-name="Trazado 874337" d="M1195.1,620.661h27.51a4.723,4.723,0,0,1,0,9.446H1195.1a4.723,4.723,0,1,1,0-9.446" transform="translate(-983.05 -512.562)" fill-rule="evenodd"/>
      <path id="Trazado_874338" data-name="Trazado 874338" d="M1180.005,618.8a5.047,5.047,0,1,1-5.047,5.047,5.047,5.047,0,0,1,5.047-5.047" transform="translate(-970.319 -511.022)" fill="#2b95ff" fill-rule="evenodd"/>
      <path id="Trazado_874339" data-name="Trazado 874339" d="M611.063,363.5c2.123-1.612,5.436-6.359,6.2-7.734s2.174-3.8,1.594-5.431-5.523,3.358-6.021,3.838-2.421-1.181-2.421-1.181,2.889-10.658,3.483-12.338-.217-3.135-1.122-3.247-6.612,10.862-6.612,10.862.907-9.873,1-10.922-4.019-.535-6.789,1.3-3.965,8.03-3.9,12.22-.3,11.394-.3,11.394l-11.63,26.507s-7.7-13.537-12.752-21.017-15.762-7.674-15.762-7.674l2.184-6.258a27.817,27.817,0,0,0,4.723-.886c2.825-.753,6.258-7.32,6.258-7.32s2.059-1.809,2.3-2.952-1.476-1.358-1.476-1.358.6-.556.059-4.428a36.553,36.553,0,0,0-2.538-8.324s.563-4.781.118-5.726-2.526-2.78-5.667-5.608-14.35.677-18.832,2.184-4.487,9.977-4.487,9.977a17.172,17.172,0,0,0-3.837,8.442c-.564,4.792,3,9.37,6.494,11.984s5.785,2.538,5.785,2.538l1.417.827-4.487,8.8s-11.639,7.709-17.238,12.1-5.608,15-5.608,15-2.091,95.132-2.338,106.364c-.016.705-.024,1.079-.024,1.079l58.917-1.417-17.061-54.844.059-10.095a17.685,17.685,0,0,0,2.657,1.122c.851.2,4.431-.472,7.438-1.771s25.267-13.873,25.267-13.873.026.147,3.365-.826,5.077-6.081,5.077-6.081l1.948.118a2.1,2.1,0,0,0,1.358,1.594c1.265.553,2.681-.061,5.077-4.014s-.059-8.029-.059-8.029,2.145-3.567,2.6-4.428-.307-.848-1.653-1.358-4.369,1.771-4.369,1.771-.28.178-1.063-.472a16.372,16.372,0,0,0-2.893-1.535s1.642-3.144,2.243-4.132,4.6-3.173,4.723-3.837-2.344-1.491-4.841-1-7.852,9.209-7.852,9.209l7.438-26.094s1.714-1.4,3.837-3.011M568.2,412.791l-4.192-7.143,2.362-12.751,14.109,15.7Z" transform="translate(-428.483 -261.081)" fill="#fff" fill-rule="evenodd"/>
      <path id="Trazado_874340" data-name="Trazado 874340" d="M624.331,337.84s2.826,3.555,3.424,2.244,1.757-2.451.827-4.31-5.007-8.707-2.362-10.567,5.919-2.219,8.737-2.893,4.44.3,5.077-1.594-.116-3.481.826-2.361,2.834,3.719,2.834,3.719,2.49-2.6.59-4.9a39.061,39.061,0,0,0-3.6-4.192c-1.116-1.008-2.423-4.232-6.2-3.365s-16.075,2.7-17.415,6.435a22.92,22.92,0,0,0-1.24,7.439s-5.86,5.679-3.778,10.449,6.048,10.608,8.442,11.63a35.792,35.792,0,0,0,5.077,1.653l-.413-2.3-1.062-1.181s-3.415-.344-4.31-2.6-.339-3.338.767-3.424a37.758,37.758,0,0,1,3.778.118" transform="translate(-505.083 -255.574)" fill-rule="evenodd"/>
      <path id="Trazado_874341" data-name="Trazado 874341" d="M547.472,998.8l15.762-3.424.472,5.018,19.023,56.514-60.053-3.383Z" transform="translate(-431.644 -822.014)" fill-rule="evenodd"/>
      <path id="Trazado_874342" data-name="Trazado 874342" d="M572.461,618.669l4.132,6.73,3.6-.413s-4.017,2.836-1.889,8.56,4.782,7.143,4.782,7.143-5.544,3.774-8.383,3.365a11.778,11.778,0,0,1-5.136-2.3l.177,4.723L531.137,654.8s-4.224-46.062-1.594-57.264,5.654-10.068,7.852-12.161a79.235,79.235,0,0,1,6.317-5.077s5.8,3.792,11.216,4.6,12.056-1.933,13.047-5.2,1.594-5.49,1.594-5.49a11.665,11.665,0,0,1,10.863,5.844c4.095,6.7,12.988,22.02,12.988,22.02L596.666,596a36.259,36.259,0,0,0,6.73,4.841c3.687,1.981,5.9,1.83,5.9,1.83l-.531,2.775-9.741,13.7-9.269,2.6L574.7,604.5Z" transform="translate(-436.602 -474.177)" fill="#2b95ff" fill-rule="evenodd"/>
      <path id="Trazado_874343" data-name="Trazado 874343" d="M576.82,325.425c.721-.571,1.953-.64,1.948.413,0,.893-.9.863-1.358,1.417a27.414,27.414,0,0,1,.885,7.2c.546.494,1.584.38,1.653,1.24.134,1.662-1.87.615-2.715.236-1.969-.884-3.6-2.222-3.837-4.663a5.182,5.182,0,0,1,1.948-4.782,24.828,24.828,0,0,0-3.955-7.5c-.459,1.37-.777,2.555-2.007,3.188-1.837.944-4.606.964-7.2,1.712a21.68,21.68,0,0,0-3.365,1.122c-.976.472-2.2,1.31-2.3,2.125a6.614,6.614,0,0,0,.709,2.538c.312.861.615,1.621.885,2.3a32.135,32.135,0,0,1,1.83,4.6c.3,1.506-.794,3.912-2.184,4.132-.543.086-.887-.3-1.358-.354a15.062,15.062,0,0,0-2.184.354c-.563.087-1.714.319-1.771-.531-.084-1.263,1.841-.712,2.715-1.121a6.416,6.416,0,0,0-3.07-.413,1.756,1.756,0,0,0-1,1.771,3.5,3.5,0,0,0,1.889,2.066c.632.225,1.39-.114,2.066.118.472.162.789.96,1.122,1.535.324.559.864,1.14.885,1.712a9.328,9.328,0,0,1-1.121,2.833c-.867,1.94-1.541,3.464-2.42,5.431a13.248,13.248,0,0,1-1.24,2.656,7.454,7.454,0,0,1-1.948,1.24c-1.973,1.169-4.007,2.408-5.9,3.542,3.123,1.745,6.847,3.591,11.451,3.719a11.579,11.579,0,0,0,6.08-1.535,8.315,8.315,0,0,0,4.6-7.969c-.837-.226-1.843-.282-2.715-.472-.754.763-.516,2.977-1.948,2.892a1.022,1.022,0,0,1-.826-.708c-.2-.708.454-1.675.768-2.479.881-2.261,2.116-5.177,2.892-7.083-.8-.238-1.979-.395-3.069-.708-.664-.191-2.315-.465-2.361-1.358-.089-1.7,2.318-.5,3.069-.3,2.583.711,5.446,1.23,8.2.059a8.817,8.817,0,0,0,4.722-5.017c.257-.588.8-2.734,1.948-1.712.718.637-.622,3.091-.944,3.719a8.716,8.716,0,0,1-2.243,2.833,9.844,9.844,0,0,1-7.437,2.6c-.757,1.742-1.4,3.6-2.125,5.371,4.22.763,8.126,1.138,11.038,2.833a19.174,19.174,0,0,1,6.67,7.142c3.348,5.7,6.616,12.014,9.74,17.885,3.575-6.43,6.63-14.4,9.621-21.722a18.046,18.046,0,0,0,1.3-3.129,26.527,26.527,0,0,0,0-3.6,87.878,87.878,0,0,1,.3-10.861,27.9,27.9,0,0,1,1.653-5.962c.681-1.8,1.4-3.672,3.011-4.6a14.811,14.811,0,0,1,4.9-1.417c1.077-.092,2.3.118,2.538.768a5.115,5.115,0,0,1-.118,1.948c-.227,1.951-.438,3.979-.708,5.844,1.234-1.781,2.475-4.013,3.9-6.021.42-.594.966-1.536,1.653-1.653a2.319,2.319,0,0,1,2.361,2.184,8.732,8.732,0,0,1-1,3.306,53.81,53.81,0,0,0-2.538,8.2,5.9,5.9,0,0,0-.295,1.83c.116.464.716.527,1.063.767,1.568-.917,3.1-2.986,4.781-3.955.825-.477,2.546-.885,3.01.118.394.85-.184,2.287-.472,3.129a27.6,27.6,0,0,1-4.25,7.083,28.113,28.113,0,0,1-7.792,7.319c-1.817,7.076-3.724,14.063-5.607,21.073,1.125-1.057,1.824-2.808,3.187-4.073,1.637-1.519,5.062-2.773,7.378-1.3a1.912,1.912,0,0,1,.885,1.712c-.1.919-1.5,1.585-2.243,2.125a14.8,14.8,0,0,0-2.42,1.889c-1.006,1.143-1.16,2.535-2.125,3.719a6.733,6.733,0,0,1,3.07,1.3c1.019-.589,1.814-1.88,3.6-1.771,1.237.075,3.245.922,3.07,2.42-.107.916-1.111,1.2-1.594,1.889-.65.928-.723,1.789-1.24,2.6a18.549,18.549,0,0,1,1.122,5.431c-.005,2.94-2.033,4.891-3.9,6.316a5.075,5.075,0,0,1-2.184,1.181,2.506,2.506,0,0,1-2.479-2.184c-1.586,2.98-2.928,6.073-6.788,6.729-.56.1-1.246-.03-2.007.118a11.278,11.278,0,0,0-2.184,1.121c-4.944,2.677-9.873,5.371-14.816,8.028-2.764,1.486-5.669,3.1-8.618,4.427-2.7,1.216-6.054,3.707-9.681,1.358-.145,2.4-.087,4.558-.177,6.965a13.617,13.617,0,0,0-.059,2.3,20.1,20.1,0,0,0,1.062,3.188c2.507,7.468,4.994,14.814,7.5,22.253-.637.076-1.2.526-1.712.531-2.481-7.58-4.988-14.9-7.555-22.549a20.039,20.039,0,0,1-1.062-3.188c-.225-1.631.262-3.364.118-4.9-3.361.631-7.066,1.481-10.625,2.3-.809.187-3.157,1.051-3.187-.3-.026-1.16,1.945-1.237,3.01-1.476,3.551-.795,7.531-1.664,10.861-2.42-.037-1.3.1-2.416.059-3.719a55.281,55.281,0,0,1-10.448-9.74c-.472-.567-1.1-1.215-1.063-1.771a.8.8,0,0,1,.767-.767c.713-.055,1.286.922,1.83,1.594a44.874,44.874,0,0,0,8.8,8.323c1.462,1.084,3.1,2.547,5.195,2.6a7.449,7.449,0,0,0,3.66-1.18c1.109-.594,1.958-1.071,3.188-1.594a5.444,5.444,0,0,0-1.062-1.239,9.951,9.951,0,0,1-2.479-4.722c-.618-2.666-.6-5.977.885-7.851-.548.214-1.245.394-2.007.649-.836.28-2.6,1.069-2.656-.3-.046-1.111,1.459-.994,2.243-1.417-4.249-7.413-8.7-14.921-13.281-22.372-2.231-3.625-4.574-7.39-7.733-10.153a26.8,26.8,0,0,0-8.441-4.958c-.865-.32-2.819-.623-2.774-1.653.063-1.426,1.89-.522,3.01-.118a28.282,28.282,0,0,1,14.58,11.451c4.078,6.174,7.535,12.411,11.274,18.476.884-6.49,1.974-13.644,2.892-20.423.153-1.132.133-2.551,1.358-2.125.778.271.474,1.7.354,2.538-.4,2.8-.849,5.965-1.24,8.5q7.29,8.086,14.639,16.115c2.045-.637,4.008-1.333,6.139-2.007a9.047,9.047,0,0,0,2.007-.649,7.715,7.715,0,0,0,1.18-1.594c1.933-2.8,3.726-5.425,5.667-8.2,1.169-1.675,2.45-2.842,2.833-5.076a19.953,19.953,0,0,1-11.274-5.962c-.88,1.6-1.686,3.272-2.6,4.84.208.477.646,1.166,1,1.83.384.713,1.326,2.641-.3,2.479-.686-.069-1.119-1.292-1.535-2.066-2.842-5.3-5.846-10.9-8.736-16.055a51.574,51.574,0,0,0-5.549-8.618c-2.262-2.607-5.307-4.121-9.5-4.663a9.5,9.5,0,0,1-3.01,7.26,12.441,12.441,0,0,1-6.729,3.482c-6.459,1.14-11.694-2.007-15.878-4.132-3.565,2.2-6.674,4.135-9.208,7.5a25.1,25.1,0,0,0-3.719,8.854c-.307,1.183-.379,2.865-1.358,2.892-.913.025-.95-.863-.649-2.066a50.788,50.788,0,0,1,2.243-7.2c2.484-5.894,7.738-9.032,12.927-12.337,1.88-1.2,3.772-2.4,5.844-3.66a9.2,9.2,0,0,0,1.948-1.181,11.11,11.11,0,0,0,1-2.125c.966-2.077,2.043-4.4,2.951-6.316-3.079-.538-5.294-1.516-6.965-3.424a44.938,44.938,0,0,1-4.427-5.9,13.376,13.376,0,0,1-1.712-3.483,8.931,8.931,0,0,1,.3-4.545,19.535,19.535,0,0,1,2.538-5.253,6.711,6.711,0,0,0,1.062-1.476,13.156,13.156,0,0,0,.177-2.3,12.3,12.3,0,0,1,1.653-5.607c1.677-2.314,4.854-2.984,7.851-3.837a45.585,45.585,0,0,1,9.8-2.125,7,7,0,0,1,6.139,2.6c.688.755,1.281,1.674,2.007,2.361,1.305,1.234,2.93,1.938,3.128,4.191a14.73,14.73,0,0,1-.59,4.368,26.791,26.791,0,0,1,1.181,2.833m-4.014-9.326a15.425,15.425,0,0,1-1.594-1.535c-1.819-2.013-2.63-3.977-6.375-3.719a42.083,42.083,0,0,0-8.913,1.948c-2.579.727-5.774,1.185-7.26,3.365-.923,1.354-1.151,3.418-1.3,5.313a11.492,11.492,0,0,1-.177,2.066,8.037,8.037,0,0,1-1.24,1.83,18.551,18.551,0,0,0-1.18,1.948,12,12,0,0,0-1.594,4.6c-.169,2.226.77,3.4,1.594,4.722.564.9,1.1,1.675,1.712,2.538,1.081,1.523,2.409,3.636,3.955,4.6a13.4,13.4,0,0,0,4.25,1.417,1.985,1.985,0,0,0-.472-.885,4.489,4.489,0,0,1-4.9-3.9,3.336,3.336,0,0,1,4.132-3.482c.068-.653.239-1.035.826-1.063.74-.034,1.151.832,1.653,1.417a6.415,6.415,0,0,0,1.594,1.535c1.347-1.176.339-2.773-.177-4.073-.73-1.84-1.292-3.041-1.948-4.9-.465-1.319-.9-2.8-.3-3.955,1.094-2.088,3.609-2.8,6.08-3.482,1.239-.342,2.568-.719,3.837-.945,1.053-.187,3.081-.343,3.837-1,.826-.723.6-3.239,2.066-3.482,1.96-.325,2.607,2.526,3.483,3.01.44-2.262-.472-2.973-1.594-3.9m3.188,16.941c.157.179.321.494.531.413a17.2,17.2,0,0,0-.708-4.958c-1.143,1.155-.677,3.572.177,4.545m35.062-.885c-.23,3.121-.494,6.543-.708,9.739-.076,1.138.035,2.509-1,2.479-1.017-.029-.835-1.363-.767-2.361.213-3.116.483-6.274.649-9.267a2.815,2.815,0,0,0-1.712,1.476,90.08,90.08,0,0,0-.531,9.445c.048,1.005.291,2.447-.826,2.42-1.645-.039-.608-4.33-.945-5.49a66.17,66.17,0,0,0-.649,11.806c0,1.407.134,2.85.059,4.132a9.617,9.617,0,0,1-1.062,2.774c-2.4,5.758-4.773,11.707-7.2,17.177,2.475,3.172,6.081,5.213,10.92,6.021,1.747-6.513,3.493-13.238,5.253-19.774a17.243,17.243,0,0,1,.767-2.833c.264-.513,1.349-1.042,1.948-1.476a24.333,24.333,0,0,0,5.253-5.076c2.095-2.782,4.115-5.12,5.076-8.736a26.09,26.09,0,0,0-4.191,3.423c-.412.368-1,.976-1.535,1a3.868,3.868,0,0,1-3.01-1.948c-.418-1.22.248-2.931.59-4.25.311-1.2.62-2.393.944-3.483.528-1.775,1.2-3.343,1.771-4.9.188-.513.565-1.12.236-1.653a4.609,4.609,0,0,0-1,1.18c-1.558,2.327-2.99,4.688-4.368,7.142-.419.745-1.026,2.64-2.007,2.6-1.1-.048-.748-1.693-.649-2.538.132-1.139.237-2.2.354-3.188a50.934,50.934,0,0,0,.649-6.257,6.8,6.8,0,0,0-2.3.413m8.854,63.572c-1.2-.908-1.608-2.145-3.128-2.892a12.177,12.177,0,0,0-3.483-.767c-.968-.139-2.74-.139-2.715-1.18.024-1.025,1.192-.826,2.066-.708,2.34.315,4.935.756,6.021,1.771-.036,0-.07-.009-.059-.059-.969-1.795-2.661-3.985-5.135-4.191-1.061-.088-2.448.339-3.07-.059-1.039-.664.307-2.087,1.358-1.653,1.259-1.434,1.69-3.461,2.951-4.9a25.342,25.342,0,0,1,3.542-2.774c.107-.083.488-.114.354-.354a4.316,4.316,0,0,0-1.653-.295c-2.731.139-4.1,2.416-5.372,4.132-3.96,5.355-7.692,10.713-11.452,16.173a12.125,12.125,0,0,1-1.948,2.657,11.625,11.625,0,0,1-2.3.767c-5.508,1.736-10.952,3.617-16.351,5.312-.814,1.274-2.141,2.609-2.3,4.545a9.969,9.969,0,0,0,4.014,9.208c6.521-3.423,13.553-7.158,20.069-10.743a14.062,14.062,0,0,1,2.951-1.476,12.976,12.976,0,0,1,1.358,0c3.642-.265,4.761-3.2,6.08-5.844-1.082.131-1.518-.184-1.594-.649-.221-1.362,1.716-1.169,2.479-1.24,1.149-.107,2.746-.427,2.952.472s-1.017,2.223,0,2.538c.537.167,1.481-.841,1.889-1.18a5.016,5.016,0,0,0,1.535-1.653c-.662-.958-.938-1.887-1.889-2.479a10.2,10.2,0,0,0-2.833-.885c-.876-.218-2.515-.319-2.6-1.181-.162-1.694,2.673-.675,3.66-.413a10.691,10.691,0,0,1,2.833,1.063,6.962,6.962,0,0,1,1.594,1.83c.058.08.178.3.3.236a8.022,8.022,0,0,0-.118-3.129m-1.535-7.319c.491.651,1,1.278,1.476,1.948a6.369,6.369,0,0,1,1.83-2.656c-1.163-.914-2.583-.008-3.306.708m-44.33-.177c-.283,1.673-.512,3.439-.767,5.194a41.193,41.193,0,0,1-1,6.08c1.363,2.081,2.491,4.4,3.9,6.434,3.635-1.147,7.206-2.356,10.861-3.482a38.053,38.053,0,0,0-3.128-3.6c-3.284-3.577-6.512-7.238-9.8-10.743,0-.036-.009-.07-.059-.059Z" transform="translate(-435.709 -255.226)" fill-rule="evenodd"/>
      <path id="Trazado_874344" data-name="Trazado 874344" d="M731.79,421.882c.85-.07,2.869-.42,2.951.767.091,1.3-1.838.873-2.833.945a3.353,3.353,0,0,0-2.892,2.007c-.243.406-.515,1.763-1.417,1.771-1.643.014-.455-2.073.059-2.892a4.562,4.562,0,0,1,4.132-2.6" transform="translate(-600.183 -348.319)" fill-rule="evenodd"/>
      <path id="Trazado_874345" data-name="Trazado 874345" d="M760.839,486.159c.913-.289,1.287.628,2.3,1.062,1.19.509,3.038.008,3.01,1.24-.034,1.473-2.878.672-3.719.3-.866-.388-2.031-.992-2.125-1.653a.738.738,0,0,1,.531-.944" transform="translate(-627.875 -401.44)" fill-rule="evenodd"/>
      <path id="Trazado_874346" data-name="Trazado 874346" d="M849.911,1307.2a14.162,14.162,0,0,0-1.948-.177q-2.229-6.714-4.545-13.34c.52-.248,1.286-.249,1.653-.65,1.659,4.677,3.246,9.426,4.84,14.167" transform="translate(-696.522 -1067.831)" fill-rule="evenodd"/>
      <path id="Trazado_874347" data-name="Trazado 874347" d="M756.383,444.315a1.358,1.358,0,0,1,1.656.972l.461,1.771a1.358,1.358,0,1,1-2.628.684l-.461-1.771a1.358,1.358,0,0,1,.972-1.656" transform="translate(-623.807 -366.893)" fill-rule="evenodd"/>
      <path id="Trazado_874348" data-name="Trazado 874348" d="M982.838,1075.816l-.215.008a2.522,2.522,0,0,0-.623-.076H935.6a4.235,4.235,0,0,0-3.763,3.177l-7.921,31.007a2.766,2.766,0,0,0,.28,2.229,5.609,5.609,0,0,0,4.1,2.728h46.4a4.235,4.235,0,0,0,3.763-3.177l7.921-31.007c.448-1.755-1.919-4.889-3.549-4.889" transform="translate(-762.91 -888.388)" fill-rule="evenodd"/>
      <path id="Trazado_874349" data-name="Trazado 874349" d="M970.5,1111.576H924.1a6.48,6.48,0,0,1-4.878-3.18,3.654,3.654,0,0,1-.364-2.881l7.921-31.007a5.1,5.1,0,0,1,4.621-3.843h46.4a3.477,3.477,0,0,1,.707.072l.1,0c1.485.01,2.714,1.389,3.184,1.993a4.97,4.97,0,0,1,1.256,4l-7.921,31.007a5.1,5.1,0,0,1-4.621,3.843m-39.1-39.141a3.361,3.361,0,0,0-2.905,2.511l-7.921,31.007a1.9,1.9,0,0,0,.162,1.523.875.875,0,0,1,.063.112,4.775,4.775,0,0,0,3.3,2.218h46.4a3.358,3.358,0,0,0,2.905-2.511l7.921-31.007a3.588,3.588,0,0,0-.939-2.476,3.07,3.07,0,0,0-1.738-1.307l-.2.007a1.3,1.3,0,0,1-.25-.026,1.644,1.644,0,0,0-.406-.05Z" transform="translate(-758.708 -884.19)"/>
      <path id="Trazado_874350" data-name="Trazado 874350" d="M996.666,1093.427H956.434a4.235,4.235,0,0,0-3.763,3.177l-6.006,23.51c-.448,1.755.51,3.177,2.14,3.177h40.232a4.235,4.235,0,0,0,3.763-3.177l6.006-23.51c.448-1.755-.51-3.177-2.14-3.177" transform="translate(-781.696 -902.988)" fill="#fff" fill-rule="evenodd"/>
      <path id="Trazado_874351" data-name="Trazado 874351" d="M984.844,1119.977H944.612a3.039,3.039,0,0,1-2.465-1.156,3.594,3.594,0,0,1-.532-3.125l6.006-23.51a5.1,5.1,0,0,1,4.621-3.844h40.232a3.037,3.037,0,0,1,2.464,1.157,3.6,3.6,0,0,1,.534,3.125l-6.006,23.51a5.1,5.1,0,0,1-4.622,3.843m-32.6-29.864a3.36,3.36,0,0,0-2.905,2.512l-6.006,23.51a1.859,1.859,0,0,0,.215,1.6,1.291,1.291,0,0,0,1.067.473h40.232a3.36,3.36,0,0,0,2.907-2.511l6.006-23.51a1.859,1.859,0,0,0-.216-1.6,1.293,1.293,0,0,0-1.067-.473Z" transform="translate(-777.503 -898.789)"/>
      <path id="Trazado_874352" data-name="Trazado 874352" d="M800.113,1283.966H871.9a1.181,1.181,0,0,1,1.181,1.181v3.41a2.952,2.952,0,0,1-2.952,2.952H801.884a2.952,2.952,0,0,1-2.952-2.952v-3.41a1.181,1.181,0,0,1,1.181-1.181" transform="translate(-659.785 -1060.341)" fill-rule="evenodd"/>
      <path id="Trazado_874353" data-name="Trazado 874353" d="M865.932,1288.2H797.687a3.841,3.841,0,0,1-3.837-3.837v-3.41a2.067,2.067,0,0,1,2.066-2.066H867.7a2.068,2.068,0,0,1,2.067,2.066v3.41a3.841,3.841,0,0,1-3.837,3.837m-70.016-7.542a.3.3,0,0,0-.3.3v3.41a2.069,2.069,0,0,0,2.067,2.067h68.245a2.069,2.069,0,0,0,2.067-2.067v-3.41a.3.3,0,0,0-.3-.3Z" transform="translate(-655.588 -1056.146)"/>
      <path id="Trazado_874354" data-name="Trazado 874354" d="M1137.864,1113.5l9.942-.117c1-.011,1.542,1,1.214,2.256l-3.646,13.983a2.941,2.941,0,0,1-2.4,2.3l-9.942.117c-1,.012-1.542-1-1.214-2.256l3.647-13.983a2.941,2.941,0,0,1,2.4-2.3" transform="translate(-934.612 -919.464)" fill="#2b95ff" fill-rule="evenodd"/>
      <path id="Trazado_874355" data-name="Trazado 874355" d="M976.474,1212.007a.738.738,0,0,1-.006-1.476l22.961-.166a.737.737,0,0,1,.011,1.475l-22.961.166h-.006" transform="translate(-805.796 -999.559)" fill="#2b95ff"/>
      <path id="Trazado_874356" data-name="Trazado 874356" d="M984.98,1180.332a.737.737,0,0,1-.006-1.475l7.406-.053a.737.737,0,0,1,.011,1.475l-7.405.053Z" transform="translate(-812.82 -973.495)" fill="#2b95ff"/>
      <path id="Trazado_874357" data-name="Trazado 874357" d="M1074.3,1179.687a.738.738,0,0,1-.006-1.476l7.406-.053a.737.737,0,0,1,.011,1.475l-7.405.053h-.006" transform="translate(-886.583 -972.961)" fill="#2b95ff"/>
      <path id="Trazado_874358" data-name="Trazado 874358" d="M1040.429,1180.25a.737.737,0,0,1-.006-1.475l3.113-.023a.737.737,0,0,1,.011,1.475l-3.113.023Z" transform="translate(-858.612 -973.452)" fill="#2b95ff"/>
      <path id="Trazado_874359" data-name="Trazado 874359" d="M993.239,1148.566a.737.737,0,0,1-.006-1.475l22.961-.167a.737.737,0,1,1,.011,1.475l-22.961.167Z" transform="translate(-819.641 -947.167)" fill="#2b95ff"/>
      <path id="Trazado_874360" data-name="Trazado 874360" d="M1001.922,1117.011a.738.738,0,0,1-.006-1.476l4.893-.035a.737.737,0,1,1,.011,1.475l-4.894.035h-.006" transform="translate(-826.812 -921.216)" fill="#2b95ff"/>
      <path id="Trazado_874361" data-name="Trazado 874361" d="M1057.117,1116.328a.737.737,0,0,1-.006-1.475l13.316-.1a.737.737,0,0,1,.011,1.475l-13.316.1Z" transform="translate(-872.393 -920.603)" fill="#2b95ff"/>
      <path id="Trazado_874362" data-name="Trazado 874362" d="M971.405,1237.771a.737.737,0,0,1,0-1.475l34.476-.177a.737.737,0,1,1,.007,1.475l-34.476.177Z" transform="translate(-801.61 -1020.827)" fill="#2b95ff"/>
      <path id="Trazado_874363" data-name="Trazado 874363" d="M477.035,777.746c.416-.971-1.794-1.268-3.837-1.535s-5.063.482-8.914,3.306-13.7,12.279-13.7,12.279l-7.911,2.048,1.595-.455a14.9,14.9,0,0,0,4.6-3.778c1.684-2.3,2.538-8.147,2.538-8.147l5.313-5.136c.91-.88-1.181-2.538-1.181-2.538s4.49-.7,5.254-.827.46-1.3.354-2.716-3.365-1.535-3.365-1.535a15.316,15.316,0,0,0-8.088-2.125c-4.822.062-5.112,4.735-7.2,8.8s-4.9,11.571-4.9,11.571l-11.418,2.561c-2.708-7.056-6.688-17.248-9.422-23.459-5.525-12.554-11.925-10.1-11.925-10.1a20.225,20.225,0,0,1-2.6-2.952c-1.229-1.721,3.306-10.921,3.306-10.921a16.946,16.946,0,0,0,5.254-.236c3.585-.565,5.726-7.793,5.726-7.793s1.714-3.042,1.476-4.427c-.179-1.041-.523-.346-2.479-1.358s-1.594-5.549-1.594-5.549,2.473-2.776,2.716-4.959-8.682-6.078-13.932-7.616-11.335,1.417-11.335,1.417a81.856,81.856,0,0,1-7.32-5.254c-2.719-2.323-6.8-.371-11.453,2.125s-2.347,11.51-.708,13.7,9.623,1.83,9.623,1.83-.129,2.269-.118,6.022a28.3,28.3,0,0,0,1.594,8.088s-3.221,5.4-5.2,7.911-7.362,3.054-10.331,5.844-.177,10.98-.177,10.98-5.472,1.851-6.612,5.726-1.554,7.437,2.657,10.8,9.977,2.716,9.977,2.716a27.575,27.575,0,0,1-3.129,7.734A11.542,11.542,0,0,0,369,798.644L357.017,816.65l46.874.118-4.782-13.932,4.132-5.254a17.1,17.1,0,0,0,3.424.413,4.779,4.779,0,0,0,3.011-.708s8.876,14.668,12.4,16.235,9.1.382,13.637-1.889,18.714-10.8,18.714-10.8.682.526,4.133.177,9.977-7.438,9.977-7.438,3.735,3.667,5.431,3.719.826-2.657.826-2.657a10.813,10.813,0,0,0,2.184-2.893c.314-1.062-.831-4.881-2.893-7.674s-6.848-1.3-6.848-1.3l2.775-2.657s6.609-1.39,7.025-2.361" transform="translate(-294.836 -582.438)" fill="#fff" fill-rule="evenodd"/>
      <path id="Trazado_874364" data-name="Trazado 874364" d="M412.92,735.9a37.465,37.465,0,0,0,6.73-4.6c2.307-2.236,6.671-9.209,6.671-9.209a8.394,8.394,0,0,1,2.834,2.361c1.084,1.521,2.657,3.483,2.657,3.483s3.933-4.774,2.3-6.966A20.794,20.794,0,0,0,419.65,713c-7.751-.575-11.748,1.889-11.748,1.889a10.5,10.5,0,0,0-10.449-4.192c-6.77,1.338-9.228,1.09-9.387,6.435s-.028,9.226,2.775,9.741,8.5.945,8.5.945.6,6.905.945,8.914a49.342,49.342,0,0,1,.472,5.077s-3.969,7.821-7.851,9.268-7.8,3.029-8.324,5.786.472,9.386.472,9.386a9.94,9.94,0,0,0-5.077,3.66c-1.712,2.692-2.984,11.419,1.889,13.814a21.063,21.063,0,0,0,9.554,2.111l20.259-35.643,2.066-7.2a5.6,5.6,0,0,1-4.251-2.007c-1.991-2.187-1.151-3.784.438-4.259s2.986-.818,2.986-.818" transform="translate(-312.535 -586.742)" fill-rule="evenodd"/>
      <path id="Trazado_874365" data-name="Trazado 874365" d="M392.457,937.516l9.209,1.181s-3.01,4.445-1.594,5.844,2.125,2.125,2.125,2.125,7.746.282,11.276,9.21,11.216,25.385,11.216,25.385l8.442-2.066a4.5,4.5,0,0,1,2.952,2.3,15.907,15.907,0,0,1,1.181,3.483h6.494a6.594,6.594,0,0,1,2.952,4.6,22.962,22.962,0,0,1-.591,6.494s-12.4,6.665-15.054,8.088a11.967,11.967,0,0,1-11.217.531c-4.915-2.137-12.1-16.058-12.1-16.058a13.464,13.464,0,0,1-3.542,1,7.135,7.135,0,0,1-2.538-.413l-4.546,5.018,5.313,14.877-48.468-.236,13.106-19.364s-3.629-3.442,2.125-11.984,23.26-40.026,23.26-40.026" transform="translate(-292.317 -774.231)" fill="#fff" fill-rule="evenodd"/>
      <path id="Trazado_874366" data-name="Trazado 874366" d="M475.207,776.661a8.364,8.364,0,0,0-3.424-.649c-4.3-.189-6.307,1.832-8.736,3.778-3.946,3.162-7.4,6.321-11.215,9.8a11.81,11.81,0,0,1-2.184,2.007,15.253,15.253,0,0,1-2.538.708c-5.97,1.532-12.044,3.1-18,4.663.01.618-.162,1.237-.767,1.3-.881.09-1.131-1.145-1.476-2.007-4.3-10.756-8.324-21.37-13.1-31.757a31.179,31.179,0,0,0-2.361-4.545,10.858,10.858,0,0,0-3.66-2.892,12.623,12.623,0,0,0-4.84-1.712,10.043,10.043,0,0,0-3.483.472c-.989.271-2.316.992-2.951.827a.832.832,0,0,1-.649-.767c-.042-.976,1.535-1.248,2.243-1.476a15.2,15.2,0,0,1,2.952-.708c-.24-.525-.935-.991-1.063-1.712-.308-1.733,1.046-3.53,1.3-4.9-2.563-.408-5.268-.675-7.851-1.063-4.773,7.984-9.388,16.233-14.049,24.438a190.32,190.32,0,0,0-9.74,19.125,12.605,12.605,0,0,0-1.18,6.08,4.3,4.3,0,0,1-1.358,4.663c-3,4.688-6.06,9.238-9.149,14.049-.464.723-1,2.066-1.771,2.066a.8.8,0,0,1-.826-.708c-.136-.69.762-1.683,1.24-2.42,2.995-4.625,5.774-8.853,8.795-13.518a11.811,11.811,0,0,0,1.417-2.3,12.638,12.638,0,0,0-.118-2.479c-.031-5.746,3.012-8.9,4.6-13.222-2.962-.084-5.451-.307-7.5-1.24a9.331,9.331,0,0,1-4.25-4.427,12.294,12.294,0,0,1-1.121-7.26c.744-3.933,2.734-6.915,7.083-7.319-.973-3.44-2.149-8.774.059-11.392,2.155-2.555,6.733-2.887,9.5-4.9a14.5,14.5,0,0,0,3.306-3.9c.7-1.044,1.387-2.129,2.066-3.364a5.144,5.144,0,0,0,.59-1.181,6.965,6.965,0,0,0-.295-1.535,69.959,69.959,0,0,1-1.24-11.392c-3.7-.3-6.784-.553-8.913-2.066-2.084-1.481-2.972-4.688-2.833-8.146a8.026,8.026,0,0,1,4.014-6.965,14.479,14.479,0,0,1,8.913-2.066,11.642,11.642,0,0,1,5.076,2.007,38.654,38.654,0,0,1,4.132,2.892,19.855,19.855,0,0,1,7.792-1.83,23.778,23.778,0,0,1,14.521,4.722c1.654,1.271,4.079,3.047,3.778,5.844a6.925,6.925,0,0,1-1.063,2.656A6.139,6.139,0,0,1,413.287,723c.44.8.452,1.364.885,2.243.273.555.784,1.7,1.24,1.83.847.234,2.147-.579,2.184.709.042,1.459-2.784,1.136-3.542.531-1.012-.807-1.629-2.824-2.243-4.368a8.9,8.9,0,0,0-4.25-5.136,7.562,7.562,0,0,0-.885,1.3c.9,0,2.686-.26,2.774.826.118,1.455-2.252.759-3.01,1a6.3,6.3,0,0,0-2.184,1.712c-.681.761-1.174,1.646-1.83,2.42-1.841,2.172-4.764,3.864-7.32,5.254a1.088,1.088,0,0,1,.413,1.063c-.365,1.505-2.97-.24-4.368.059-.707.151-1.051,1.087-.944,1.948a3.068,3.068,0,0,0,1.593,2.125,10.853,10.853,0,0,0,2.42.472c1.04.084,1.94-.085,2.007.827.045.615-.47.645-.708,1.121a9.036,9.036,0,0,0-.354,1.358c-.358,1.315-.685,2.66-1.062,4.014,2.51.441,5.213.69,7.792,1.063.6-1.192,1.052-2.529,1.653-3.719-.66-.547-3.482-.744-3.482-2.007,0-1.58,1.978-.451,2.892-.118,2.077.756,5.28,1.433,7.5.236,1.867-1.008,2.991-2.95,3.542-5.49.217-1,.54-2.532,1.653-1.712.744.548-.236,3.516-.472,4.132a9.022,9.022,0,0,1-2.007,3.129c-1.716,1.907-4.243,2.748-7.792,2.184a57.661,57.661,0,0,0-2.952,6.965,7.216,7.216,0,0,0-.708,2.538c.108.908,1.9,2.016,2.715,2.361s1.662.505,2.42.826a14.326,14.326,0,0,1,5.785,3.955c1.464,1.874,2.5,4.712,3.542,7.024,3.245,7.229,6.255,14.816,9.267,22.312,3.064-1.2,7.116-1.971,10.507-3.01,2.042-4.648,4.226-10.426,6.611-15.17.722-1.435,1.665-3.515,2.774-4.427,2.013-1.655,6.877-.97,9.267.118a4.649,4.649,0,0,1,1.3.826c1.4.291,3,.534,3.9,1.594,1.216,1.438.7,4.53-1.121,5.017-.852.228-1.731-.01-2.656.354.128.466.646.917.59,1.653-.088,1.163-1.924,2.393-2.833,3.129-1.246,1.008-2.342,1.827-3.305,2.6-.539,3.849-1.126,7.649-3.365,9.8.485-.22,1.078-.157,1.653-.413a7.407,7.407,0,0,0,1.476-1.3,126.208,126.208,0,0,1,10.153-9.09c1.881-1.521,3.909-3.471,6.375-4.6a10.606,10.606,0,0,1,4.663-.826c2.042.086,5.487.167,5.608,2.3a3.04,3.04,0,0,1-1.83,2.538c-1.6.75-4.1.5-5.726,1-.7.216-1.087.811-1.653,1.181,2.381-.162,4.654-.128,5.962,1.121a8.853,8.853,0,0,1,1.889,3.6,11.723,11.723,0,0,1,.826,4.6,7.376,7.376,0,0,1-1.948,3.955c-.067,1.375-.718,2.73-1.771,2.774-.9.038-2.006-1.121-2.656-1.712-.293-.267-.616-.6-1.121-1.063-.2-.183-.839-1.112-1.062-1.121-.134-.006-.873.873-1.181,1.181a27.749,27.749,0,0,1-6.67,5.135,8.018,8.018,0,0,1-4.958,1.358,11.631,11.631,0,0,0-1.358-.177,7.2,7.2,0,0,0-1.653.885c-5.77,3.374-11.429,6.76-17.472,9.8a19.592,19.592,0,0,1-7.5,2.42c-4.04.251-7.987-.789-10.035-2.775a19.769,19.769,0,0,1-2.42-3.306c-2.318-3.535-4.223-6.875-6.552-10.566a7.227,7.227,0,0,1-3.719.354,6.744,6.744,0,0,0-1.594-.236c-.345.064-.865.724-1.181,1.063-1.13,1.211-2.129,2.356-3.188,3.542,1.671,4.824,3.428,9.442,5.135,14.285.265.75.354,1.706-.531,1.771-.769.057-1.018-.81-1.3-1.594-1.551-4.332-2.977-8.307-4.545-12.632a6.522,6.522,0,0,1-.649-2.184c.062-.529.905-1.226,1.3-1.653,1.01-1.094,1.8-1.885,2.833-3.01.471-.515,1-1.323,1.476-1.417a9.441,9.441,0,0,1,2.538.3,4.934,4.934,0,0,0,2.479-.118q-4.438-7.545-8.913-15.052c-1.212-.184-3.085.349-3.188-.827-.1-1.135.963-.979,1.948-.944a9.418,9.418,0,0,1,2.066.059c.54.195.942,1.223,1.3,1.83,4.347,7.4,8.435,14.229,12.927,21.486.746,1.2,1.544,2.528,2.42,3.837a25.947,25.947,0,0,0,2.538,3.719c1.943,1.943,6.316,2.863,10.094,2.125,3.456-.675,6.137-2.317,8.854-3.778,4.673-2.512,9.38-5.315,14.108-8.028a8.225,8.225,0,0,1,2.007-1.121c.9-.135,2.217.3,3.306.177a10.424,10.424,0,0,0,3.424-1.594,26.272,26.272,0,0,0,6.434-5.371c.447-.491.747-1.041,1.3-1.062.974-.037,1.818,1.46,2.42,2.007.866.787,1.493,1.355,2.361,2.066.548-1.558-.729-2.689-1.476-3.66-.643-.836-1.859-2.439-2.951-2.656a6.941,6.941,0,0,0-3.423.59c-.989.358-2.218,1.256-2.893.767a1.218,1.218,0,0,1-.354-.649c-.046-.934,1.9-1.523,2.774-1.83,1.493-.526,3.38-1,4.84-.413,2.192.88,3.4,3.221,4.722,5.017.285-.61.765-1.008.768-1.653a3.984,3.984,0,0,0-.59-1.417c-.561-1.085-1.418-2.808-2.6-3.306-1.281-.541-3.4-.15-4.9.059-1.263.176-4.026,1.089-4.073-.3-.043-1.27,3.157-1.373,4.427-1.535,2.722-.346,5.548-.424,6.729,1.3.048.011.059.059.118.059-.646-1.415-1.041-2.573-2.834-2.774a20.477,20.477,0,0,0-5.076.236c-.959.162-3.794,1.262-3.837-.177-.033-1.13,1.368-.924,2.3-1.3a12.446,12.446,0,0,0,2.243-1.653,8.7,8.7,0,0,1,2.184-1.653c2.108-.737,5.452,0,6.493-1.771m-96.215-70.243c-5.258.333-9.577,2.414-9.563,8.087,0,1.736.494,4.363,1.771,5.608,1.723,1.68,5.323,1.691,8.323,2.007.554-6.175,4.365-9.093,8.559-11.628-2.179-1.777-5.362-4.309-9.09-4.073m35.239,11.392c0-1.675-1.737-2.861-2.715-3.66a18.317,18.317,0,0,0-3.9-2.479A22.947,22.947,0,0,0,397,709.487a18.529,18.529,0,0,0-8.559,2.833c-3.466,2.026-6.705,4.786-7.083,9.621a49.186,49.186,0,0,0,1,12.75,8.936,8.936,0,0,1,.413,2.42,4.586,4.586,0,0,1-.59,1.3c-1.531,2.836-3.4,5.934-5.608,7.851a16.7,16.7,0,0,1-5.076,2.6c-1.829.662-4.016,1.405-4.9,2.833s-.6,4.159-.3,5.785c.128.69.345,1.6.59,2.538.226.866.751,1.957.531,2.538-.214.566-1.583.683-2.42.885a9.06,9.06,0,0,0-2.42.885,6.673,6.673,0,0,0-1.948,2.952c-1.789,4.485.406,9.724,3.423,11.451,2.07,1.184,5.092,1.183,8.087,1.417,3.079-6.182,6.494-12.091,9.916-18,2.561-4.425,5.053-8.971,7.615-13.34.861-1.468,1.843-2.917,2.6-4.427.016-.032-.013-.085,0-.118.684-1.774.913-3.816,1.535-5.549-3.226.057-6.224-2.672-5.194-5.844.2-.605.695-1.079.885-1.594a15.544,15.544,0,0,1-.885-7.26c.1-1.044.084-2.207,1.062-2.184.9.021.808.953.708,1.771a13.766,13.766,0,0,0,.826,7.142,6.354,6.354,0,0,1,1.239.059c3.241-1.849,6.767-3.4,9.326-6.729a86.577,86.577,0,0,0,4.84-7.2c.484-.789.988-2.18,1.889-2.125,1.523.094.246,2.163-.059,2.6,1.949.727,3.008,2.344,4.014,4.014.655-1.117,1.773-2.044,1.771-3.542m34.059,48.521c-1.911.149-2.356,1.228-3.128,2.6a132.906,132.906,0,0,0-6.788,14.875c-.372.906-.616,2.1-1.122,2.538a8.406,8.406,0,0,1-2.715.827c-1.04.288-1.919.537-2.774.767a45.728,45.728,0,0,1-5.726,1.417c.71,2.045,1.573,3.937,2.3,5.962,4.356-1.072,8.627-2.219,12.868-3.305a13.265,13.265,0,0,0,1.889-.472,6.67,6.67,0,0,0,1.121-.885,10.667,10.667,0,0,0,2.951-3.187,20.8,20.8,0,0,0,1.358-5.667,9.047,9.047,0,0,1,.354-2.007c.2-.447.987-.87,1.476-1.239a29.115,29.115,0,0,0,4.427-3.837c-.3-.332-.68-1-1.3-1.063a7.332,7.332,0,0,0-2.125.59c-1.391.474-2.586.994-3.9,1.535-.944.39-2.754,1.261-2.715-.236.017-.671.626-.757,1.122-1.062.334-1.157.61-2.144,1-3.424.247-.805.583-2.8,1.417-3.069a4.709,4.709,0,0,1,1.652.059c1.684.187,3.587.634,4.959,0-1.274-1.3-4.155-1.9-6.611-1.712m8.618,2.007c-.694,2.609-4.957,1.851-7.674,1.535a33.28,33.28,0,0,0-1.181,3.778c1.47-.423,3.086-1.489,5.017-1.712,1.109-.128,1.782-.228,2.774-.413,1.475-.275,2.479-.2,2.951-1.24-.024-1.255-.861-1.7-1.889-1.948" transform="translate(-293.425 -581.878)" fill-rule="evenodd"/>
      <path id="Trazado_874367" data-name="Trazado 874367" d="M651.51,855.682a3.62,3.62,0,0,0,1.3,2.007c.32.3.836.529.826,1.122a.817.817,0,0,1-.65.826c-.962.172-1.986-1.231-2.479-1.948a6.188,6.188,0,0,1-.944-3.423c.016-.916.421-1.936,1.535-1.594.823.253,1.373,1.586,1.948,2.007,1.012.741,2.881,1.09,3.01,1.948.282,1.875-2.227.518-2.774.236a11.814,11.814,0,0,1-1.771-1.181" transform="translate(-536.429 -704.108)" fill-rule="evenodd"/>
      <path id="Trazado_874368" data-name="Trazado 874368" d="M563.365,871.736c.772-.227,3.283-.216,3.246.767-.026.7-.67.683-1.535.65-1.007-.039-2.226.2-2.3-.65-.051-.566.229-.66.59-.767" transform="translate(-464.753 -719.808)" fill-rule="evenodd"/>
      <path id="Trazado_874369" data-name="Trazado 874369" d="M857.845,1217.481a.886.886,0,0,1-.213-1.745c1.309-.326,2.413-2.912,1.906-6.1a6.5,6.5,0,0,0-2.236-4.334,1.518,1.518,0,0,0-1.217-.276.885.885,0,1,1-.427-1.718,3.246,3.246,0,0,1,2.622.517,8.149,8.149,0,0,1,3.007,5.534c.625,3.935-.793,7.491-3.229,8.1a.874.874,0,0,1-.215.027" transform="translate(-706.076 -993.654)"/>
      <path id="Trazado_874370" data-name="Trazado 874370" d="M800.748,1179.179a.885.885,0,0,1-.883-.836,9.915,9.915,0,0,0-.3-1.912,6.51,6.51,0,0,0-2.642-4.109,1.5,1.5,0,0,0-1.235-.157.886.886,0,1,1-.591-1.67,3.251,3.251,0,0,1,2.657.264,8.157,8.157,0,0,1,3.526,5.231,11.678,11.678,0,0,1,.353,2.256.885.885,0,0,1-.835.933h-.05" transform="translate(-656.13 -966.49)"/>
      <path id="Trazado_874371" data-name="Trazado 874371" d="M647.651,815.549a1.358,1.358,0,0,1,1.656.972l.461,1.771a1.358,1.358,0,0,1-2.628.684l-.461-1.771a1.358,1.358,0,0,1,.972-1.656" transform="translate(-534.012 -673.471)" fill-rule="evenodd"/>
      <path id="Trazado_874372" data-name="Trazado 874372" d="M133.058,1327.607H396.238a4.25,4.25,0,0,1,0,8.5H133.058a4.25,4.25,0,1,1,0-8.5" transform="translate(-106.373 -1096.381)" fill="#fff" fill-rule="evenodd"/>
      <path id="Trazado_874373" data-name="Trazado 874373" d="M392.037,1332.8H128.857a5.135,5.135,0,1,1,0-10.271h263.18a5.135,5.135,0,1,1,0,10.271m-263.18-8.5a3.365,3.365,0,0,0,0,6.731h263.18a3.365,3.365,0,0,0,0-6.731Z" transform="translate(-102.172 -1092.187)"/>
      <path id="Trazado_874374" data-name="Trazado 874374" d="M281.361,795.8l8.136,8.155-1.846,1.851-8.137-8.155Z" transform="translate(-230.832 -657.195)" fill="#2b95ff" fill-rule="evenodd"/>
      <path id="Trazado_874375" data-name="Trazado 874375" d="M287.651,796.128l1.846,1.851-8.136,8.155-1.847-1.851Z" transform="translate(-230.832 -657.468)" fill="#2b95ff" fill-rule="evenodd"/>
      <rect id="Rect치ngulo_401251" data-name="Rect치ngulo 401251" width="12.584" height="16.636" transform="translate(55.351 44.627)" fill="#fff"/>
      <path id="Trazado_874376" data-name="Trazado 874376" d="M261.48,223.651a2.02,2.02,0,0,1-1.877-1.262c-.123-.3-2.945-7.374.1-13.495a13.078,13.078,0,0,1,6.509-6.066,10.972,10.972,0,0,1,.735-5.8c2.107-4.7,6.072-5.429,10.663-6.275,1.5-.276,3.043-.56,4.721-1.009,4.03-1.078,3.323-6.586,3.292-6.82a2.031,2.031,0,0,1,1.712-2.3,2.148,2.148,0,0,1,.291-.02,2.017,2.017,0,0,1,2.01,1.729c.478,3.211-.214,9.712-6.256,11.329-1.811.485-3.51.8-5.008,1.075-4.193.773-6.488,1.2-7.721,3.948a6.4,6.4,0,0,0-.477,2.819,11.651,11.651,0,0,1,2.4-.266,7.2,7.2,0,0,1,5.537,2.247,6.05,6.05,0,0,1,1.309,6.068,4.907,4.907,0,0,1-4.094,3.257,5.808,5.808,0,0,1-.761.051,7.316,7.316,0,0,1-5.735-3.316,13.214,13.214,0,0,1-1.541-2.727,8.9,8.9,0,0,0-3.953,3.874c-2.216,4.441,0,10.11.02,10.167a2.032,2.032,0,0,1-1.116,2.64,2,2,0,0,1-.765.15m9.639-18.2a8.961,8.961,0,0,0,.965,1.668c.378.506,1.379,1.684,2.5,1.684a1.713,1.713,0,0,0,.216-.014.908.908,0,0,0,.816-.62,2.014,2.014,0,0,0-.486-1.944,3.291,3.291,0,0,0-2.555-.928,7.456,7.456,0,0,0-1.45.155" transform="translate(-213.309 -149.151)"/>
      <path id="Trazado_874377" data-name="Trazado 874377" d="M283.759,177.532a1.2,1.2,0,0,1,1.2,1.028c.44,2.961-.175,8.947-5.656,10.414-1.791.479-3.48.791-4.971,1.065-4.294.791-6.886,1.269-8.3,4.416a7.84,7.84,0,0,0-.463,4.182l.219-.059a11.428,11.428,0,0,1,2.921-.413,6.408,6.408,0,0,1,4.931,1.98,5.223,5.223,0,0,1,1.142,5.232,4.109,4.109,0,0,1-3.431,2.723,4.925,4.925,0,0,1-.652.044,6.523,6.523,0,0,1-5.077-2.986,12.794,12.794,0,0,1-1.756-3.363,10.028,10.028,0,0,0-5.131,4.635c-2.388,4.787-.03,10.782-.006,10.842a1.207,1.207,0,0,1-2.235.909c-.116-.284-2.8-7.029.077-12.818a12.481,12.481,0,0,1,6.678-5.931,10.439,10.439,0,0,1,.582-5.964c1.929-4.3,5.518-4.965,10.062-5.8,1.516-.279,3.084-.568,4.784-1.023,4.77-1.276,3.9-7.664,3.892-7.728a1.209,1.209,0,0,1,1.019-1.371,1.232,1.232,0,0,1,.171-.012m-13.05,28.2a2.482,2.482,0,0,0,.322-.021,1.72,1.72,0,0,0,1.483-1.155,2.827,2.827,0,0,0-.653-2.779,4.077,4.077,0,0,0-3.161-1.2,9.007,9.007,0,0,0-2.291.33l-.271.074a10.344,10.344,0,0,0,1.419,2.731c.562.752,1.719,2.015,3.153,2.015m13.05-29.841a2.846,2.846,0,0,0-2.815,3.268c.025.189.629,5.01-2.692,5.9-1.639.439-3.173.721-4.657.994-4.619.851-8.982,1.655-11.264,6.746a11.518,11.518,0,0,0-.862,5.644,13.717,13.717,0,0,0-6.369,6.191c-3.209,6.447-.254,13.858-.127,14.17a2.85,2.85,0,0,0,5.28-2.146c-.017-.044-2.083-5.412-.047-9.492a7.781,7.781,0,0,1,2.849-3.076,13.435,13.435,0,0,0,1.251,2.054,8.109,8.109,0,0,0,6.394,3.646,6.588,6.588,0,0,0,.87-.058,5.778,5.778,0,0,0,4.757-3.791,6.881,6.881,0,0,0-1.474-6.9,8.008,8.008,0,0,0-6.143-2.514,11.689,11.689,0,0,0-1.555.107,4.843,4.843,0,0,1,.379-1.5c1.006-2.245,2.609-2.645,7.095-3.472,1.525-.281,3.246-.6,5.1-1.094,6.6-1.767,7.371-8.781,6.856-12.243a2.834,2.834,0,0,0-2.823-2.43M268.53,202.226l.17,0a2.5,2.5,0,0,1,1.949.662,1.221,1.221,0,0,1,.32,1.108.232.232,0,0,1-.027.056.542.542,0,0,1-.129.031.814.814,0,0,1-.1.006,2.888,2.888,0,0,1-1.837-1.354c-.118-.158-.233-.328-.343-.506" transform="translate(-209.44 -145.254)" fill="#fff"/>
      <path id="Trazado_874378" data-name="Trazado 874378" d="M507.984,269.5l-5.49-1.471,4.019-4.019c.013.044,1.471,5.49,1.471,5.49M502.6,268l5.313,1.423-1.424-5.313Z" transform="translate(-414.976 -218.03)" fill="#ba9bc9"/>
      <path id="Trazado_874379" data-name="Trazado 874379" d="M504.418,266.732a.8.8,0,0,1-.206-.027l-5.4-1.447a.8.8,0,0,1-.357-1.331l3.954-3.954a.795.795,0,0,1,1.33.356l1.448,5.4a.8.8,0,0,1-.768,1m-3.864-2.655,2.739.733-.734-2.739Z" transform="translate(-411.448 -214.5)" fill="#2b95ff"/>
      <path id="Trazado_874380" data-name="Trazado 874380" d="M281.79,51.537a5.994,5.994,0,1,1-5.994,5.994,5.994,5.994,0,0,1,5.994-5.994" transform="translate(-227.761 -42.56)" fill="#2b95ff" fill-rule="evenodd"/>
    </g>
  </g>
</svg>
